<?xml version="1.0" standalone="no"?>
<!DOCTYPE svg PUBLIC "-//W3C//DTD SVG 1.1//EN" "http://www.w3.org/Graphics/SVG/1.1/DTD/svg11.dtd" >
<svg xmlns="http://www.w3.org/2000/svg" xmlns:xlink="http://www.w3.org/1999/xlink" version="1.1">
<metadata></metadata>
<defs>
<font id="beccamedium" horiz-adv-x="704" >
<font-face units-per-em="2048" ascent="1638" descent="-410" />
<missing-glyph horiz-adv-x="860" />
<glyph horiz-adv-x="0" />
<glyph unicode="&#xd;" horiz-adv-x="681" />
<glyph unicode=" "  horiz-adv-x="860" />
<glyph unicode="&#x09;" horiz-adv-x="860" />
<glyph unicode="&#xa0;" horiz-adv-x="860" />
<glyph unicode="!" horiz-adv-x="401" d="M20 332q0 16 35 53q49 51 97.5 30.5t48.5 -93.5q0 -45 -13.5 -62.5t-46.5 -17.5q-35 0 -78 31.5t-43 58.5zM70 639q0 12 104 270q12 31 16.5 85.5t4.5 195.5q0 166 4 203t20 49q35 25 62.5 10.5t56.5 -72.5q23 -47 31 -82.5t10 -117.5q8 -162 -34 -301.5t-118 -206.5 q-33 -29 -51 -37t-53 -8q-53 0 -53 12z" />
<glyph unicode="#" horiz-adv-x="1181" d="M25 1042q8 31 50 48.5t103 17.5q66 0 80 14q14 16 13 62.5t-17 87.5q-29 66 16 117q41 49 113 -12.5t88 -159.5q8 -53 23.5 -68.5t58.5 -15.5q51 0 75.5 26.5t33.5 87.5q2 6 8 72.5t15.5 111t21.5 56.5q23 29 66.5 13.5t66.5 -58.5q16 -27 22 -148l6 -118l39 -19 q43 -20 38 -50t-52 -54q-88 -43 -29 -58q27 -6 86 -10q90 -4 147.5 -23.5t63.5 -48.5q0 -4 -4 -9t-19.5 -9t-39 -9t-64.5 -12q-172 -27 -220 -43t-48 -47q-2 -20 -18 -67q-18 -47 -47 -145.5t-35 -137.5t-21 -57q-14 -16 -66.5 -15.5t-66.5 17.5q-20 27 -20 84t20 125 q14 47 20.5 86t4.5 62.5t-15 23.5q-18 0 -57 -27.5t-57 -52.5q-20 -33 -29 -123q-8 -80 -22.5 -102.5t-53.5 -14.5q-72 16 -100.5 53t-18.5 107q4 35 -2 45t-43 31q-47 27 -61.5 47t-5.5 53q6 27 43 47.5t75 20.5q27 0 50.5 22.5t15.5 42.5q-8 18 -74 19q-90 0 -131 29.5 t-26 84.5zM494 937q2 -22 18 -22q25 0 55.5 22t26.5 36q-4 23 -36 24.5t-50 -20.5q-16 -18 -14 -40z" />
<glyph unicode="$" horiz-adv-x="944" d="M20 1081q0 106 142 176l82 37v121q0 121 10 144q8 16 42 19t62 -11q47 -27 48 -152q0 -37 6 -54.5t22 -33.5q23 -20 34 -22t42 8q49 16 80 43q37 29 47 28q10 0 94 -47q102 -61 116.5 -102t-50.5 -96l-54 -43v-90q0 -66 5.5 -81.5t39.5 -41.5q135 -104 136 -152 q0 -29 -31 -53.5t-78 -32.5q-41 -8 -54 -21.5t-22 -54.5q-14 -57 -41.5 -59t-97.5 51q-33 25 -86 30t-68 -16q-6 -6 -32.5 -99t-34.5 -99q-16 -12 -61.5 17.5t-55.5 58.5q-12 29 -12 90q0 59 -21 90q-18 31 -18 77t18 81q35 66 14.5 102.5t-104.5 64.5q-119 39 -119 123z M430 803q0 -45 14.5 -62.5t51.5 -17.5t52 15t15 50q0 41 -17.5 54.5t-64.5 13.5h-51v-53zM430 1085.5q4 -49.5 29 -71.5q43 -41 73.5 -22.5t30.5 85.5q0 62 -14 77t-52 15t-53 -14q-18 -20 -14 -69.5z" />
<glyph unicode="%" horiz-adv-x="1488" d="M20 1149q-2 43 13 96q57 197 225 199q27 2 39 9t25 30q23 35 55.5 42t103.5 -12q190 -47 428 23q125 37 168 -6q14 -14 19.5 -39t5.5 -90v-141q2 -31 -53.5 -146t-96.5 -168q-35 -45 -135 -153q-225 -246 -518 -580q-23 -27 -39 -36t-41 -9q-66 0 -69 55q-4 43 6 69.5 t51 74.5q326 375 467 530q113 125 197.5 262t84.5 191q0 29 -5 32.5t-33 -2.5q-57 -10 -103 -14q-63 -8 -75.5 -25.5t5.5 -78.5q16 -57 8 -90t-55 -85q-49 -55 -129 -103t-168 -75t-129 -23.5t-129 42.5q-55 25 -68.5 38t-27.5 60q-25 80 -27 123zM199.5 1156 q-9.5 -83 13.5 -105q14 -16 76.5 -13.5t118.5 23.5q66 25 118 82q86 92 58 129q-33 39 -103 -15q-35 -25 -58 -23.5t-50 32.5q-18 20 -69.5 23t-65.5 -15q-29 -35 -38.5 -118zM831 487q-18 51 21 166t90 156q33 23 70 22q57 0 76.5 -55t-21.5 -110q-27 -37 -27 -74 q0 -25 5.5 -31t23.5 -6q25 0 84 36t102 75q27 27 33 43t6 65q0 47 -7 67.5t-36 53.5q-35 41 -39.5 57.5t13.5 32.5q14 16 33.5 11t72.5 -42q174 -123 127 -301q-18 -68 -45 -99.5t-110 -80.5q-90 -55 -143.5 -73.5t-119.5 -18.5q-63 0 -129.5 34t-79.5 72z" />
<glyph unicode="&#x26;" horiz-adv-x="870" d="M31 1278q25 47 167 119.5t212 72.5q31 0 70.5 30t70.5 77q37 55 61.5 58t59.5 -42q59 -76 14 -196q-16 -51 -16 -84q0 -23 9 -29t54 -10q53 -6 85 -35t32 -70q0 -31 -15.5 -45t-62.5 -26q-41 -10 -71.5 -29.5t-30.5 -33t28 -56.5q33 -49 29 -98.5t-47 -137.5 q-49 -94 -76 -194q-23 -84 -42 -101.5t-66 5.5q-55 25 -67.5 68.5t5.5 131.5q20 98 15 111q-6 16 -84 10t-132 19q-57 25 -77.5 57.5t-12.5 87.5q4 39 0 53.5t-24 34.5q-59 53 -85 131t-3 121zM226 1186.5q-3 -19.5 36 -37.5q27 -12 43.5 -11t63.5 17q61 25 92.5 54.5 t19.5 52.5q-35 57 -207 -31q-45 -25 -48 -44.5z" />
<glyph unicode="(" horiz-adv-x="737" d="M21 680.5q-5 95.5 22 153.5q27 57 45 122q18 72 80.5 173.5t112.5 144.5q53 47 122.5 88t108.5 47q104 18 170 -55q45 -51 34 -75t-87 -34q-125 -16 -236 -133q-150 -158 -198 -377q-16 -82 -15.5 -121t25.5 -73q33 -47 117 -87t165.5 -58.5t145 -36t63.5 -27.5 q0 -39 -75.5 -48.5t-180.5 15.5q-295 70 -377 223q-37 63 -42 158.5z" />
<glyph unicode=")" horiz-adv-x="411" d="M23 393q8 31 59 103q100 145 123 231q16 59 0.5 118.5t-80.5 190.5q-53 102 -61.5 142t16.5 71q16 20 65.5 -13.5t92.5 -94.5q49 -74 100 -202t53 -179q0 -78 -30.5 -162t-69.5 -111q-227 -160 -264 -122q-8 8 -4 28z" />
<glyph unicode="*" horiz-adv-x="790" d="M20 1188q0 66 119 65q51 0 54.5 14.5t-41.5 53.5q-33 27 -37 37t8 33q33 59 123 30l49 -16l43 51q41 49 70 49q27 0 58.5 -41t47.5 -94l14 -51h68q63 -4 90 -16q29 -16 58.5 -58.5t23.5 -58.5q-4 -14 -35 -27.5t-63 -13.5q-33 0 -37 -21.5t24 -48.5q82 -96 50 -123 q-18 -16 -68.5 -0.5t-87.5 47.5q-37 37 -53 37t-47 -78.5t-60 -197.5q-16 -70 -61 -61.5t-109 92.5q-59 76 -64 118.5t33 110.5q29 49 29 61.5t-67 18.5q-131 12 -132 88z" />
<glyph unicode="+" horiz-adv-x="647" d="M20 897q0 72 127 88q23 2 33 3t24.5 6t18.5 7.5t10.5 14.5t7.5 19t2 32t0 41t-3 57q-6 104 -3 130t21 42q29 27 47.5 22t65.5 -50q43 -45 60.5 -91.5t17.5 -115.5q0 -55 14 -71.5t69 -24.5q88 -12 93.5 -46t-80.5 -51q-80 -20 -99.5 -43.5t-25.5 -115.5 q-20 -326 -47 -347q-10 -10 -21.5 -7t-38.5 22q-53 33 -70.5 68.5t-15.5 109.5q0 78 9 145l10 62l-80 6q-145 12 -146 88z" />
<glyph unicode="," horiz-adv-x="337" d="M20 535q-1 65 17 90q14 14 65 14q55 0 106.5 -47t84.5 -129q20 -51 23 -73.5t-7 -65.5q-12 -57 -46 -129t-62 -99q-27 -25 -58 -18q-106 27 -55 176q18 51 18 104q0 35 -8 53.5t-35 47.5q-43 51 -43 76z" />
<glyph unicode="-" d="M25 803q10 29 46 44.5t124 29.5q82 14 241.5 10t190.5 -19q27 -14 45 -35.5t10 -29.5q-10 -10 -283 -45q-88 -12 -178 -35q-59 -16 -83.5 -17t-53.5 9q-80 25 -59 88z" />
<glyph unicode="." horiz-adv-x="268" d="M22 491q5 34 23 52q33 33 88 16.5t94 -72.5q31 -49 17.5 -88t-64.5 -55q-29 -8 -86 29q-59 39 -67 55q-10 29 -5 63z" />
<glyph unicode="/" horiz-adv-x="731" d="M20 289q0 20 25 60t45 52q14 10 14 31q0 18 23 68q27 47 33 82q6 23 23.5 40t23.5 44q8 45 36.5 81.5t61.5 43.5q27 4 33 15t12 58q6 66 72 197q66 127 100 233q31 107 43 125q14 16 56 13q70 -6 87 -85t-28 -180q-27 -59 -102.5 -187t-98.5 -155q-23 -25 -30 -51 q-8 -29 -56 -63q-37 -29 -80 -96.5t-57 -120.5q-8 -25 -21.5 -39.5t-48.5 -30.5q-57 -27 -69 -51q-18 -31 -37 -49q-23 -23 -23 -41.5t-18.5 -18.5t-18.5 25z" />
<glyph unicode="0" horiz-adv-x="876" d="M29 524q-18 59 2 225t63 293q39 119 76 182.5t90 100.5q45 33 78 35t84 -29l51 -31l27 39q27 40 45 56q45 35 155 -21q63 -31 86 -67.5t52 -147.5q27 -111 15.5 -181.5t-73.5 -172.5q-59 -100 -118.5 -162.5t-155.5 -128.5q-111 -74 -174.5 -89t-157.5 9 q-88 27 -109.5 40t-35.5 50zM200.5 629q-1.5 -47 16.5 -64q12 -8 26.5 -7t47.5 20q178 86 307 282l70 107v135q0 94 -4.5 119t-22.5 41q-31 29 -53 26q-78 -2 -178 -74q-76 -55 -114 -136t-69 -259q-25 -143 -26.5 -190z" />
<glyph unicode="1" horiz-adv-x="374" d="M22.5 394.5q-8.5 56.5 20.5 142.5q74 213 100.5 437t-10.5 326q-35 103 -4 158q18 27 58 25t67 -33q23 -25 35 -57.5t43 -163.5q23 -94 22.5 -159.5t-20.5 -166.5q-123 -565 -258 -565q-45 0 -53.5 56.5z" />
<glyph unicode="2" horiz-adv-x="917" d="M23 453q6 27 113.5 137t258.5 248q225 201 168 305q-16 35 -53 55q-35 18 -101.5 18.5t-115.5 -18.5q-113 -39 -174 8q-43 35 -24.5 80t79.5 55q90 17 100 19q66 12 90.5 11t114.5 -17q78 -14 102.5 -25.5t69.5 -54.5q53 -53 71.5 -100.5t10.5 -112.5q-12 -70 -55 -131.5 t-182 -200.5q-178 -182 -179 -194q0 -12 6.5 -17.5t27 -3.5t53 9t92.5 24q174 49 244.5 63.5t101.5 5.5q14 -4 29.5 -15t22.5 -22.5t1 -15.5q-10 -8 -440 -174q-74 -29 -179 -41q-68 -8 -97 -7t-66 15q-55 18 -77 41t-13 56z" />
<glyph unicode="3" horiz-adv-x="845" d="M20 1350q0 41 29 64.5t103.5 43.5t246.5 49q29 6 120 -11t124 -34q39 -20 76 -76.5t37 -99.5q0 -68 -125 -190q-55 -53 -55.5 -66.5t30.5 -30.5q37 -20 100.5 -91.5t90.5 -125.5q27 -55 28.5 -96t-20.5 -90q-43 -94 -174 -121q-106 -23 -204.5 -10.5t-147.5 57.5l-43 35 l28 29q18 23 38 25.5t99 -5.5q160 -10 226.5 43t3.5 148q-25 39 -84.5 84t-104.5 57q-45 14 -75 43q-45 41 -29 85t90 85q59 35 108.5 84t49.5 74q0 31 -40 53t-91 22q-49 0 -139.5 -23.5t-120.5 -43.5q-41 -29 -108 -19.5t-67 52.5z" />
<glyph unicode="4" horiz-adv-x="1040" d="M34 759.5q32 69.5 159 205.5q129 135 167 211q15 29 56 86q39 51 55 51t53 -35q39 -37 38 -77t-42 -99q-156 -219 -147 -240q6 -16 155 -22q147 -6 179 -11q20 -4 32.5 10.5t42.5 69.5q45 90 68 174q25 88 45 111q35 39 80 9.5t45 -95.5q0 -31 -23.5 -109.5t-48.5 -134.5 q-10 -18 -9 -29.5t13 -27.5q51 -76 -18 -90q-43 -8 -66.5 -36t-70.5 -120q-55 -113 -76 -133q-16 -14 -25.5 -11t-36.5 29q-25 27 -29.5 40.5t1.5 54.5q10 61 10 98v41l-117 4q-117 4 -221 -27q-190 -55 -252 -6q-49 39 -17 108.5z" />
<glyph unicode="5" horiz-adv-x="919" d="M23 985q8 63 58 218t66 167q20 14 136 6q74 -4 101.5 -0.5t45.5 15.5q51 35 182 45t199 -15q31 -12 59.5 -37.5t28.5 -41t-70 -23.5q-201 -20 -256 -47q-33 -16 -100 -31q-113 -20 -192 -86q-31 -25 -38 -40t-7 -50v-53h81q76 0 171.5 -22.5t148.5 -53.5 q102 -61 145 -170t-10 -174q-37 -43 -83 -64.5t-130 -38.5q-72 -12 -104.5 -12t-100.5 12q-80 14 -132 36t-122 69q-57 37 -57 65q0 25 14 25q14 2 107 -29q100 -31 204.5 -28.5t174.5 37.5q39 18 50 30.5t13 38.5q8 66 -76 107q-23 12 -59.5 14t-138.5 -4q-164 -6 -219 12 q-59 20 -78 45t-12 78z" />
<glyph unicode="6" horiz-adv-x="901" d="M20 571q0 55 8.5 85t34.5 85q43 84 70 191q31 121 90.5 229.5t114.5 147.5q37 23 93 27.5t75 -13.5q14 -14 13 -52t-15 -54q-18 -23 -62 -54q-35 -25 -62.5 -74t-27.5 -85q0 -18 7.5 -23.5t33.5 -5.5q39 0 125 -17q301 -63 346 -235q18 -74 15.5 -111t-29.5 -71 q-51 -59 -195.5 -104.5t-253.5 -35.5q-63 6 -118 17q-25 4 -33 0t-14 -25q-8 -39 -28 -44t-69 20q-68 31 -93.5 75.5t-25.5 126.5zM268 668q0 -37 5.5 -54.5t23.5 -33.5q18 -18 38.5 -22.5t84.5 -0.5q76 4 150.5 30.5t115.5 65.5q47 45 12.5 107t-120.5 82q-59 14 -72 12 q-33 -2 -105.5 -34t-95.5 -54q-25 -23 -31 -40t-6 -58z" />
<glyph unicode="7" horiz-adv-x="1087" d="M27 1358q12 37 65 50t199 15q172 3 205 13q39 8 118 4q55 -4 75 -10.5t38 -24.5q25 -29 33 -95.5t-4 -129.5q-14 -61 -15 -125q0 -41 5.5 -54.5t25.5 -21.5q29 -14 82 -14q47 0 92 -13q33 -10 77 -45t44 -51q0 -25 -205 -25q-49 0 -71.5 -1t-49 -9t-37 -16t-26.5 -37 t-25.5 -54.5t-27.5 -82.5q-51 -156 -74 -178q-51 -43 -113 18q-25 25 -30 39t2 53q6 55 30 105q35 74 16.5 97t-104.5 11q-121 -14 -175 4.5t-60 77.5q-2 41 16 55q25 23 295 48q78 6 105.5 29.5t27.5 82.5q0 61 14 119q14 66 -4 81t-106 15q-98 0 -213 -20 q-80 -12 -109.5 -12.5t-58.5 10.5q-43 16 -56.5 37.5t-0.5 54.5z" />
<glyph unicode="8" horiz-adv-x="862" d="M20 1257l25 80q23 72 54 104t94 46q66 16 83 15t68 -27q135 -68 135 -168q0 -37 -4 -45.5t-26 -8.5q-29 0 -76 41q-82 74 -144 17q-16 -16 -21 -35t-5 -64q0 -47 9 -76.5t36 -80.5q39 -74 64.5 -85.5t84.5 19.5q92 47 240 189q92 88 111 88q25 0 59.5 -39t34.5 -64 q0 -43 -102.5 -138t-262.5 -204q-57 -39 -57 -53q0 -20 24 -125q47 -203 -18 -278q-16 -18 -32.5 -24.5t-49.5 -6.5q-102 0 -242 147q-80 84 -79.5 156t83.5 151q39 39 49.5 57.5t10.5 51.5q-2 49 -37 90q-35 45 -72 156zM180 581.5q2 -26.5 41 -63.5q25 -25 38 -31t26 2 q23 14 26 76.5t-20 85.5q-20 25 -35.5 23t-44.5 -33q-33 -33 -31 -59.5z" />
<glyph unicode="9" horiz-adv-x="811" d="M20 1075q0 68 15.5 112t52.5 89q51 59 189 148.5t206 107.5q61 14 142 -8q18 -6 42.5 -44t39.5 -85q16 -47 49 -88q35 -45 35 -74q0 -18 -35 -95t-78 -151q-14 -27 -68 -143q-61 -141 -165.5 -353t-118.5 -229q-20 -20 -72 -20q-72 0 -93.5 47t21.5 108q29 43 37 72 q8 31 72 135q53 84 71.5 131t18.5 86q0 23 -6 29t-37 6q-49 0 -139 19.5t-115 35.5q-63 41 -64 164zM202 1062q1 -48 17 -63q37 -29 168 35q63 31 88 55.5t34 67.5t36 86q27 41 28.5 65.5t-21 44t-43 17.5t-73.5 -29q-49 -25 -122.5 -92t-96.5 -106q-16 -33 -15 -81z" />
<glyph unicode=":" horiz-adv-x="292" d="M20 402.5q-2 39.5 25 66.5t55.5 25t53.5 -31q20 -27 23 -73t-13 -62t-50 -13.5t-61 23.5q-31 25 -33 64.5zM69.5 991.5q-4.5 30.5 36.5 69.5q35 31 48.5 33t48.5 -21q43 -31 62.5 -100.5t-7.5 -91.5q-37 -29 -131 43q-53 37 -57.5 67.5z" />
<glyph unicode=";" horiz-adv-x="342" d="M49 190q29 55 49 154q21 95 33 111q16 18 47 13t60 -32q41 -43 48 -110.5t-15.5 -128t-70.5 -104.5t-108 -44q-117 0 -43 141zM163.5 1053.5q-2.5 39.5 26.5 66.5q23 20 37.5 22.5t34.5 -14.5q39 -31 53.5 -79t-8.5 -70q-16 -16 -50 -13t-60 23q-31 25 -33.5 64.5z" />
<glyph unicode="&#x3c;" horiz-adv-x="1206" d="M20 909q0 37 23 55.5t86 34.5q53 14 146.5 51t130.5 50q53 16 180 68.5t174 68.5q57 17 86 35q23 16 74 16q37 0 50 -8t38 -41q57 -78 20 -122t-158 -44q-61 0 -288 -78q-18 -6 -50 -16q-168 -55 -195.5 -68.5t-27.5 -31.5v-5q0 -18 18.5 -28t88.5 -31q133 -39 198.5 -49 t245.5 -18q156 -4 200 -10.5t64 -22.5q35 -25 51.5 -58.5t4.5 -52.5q-14 -20 -178 -16t-295 28q-281 53 -409 94.5t-212 106.5q-43 33 -54.5 49.5t-11.5 42.5z" />
<glyph unicode="=" horiz-adv-x="1161" d="M20.5 695.5q4.5 29.5 45.5 58.5q47 31 147 41q100 12 106 18q12 12 301 6t373 -18q88 -14 118 -26.5t30 -33.5q0 -18 -9.5 -26t-50.5 -14.5t-105.5 -9.5t-195.5 -7q-229 -6 -318 -13t-269 -32q-74 -12 -97.5 -11t-44.5 15q-35 23 -30.5 52.5zM101 1131.5q-5 31.5 24 62.5 q16 20 57 22.5t72 -14.5q59 -31 272 -45q412 -29 453 -55q61 -39 31 -70q-10 -12 -374 -10t-411 14q-45 12 -86 39q-33 25 -38 56.5z" />
<glyph unicode="&#x3e;" horiz-adv-x="1206" d="M21 1274q2 37 14 49q20 20 61 13t76 -38q53 -49 227 -139q129 -68 276.5 -107.5t272.5 -39.5q102 0 147.5 -13.5t69.5 -52.5q25 -43 21 -76q-4 -31 -54.5 -57.5t-207.5 -79.5q-152 -49 -199 -74q-57 -27 -131 -47q-92 -27 -166 -65q-242 -121 -332 -37q-27 25 -14 41 q20 25 158.5 88t208.5 80q35 8 49 18q16 12 137 62q125 51 129 71q6 23 -12 27q-2 0 -131 29q-121 31 -254 94t-150 63q-10 0 -94 60.5t-94 77.5q-10 16 -8 53z" />
<glyph unicode="?" horiz-adv-x="798" d="M20 1341q0 18 21.5 39t48.5 29q45 16 193.5 7t236.5 -34q104 -29 147.5 -51t75.5 -69q51 -70 24.5 -152t-120.5 -139q-35 -23 -133 -90q-129 -88 -131 -115q0 -16 49 -25q49 -10 78 -34q84 -72 -117 -123q-96 -25 -181 -5.5t-126 74.5q-16 25 -17 63t15 56q29 35 164 124 t276 167q33 16 59.5 56t26.5 71q0 49 -129 84q-70 18 -239 10q-125 -6 -152 -3t-45 22q-25 27 -25 38zM220.5 296q-19.5 40 19.5 77q27 25 39 24q27 0 47 -31.5t20 -72.5v-55l-43 6q-63 12 -82.5 52z" />
<glyph unicode="@" horiz-adv-x="1583" d="M20 672q0 299 127 467q29 41 111 82t166 59q74 14 146.5 13t103.5 -19q25 -12 82 -29q59 -18 122.5 -86.5t94.5 -146.5q33 -90 38 -128t-12 -108q-10 -53 -23 -76.5t-46 -56.5q-45 -43 -92 -60.5t-123 -17.5q-47 0 -66.5 -7t-58.5 -40q-49 -43 -101.5 -59.5t-148.5 -18.5 q-100 -2 -102 -26q-2 -14 30 -37q45 -37 140.5 -62.5t187.5 -25.5q117 0 325.5 43t378.5 102q178 59 187 60q12 0 10 -39q0 -27 5 -33t28 -2q31 2 33 -13.5t-27 -29.5q-29 -16 -57 -39q-29 -23 -242 -80q-231 -61 -399 -88q-74 -12 -213.5 -12t-182.5 10q-227 59 -324.5 176 t-97.5 328zM259 622.5q13 -20.5 67 -20.5q33 0 51 9.5t51 41.5q35 37 43 54.5t8 58.5q1 61 -28 86q-29 27 -40.5 27t-72.5 -62q-63 -63 -78 -121q-14 -53 -1 -73.5zM362 1069q7 -14 68 2q29 8 112 -13.5t107 -41.5q76 -70 64 -193q-6 -55 -3 -65t23 -10q23 0 48.5 21.5 t45.5 57.5q12 27 13 109q0 57 -7 78.5t-38 62.5l-47 62l-150 4q-106 2 -135 -2t-57 -23q-51 -35 -44 -49z" />
<glyph unicode="A" horiz-adv-x="733" d="M20 352v5q0 57 100 458q106 424 128 451q14 14 22.5 14t32.5 -12q27 -14 35 -13.5t24 19.5q20 25 50 108q51 152 96 195q18 16 27.5 17t33.5 -11q35 -18 52 -45q17 -29 37 -123q15 -72 15 -106q0 -10 -1 -17q-8 -33 -21.5 -195.5t-13.5 -211.5q2 -244 47 -334 q29 -57 29 -98q0 -33 -5.5 -38t-33.5 1q-53 10 -79 38.5t-48 100.5q-31 92 -39 109q-9 17 -44 17q-24 0 -60 -8q-88 -20 -134 -63q-37 -39 -77 -166q-35 -117 -51 -137q-10 -13 -34 -13q-14 0 -32 5q-31 10 -41 19.5t-15 33.5zM347 831.5q-1 -12.5 4 -17.5t10.5 -10t16.5 -6 t21.5 -2t30.5 -1h64l6 82q10 116 14 235q4 74 4 108v18q-2 28 -14 28q-16 0 -37 -49.5t-80 -231.5q-10 -35 -17.5 -55.5t-13.5 -42t-7 -32.5t-2 -23.5z" />
<glyph unicode="B" horiz-adv-x="1112" d="M21 1092.5q2 27.5 20 42.5q27 25 98.5 50.5t180 55t137.5 39.5q79 22 198 45q132 24 224 24q139 0 186 -55q23 -26 26 -64v-11q-1 -29 -15 -51q-18 -24 -135.5 -98.5t-207.5 -117.5q-110 -53 -110 -67q0 -27 155 -49q80 -10 130 -41t102 -101q31 -43 34 -88v-9 q0 -39 -24 -65q-60 -66 -246 -122q-146 -44 -248 -44q-27 0 -51 3q-18 2 -32 2q-29 -1 -41 -9q-18 -12 -25 -65q-8 -47 -25 -68q-23 -20 -52.5 0.5t-39.5 65.5q-8 27 -8 112q0 25 1 56q3 133 15 225q4 39 0 55.5t-24 40.5q-29 35 -29 54.5t39 64.5q43 43 43 76q0 27 25 76 q23 47 8 55q-14 10 -23 10q-8 0 -67.5 -25.5t-89.5 -41.5q-29 -14 -65 -15.5t-50 13.5q-16 14 -14 41.5zM359.5 1106q0.5 -6 19.5 -23q27 -20 45 -67q14 -31 23.5 -36t50.5 1q51 6 90 33q37 27 100 53q78 31 144.5 76.5t66.5 70.5q0 18 -11 22.5t-63 2.5q-74 0 -118 -12 q-8 -2 -93.5 -24.5t-159 -45t-85.5 -33.5q-10 -12 -9.5 -18zM392 532q14 -20 91 -24h11q72 0 164 24q100 26 170.5 65.5t70.5 74.5q0 36 -123 69q-60 15 -202 17q-13 0 -25 1q-118 0 -127 -14q-14 -18 -29 -106q-8 -45 -8 -72q0 -25 7 -35z" />
<glyph unicode="C" horiz-adv-x="1060" d="M23 660q4 48 28 147q35 147 101.5 235.5t152.5 102.5q9 1 22 1q31 0 86 -6q79 -10 142 -26q29 -6 52.5 -51t33.5 -111q7 -38 7 -61q0 -19 -5 -29q-10 -20 -53 -12q-86 18 -98 80q-18 94 -109 94q-29 0 -46.5 -7t-39.5 -32q-70 -74 -113 -227q-18 -74 -22 -159 q-1 -15 -1 -29q0 -60 15 -74q16 -16 86 -16q19 0 42 2q108 6 177 30q248 88 367 137q90 37 113 37q20 0 49.5 -24.5t29.5 -40.5q0 -23 -41 -52.5t-106 -54.5q-84 -33 -178 -76q-92 -39 -240 -78q-111 -26 -141 -28h-9q-28 0 -73 12q-98 25 -149.5 75t-73.5 144q-7 35 -7 70 q0 13 1 27z" />
<glyph unicode="D" horiz-adv-x="1189" d="M29 1225q-14 27 2 47q16 16 39 16q25 0 106.5 -30.5t145.5 -65.5q63 -33 98 -34h2q34 0 70 28q32 29 54 29q6 1 10 -1q24 -8 62 -65q27 -39 70 -45q41 -8 86 -47q43 -39 129 -82q68 -33 137.5 -91.5t96.5 -103.5q34 -58 34 -118q1 -12 -1 -24q-8 -72 -61.5 -118.5 t-201 -112t-229.5 -77.5q-53 -8 -72 -19q-33 -16 -136 -42.5t-134 -26.5q-45 0 -74 26q-18 16 -19 24.5t13 22.5q18 23 141 60q119 37 162 57.5t41 42.5q-4 39 -19.5 163t-19.5 187q-10 113 -18 155t-25 56q-14 12 -196 60q-143 37 -208 65.5t-85 63.5zM715 746 q8 -214 16 -224q14 -18 40 -14t103 35q84 35 140 85q48 42 49 74q0 6 -2 11q-14 41 -83.5 104.5t-141.5 100.5q-92 47 -111 47q-12 -3 -12 -106q0 -47 2 -113z" />
<glyph unicode="E" horiz-adv-x="954" d="M22 536q-1 14 -1 31q0 57 18 135q14 63 30.5 98.5t63.5 96.5q72 96 105 152q33 55 102 92q51 27 134 61.5t118 42.5q22 5 48 5t56 -5q31 -6 38 -12t5 -27q-2 -20 -28.5 -38.5t-112.5 -61.5q-111 -55 -151.5 -87t-59.5 -75q-16 -37 -55 -65q-35 -25 -83 -97.5t-48 -101.5 t-13 -35q-12 -8 -12 -98q0 -66 5 -81t34 -32q25 -16 58.5 -20t125.5 -4q100 0 137 6t109 35q98 41 162 86q57 43 76 49q20 8 35.5 -11.5t15.5 -52.5q0 -70 -108.5 -144.5t-264.5 -113.5q-85 -18 -113 -19h-4q-29 0 -94 11q-213 45 -284 156q-38 58 -44 124zM221 664.5 q10 17.5 47 27.5q29 6 66 33q35 23 117 51q86 29 106 41q29 16 58.5 12t50.5 -24l26 -29l-26 -33q-25 -29 -173.5 -108.5t-181.5 -79.5q-63 0 -88 59q-12 33 -2 50.5z" />
<glyph unicode="F" horiz-adv-x="1036" d="M20 1025q-2 19 13 42q18 29 57 46.5t123 35.5q41 8 124 32.5t149 34.5q40 6 84 5q28 0 59 -2q47 -4 138 -5.5t155 -9.5q63 -10 78.5 -16t15.5 -25q0 -16 -9.5 -23t-35.5 -12q-51 -8 -97 -8q-57 0 -305 -37q-82 -12 -176 -43.5t-125 -58.5q-23 -20 -26.5 -31.5t4.5 -38.5 q10 -37 10 -88q0 -39 5 -46t36 -7q41 0 213 43q110 27 150 32q15 2 30 2q23 0 45 -5q45 -10 72 -27.5t27 -38.5q0 -43 -132 -65q-72 -12 -219 -59.5t-176 -67.5q-16 -12 -21 -39t-7 -146q-4 -176 -27 -192q-14 -12 -55 10q-45 20 -56 45q-10 23 -18 197q-10 193 -24.5 288 t-47.5 185q-29 74 -31 93z" />
<glyph unicode="G" horiz-adv-x="1171" d="M20 660q0 26 15 88q25 94 45 135q47 94 145.5 163.5t231.5 104.5q115 29 161 49q40 17 97 27q58 12 86 12h7q28 -2 42 -18q25 -29 42 -69t17 -71q0 -68 -53 -68q-35 0 -92 29t-112.5 29t-139.5 -29q-152 -51 -238 -140t-114 -224q-8 -36 -8 -69q0 -98 69 -169 q31 -31 54.5 -43t72.5 -20q78 -16 198 -16q4 0 8 1q126 0 175 17q100 31 105 31q41 10 81.5 40.5t40.5 51.5q0 12 -24 14h-15q-30 0 -96 -4q-133 -8 -243 -10h-34q-47 0 -68 4q-27 6 -70 31q-66 35 -76 55q-11 21 -11 43q0 12 3 23q8 36 34 57q37 27 140 31q17 1 34 1 q87 0 175 -18q98 -20 245 -31q100 -4 126 -10t46 -31q23 -29 27 -84q1 -10 1 -19q0 -42 -15 -67q-20 -29 -52 -110l-34 -86l-56 -8q-84 -10 -221 -47q-109 -27 -188 -29h-12q-74 0 -166 22q-86 20 -124 39t-108 72q-55 43 -86 95t-53 143q-15 57 -15 82z" />
<glyph unicode="H" horiz-adv-x="894" d="M20 549q0 18 37 50t74 42q45 12 57 27q4 5 4 22q0 30 -14 100q-22 108 -45 152q-16 33 -16 73t15 63.5t38 15.5q39 -16 89 -126t50 -180q0 -55 36 -61q6 -1 13 -1q42 0 150 28q78 16 127 41q20 8 28.5 15t16.5 37t12 67.5t13 129.5q12 116 26 130q14 16 30 16 q18 0 40 -21q25 -23 32 -69.5t11 -220.5q1 -36 1 -66q0 -128 -14 -151q-13 -24 -13 -58q0 -49 28 -117q25 -61 28 -90.5t-16 -46.5q-5 -4 -11 -4q-21 0 -61 43q-52 57 -79 127q-31 78 -50 90q-10 6 -32 6q-25 0 -67 -9q-76 -17 -134 -46l-59 -33v-129q0 -127 -13 -141 q-12 -12 -51 10q-23 14 -35 32.5t-22 61.5q-18 70 -30.5 88.5t-37.5 20.5q-102 10 -131 41q-25 27 -25 41z" />
<glyph unicode="I" horiz-adv-x="1112" d="M25 848q-3 13 -3 24q0 34 28 50q38 20 163 24q125 9 162 17q54 12 110 12q50 0 101 -10q35 -8 155 -25q100 -12 129 -37q24 -24 24 -39.5t-24 -21.5q-39 -10 -157 -11q-113 0 -127 -16q-12 -13 -12 -125q0 -24 1 -53l5 -162l36 -16q26 -11 54 -13q4 0 10 -1q34 0 129 8 q20 1 41 1q63 0 129 -14q88 -18 104 -45q7 -10 7 -19q0 -26 -60 -38q-39 -8 -117 -14q-145 -12 -249 -23q-86 -10 -271 -18q-58 -2 -97 -2q-29 0 -46 1q-41 3 -78 15q-55 20 -70.5 40.5t-3.5 55.5q22 60 118 60q32 0 73 -7q10 -2 30 -4q31 -6 42.5 -8t26.5 2t18.5 8.5 t7.5 24.5t4 37.5v62.5v49q0 186 -18 200q-6 5 -22 4q-29 0 -91 -15q-96 -25 -133 -25q-45 0 -84 19.5t-45 46.5z" />
<glyph unicode="J" horiz-adv-x="1173" d="M20 561q4 8 27 6t56.5 -14t56.5 -27q102 -67 220 -67h3h72v63q0 55 -24.5 171t-45.5 163l-20 41l-76 -4q-16 -1 -29 -1q-44 0 -62 10q-22 13 -22 59q0 39 31 68.5t84 43.5q53 12 102 35q80 33 225.5 64.5t217.5 33.5q96 3 131 11q27 8 53 8q53 0 100 -31q34 -22 34 -43 q0 -14 -17 -29q-16 -12 -226 -55q-283 -55 -346 -98q-16 -12 -21 -29.5t-5 -75.5q0 -127 51 -327q32 -121 32 -181q0 -36 -12 -49q-14 -16 -59 -11t-168 36q-109 29 -195 74t-127 94t-41 61z" />
<glyph unicode="K" horiz-adv-x="858" d="M22 361q3 53 21 260q12 131 20 284q10 154 31 176q14 14 22.5 14.5t33.5 -14.5q73 -42 73 -188q0 -98 15 -98q43 0 225 157q98 84 127 109q74 59 86 59q14 0 33.5 -23.5t25.5 -49.5q6 -23 -5 -40.5t-58 -62.5q-76 -74 -152 -137q-127 -100 -164 -139t-37 -70 q0 -25 10.5 -38t41.5 -32q76 -47 134 -69.5t157 -42.5q176 -37 176 -82q-2 -8 -7 -17q-25 -38 -101 -38q-29 -1 -66 5q-132 20 -314 109q-113 53 -131 53t-32.5 -22.5t-30.5 -83.5q-31 -113 -78 -119q-3 -1 -6 -1q-31 0 -45 59q-6 21 -6 55q0 13 1 27z" />
<glyph unicode="L" horiz-adv-x="952" d="M24 416q8 90 44 299q12 88 14 276q2 131 5 163t19 44q33 25 55.5 11.5t55.5 -76.5q22 -45 22 -155q0 -155 -44 -439q-2 -10 -5 -29q-8 -43 -11 -61.5t-3 -44t1 -34t12.5 -18.5t19.5 -10t36.5 2t48 7t66.5 16q23 4 33 6q186 37 244 37q53 0 113 12q28 6 54 6q38 0 72 -14 q56 -24 56 -70q0 -29 -36 -44t-146 -34q-172 -31 -330 -63q-144 -28 -205 -28h-11q-58 3 -124 42q-40 27 -52 68q-7 24 -7 66q0 29 3 65z" />
<glyph unicode="M" horiz-adv-x="1234" d="M35 924q-16 65 -16 105q0 63 41 63h3q16 0 35 -11q34 -19 77 -19q10 0 20 1h8q133 0 133 -203q0 -87 42 -87q32 0 87 50q39 33 82 116t67.5 171t42.5 109q23 23 52.5 20.5t54.5 -29.5q29 -31 65.5 -144.5t36.5 -166.5q0 -57 13 -113q51 -264 75 -317l27 -53l104 -2 q102 -2 117 -8q14 -10 13 -49.5t-15 -59.5q-30 -38 -94 -38q-33 1 -75 11q-124 30 -169 107q-47 82 -88 215t-41 203q0 49 -33 59q-23 8 -32 -23q-10 -33 -73 -111.5t-87 -88.5q-28 -15 -98 -17q-63 0 -80 -13t-17 -71q0 -47 -18.5 -127.5t-32.5 -97.5q-16 -18 -51 -14 t-64 26q-25 23 -29.5 47.5t-11.5 137.5q-2 63 -11 127.5t-14 92.5t-23.5 108.5t-22.5 93.5z" />
<glyph unicode="N" horiz-adv-x="835" d="M20 316v21q0 83 15 331q27 473 76 532q16 19 35 19q18 0 38 -16q42 -34 52 -105q16 -137 49.5 -269.5t56.5 -146.5q10 -7 25 -7q21 -1 54 13q56 22 91 60q47 51 83 169.5t44 251.5q10 136 10 142q2 2 43 2q47 0 69.5 -29t39.5 -108q16 -70 16 -123q0 -68 -26 -109 q-16 -23 -47 -130t-46 -191q-12 -55 -20 -275q-4 -92 -7 -136t-12.5 -73.5t-19.5 -36t-33 -6.5q-55 0 -118.5 57.5t-178.5 211.5q-47 63 -68.5 80.5t-32.5 -2t-18 -87.5q-8 -86 -29 -122q-19 -34 -55 -33h-4q-33 2 -59 28q-21 20 -23 87zM426 498q-8 -18 9.5 -50t37.5 -36 q12 -2 16.5 5t4.5 32q-1 41 -15 55t-30.5 13t-22.5 -19z" />
<glyph unicode="O" horiz-adv-x="1044" d="M25 627q8 90 19 128t52 122q45 92 108.5 169.5t114.5 102.5q27 12 71 12h14q54 -2 194 -24q119 -20 162 -56q27 -20 92 -69q109 -84 154 -244q19 -69 19 -125q0 -75 -34 -129q-45 -72 -154.5 -143.5t-248.5 -118.5q-125 -41 -201 -41t-170 45q-131 63 -169 136 q-27 52 -27 150q0 39 4 85zM184 528q0 -63 6.5 -81.5t32.5 -47.5q31 -29 50.5 -34t107.5 -5q90 0 118.5 8.5t116.5 53.5q195 98 236 182q18 33 18 127q0 66 -6 88.5t-35 63.5q-43 57 -100 98q-41 31 -63 37q-16 4 -59 4h-32q-96 0 -120 -16q-18 -16 -90 -54 q-45 -23 -62.5 -41t-36.5 -59q-82 -168 -82 -324z" />
<glyph unicode="P" horiz-adv-x="1224" d="M20 1163q0 27 31 58t70 45q23 6 142 5h103q214 -3 365 -16q137 -10 180 -30q45 -18 95 -33q51 -12 110.5 -66.5t75.5 -105.5q12 -35 11 -50.5t-15 -43.5q-51 -100 -223 -156q-98 -31 -226.5 -57.5t-183.5 -26.5h-53l2 -80q0 -61 12 -135t27 -94q10 -18 26 -62 q10 -31 10.5 -42t-12.5 -21q-14 -12 -58 -6t-73 24q-43 27 -102 357q-12 74 -29 94q-16 20 -20 295v7q-1 62 35 70q5 1 11 1q32 0 62 -50q23 -37 44.5 -116.5t31.5 -91.5q14 -19 73 -19q24 0 56 3q109 11 211 52q47 16 90 19q25 0 45.5 12t54.5 45q57 57 58 72 q0 23 -62.5 59.5t-115.5 48.5q-76 14 -168 15q-106 2 -160 16q-28 6 -66 6q-55 1 -129 -13q-125 -24 -170 -62q-35 -29 -52 -28t-62 34q-51 37 -52 67z" />
<glyph unicode="Q" horiz-adv-x="1034" d="M21 628q2 38 30 201q8 51 57.5 166t71.5 140q21 20 99 63q66 35 109 40q12 1 28 1q45 0 127 -10q84 -10 168 -60q74 -43 115.5 -86t101.5 -135q84 -129 84 -247q0 -127 -99 -240q-31 -35 -26.5 -53.5t45.5 -26.5t55 -23.5t14 -50.5q0 -45 -21 -54q-9 -4 -25 -4 q-25 0 -68 9q-72 16 -139 45q-46 20 -77 20q-1 0 -2 -1q-32 0 -124 -27q-62 -18 -128 -18q-40 0 -81 7q-109 17 -193 74q-53 39 -69.5 63.5t-36.5 98.5q-16 63 -16 100v8zM181 547q7 -47 42 -86q16 -18 39 -22.5t103 -4.5q180 0 180 39q0 10 -43 96q-37 72 -48 141 q-5 25 -5 46q0 38 14 63q18 34 41 34q24 0 53 -42q29 -41 53 -111q31 -92 50.5 -118.5t56.5 -26.5q31 0 67.5 30.5t59.5 73.5q13 27 13 108v12q-1 91 -17 122q-20 39 -104.5 117t-117.5 90q-34 9 -64 9h-6q-32 -1 -93 -13q-61 -14 -75.5 -26.5t-21.5 -57.5q-4 -35 -12 -47 t-33 -21q-35 -12 -70.5 -89t-54.5 -181q-9 -59 -9 -99q0 -20 2 -36z" />
<glyph unicode="R" horiz-adv-x="970" d="M25 662q10 124 49 262q41 137 120.5 243.5t159.5 126.5q57 16 71.5 16t49.5 -16q63 -32 86 -108q11 -37 11 -77q0 -45 -13 -95q-12 -53 -70.5 -161t-87.5 -130q-23 -18 -10.5 -38.5t74.5 -66.5q279 -205 420 -237q35 -10 50 -23.5t15 -38.5q0 -33 -24 -45q-16 -8 -44 -8 q-14 0 -32 2q-66 6 -150 48t-243 151q-76 51 -103.5 63.5t-72.5 12.5q-63 0 -76 -17q-12 -14 -17 -155q-4 -119 -17 -151q-10 -24 -36 -24q-9 0 -20 3q-41 10 -57.5 43.5t-26.5 128.5q-10 102 -10 189q0 54 4 102zM217 802q2 -7 19 -5q18 4 70 68.5t85 125.5q27 51 27 97v12 q-4 51 -24 52h-1q-21 0 -67 -48q-78 -84 -107 -262q-4 -33 -2 -40z" />
<glyph unicode="S" horiz-adv-x="915" d="M25 1200q16 33 53 50.5t119 27.5q98 10 106 20q4 3 19 3q23 0 72 -7q81 -12 106 -26q82 -49 82 -150q0 -81 -37 -81q-25 0 -68 38q-69 61 -134 61q-20 0 -40 -6q-47 -12 -47 -26t66 -47q63 -31 110 -72q78 -70 209 -131q98 -45 176 -141.5t78 -171.5q0 -43 -15.5 -64.5 t-64.5 -46.5q-45 -23 -141 -40q-71 -13 -117 -13q-16 0 -29 2q-47 6 -121.5 40t-103.5 62q-20 23 -22 52.5t18 44.5q10 10 24.5 7t51.5 -24q37 -18 64.5 -24.5t82.5 -6.5q80 0 143.5 15.5t77.5 36.5q8 12 -2 29.5t-51 58.5q-59 59 -151.5 123.5t-149.5 87.5 q-43 16 -144.5 75.5t-152.5 98.5q-40 29 -60 73q-13 27 -12 47q0 14 5 25z" />
<glyph unicode="T" horiz-adv-x="1411" d="M29 958q14 27 34 37q49 18 338 39q129 8 179 35q46 25 72 26h3q25 0 66 -20q29 -12 48 -13h5q20 0 60 7q72 16 184 16q114 3 149 11q25 7 55 7q40 0 86 -11q84 -20 83 -50q0 -29 -47.5 -44t-155.5 -23q-23 -2 -68 -6q-281 -20 -329 -38t-52 -104q0 -12 -2 -20 q-8 -137 -65 -354q-31 -115 -107 -115q-31 0 -45 7t-17 36q-1 9 -1 19q0 24 5 55q7 45 28 129q23 100 36 186q7 40 7 68q0 42 -18 54q-11 7 -36 8q-41 0 -121 -19q-114 -27 -200 -27q-79 0 -133 23q-49 21 -49 53q0 13 8 28z" />
<glyph unicode="U" horiz-adv-x="1034" d="M23 578q-1 33 -1 62q0 97 15 155q23 78 31 159q8 72 23 95.5t54 23.5q94 0 94 -138q0 -57 -16 -138q-22 -112 -21 -216v-13q2 -110 24 -126q7 -5 21 -5q33 0 107 26q104 37 183 90q90 61 179 174t107 191q37 152 37 249q0 63 -16 103q-11 26 -11 50q0 45 37 83 q26 28 55 28q3 -1 6 -1q32 -4 56 -35q18 -25 22.5 -62t4.5 -174q0 -141 -5 -185t-30 -116q-53 -158 -166 -285t-272 -208q-119 -61 -175 -73q-23 -5 -49 -6q-39 0 -88 11q-129 29 -165.5 80t-40.5 201z" />
<glyph unicode="V" horiz-adv-x="847" d="M37 1227q16 16 45 13t53 -26q23 -20 55.5 -74.5t128.5 -230.5q88 -156 158 -245q23 -29 43 -21q12 4 16.5 21.5t4.5 66.5q2 84 18 131q18 45 43 168q37 186 105 262q18 20 46.5 19.5t51.5 -25.5q24 -26 24 -58q0 -26 -16 -57q-29 -55 -74 -321q-18 -100 -18 -266 q0 -168 -8 -209q-4 -27 -12.5 -31t-38.5 0q-57 10 -95.5 32.5t-99.5 82.5q-53 53 -113.5 139t-218.5 332q-114 175 -114 253q0 29 16 44z" />
<glyph unicode="W" horiz-adv-x="1138" d="M49 872q-28 91 -28 145q0 79 59 79q37 0 67.5 -40t49.5 -110q53 -223 98 -223q27 0 33 31q10 35 50 75.5t77 49.5q21 6 43 6q16 1 34 -3q40 -8 66 -30q18 -14 86 -107.5t88 -128.5q18 -39 37 -38q18 0 39.5 81.5t30.5 184.5q29 330 51 393q18 49 46 102.5t44 73.5 q18 23 34.5 20t39.5 -30q25 -32 25 -81q0 -36 -13 -81q-14 -57 -30.5 -159.5t-16.5 -143.5q0 -86 -30 -256t-56 -242q-27 -74 -52.5 -100.5t-64.5 -26.5q-92 0 -145 107q-2 2 -32 60.5t-49.5 92t-50 80.5t-55 65.5t-41.5 8.5q-18 -10 -40.5 -78.5t-34.5 -152.5 q-12 -78 -29 -96q-9 -10 -29 -9q-15 0 -37 6q-51 14 -80 41q-63 55 -184 434z" />
<glyph unicode="X" horiz-adv-x="940" d="M20 341q0 48 50 132q49 86 100 135q72 70 76 111v6q0 43 -51 149q-53 115 -80 199l-25 84l27 31q25 27 40 28t42 -24q47 -43 96 -195q37 -105 67 -121q7 -3 16 -4q30 0 79 43q106 92 230 173t163 81q18 0 37.5 -20.5t30.5 -50.5q2 -6 2 -13q0 -50 -111 -106 q-41 -20 -85 -55t-101.5 -87.5t-77.5 -68.5q-68 -59 -68 -82q0 -18 49 -86t90 -106q27 -27 95 -60q69 -34 69 -70q0 -16 -14 -34q-13 -15 -38 -15q-42 0 -118 43q-57 35 -84.5 59.5t-91.5 98.5q-43 49 -58.5 49t-86.5 -78q-111 -127 -150 -162.5t-61 -35.5q-58 0 -58 52z " />
<glyph unicode="Y" horiz-adv-x="671" d="M22 874q-2 18 -2 42q0 78 21 231q8 68 22.5 93.5t45.5 25.5q57 0 89 -64q20 -40 20 -87q0 -27 -7 -56q-12 -61 -12 -101q0 -31 6 -37t35 -6q63 0 129.5 72t109.5 189q16 39 26.5 61.5t30 49t42 23.5t45.5 -36q28 -33 28 -93q0 -10 -1 -21q-5 -75 -42 -148 q-41 -80 -113.5 -154t-134.5 -98l-65 -27v-106q0 -119 -29.5 -211t-68.5 -101h-5q-21 0 -50 33q-31 37 -42 78q-6 24 -6 49t6 53q14 70 21 136l6 81l-41 25q-55 33 -64 104z" />
<glyph unicode="Z" horiz-adv-x="1130" d="M20 637q4 35 84 85t189 85q113 37 164 64.5t147 99.5q221 166 221 219v29l-116 -5q-121 -6 -258 -51q-100 -33 -129 -37q-7 -1 -14 -1q-24 0 -52 10q-41 14 -59.5 43.5t-1.5 58.5q10 16 97 45t173 43q84 15 156 31q60 13 116 13q54 0 105 -12q104 -24 141 -83 q36 -59 36 -110q0 -19 -5 -36q-8 -35 -63.5 -92t-108.5 -86q-61 -36 -61 -57q0 -20 57 -29q49 -10 66.5 -23.5t17.5 -39.5q0 -16 -16.5 -24.5t-78.5 -20.5q-94 -20 -129 -21q-39 0 -125 -26q-92 -23 -139 -70q-45 -41 -86 -72q-41 -27 -41 -57q0 -18 10.5 -23.5t53.5 -5.5 q51 0 175 23.5t150 40.5q31 14 177.5 54t177.5 40q23 0 33 -7t18 -30q10 -23 8 -35t-16 -35q-25 -33 -66 -53q-43 -20 -200.5 -69.5t-206.5 -55.5q-39 -4 -150 -30q-65 -14 -93 -16h-7q-27 0 -74 11q-102 25 -160.5 75t-58.5 116q0 25 -31 59q-27 33 -27 61v7z" />
<glyph unicode="[" horiz-adv-x="968" d="M20 317q0 35 72 111q59 59 125 175t76 177q4 23 31 138q23 96 22 272q0 123 -5 158.5t-26 76.5q-47 92 -17 140.5t132 48.5q59 0 59 12t224 12h35q152 0 176 -9t24 -66v-15v-51l-69 -14q-61 -14 -213 -25q-51 -2 -74 -3t-46.5 -7t-29.5 -11t-10 -23.5t-1 -34t9 -50.5 q39 -184 -16 -465q-51 -254 -164 -442q-49 -80 -49 -119q0 -27 7 -33t40 -6q45 0 133 25.5t160 58.5q37 18 69.5 27.5t53 9.5t20.5 -10q0 -20 -27.5 -73.5t-48.5 -72.5q-35 -33 -126 -71.5t-146 -44.5q-61 -6 -157.5 12t-143.5 47q-37 23 -68 68t-31 77z" />
<glyph unicode="\" horiz-adv-x="610" d="M31 1374q-29 70 10 117q12 16 51 14t55 -20q37 -39 118 -244t138 -397q16 -57 103 -226q66 -131 78 -178t-11 -65q-10 -8 -22 -2t-41 35q-113 115 -180.5 235.5t-128.5 314.5q-20 68 -82 205t-88 211z" />
<glyph unicode="]" horiz-adv-x="1036" d="M20 152q0 66 117 65q63 0 121.5 15.5t79.5 37.5q23 27 37 103q12 61 49 175t70 193q78 180 168 439.5t86 283.5q-10 57 -111 27q-141 -45 -188 2q-18 18 -23.5 57t6.5 70q4 12 55.5 15t239.5 3h289l-4 -32q-6 -33 -51 -148q-27 -68 -124.5 -346t-142.5 -383 q-68 -170 -96 -268q-33 -109 -39 -121q-12 -23 -16 -111q-8 -92 -23 -118q-20 -31 -79.5 -41.5t-192.5 -6.5q-104 2 -137 7.5t-58 21.5q-33 27 -33 60z" />
<glyph unicode="a" horiz-adv-x="868" d="M20 432q0 37 21.5 145.5t38.5 149.5q29 78 115 172t137 107q40 10 106 49q69 42 120 42q33 0 58 -18q14 -8 75 -24.5t77 -30.5q35 -37 35 -152.5t-37 -185.5q-29 -53 -33 -149l-4 -97l64 -55q58 -50 58 -75q0 -12 -12 -18q-10 -5 -24 -5q-42 0 -125 45q-82 41 -100 41 q-25 0 -117 -60q-131 -82 -236 -82q-75 0 -137 41q-80 55 -80 160zM180 502q-3 -34 -3 -60q0 -50 11 -63q14 -17 40 -17q29 0 75 21q86 39 176 131l70 68l6 110q14 172 14 178q3 26 3 45q0 33 -9 43q-16 18 -34.5 14.5t-86.5 -38.5q-176 -90 -229 -254q-25 -76 -33 -178z " />
<glyph unicode="b" horiz-adv-x="847" d="M20 408.5q0 31.5 9.5 73.5t29.5 114q90 289 107 555q8 162 13.5 207.5t21.5 68.5q16 27 32.5 28t42.5 -21q38 -33 38 -167q0 -38 -3 -85q-8 -115 -12 -156v-8q0 -48 29 -48q20 0 55 23q51 31 154 58l104 26l45 -22q76 -43 108.5 -103.5t32.5 -163.5q0 -88 -22.5 -140 t-89.5 -118q-47 -47 -89 -76.5t-118 -66.5q-117 -55 -199 -73q-46 -10 -89 -9q-35 0 -68 6q-47 8 -73 19.5t-42.5 29t-16.5 49zM232 551q-8 -29 -7 -48q0 -19 8 -28q12 -14 38 -14q49 0 151 49q147 76 215 171q49 68 49 135q0 27 -8 54q-15 50 -27 68q-12 12 -50 12t-79 -14 q-39 -12 -121 -100t-116 -156q-37 -70 -53 -129z" />
<glyph unicode="c" horiz-adv-x="845" d="M21 610q-1 4 -1 10q0 24 9 82q25 182 133 330q49 68 101.5 99t146.5 51q71 16 124 16q55 0 89 -18q33 -18 57.5 -65.5t24.5 -94.5q0 -45 -10.5 -64.5t-71.5 -78.5q-55 -55 -76 -68.5t-55 -13.5q-61 1 -94 39q-18 22 -18 44q0 18 11 37q14 18 88 56q76 35 80 63q1 6 1 11 q0 39 -39 49q-10 2 -21 2q-39 0 -92 -29q-143 -74 -197 -260q-23 -87 -23 -143q0 -58 25 -82q39 -34 183 -58q90 -15 155 -15q39 0 70 5q38 8 66 8q7 0 15 -1q32 -3 97 -21q29 -8 26.5 -24.5t-32.5 -29.5q-43 -16 -150.5 -32.5t-177.5 -16.5q-125 0 -250 47.5t-168 108.5 q-23 37 -26 57z" />
<glyph unicode="d" horiz-adv-x="1044" d="M23 604q2 88 10 120t41 91q47 94 99 139t134 62q82 19 158 19q72 0 137 -17q131 -33 148 -80q7 -23 16 -23q10 0 22 35q27 74 27 189q0 55 34.5 205.5t57.5 183.5q14 25 31.5 24.5t50.5 -26.5l35 -29l-4 -293q-2 -236 -10.5 -309.5t-48.5 -214.5q-61 -206 -61 -358 q0 -14 1 -27q1 -12 1 -22q0 -58 -19 -78q-16 -18 -24.5 -18.5t-45.5 16.5q-76 41 -90 118q-7 39 -27 45q-4 1 -10 1q-21 0 -61 -17q-57 -27 -181 -45q-88 -16 -117.5 -16t-82.5 16q-86 25 -138 55q-58 35 -74 80q-11 31 -11 102q0 32 2 72zM172 481q14 -27 32.5 -36 t74.5 -21q53 -11 80 -11h5q28 1 82 13q240 57 304 178q16 32 17 104v8q0 65 -15 75q-16 14 -64 26q-49 15 -96 62l-47 49h-99q-76 0 -105.5 -10.5t-72.5 -49.5q-76 -70 -104 -243q-9 -65 -9 -90t17 -54z" />
<glyph unicode="e" horiz-adv-x="968" d="M24 666q-3 8 -3 16q0 28 30 63q29 35 29 58.5t24 103.5q16 49 31 73t51 54q68 55 106 73.5t128 43.5q105 28 221 28h7q120 -1 173 -34q51 -31 89 -79t38 -81q0 -37 -19.5 -56.5t-94.5 -60.5q-147 -82 -228.5 -119.5t-177.5 -68.5q-92 -31 -117.5 -43t-25.5 -31 q0 -25 16 -37q14 -10 76.5 -23.5t132.5 -21.5q74 -6 119 -24t39 -39q-7 -37 -158 -37q-34 0 -74 2q-127 6 -187.5 30.5t-139.5 104.5q-73 71 -85 105zM262 831q0 -25 5 -30.5t28 -5.5q66 0 224.5 63.5t209.5 108.5q27 27 26 52.5t-30 37.5q-28 14 -85 14h-15 q-145 -2 -254 -73.5t-109 -166.5zM745 500q-2 10 6.5 14t32.5 4q35 0 42.5 -14.5t-17.5 -34.5q-16 -14 -38 -4t-26 35z" />
<glyph unicode="f" horiz-adv-x="626" d="M23 709q8 33 23 50t52 34q31 16 37 27t6 52q-2 76 -16 158q-20 145 -21 192q-1 4 -1 8q0 45 18 103q20 63 45 95t74 57q34 20 65 20q9 0 17 -1q38 -7 96 -46q80 -51 108 -106q11 -24 11 -43q0 -26 -21 -43q-10 -8 -22 -8q-35 0 -86 71q-39 53 -74 57h-5q-31 0 -51 -44 q-22 -48 -22 -132q0 -72 22.5 -200.5t38.5 -149.5q12 -12 132 -18q96 -4 126.5 -16.5t30.5 -49.5q0 -16 -10 -22t-47 -13q-106 -14 -153 -45q-41 -27 -41 -70q0 -6 1 -12q2 -10 5.5 -33.5t8.5 -59.5t7 -60q8 -57 8 -90q0 -25 -5 -36q-9 -21 -56 -21q-8 0 -17 1 q-59 4 -80.5 38t-27.5 130q-4 98 -17 115q-10 14 -57 23q-53 8 -82 33.5t-20 54.5z" />
<glyph unicode="g" horiz-adv-x="1122" d="M21 804q-1 6 -1 12q0 56 58 114q35 33 88 54.5t158 41.5q47 10 72.5 23.5t70.5 54.5q45 43 64.5 54t56.5 11q53 0 78 -20q33 -23 66.5 -87.5t33.5 -103.5q0 -43 -19.5 -74.5t-82.5 -97.5l-62 -65l25 -43q0 -2 2 -6q12 -23 22.5 -29t53.5 -9q12 -1 26 -1q40 0 100 6 q12 2 19 2q43 2 63.5 -3t47.5 -24q45 -31 45 -43t-44 -19t-102.5 -22.5t-85.5 -44.5l-26 -28l55 -113q63 -125 67 -208v-11q0 -74 -49 -98q-31 -16 -96 -23q-12 -1 -25 -1q-61 0 -163 21q-125 27 -185 58q-70 37 -98 98q-15 35 -15 74q0 29 9 61q14 53 82.5 121t122.5 82 q6 2 26.5 6t24.5 6t17.5 7.5t15.5 9.5l6 12t0 18.5t-11.5 24.5t-19.5 31l-39 55l-67 -8q-68 -12 -158 -12q-55 0 -83 6t-63 24q-74 43 -81 106zM199 805q8 -8 24 -17q31 -16 59.5 -16t73.5 14q35 8 41 17.5t6 46.5q0 49 -14 63t-29.5 11.5t-70.5 -25.5q-100 -42 -100 -74 q0 -11 10 -20zM416 248q0 -61 46 -94t132 -33q43 0 61.5 5t34.5 21q26 27 26 66q0 52 -46 125q-47 82 -85 83h-1q-38 0 -117 -75q-33 -33 -42 -50t-9 -48zM1067 596q0 18 17.5 18t17.5 -18t-17.5 -18t-17.5 18z" />
<glyph unicode="h" horiz-adv-x="1136" d="M20 1208q0 23 24 51.5t42 28.5q14 0 61 -39q68 -57 113 -66q10 -2 19 -2q34 0 63 25q16 16 22.5 36t6.5 67q0 59 22 144t53 140q14 27 26.5 36t31.5 9q33 0 51 -12q16 -14 74 -51q35 -23 55.5 -47.5t44.5 -69.5q47 -90 47 -157q0 -34 -12 -62q-16 -41 -90 -97.5 t-123 -64.5q-45 -6 -70.5 -35.5t-50.5 -105.5q-16 -50 -16 -75q0 -26 17 -25h1q33 0 166 98q101 75 180 75q81 0 140 -79q43 -57 120.5 -212t77.5 -183q0 -18 -6 -23.5t-27 -5.5q-33 2 -92 22q-45 14 -62.5 35t-70.5 123q-58 110 -82 132q-14 13 -39 13q-17 0 -39 -6 q-57 -14 -161.5 -143t-184.5 -285q-29 -55 -51 -71.5t-70 -16.5q-80 0 -92 47q-3 11 -3 27q0 53 30 162q2 10 72 262q36 120 36 167q0 35 -10 45.5t-65 31.5q-68 25 -123.5 72.5t-55.5 84.5zM240 1547q10 32 55 32q20 0 23.5 -10t-1.5 -60q-6 -75 -28 -75h-2q-15 1 -31 34 q-18 34 -18 60q-1 10 2 19zM502 1249q0 -30 19 -30q11 0 28 10q18 10 39 31q29 29 38 46t9 46q0 66 -27 96q-9 9 -19 9q-17 0 -34 -27q-14 -25 -33.5 -89.5t-19.5 -91.5z" />
<glyph unicode="i" horiz-adv-x="616" d="M20 430q-1 10 -1 20q0 74 37 210q42 154 77 184q16 12 43 61q44 90 96 90q29 0 62 -28q23 -20 23 -60q-1 -7 -1 -14q-4 -51 -37 -90q-27 -35 -59.5 -123t-50.5 -184q-8 -49 -8 -65.5t13 -29t27.5 -13.5t61.5 9q66 14 168 68q75 40 99 40h4q22 -3 22 -56q0 -37 -35 -74 t-112 -84q-70 -41 -119 -51q-18 -3 -37 -3q-35 0 -76 11q-117 31 -152.5 64.5t-44.5 117.5zM252 1360q-6 13 -6 25q0 24 24 49q25 25 56 24q31 0 54 -26.5t23 -63.5q0 -62 -46 -62q-10 0 -23 3q-63 14 -82 51z" />
<glyph unicode="j" horiz-adv-x="667" d="M20 115q0 29 5.5 35t25.5 6q31 0 88 -52q76 -72 165 -72q27 0 56 7q70 16 88.5 57t18.5 180q0 133 -18.5 209t-90.5 260q-57 141 -64 185q-1 9 -1 17q0 37 24 75q16 27 48 26t59 -32q47 -49 170 -473q53 -185 53 -328q0 -78 -16 -143q-27 -100 -65 -134t-132 -42 q-20 -2 -39 -2q-75 0 -153 24q-97 31 -159.5 85t-62.5 112zM412 1313q8 31 26 51q18 21 42 21q17 0 37 -11q48 -24 63 -80q3 -11 3 -20q0 -45 -67 -45h-2q-47 0 -79 25q-25 20 -25 45q0 7 2 14z" />
<glyph unicode="k" horiz-adv-x="1089" d="M20 393l19 82q18 80 61 174q43 102 60 166q18 70 18 190.5t-18 186.5q-17 66 -17 104q1 4 1 6q2 38 24 60q27 23 41 22q41 0 91 -107.5t56 -207.5q4 -78 22 -93q6 -5 17 -5q19 0 51 16q51 25 70 25q18 0 66 30q51 31 84 31q27 0 58.5 -23.5t31.5 -43.5q0 -35 -148 -107 q-104 -51 -188 -134t-84 -138q0 -39 89 -68t201 -30h8q107 0 202 24q58 19 130 25q27 2 46 2q33 0 43 -7q14 -8 14 -49q0 -25 -9 -35t-52 -28q-59 -27 -215 -60q-101 -20 -139 -22h-16q-33 0 -81 6q-170 29 -246 61q-51 23 -79 23q-6 0 -10 -1q-28 -5 -50 -48 q-25 -49 -57 -70q-23 -14 -32 -12t-32 24z" />
<glyph unicode="l" horiz-adv-x="296" d="M21 1232q0 42 14 62q14 18 40.5 18.5t53.5 -18.5q59 -41 85 -173t26 -392q0 -231 18 -283q19 -56 19 -86q0 -34 -25 -34h-4q-16 0 -39 14q-78 45 -109.5 133t-40.5 281q-8 176 -24 313q-14 123 -14 165z" />
<glyph unicode="m" horiz-adv-x="1097" d="M35 741q-16 52 -16 87q0 49 30 67q25 14 55.5 0t57.5 -51q31 -49 49 -49q16 0 49 45q29 39 80 90q47 45 63 45q20 0 61.5 -46t51.5 -81q14 -47 14 -98q0 -54 20 -58q1 0 3 -1q21 0 68 44q51 49 90 117q43 74 91 75h1q47 0 96 -71q20 -31 27.5 -62.5t13.5 -109.5 q20 -264 43 -317q8 -25 55 -93q20 -31 29.5 -50t9.5 -31.5t-9 -18.5t-28 -6q-31 0 -106.5 72.5t-106.5 130.5q-29 55 -51 139q-18 80 -33 80q-12 0 -106 -90q-68 -66 -88.5 -78t-65.5 -12q-59 0 -94 28q-23 20 -29 41t-8 86q-4 63 -9 81t-17 13q-51 -10 -62 -204 q-6 -92 -17.5 -129t-33.5 -37q-12 0 -70 37q-53 35 -68.5 74.5t-15.5 152.5q0 117 -24 188z" />
<glyph unicode="n" horiz-adv-x="1232" d="M22 892q-3 30 11 44t57 -4q31 -14 133 -14q34 0 76 2q57 4 83 5t55.5 -3t38.5 -8.5t22.5 -19.5t18.5 -30.5t15 -48.5q16 -49 33 -62.5t42.5 4t76.5 72.5q82 94 124 94q2 -1 4 -1q42 -4 65 -113q6 -32 6 -69q0 -45 -9 -99q-16 -94 -16 -152q0 -37 5 -44t42 -9q10 -1 21 -1 q45 -1 98 13q66 16 96 41q32 27 54 27q8 0 14 -3q24 -13 24 -73q0 -47 -20.5 -76.5t-73.5 -54.5q-57 -31 -117 -63q-41 -25 -68.5 -30t-109.5 -5q-104 0 -130.5 17.5t-45.5 99.5q-14 57 -27.5 75.5t-39.5 18.5q-27 0 -52.5 -37t-25.5 -72q0 -25 -25.5 -84t-27.5 -69 q-6 -31 -33 -60q-14 -16 -28.5 -18t-55.5 4q-61 8 -78 25q-18 14 -18 47q0 9 2 20q6 49 36 107q68 129 103 281q18 78 18 123q0 43 -16 56q-18 12 -113 17q-150 8 -223 82q-18 18 -21 48z" />
<glyph unicode="o" horiz-adv-x="913" d="M41 434q-22 45 -22 106q0 63 24 144q47 158 141 227q41 29 103 84q88 80 174 103q20 5 47 5q16 0 35 -2q49 -5 73 -22q25 -14 73 -23t102.5 -45t76.5 -73q26 -43 26 -104v-14q-3 -70 -36 -132q-61 -109 -199.5 -210t-277.5 -136q-53 -14 -105 -14t-102 14 q-100 27 -133 92zM208 486q11 -24 62 -25q5 0 11 -1q83 0 215 84q140 89 202 191q43 72 43 114v7q-4 44 -61 105q-27 27 -44.5 32.5t-66.5 5.5q-74 0 -112 -24q-25 -14 -31 -26.5t-4 -41.5q2 -31 -5 -42t-34 -23q-133 -68 -172 -262q-8 -39 -8 -64q0 -20 5 -30z" />
<glyph unicode="p" horiz-adv-x="851" d="M24 -26q-3 14 -3 34q0 44 16 117q74 332 74 455q0 90 24 202q18 88 18 114q0 7 -1 9q-6 12 -50 29q-33 14 -54 34.5t-21 39.5q-1 12 24 39l2 2q21 21 52 21h12q39 -5 248 -54q10 -2 16 -4q334 -80 422 -256q30 -59 30 -99q0 -12 -3 -23q-13 -44 -85 -85q-86 -49 -220 -88 t-216 -39q-29 0 -35 -12.5t-18 -79.5q-18 -117 -54 -259.5t-50 -162.5l-19 -29l-45 25q-53 27 -64 70zM291 555h76q51 0 77.5 9t94.5 48q88 53 98 81q2 5 2 10q0 27 -43 71q-47 49 -102 76q-45 25 -98 29q-10 1 -18 1q-38 0 -46 -16q-14 -20 -26.5 -94t-12.5 -133z" />
<glyph unicode="q" horiz-adv-x="1122" d="M33 618q-13 22 -13 48q0 58 66 135q25 27 58.5 69.5t61 71.5t68.5 57q14 12 39 31t55.5 43.5t45.5 36.5q82 64 102 70q29 12 41 10t43 -27q37 -29 92 -37q45 -8 82 -39.5t37 -64.5q0 -27 -68 -129q-136 -194 -136 -244q0 -8 3 -12q6 -10 27 -10q27 0 130 22.5t146 38.5 q83 29 132 29h7q50 -2 50 -37q0 -25 -21 -43q-41 -33 -120.5 -74t-149.5 -63q-102 -33 -117 -45q-14 -12 -14 -32q0 -27 29 -71q47 -73 47 -130q0 -12 -2 -22q-11 -65 -90 -120q-96 -61 -153.5 -85t-121.5 -24h-22q-35 0 -53 5q-23 6 -56 28q-72 46 -72 120q0 71 64 228 q54 137 54 164t-66 27q-162 2 -205 75zM258 698q18 0 95 42t102 67q25 20 58.5 79t33.5 79q0 14 -11 14q-29 0 -137 -100q-29 -25 -59 -58q-94 -91 -94 -115q0 -8 12 -8zM371 174.5q-6 -29.5 14 -37.5q3 -1 7 -1q21 0 72 22q62 26 97 57q32 26 32 52t-34 77q-37 53 -53 53 q-18 0 -45 -33.5t-51 -87.5q-33 -72 -39 -101.5z" />
<glyph unicode="r" horiz-adv-x="823" d="M20 938q0 52 38 60l12 2q34 0 75 -35q43 -37 50 -37q12 0 157 123q25 18 49.5 30.5t41 17.5t51 13t57.5 14q53 16 65.5 16t51.5 -16q43 -18 67.5 -40.5t44.5 -63.5q22 -43 22 -75q0 -13 -4 -23q-9 -28 -38 -28q-9 0 -21 3q-31 6 -86 55l-55 47l-70 -26 q-68 -27 -104.5 -61.5t-71.5 -106.5q-31 -61 -45 -120.5t-39 -233.5q-20 -135 -32 -148q-4 -5 -15 -5q-19 0 -59 15q-72 27 -81 45q-5 11 -5 49q0 25 2 62q1 20 1 42q0 131 -42 314q-16 72 -17 111z" />
<glyph unicode="s" horiz-adv-x="495" d="M22 380q-2 9 -2 17q0 43 37 95q31 43 59 49q5 1 9 1q24 0 55 -24q31 -25 41 -24q8 0 55 45q29 27 37.5 44t8.5 46q0 47 -31 106.5t-68 81.5q-33 18 -83 70.5t-77 87.5q-18 28 -18 61q0 24 10 52q23 64 78 79q23 6 53 6q18 0 40 -2q56 -6 104 -26q37 -16 62.5 -54 t25.5 -77q0 -25 -29 -26h-3q-28 0 -64 20q-39 18 -56 12q-17 -7 -17 -23q0 -34 70 -108q156 -169 156 -296q0 -88 -74 -157q-75 -70 -163 -104q-59 -23 -106 -22q-22 0 -42 5q-58 15 -68 65z" />
<glyph unicode="t" horiz-adv-x="964" d="M25 827q8 35 57 49.5t158 14.5q117 0 144.5 23.5t49.5 142.5q16 90 40 167t40 97q16 18 45 14t49 -28q26 -32 26 -92q0 -50 -18 -119q-18 -68 -18 -110t18 -58q12 -11 79 -11q34 0 81 3q68 4 101 4h19q30 -2 38 -13q11 -14 11 -26q0 -35 -93 -58q-25 -4 -74 -14 q-25 -4 -37 -6q-137 -29 -163 -51q-25 -20 -41 -97q-25 -133 -56 -244.5t-47 -125.5q-18 -20 -41 -20q-16 1 -34 9q-46 22 -56 70q-1 6 -1 16q0 38 17 130q25 113 25 178v67l-49 -12q-69 -10 -135 -11h-5q-63 0 -102 28q-31 22 -31 59q0 11 3 24z" />
<glyph unicode="u" horiz-adv-x="927" d="M23 426q-2 9 -2 21q1 53 29 167q34 140 95 312q25 72 80 72q12 0 25 -3q49 -11 56 -77q1 -10 1 -22q0 -59 -31 -136q-27 -74 -57 -209q-17 -83 -17 -119q0 -12 2 -20q8 -26 66 -27q47 0 82 19.5t86 74.5q78 82 95.5 129t35.5 230q15 151 52 194q20 25 56 13.5t60 -50.5 q33 -56 33 -137q0 -35 -6 -74q-33 -209 -35 -253v-7q0 -39 21 -61q29 -29 61 -35q70 -16 92 -66q5 -12 5 -21q0 -25 -36 -32q-13 -3 -29 -3q-63 0 -167 46l-60 25l-26 -25q-43 -39 -110.5 -75.5t-114.5 -47.5q-31 -7 -67 -7q-28 0 -60 4q-72 10 -111 32q-35 25 -67.5 76 t-36.5 92z" />
<glyph unicode="v" horiz-adv-x="751" d="M20 1032q1 35 15 49q17 17 44 17q45 0 115 -50q112 -80 171 -200q31 -63 52 -78.5t43.5 7t59.5 95.5l49 99l82 2q24 1 40 1q40 0 40 -6q0 -10 -26.5 -92.5t-45.5 -127.5q-20 -49 -41 -121q-43 -154 -70.5 -198t-82.5 -44q-98 0 -131 133q-16 66 -80 195 q-41 82 -67.5 118.5t-80.5 86.5q-53 47 -69.5 68.5t-16.5 45.5z" />
<glyph unicode="w" horiz-adv-x="1001" d="M23 961q-3 10 -3 21q0 20 9 46q14 40 37 55q25 14 52 2t42 -45q16 -35 35.5 -113.5t25.5 -135.5q9 -77 29 -87q4 -2 8 -1q21 0 61 38q47 45 97 111q56 75 105 75q54 0 100 -89q23 -45 38 -57.5t26 4t26 67.5q20 82 47 135q31 65 41 100q8 23 22.5 45.5t35 39t48 15.5 t56.5 -28q18 -17 20 -67v-9q0 -43 -16 -67q-16 -20 -43 -108.5t-31 -100.5q-23 -59 -41 -129q-25 -84 -76 -161t-84 -81q-7 -1 -14 -1q-41 0 -85 31q-52 36 -63 81q-10 41 -27.5 72.5t-29.5 31.5q-18 0 -72 -61q-94 -113 -121.5 -134.5t-76.5 -21.5q-59 0 -95 27 q-23 20 -29.5 42.5t-13.5 94.5q-31 326 -40 363z" />
<glyph unicode="x" horiz-adv-x="815" d="M21 382v5q0 26 22 68q25 45 25 57t41 84q43 72 43 109t-43 139q-52 122 -52 200q0 66 37 101q27 25 41 24q20 0 43 -39.5t41 -101.5q18 -74 48 -136.5t48 -68.5h3q20 0 85 60q59 57 160 111.5t148 54.5q33 0 48 -13.5t29 -56.5q6 -25 4.5 -35t-18.5 -26q-25 -23 -80 -48 q-82 -35 -197.5 -131t-115.5 -129q0 -39 61 -116q35 -43 41 -74q6 -25 2 -30t-30 -5q-35 0 -115 43q-82 41 -92 41t-58 -68q-49 -72 -71 -92q-18 -14 -26.5 -13t-35.5 28q-33 32 -36 58z" />
<glyph unicode="y" horiz-adv-x="901" d="M20 -36q0 65 37 122q20 31 81 146.5t83 148.5q34 53 34 87t-28 93q-33 61 -75 236q-31 119 -35 151.5t8 57.5q10 25 22.5 30.5t42.5 5.5q33 0 46.5 -9t39.5 -48q39 -61 54 -127q31 -158 63 -176q2 0 2 -2q18 -10 47 20.5t183 229.5q8 8 12 14q49 64 90 107q42 43 77 43 q30 0 54 -31q21 -27 21 -65q0 -14 -3 -30q-10 -57 -65 -167q-35 -74 -60.5 -110t-62.5 -66q-143 -123 -206.5 -196t-147.5 -214q-113 -190 -141 -240q-25 -45 -68 -73q-32 -20 -53 -20q-8 0 -15 3q-37 14 -37 79z" />
<glyph unicode="z" horiz-adv-x="1210" d="M20 813q0 39 20.5 53.5t104.5 30.5q58 12 98 11q22 0 40 -3q31 -8 47 -6t47 16q47 25 174 25q86 0 115.5 5t70.5 28q59 33 64 55q2 10 -15 14q-23 5 -172 5h-53q-72 1 -122 -1q-15 0 -29 -1q-32 1 -57 3q-36 4 -57.5 7.5t-33.5 12.5t-16 20.5t-6 29.5q-1 7 -1 13 q0 56 50 65q19 4 187 4h128q199 -2 253 -6t91 -20q47 -23 84 -62t37 -70q0 -27 -27 -61q-29 -37 -47 -70q-10 -23 -30.5 -36t-71.5 -31q-98 -37 -143 -70t-226 -194q-68 -63 -68 -86q0 -4 2 -6q4 -6 17 -7q29 0 103 29q70 27 159.5 57.5t151.5 53.5q134 47 214 47h6 q81 -2 81 -58q0 -39 -46 -65.5t-192 -75.5q-203 -68 -260 -92q-68 -27 -184 -51q-76 -16 -104 -18h-7q-27 0 -69 11q-94 25 -118 49q-15 14 -15 40q0 16 6 38q12 43 90 131.5t149 135.5q49 35 49 53q-1 12 -33 15q-11 1 -24 1q-26 0 -64 -4q-56 -6 -124 -20 q-82 -18 -118 -18h-2q-36 0 -77 22q-27 12 -27 51z" />
<glyph unicode="{" horiz-adv-x="870" d="M35 580.5q-37 66.5 14 99.5q25 16 164 53q221 59 291.5 86t70.5 51q0 8 -67 101q-102 135 -102 215q0 31 20 86q18 53 106.5 148.5t131.5 109.5q33 10 94 5t80 -19q16 -14 12 -70q-4 -39 -12.5 -51.5t-55.5 -32.5q-63 -33 -135 -102q-49 -49 -60.5 -69t-11.5 -54 q0 -51 21 -66q20 -18 83.5 -100t68.5 -88q27 -37 31.5 -80t-17.5 -70q-29 -39 -238 -94q-117 -31 -155.5 -51.5t-30.5 -48.5q14 -49 16 -124t-8 -130q-14 -78 0 -97.5t82 -19.5t141 31q119 49 150 14q33 -39 -43 -127q-70 -82 -227 -94q-82 -6 -128.5 11t-78.5 71 q-25 37 -30 68.5t-9 166.5l-4 185l-49 8q-78 12 -115 78.5z" />
<glyph unicode="|" horiz-adv-x="325" d="M25 1401q-15 133 32 178q27 23 41 23q16 0 47 -33t31 -49q0 -215 15.5 -364.5t60.5 -407.5q43 -238 51 -338q6 -76 -7 -134.5t-38 -74.5q-10 -6 -18.5 -6t-15.5 6t-12 14t-10 22.5t-8.5 26.5t-6.5 30.5t-4 31t-4 30t-3 23.5q-35 217 -82 465q-33 162 -51 373 q-12 133 -18 184z" />
<glyph unicode="}" horiz-adv-x="888" d="M21 189q2 38 20 55q35 33 238 88q74 23 118.5 47t44.5 45q0 8 -67 96q-102 133 -103 254q0 37 -11 65.5t-44 67.5q-27 31 -28 65t22 85q20 41 91 92t325 205q31 20 30 51v33l-233 -8q-197 -4 -229.5 4t-32.5 67q0 39 16.5 57.5t65.5 36.5q45 18 194 19q362 2 414 -152 q35 -104 -10 -167.5t-234 -178.5q-35 -20 -35 -59q0 -113 -49 -168q-33 -35 -67 -92q-23 -37 -25 -53.5t8 -55.5q14 -55 90 -133q45 -49 62.5 -74.5t23.5 -56.5q6 -41 0 -83t-22 -62q-20 -25 -118.5 -68t-160.5 -53q-92 -14 -127 -25q-43 -12 -92 -12t-61 14q-16 16 -14 54z " />
<glyph unicode="~" horiz-adv-x="1069" d="M20 849.5q-2 29.5 25 55.5q16 16 31.5 19.5t50.5 -0.5q56 -7 158 16q160 35 225 -6q25 -16 68 -86q31 -53 43 -61.5t51 -8.5q49 0 120.5 32t120.5 75q55 53 94.5 40.5t41.5 -81.5q2 -94 -82 -127q-43 -16 -109 -58q-41 -27 -66.5 -32.5t-101.5 -5.5q-74 0 -102.5 6 t-73.5 30q-37 20 -55.5 39t-34.5 52q-16 35 -27.5 45t-42.5 12q-39 4 -114 -14q-135 -37 -189 6q-29 23 -31 52.5z" />
<glyph unicode="&#xa2;" horiz-adv-x="911" d="M27 891q14 53 36 94q25 39 116 105.5t155 91.5q53 23 70.5 40t56.5 91q90 170 131 203q20 16 49 13t49 -24q25 -25 24 -80t-28 -110q-25 -47 -20.5 -67.5t55.5 -84.5q47 -61 30.5 -129.5t-79.5 -68.5q-41 0 -72 39q-18 23 -28.5 27.5t-22.5 -3.5q-25 -14 -56.5 -77.5 t-43.5 -121.5q-10 -49 -9.5 -63t15.5 -29q14 -14 31.5 -13t93.5 21q104 27 174 68q66 41 95.5 42t37.5 -38q31 -145 -142 -196q-51 -14 -157.5 -34t-155.5 -24q-41 -2 -53 -19.5t-21 -76.5q-4 -37 -13 -52.5t-32 -29.5q-29 -18 -37 -17t-28 21q-27 27 -45 123 q-12 59 -22.5 82.5t-30.5 38.5q-82 59 -111 121.5t-12 136.5zM249 887q-1 -6 6 -11.5t13 -2t7 10.5t-5 12t-13 1t-8 -10z" />
<glyph unicode="&#xa3;" horiz-adv-x="1050" d="M25 508q-20 63 45 104q37 20 135 41t168 21h67v65q0 70 -28.5 91.5t-124.5 27.5q-94 4 -130 26.5t-36 73.5q0 49 33.5 63.5t142.5 14.5h113l14 74q20 106 101.5 197.5t185.5 130.5q90 33 168.5 13.5t97.5 -81.5q16 -45 0 -58.5t-78 -4.5q-55 8 -102 -7.5t-109 -60.5 q-63 -47 -78 -94q-14 -47 -11 -66.5t28 -42.5q20 -20 39.5 -22t89.5 4q123 12 176 9t76 -21q59 -53 -45 -84q-39 -12 -105 -23q-115 -20 -149 -20q-35 0 -74 -25q-29 -16 -34 -27.5t-1 -48.5q6 -53 23 -86q12 -27 29.5 -32t95.5 -11q119 -8 173 -24.5t74 -51.5 q16 -27 16.5 -36t-20.5 -29q-18 -18 -32.5 -21.5t-57.5 0.5q-115 14 -178 -43q-47 -45 -149.5 -61t-208.5 2q-176 31 -252 57.5t-88 65.5z" />
<glyph unicode="&#xa7;" horiz-adv-x="1208" d="M20.5 -6q-2.5 12 12 20.5t43 10.5t84.5 0q82 -2 116.5 4t106.5 32q98 39 139 78q31 29 34 39t-7 37q-14 35 -51 66.5t-117 78.5q-72 43 -132.5 104.5t-70.5 104.5q-12 41 -3 119t32 146q18 61 95 141t132 98q49 16 94 46t45 46q0 20 -34 74q-37 57 -57.5 129t-12.5 117 q8 53 41 102l33 51q252 -2 506 -2l69 -77q70 -80 70 -97q0 -10 -12.5 -14t-34 0t-47.5 16q-70 29 -154 7.5t-139 -82.5q-49 -51 -49 -99.5t47 -120.5q23 -39 32 -73q6 -33 62 -103q86 -115 108.5 -158.5t22.5 -105t-16.5 -97.5t-57.5 -61q-33 -23 -142.5 -26.5t-158.5 12.5 q-53 18 -125.5 66.5t-85.5 70.5q-8 18 -4 28.5t31 33.5q45 37 113 69q49 25 63 39.5t25 48.5q12 35 12 47.5t-14 24.5q-14 14 -28.5 11t-72.5 -31q-94 -49 -144 -105.5t-81 -144.5q-23 -70 -25 -89.5t11 -43.5q20 -39 82 -74q84 -47 155.5 -105.5t104.5 -107.5 q27 -39 35 -64.5t10 -64.5q0 -70 -17 -96q-29 -55 -196.5 -117t-284.5 -62q-131 0 -176 66q-14 25 -16.5 37z" />
<glyph unicode="&#xab;" horiz-adv-x="1193" d="M20 647q0 27 8.5 42.5t34.5 37.5q96 84 199 187.5t135 152.5q46 68 66 88q39 29 90 8.5t72 -76.5q14 -41 -14.5 -88t-137.5 -155q-139 -139 -139 -164q0 -18 62.5 -59t135.5 -72q104 -45 125 -98q14 -37 -32 -43q-45 -6 -128 14t-163 59q-102 49 -178 62 q-72 12 -104 36.5t-32 67.5zM571 858q6 29 52.5 76t95.5 76q43 25 106.5 69.5t104.5 69.5q166 102 205 -27q10 -29 -22 -59.5t-109 -71.5q-76 -41 -144.5 -101.5t-68.5 -86.5q0 -25 62 -87.5t95 -70.5q27 -8 111 -51q119 -61 115 -107q-4 -43 -115 -22q-37 6 -82 22 q-102 33 -168 73t-135 106q-66 66 -89.5 108.5t-13.5 83.5z" />
<glyph unicode="&#xad;" d="M25 803q10 29 46 44.5t124 29.5q82 14 241.5 10t190.5 -19q27 -14 45 -35.5t10 -29.5q-10 -10 -283 -45q-88 -12 -178 -35q-59 -16 -83.5 -17t-53.5 9q-80 25 -59 88z" />
<glyph unicode="&#xbb;" horiz-adv-x="1161" d="M20 1030q0 43 25 66q27 29 69 25.5t66 -31.5q127 -156 246 -236q86 -59 111.5 -93t23.5 -85q-4 -41 -18.5 -57.5t-96.5 -73.5q-115 -78 -145 -119q-49 -66 -77.5 -89.5t-55.5 -23.5q-39 0 -68.5 27t-29.5 61q0 41 44 104.5t103 106.5q68 51 88.5 76t9.5 45 q-14 20 -102 82q-193 131 -193 215zM479 1079q-8 31 1.5 69t29.5 52q59 43 117 -41q47 -68 88 -109.5t112 -95.5q88 -66 166 -137q76 -70 88 -69q14 0 37 -46.5t23 -78.5q0 -41 -31 -66t-111 -45t-206 -86q-125 -66 -147.5 -66t-45.5 39q-16 25 -17 36t11 30q16 25 90 73 t147 85q66 31 70 57.5t-53 64.5q-53 37 -68 58q-20 23 -127 100q-96 74 -130 107.5t-44 68.5z" />
<glyph unicode="&#xbf;" horiz-adv-x="618" d="M20 489q0 98 130 213q80 70 79.5 83.5t-90.5 107.5q-90 92 -92 121q-4 86 30 127.5t128 68.5q111 29 184.5 13.5t138.5 -84.5q43 -45 52.5 -62.5t7.5 -48.5t-11.5 -43t-39.5 -27q-47 -25 -51.5 -42t26.5 -68q33 -57 23.5 -85t-76.5 -71q-82 -51 -145.5 -111.5t-56.5 -80 t81 -19.5t108 19q27 16 84 18q39 0 49.5 -5t14.5 -30q14 -68 -21.5 -102.5t-150.5 -63.5q-90 -23 -186.5 -1t-161.5 79q-35 29 -44.5 46.5t-9.5 47.5zM371 1638h184l-8 -32q-6 -35 -38 -61.5t-63 -26.5t-46 17t-23 60z" />
<glyph unicode="&#xc0;" horiz-adv-x="1015" d="M20 414q0 78 93 178q51 53 183 252.5t247 396.5q137 232 162 250t54 13t56 -31q74 -72 74 -308q0 -100 4 -126.5t25 -55.5q31 -39 30 -51q0 -14 -53 -72q-49 -55 -69.5 -124.5t-39.5 -256.5l-8 -69h-51q-59 0 -72.5 29.5t-13.5 162.5q0 113 -3 132.5t-26 21.5 q-23 4 -106.5 -42t-126.5 -87q-37 -31 -53 -66q-29 -51 -84 -123q-55 -74 -87 -90t-87 0q-33 10 -40.5 19.5t-7.5 46.5zM602 922q18 -10 66 18q29 16 34 29.5t5 60.5q0 66 -17.5 66t-62.5 -64q-61 -94 -25 -110zM913 1624q-2 14 39 14q70 0 25 -36q-14 -12 -35 -5t-29 27z " />
<glyph unicode="&#xc1;" horiz-adv-x="890" d="M22 389.5q-4 11.5 1 36.5q10 47 84.5 202.5t101.5 184.5q27 31 53.5 90.5t42.5 87.5q33 51 109 199q75 147 106 172q27 20 66 22t65 -16q51 -37 106.5 -163t55.5 -206q0 -49 29 -88q29 -37 28.5 -50t-28.5 -50q-25 -31 -28 -60.5t-1 -160.5q4 -180 -9 -193.5t-71 -13.5 q-37 0 -52 5t-34 26q-20 25 -23 45t3 102q8 119 -20.5 142.5t-137.5 -17.5q-115 -43 -197 -207q-43 -84 -72.5 -112.5t-72.5 -28.5q-45 0 -78 24q-23 16 -27 27.5zM506 897q4 -23 55 -27q43 -4 57.5 17t10.5 80q-4 63 -23.5 64t-62.5 -58q-41 -53 -37 -76z" />
<glyph unicode="&#xc2;" horiz-adv-x="1325" d="M23 395q20 84 231 314q63 72 86 127q25 57 63 77q63 33 158.5 136.5t134.5 181.5q20 35 37 94q19 58 72 107q35 33 53.5 42t44.5 5q57 -4 75.5 -46t22.5 -176q4 -115 -5 -211t-38 -264q-18 -102 -19 -166.5t13 -144.5q14 -72 2 -91.5t-71 -19.5q-57 0 -92 31 q-25 20 -29 39t-4 96q0 2 5 105.5t7 163t-4 84.5q-14 0 -92 -27t-90 -37q-16 -14 -88 -119q-68 -104 -97 -121q-20 -12 -96 -114q-72 -98 -104 -123q-35 -25 -78 -24t-75 24.5t-23 56.5zM739 1616q0 14 15.5 18t74.5 4q90 0 91 -8q0 -10 -39 -37q-49 -33 -95.5 -25.5 t-46.5 48.5zM1137 1628q0 10 75 10q57 0 68.5 -5t17.5 -31q10 -57 4 -70.5t-47 -13.5q-51 0 -71 12q-14 8 -30.5 41.5t-16.5 56.5z" />
<glyph unicode="&#xc4;" horiz-adv-x="1304" d="M20 285q6 111 144 262q37 41 74.5 98t68.5 94q35 43 92.5 133.5t85.5 126.5q51 68 74 127q82 211 125 240q25 18 70 18q66 0 102.5 -53t58.5 -178q16 -100 18.5 -286.5t-11.5 -245.5q-12 -51 8 -156q18 -94 9 -120t-62 -30q-47 -2 -82 25q-25 23 -35 74t-27 239l-6 82 h-98q-70 0 -89.5 -5t-43.5 -30q-31 -33 -60 -84q-12 -23 -108.5 -166t-108.5 -171q-25 -47 -50.5 -66.5t-59.5 -19.5q-94 0 -89 92zM621 903q0 -12 65 -12q57 0 64 16.5t-11 100.5q-16 66 -28 65q-8 0 -49 -75.5t-41 -94.5zM813 1626q0 12 18.5 12t18.5 -12t-18.5 -12 t-18.5 12zM1151 1628q0 10 66 10q45 0 56 -4t11 -20q0 -14 -10 -19.5t-43 -5.5q-35 0 -57.5 11.5t-22.5 27.5z" />
<glyph unicode="&#xc7;" horiz-adv-x="847" d="M20 832q-2 40 13 139q31 233 127 378.5t241 182.5q90 20 205 -35q43 -23 55.5 -23.5t38.5 13.5q66 41 113 -47q18 -33 15 -103.5t-25 -115.5q-10 -23 -22.5 -29t-53.5 -8q-55 -2 -79.5 14t-31.5 62q-6 47 -43 88q-25 25 -42 30.5t-54 5.5q-92 0 -143 -55 q-29 -31 -71 -143.5t-50 -179.5q-6 -63 -16 -152q-14 -117 67 -162q51 -27 156.5 -13.5t171.5 54.5q41 27 65 27q25 0 43.5 -29t22.5 -67q4 -29 -5 -40.5t-50 -33.5q-63 -35 -97 -41q-31 -8 -61.5 -31.5t-30.5 -42.5q0 -14 45 -55q35 -33 61.5 -83t26.5 -85q0 -31 -30 -64 q-27 -25 -121 -59.5t-127 -30.5q-49 8 -45 55.5t59 84.5q92 63 10 108q-72 39 -102.5 69.5t-42.5 67.5q-12 53 -76 113q-61 57 -90 133q-25 63 -27 103z" />
<glyph unicode="&#xc8;" horiz-adv-x="882" d="M20.5 642q-2.5 26 8.5 79q14 68 49 197t43 143q10 18 25.5 102t15.5 123q0 49 17 91.5t44 60.5q29 18 70 19t78 -19q23 -12 42 -12.5t66 8.5q72 16 185.5 10t134.5 -27q66 -66 -181 -123q-25 -4 -51 -10q-143 -29 -191 -68.5t-50 -130.5v-2q0 -66 41 -68.5t286 46.5h9 q201 39 200 -19q0 -39 -59.5 -78.5t-145.5 -60.5q-63 -14 -180 -51q-115 -35 -158 -29q-41 6 -66.5 -17.5t-39.5 -84.5q-29 -115 10 -176l25 -41l110 4q135 6 219.5 54t143.5 153q33 55 43 55q29 0 46 -68.5t3 -121.5t-78.5 -107.5t-145.5 -87.5t-166 -45t-142 16 q-35 14 -91 29q-106 27 -149 172q-18 59 -20.5 85z" />
<glyph unicode="&#xc9;" horiz-adv-x="919" d="M20 414q0 29 58 155q41 84 65.5 143.5t35.5 88t37 107.5t46 134q49 145 60 240q18 180 77 211q20 12 31.5 9t42.5 -25l43 -33l59 24q46 21 105 37q59 14 139 -1t80 -40q0 -37 -102 -75q-59 -20 -111 -62q-51 -41 -111 -72q-47 -25 -58 -39t-21 -65q-16 -74 -17 -117v-47 h58q57 0 98 12q45 10 141 17l101 10l-5 -47q-2 -31 -11 -43t-52 -31q-61 -31 -115 -45q-111 -33 -201 -71.5t-116 -67.5q-31 -33 -87.5 -164t-45.5 -147q10 -16 72.5 -45t111.5 -39q66 -16 219 -9q121 6 150.5 -2t29.5 -45q-2 -80 -155 -114q-74 -14 -217.5 10t-237.5 70 q-82 39 -139.5 91t-57.5 87z" />
<glyph unicode="&#xca;" horiz-adv-x="1015" d="M20.5 555q4.5 51 38.5 141q14 39 27.5 76t19 52.5t17.5 43t33 66.5q35 72 47 130t18 208q9 172 25 190q18 20 31.5 18.5t50.5 -28.5q29 -23 42 -25t52 9q53 12 173 8t140 -21q18 -16 19 -43q0 -18 -20.5 -28.5t-100.5 -30.5q-147 -39 -199.5 -91t-52.5 -161 q0 -57 20.5 -70.5t87.5 0.5q76 16 175 11q66 -4 89 -10.5t44 -24.5l28 -29l-24 -26q-20 -20 -130 -51t-247 -52q-57 -10 -81 -19.5t-46 -31.5q-25 -29 -67 -127t-42 -131q0 -61 136 -86q55 -10 85.5 -8t106.5 20q70 16 110 34.5t105 66.5q121 80 137 53q6 -8 6 -25 q0 -37 -22.5 -93t-48.5 -83q-37 -35 -154 -78q-76 -33 -112.5 -40t-102.5 -7q-125 0 -240.5 55.5t-152.5 131.5q-25 55 -20.5 106zM600 1624q-4 14 39 14q68 0 23 -36q-14 -12 -35 -5t-27 27zM791 1632q0 6 94 6q76 0 93 -10t17 -55q0 -43 -37.5 -52.5t-89.5 21.5 q-27 16 -52 46t-25 44z" />
<glyph unicode="&#xcb;" horiz-adv-x="944" d="M33 413.5q-29 75.5 8 196.5q23 78 31 160q2 49 22.5 111.5t20.5 113.5q0 45 -6.5 64.5t-34.5 50.5q-45 49 -41 79t63.5 80t94 65.5t94.5 15.5q61 0 98 16q35 16 144.5 49t154.5 43q43 8 57 4q20 -4 31 -4q14 0 29.5 -29.5t15.5 -54.5q0 -18 -63.5 -55t-112.5 -47 q-39 -8 -131 -46t-146 -67l-59 -33l-4 -79q-2 -20 -2 -31.5t2 -25t2 -19.5t7 -12.5t11.5 -8.5t17.5 -4t23.5 0t33 5t41 7.5t50.5 10.5q109 20 207 45q86 25 96 -37q8 -55 -75.5 -102.5t-278.5 -98.5q-156 -41 -170 -57q-10 -12 -36.5 -115.5t-26.5 -136.5q0 -37 24.5 -47 t110.5 -10q76 0 105.5 7t99.5 42q92 47 168 114q53 51 75.5 60.5t42.5 -15.5q18 -20 15.5 -79.5t-23.5 -92.5q-25 -43 -139.5 -109.5t-200.5 -86.5q-96 -25 -164.5 -17.5t-148.5 50.5q-104 55 -133 130.5zM754 1616q0 14 14 18t70 4h86l-9 -32q-8 -37 -22 -50.5t-43 -13.5 q-31 0 -63.5 24.5t-32.5 49.5z" />
<glyph unicode="&#xce;" horiz-adv-x="1099" d="M20 451q0 39 15 53q43 33 221 49q109 8 143.5 28.5t61.5 86.5q43 104 75.5 245.5t41.5 262.5q2 18 -15 20q-18 2 -129 -10q-49 -4 -65.5 -2t-32.5 20q-23 20 -26 61.5t16 57.5q18 16 217 47q45 6 69 45q27 35 47 51q18 14 32 12.5t44 -24.5q29 -23 113 -39t110 -31 q53 -29 89 -24q31 0 32.5 -9.5t-22.5 -29.5q-20 -20 -119 -29q-92 -6 -130 -26.5t-44 -67.5q-12 -82 -37 -213t-39 -178q-16 -68 -16 -135v-68l59 6q53 6 87 -7t34 -42q0 -33 -104.5 -68.5t-264.5 -58.5q-92 -12 -192 -41q-270 -72 -271 58z" />
<glyph unicode="&#xcf;" horiz-adv-x="894" d="M23 543q4 33 42.5 46t124.5 13q104 0 115 16q10 12 53 164q53 186 76 258q39 135 27 172t-96 19q-76 -18 -126.5 4t-50.5 76q0 23 24.5 44t61.5 31q51 12 205 6t185 -22q37 -16 69 -2q31 12 86 2t55 -29q0 -20 -41.5 -42.5t-95.5 -30.5q-72 -8 -80 -27q-6 -14 -53 -210.5 t-59 -223.5q-23 -43 -32 -96.5t1 -65.5q10 -16 84 -22q61 -6 85 -19.5t24 -42.5q0 -45 -93 -61q-45 -8 -125 -33q-47 -14 -71.5 -29.5t-55.5 -50.5l-49 -55l-32 45q-25 33 -40.5 39t-60.5 6q-88 0 -128 29.5t-29 91.5z" />
<glyph unicode="&#xd1;" horiz-adv-x="1171" d="M68 606q53 84 155 316q123 284 123 575v141h182q176 -2 177 -14q-6 -16 -80 -68q-51 -37 -62.5 -51t-11.5 -47q0 -47 18 -98q20 -61 54 -180q27 -94 70.5 -220t56.5 -139q16 -16 38.5 22t43 94t28.5 64q12 16 27 76q16 76 129 324q23 45 57.5 91t52.5 21q33 -39 21 -141 t-62 -221q-33 -78 -46 -121t-54 -192q-49 -184 -55 -244q-6 -43 -12.5 -53.5t-26.5 -12.5q-150 -18 -256 201q-12 27 -46 96.5t-46 96.5q-47 98 -70 98q-16 0 -31 -45q-14 -49 -55 -148q-135 -328 -175 -384t-124 -31q-125 35 -20 194zM864 1628q0 10 138.5 10t138.5 -10 t-52.5 -26.5t-87 -16.5t-86 16.5t-51.5 26.5z" />
<glyph unicode="&#xd3;" horiz-adv-x="1320" d="M22 992q-4 30 7 77q14 74 45.5 133.5t64.5 77.5q37 23 123 47q90 25 217 90q123 66 205 84q78 16 175 11t149 -27q55 -25 90 -70q70 -86 84 -102q47 -55 84 -148q23 -55 28.5 -90t5.5 -100q0 -84 -13 -118t-75 -103q-8 -12 -32.5 -40t-44 -50.5t-31.5 -36.5 q-43 -51 -150.5 -127t-167.5 -99q-49 -18 -190 -20q-133 -2 -198.5 19.5t-137.5 88.5q-66 59 -111 142.5t-90 228.5q-33 102 -37 132zM223 911q0 -25 29 -109.5t53 -133.5q23 -43 78 -96.5t88 -61.5q166 -41 416 145q240 176 239 410q0 88 -16.5 132t-71.5 101l-61 64h-121 q-119 0 -190 -29q-160 -68 -301.5 -202t-141.5 -220zM801 1626q0 12 42 12t42 -12t-42 -12t-42 12z" />
<glyph unicode="&#xd4;" horiz-adv-x="1048" d="M20 801q0 29 15 106q4 18 10 64.5t10 70t11.5 58.5t15.5 64.5t18 56.5q29 74 39 122q8 45 49 85t93 55q38 8 116 35q53 18 94 18t130 -18q70 -12 112.5 -40t118.5 -110q55 -57 75.5 -89t41.5 -93q45 -139 54 -201.5t-7 -124.5q-16 -68 -66.5 -144.5t-118.5 -142.5 q-61 -59 -172.5 -116.5t-193.5 -71.5q-113 -20 -236 30t-157 132q-16 37 -34 124t-18 130zM195 684q12 -92 61 -127t141 -14q63 14 168 66.5t133 84.5q88 100 123 173t35 161q0 74 -16.5 118t-63.5 107q-51 68 -77 86.5t-83 30.5q-76 14 -86 12q-27 0 -96 -50t-100 -93 q-55 -74 -102.5 -263.5t-36.5 -291.5zM434 1628q0 10 78 10t78 -10q0 -14 -29 -31.5t-49 -17.5t-49 17.5t-29 31.5zM844 1616q0 14 12 18t59 4q45 0 58.5 -4t13.5 -16q0 -18 8 -49q6 -18 -1 -22.5t-40 -4.5q-41 0 -75.5 23.5t-34.5 50.5z" />
<glyph unicode="&#xd6;" horiz-adv-x="1288" d="M53 1206q57 98 259 206.5t374 133.5q84 12 131 6t76 -34q29 -27 55 -19q27 8 80 -12q72 -27 141.5 -130.5t92.5 -215.5q20 -98 -25 -216t-147 -237q-88 -102 -240 -185t-299 -110q-78 -14 -108.5 -14t-92.5 12q-80 18 -114.5 44t-69.5 95q-37 76 -43 122t10 128 q20 100 17 126t-41 50q-145 98 -56 250zM285 662q0 -68 13 -86.5t73 -34.5q106 -29 358 92q162 80 267.5 192.5t131.5 235.5q10 49 9.5 72.5t-13.5 66.5q-20 63 -61 110.5t-88 59.5q-45 14 -171 14t-163 -14q-49 -16 -68.5 -41.5t-15.5 -68.5q6 -35 -1 -49.5t-50 -49.5 q-90 -76 -155.5 -224.5t-65.5 -274.5z" />
<glyph unicode="&#xd9;" horiz-adv-x="944" d="M20 596q0 106 10.5 189t57.5 352q14 100 23 174q14 133 71 180q23 18 40.5 11t45.5 -46q31 -43 34 -85t-15 -154q-23 -156 -31 -211q-23 -166 -39 -258q-14 -94 -18 -141.5t0 -78t17 -39t42 -8.5t85 28t112 66q45 33 138 156t132 197q25 47 31 76.5t6 97.5 q0 84 -17.5 133t-66.5 115q-49 59 -44 96t60 37q35 0 55.5 -16.5t57.5 -69.5q55 -82 78.5 -143.5t34.5 -143.5q10 -86 0.5 -147.5t-41.5 -124.5q-119 -240 -282 -379.5t-323 -139.5q-166 0 -225 101q-18 29 -23.5 58.5t-5.5 117.5zM532 1628q0 10 43 10q25 0 33 -4t8 -18 q0 -20 -14 -34.5t-41 11.5q-29 25 -29 35z" />
<glyph unicode="&#xda;" horiz-adv-x="1230" d="M20 858q-2 88 31 193q31 98 65 162.5t93 146.5q61 80 93 103.5t60.5 8t48 -52.5t19.5 -76q0 -25 -12 -47t-51 -65q-90 -102 -128 -198.5t-38 -231.5q0 -96 13 -143.5t52 -88.5q23 -25 39.5 -32t50.5 -7q49 0 118 27t124 68q53 39 61 39q35 0 133.5 124.5t163.5 251.5 q16 29 58.5 176.5t42.5 169.5q0 39 -80 54q-35 6 -44 12t-9 29q-1 31 32 94l31 63h100q84 0 98.5 -12t22.5 -90q6 -51 -11 -165t-38 -154q-12 -27 -37 -121q-16 -72 -50 -154t-50 -92q-14 -8 -37 -59q-57 -115 -167.5 -221.5t-248.5 -176.5q-119 -59 -247 -26 q-111 29 -164.5 88t-100.5 204q-35 111 -37 199zM563 1630q0 8 103 8q68 0 85 -4t17 -18q0 -33 -42 -48.5t-89 -0.5q-29 6 -51.5 25.5t-22.5 37.5z" />
<glyph unicode="&#xdb;" horiz-adv-x="1153" d="M20 680q0 57 15.5 180t30.5 189q12 55 55 266q12 55 12 115q0 47 14 131l15 77h157l5 -73q2 -90 -82 -516q-82 -410 -35 -457q29 -29 146.5 -1.5t185.5 79.5q55 41 118 78q68 39 156 134t111 154q33 82 42 133.5t9 135.5q0 104 -17 104q-16 0 -43 23q-25 20 -26.5 64 t20.5 93q16 35 26.5 42t45.5 7q37 0 49 -10t45 -63q39 -66 50.5 -131.5t2.5 -196.5q-6 -127 -38 -217q-29 -84 -87.5 -176t-99.5 -119q-35 -20 -78 -61q-35 -39 -178 -124t-209 -106q-94 -33 -186 -17.5t-141 70.5q-90 104 -91 193z" />
<glyph unicode="&#xdc;" horiz-adv-x="1161" d="M21.5 1252.5q-5.5 185.5 5.5 203.5q23 49 64.5 48t72.5 -48q31 -51 48 -148.5t9 -179.5q-8 -90 -7 -122.5t11 -180.5q12 -164 26.5 -205.5t59.5 -41.5q41 0 142.5 54t156.5 103q66 59 74 60q10 0 84 102q74 100 92 117q20 14 72 121q37 74 45 104.5t8 95.5 q0 92 -16.5 107.5t-85.5 -4.5l-72 -21l-27 33q-54 65 7 143q25 33 40 39t87 6q70 0 86 -5t45 -38q49 -55 66.5 -90t21.5 -94q23 -211 -114.5 -450.5t-385.5 -423.5q-109 -80 -163 -104.5t-120 -26.5q-100 0 -159.5 39.5t-104.5 132.5q-23 53 -31 94t-16 147 q-16 248 -21.5 433.5zM324 1628q0 10 84 10h84l-9 -32q-6 -35 -20 -49.5t-41 -14.5q-20 0 -59 34t-39 52z" />
<glyph unicode="&#xdf;" horiz-adv-x="1107" d="M20 131q0 63 4.5 79.5t18.5 16.5q37 -4 99.5 24t90.5 58q74 82 145 276.5t89 366.5q18 176 20 253t-14 106q-39 78 6 116q25 23 158 56q137 35 215 28q102 -8 154.5 -43.5t74.5 -107.5q14 -53 -8 -102.5t-96 -124.5q-88 -92 -88 -115q0 -20 41 -68q45 -49 67.5 -99 t34.5 -126q14 -96 0 -197.5t-51 -177.5q-53 -104 -85 -123.5t-105 9.5q-37 16 -57.5 43.5t-31.5 78.5q-6 27 0.5 33t45.5 12q74 10 101.5 73t27.5 212q0 74 -5.5 97.5t-21.5 41.5t-35.5 23.5t-64.5 5.5q-80 0 -113 -25.5t-59 -103.5q-27 -82 -27 -104.5t-45 -159.5t-66 -178 q-25 -47 -70.5 -96.5t-93.5 -75.5q-45 -27 -119.5 -51.5t-107.5 -24.5q-20 0 -24.5 12t-4.5 82zM647 1181.5q0 -48.5 15 -48.5q25 0 90 47t90 82q35 53 35 65q0 10 -76 10q-61 0 -88 -15t-54 -65q-12 -27 -12 -75.5z" />
<glyph unicode="&#xe0;" horiz-adv-x="917" d="M25 418q-10 37 9 115.5t60 158.5q96 190 334 350q98 66 137 75t74 -27q33 -37 44 -94.5t11 -207.5q0 -121 4 -157.5t21 -63.5q18 -31 29.5 -35t58.5 3q45 4 56 0.5t22 -25.5q27 -57 -5 -88t-116 -29q-72 4 -114 24.5t-77 69.5q-39 55 -53 56q-16 0 -67 -56 q-68 -70 -124.5 -100.5t-125.5 -34.5q-160 -12 -178 66zM188 1626q0 12 99 12h100l90 -86q106 -102 174 -155q96 -76 166 -147.5t68 -90.5q-14 -66 -217 60q-205 129 -422 337q-58 60 -58 70zM197.5 502.5q15.5 -15.5 54.5 7.5q47 29 78.5 63.5t87.5 118.5q71 105 71 146 q0 37 -13 40t-54 -22q-45 -27 -96.5 -91.5t-92.5 -146.5q-51 -100 -35.5 -115.5z" />
<glyph unicode="&#xe1;" horiz-adv-x="1024" d="M25.5 524.5q-13.5 42.5 7.5 128.5q20 80 40.5 122t76.5 118q57 76 111.5 112.5t146.5 61.5q98 29 132.5 28t67.5 -34q27 -27 30 -43.5t-1 -75.5q-6 -49 -26.5 -143t-26.5 -129q-4 -35 0 -40t28 1q41 6 64 14q18 6 22 1t4 -32q0 -37 -18 -77q-27 -55 -91.5 -73t-186.5 -1 q-72 10 -111 -10q-37 -18 -96.5 -17.5t-106.5 21.5q-53 25 -66.5 67.5zM201 631.5q-6 -29.5 14 -35.5q23 -10 78 48t92 130q41 80 41 94q0 10 -41 11q-78 0 -145 -144q-33 -74 -39 -103.5zM426 1441.5q-23 39.5 4 75t90 44.5q45 6 107.5 30.5t62.5 36.5q0 10 157 10t157 -10 q0 -8 -128 -95t-141 -87q-8 0 -94 -37q-55 -25 -76.5 -29t-54.5 4q-61 18 -84 57.5z" />
<glyph unicode="&#xe2;" horiz-adv-x="966" d="M20 547q0 53 32 145t73 160q84 141 147 207t174 129q51 29 111 29q80 0 122 -51.5t71 -182.5q39 -168 -25 -299q-35 -72 -27 -74t43 31q29 29 65 49.5t56 20.5q18 0 40 -31t22 -57q0 -43 -26 -72t-112 -80t-137 -59.5t-127 16.5q-39 14 -61.5 14t-81.5 -16 q-158 -37 -254 0q-104 39 -105 121zM117 1260q0 43 64.5 79.5t267.5 106.5q158 55 262 103t112 71q6 18 45 18t60 -34q20 -35 18 -60.5t-28 -118.5q-29 -98 -28 -144t30 -101q23 -37 25.5 -51.5t-7.5 -24.5q-16 -20 -49 -18.5t-68 22.5q-39 25 -48 51.5t-17 122.5 q-6 102 -24.5 116.5t-98.5 -18.5q-29 -14 -108 -43.5t-142.5 -56.5t-99.5 -49q-57 -37 -86 -45q-25 -6 -52.5 18.5t-27.5 55.5zM193 610q-6 -55 22.5 -66.5t112.5 13.5q78 20 106.5 46t34.5 75q12 70 51 201q43 153 43 159q0 8 -15.5 9.5t-37 -5t-37.5 -16.5 q-39 -25 -115 -106q-66 -68 -111.5 -156t-53.5 -154z" />
<glyph unicode="&#xe4;" horiz-adv-x="839" d="M39 676q33 113 111.5 234.5t150.5 166.5q59 41 108.5 43t98.5 -35q82 -59 108.5 -123.5t6.5 -162.5q-12 -70 -12.5 -121t14.5 -51q16 2 51 61q39 66 69 80q23 14 31 14t23 -14q20 -20 20 -84q0 -39 -9 -67.5t-40 -81.5q-102 -174 -195 -175q-47 4 -73 19q-66 37 -170 0 q-86 -31 -173 -7.5t-118 87.5q-41 84 -2 217zM203 586l4 -62h47q29 2 47 12.5t45 38.5q41 43 57.5 93.5t22.5 154.5l6 105h-31q-59 0 -153 -185q-33 -61 -40 -88.5t-5 -68.5zM294 1475.5q-1 42.5 13 58.5q16 20 58 20q41 0 75.5 -33.5t48.5 -84.5q12 -45 1 -65.5t-46 -20.5 q-25 0 -71.5 22.5t-63.5 42.5q-14 18 -15 60.5zM610 1289q-4 40 13.5 57.5t58.5 14.5t60.5 -23.5t22.5 -60.5t-13.5 -57.5t-57.5 -14.5t-60.5 23.5t-23.5 60.5z" />
<glyph unicode="&#xe7;" horiz-adv-x="737" d="M25 653q12 55 61 138t102 137q61 61 117.5 97t143.5 65q92 32 108 40q23 14 53.5 13.5t48.5 -13.5q39 -33 52.5 -83t-11.5 -70q-16 -12 -102 -25q-74 -8 -147.5 -39.5t-118.5 -72.5q-45 -45 -89 -116t-44 -101q0 -39 39 -78l38 -39h121q121 2 144 18q39 29 71.5 13.5 t32.5 -62.5q0 -80 -104 -96q-55 -8 -60.5 -27.5t29.5 -56.5q39 -43 39 -94q0 -49 -17 -70q-23 -29 -97.5 -67.5t-106.5 -38.5q-33 0 -69 22.5t-36 44.5q0 18 54.5 74.5t54.5 69.5q0 12 -49 43q-45 29 -146 137q-76 84 -100.5 135t-11.5 102z" />
<glyph unicode="&#xe8;" horiz-adv-x="774" d="M22.5 859.5q8.5 60.5 47.5 121.5q41 57 95 93t140 59q78 20 119 21t106 -15q211 -55 211 -211q0 -51 -23.5 -79t-94.5 -65q-80 -41 -150 -57t-162 -16q-96 0 -113.5 -13.5t9.5 -72.5q37 -80 115.5 -113t212.5 -25q94 4 167 15q35 4 43.5 1t8.5 -22q0 -41 -26 -75.5 t-69 -53.5q-90 -33 -232 -9t-224 85q-49 39 -98.5 122t-67.5 159q-23 90 -14.5 150.5zM104 1511q-1 38 13 54q14 14 41 14q23 0 88 -49t96 -88q4 -6 37 -46t49 -68t21 -56q4 -31 0.5 -37t-25.5 -6q-35 0 -102 63q-68 66 -125 97q-55 33 -76 59q-16 25 -17 63zM248 885 q0 -14 23.5 -16.5t64.5 5t92 23.5q88 31 107.5 43.5t5.5 32.5q-8 14 -46 22.5t-61 -2.5q-12 -4 -61 -18q-43 -10 -84 -41t-41 -49z" />
<glyph unicode="&#xe9;" horiz-adv-x="874" d="M21 759.5q2 26.5 22 108.5q26 107 57 158q113 168 338 119q55 -12 127 -91t72 -128q0 -33 -38 -76t-79 -55q-12 -4 -52 -18.5t-67.5 -25t-64.5 -20.5t-60 -14q-55 -8 -69 -23.5t-14 -58.5q0 -29 7 -47.5t31 -42.5q29 -29 48.5 -34t105.5 -5q94 0 152.5 14.5t113.5 50.5 q90 59 119 25q18 -20 -5.5 -55t-96.5 -92q-47 -37 -81 -53.5t-81 -26.5q-82 -18 -107 -19q-39 0 -111.5 24.5t-115.5 53.5q-53 35 -86 92.5t-55 155.5q-12 57 -10 83.5zM281 893q37 -10 110 25q41 20 49 34.5t-10 32.5q-23 23 -59.5 12.5t-77.5 -49.5q-49 -43 -12 -55z M486.5 1497q17.5 41 117.5 129q16 10 133 12q84 0 100.5 -4t16.5 -20q0 -20 -35 -57t-133 -119q-63 -57 -97 -62.5t-73 33.5q-47 47 -29.5 88z" />
<glyph unicode="&#xea;" horiz-adv-x="811" d="M21.5 866.5q-5.5 61.5 29.5 134.5q31 66 50.5 85.5t68.5 37.5q33 12 145.5 13.5t206.5 -11.5q49 -6 111.5 -53t95.5 -100q33 -55 35 -92t-27 -68q-29 -33 -134 -72t-194.5 -65.5t-89.5 -32.5q0 -14 86.5 -52t151.5 -54q88 -23 111.5 -37.5t23.5 -46.5q0 -45 -20.5 -54.5 t-89.5 -1.5q-90 10 -189.5 47t-175.5 86q-66 43 -85 65.5t-56 98.5q-49 111 -54.5 172.5zM199 897q0 -33 26.5 -44t102.5 -7q88 4 165.5 35.5t77.5 62.5q0 16 -13 23.5t-64 17.5q-76 14 -114 13t-89 -23q-55 -20 -73.5 -35.5t-18.5 -42.5zM222 1369q1 42 30 69q31 29 139 92 q113 65 125 88q35 53 84 -8q55 -68 55 -176q0 -66 18.5 -104t67.5 -77q55 -45 48 -82.5t-72 -37.5q-90 0 -180 137q-53 80 -68 80q-18 0 -92 -37q-68 -33 -85.5 -34t-41.5 21q-29 27 -28 69z" />
<glyph unicode="&#xeb;" horiz-adv-x="845" d="M25 705q14 66 53 136t78 99q107 76 252 94q113 18 180 3t131 -68q92 -78 62.5 -174.5t-160.5 -139.5q-96 -31 -213 -59q-94 -23 -123 -34t-29 -25q0 -39 99.5 -49.5t228.5 14.5q88 18 114.5 10t30.5 -53q4 -39 -11.5 -55.5t-60.5 -24.5q-47 -8 -84 -25 q-37 -18 -110.5 -24t-128.5 6q-63 14 -152.5 65.5t-111.5 87.5q-29 43 -42.5 108t-2.5 108zM263 1314q-3 40 13 56q20 20 59.5 15t57.5 -31q20 -27 24.5 -60.5t-11.5 -50.5q-18 -16 -58.5 -13t-61 23.5t-23.5 60.5zM305 774q49 -10 162 23q72 20 96.5 33.5t24.5 31.5t-74 17 q-59 -2 -98 -12.5t-90 -41.5q-70 -43 -21 -51zM673 1342.5q0 12.5 25 39.5q27 27 52 27q37 0 62.5 -44t4.5 -71q-18 -20 -58 -17t-63 26q-23 27 -23 39.5z" />
<glyph unicode="&#xee;" horiz-adv-x="681" d="M20 1290q0 63 45.5 114.5t202.5 168.5q56 45 56 55t127 10q90 0 108.5 -3t18.5 -21q0 -31 27.5 -135.5t39.5 -122.5q16 -25 15 -64t-17 -51q-47 -39 -139 105q-68 109 -81 124t-38 7q-29 -10 -84 -60q-57 -53 -100 -84q-41 -31 -66 -76q-23 -47 -53 -51q-61 -6 -62 84z M106 575q0 29 1.5 53.5t2.5 50.5t2 43t4 41.5t4 36t5 39t5 34l6 39t7 38.5q11 65 31 92q16 27 47 29t53 -22q20 -18 30.5 -73.5t2.5 -92.5q-10 -37 -18 -250q-8 -211 -30.5 -270.5t-86.5 -45.5q-37 10 -51.5 63.5t-14.5 194.5z" />
<glyph unicode="&#xef;" horiz-adv-x="636" d="M20 474q-2 44 29 120q25 59 50.5 162.5t35.5 173.5q6 55 31 86q68 84 137 -51q18 -37 12 -99.5t-43 -191.5q-35 -119 -33.5 -153t37.5 -52q55 -25 39 -74t-84 -63q-47 -8 -95 8t-79 51q-35 39 -37 83zM92 1438.5q0 41.5 27 66.5q23 20 37 22.5t32 -14.5q41 -31 55.5 -79 t-10.5 -70q-16 -16 -56 -13t-60 23q-25 23 -25 64.5zM459.5 1305q-17.5 44 17.5 79q51 51 102.5 5t34.5 -125q-6 -29 -23.5 -34t-58.5 11q-55 20 -72.5 64z" />
<glyph unicode="&#xf3;" horiz-adv-x="874" d="M25 1153q10 33 51 68t84 45q41 10 95 2t89 -29q45 -27 101.5 -92.5t80.5 -118.5q72 -156 37 -295q-35 -135 -85 -233.5t-105 -132.5q-53 -35 -116.5 -35t-115.5 37q-68 49 -84 87t-20 150q-4 133 20 234q25 90 25 121.5t-23 56.5q-55 57 -34 135zM216 636.5 q-7 -104.5 20 -114.5q20 -8 53 33q35 39 54 83t48 144q25 86 26 106.5t-14 72.5q-20 65 -63 112t-59 47q-10 0 -14.5 -12t0.5 -30.5t16 -35.5q18 -29 13 -74.5t-40 -136.5q-33 -90 -40 -194.5zM391 1327q-10 39 65.5 114t174.5 126q98 53 100 61q6 10 57 10q35 0 45.5 -5 t16.5 -25q10 -41 -15.5 -80t-127.5 -144l-134 -137h-65q-53 0 -80 18.5t-37 61.5z" />
<glyph unicode="&#xf4;" horiz-adv-x="843" d="M20 969q0 33 51.5 98.5t100.5 97.5q8 4 23 15q66 43 73.5 54t-6.5 38q-2 6 -4 10q-20 43 -20 84t20 57q6 6 147.5 93.5t149.5 101.5q14 20 76 20q41 0 53 -5t23 -27q14 -31 37.5 -133.5t23.5 -133.5q0 -27 33 -71q57 -76 -25 -84q-31 -4 -83 43t-83 104q-29 53 -39 53 q-12 0 -52 -27.5t-73 -60.5q-43 -39 -40 -77q0 -14 12 -15q18 0 89 -73.5t120 -147.5q74 -113 94 -201q14 -61 15 -86.5t-11 -79.5q-16 -72 -42 -114.5t-77 -83.5q-47 -39 -118.5 -72t-110.5 -33q-70 0 -154 41t-104 86q-16 37 -39 132.5t-23 129.5q0 47 15 103 q10 43 7 57.5t-26 40.5q-33 37 -33 66zM246 602q-2 -82 43 -107.5t119 13.5q53 25 76.5 48.5t50.5 72.5q37 74 27.5 162t-60.5 143q-35 39 -60 76q-59 88 -118 -13q-74 -125 -78 -395z" />
<glyph unicode="&#xf6;" horiz-adv-x="903" d="M25 524q12 47 13 143.5t-9 135.5q-18 61 23.5 130.5t113.5 96.5q39 14 113.5 12t136.5 -18q41 -12 118.5 -83t116.5 -132q39 -59 57.5 -141t4.5 -144q-43 -201 -238 -293q-43 -20 -73.5 -26t-86.5 -4q-88 0 -137 16q-74 27 -123 127t-30 180zM195 479q-5 -84 14 -102 q31 -31 127 -5.5t145 77.5q35 37 48.5 63.5t27.5 85.5q14 61 0 108.5t-63 98.5q-33 33 -50.5 42t-50.5 9q-55 0 -90 -46t-78 -177q-25 -70 -30 -154zM315.5 1337.5q-3.5 39.5 14.5 57.5t58 14t61 -25q20 -20 23 -61t-17 -57q-14 -10 -47 -5t-64 23q-25 14 -28.5 53.5z M679.5 1308q-14.5 41 20.5 76q25 25 80 25q102 0 103 -88q0 -47 -38 -65.5t-100 -2.5q-51 14 -65.5 55z" />
<glyph unicode="&#xf9;" horiz-adv-x="714" d="M37 801q23 109 65 236t60 139q23 16 31 16q18 0 50.5 -29.5t47.5 -60.5q14 -33 13 -49.5t-23 -75.5q-25 -70 -52.5 -190.5t-27.5 -165.5q0 -102 98 4q102 111 135 276q16 76 45 145.5t58 96.5q45 45 101 10t56 -106q0 -51 -24.5 -141.5t-53.5 -147.5q-31 -55 -30 -82 q0 -18 35.5 -52t58.5 -34q10 0 11 -16.5t-7 -42t-22 -48.5q-10 -16 -22.5 -20t-45.5 -2q-51 4 -90 22q-39 16 -55 4q-111 -80 -147 -99t-73 -17q-141 4 -186 121.5t-6 308.5zM164 1626q0 12 76 12h75l68 -94q119 -158 35 -147q-25 4 -68 24q-68 31 -127 95.5t-59 109.5z" />
<glyph unicode="&#xfa;" horiz-adv-x="839" d="M20.5 461.5q2.5 54.5 55.5 335.5q6 33 8 51q33 166 56.5 195.5t54 28.5t57.5 -32q39 -43 40 -89t-36 -183q-29 -104 -20 -111q25 -27 126 70q63 59 121 170q49 100 72 126t59 26q41 0 64.5 -33t23.5 -90q0 -39 -11 -69t-52 -97q-133 -217 -74 -266q16 -14 66.5 -7 t101.5 31q55 27 64 19q10 -10 -8.5 -80t-34.5 -86q-23 -23 -75 -34t-93 -5q-94 16 -162 94q-31 37 -42 41t-36 -8q-29 -16 -100 -82q-61 -59 -97 -63.5t-79 42.5q-2 2 -7 6q-45 45 -42.5 99.5zM515 1475.5q42 76.5 134 111.5q66 25 95.5 26t54.5 -20q55 -45 -31 -127 q-6 -6 -92 -90q-92 -88 -154 -26q-49 49 -7 125.5z" />
<glyph unicode="&#xfb;" horiz-adv-x="815" d="M23 563q-8 61 14 171t61 212q39 96 57.5 133t55.5 86q33 47 64.5 51.5t68.5 -34.5q78 -76 -2 -195t-121 -249t-2 -144q33 -12 137 127q61 82 109 229q39 117 63.5 156t59.5 39q41 0 72.5 -41t31.5 -92q0 -27 -42 -144.5t-42 -145.5t8.5 -42t34.5 -35q27 -20 34 -35.5 t7 -48.5q0 -51 -14 -65q-18 -18 -74.5 -13.5t-93.5 29.5q-43 31 -57 31q-10 0 -41 -43q-29 -43 -82.5 -79t-89.5 -36q-33 0 -97 18q-57 16 -84.5 54.5t-35.5 105.5zM295 1462q0 27 12 44.5t58 52.5q75 61 81 67q10 10 170 12h162l8 -32q10 -39 7.5 -94.5t-15.5 -69.5 q-16 -20 -33.5 -18.5t-48.5 28.5q-45 35 -103 24.5t-120 -63.5q-59 -53 -118.5 -36.5t-59.5 85.5z" />
<glyph unicode="&#xfc;" horiz-adv-x="835" d="M33 651q2 8 26.5 126t50 230.5t33.5 120.5q12 14 39 15.5t45 -13.5q49 -41 54.5 -101t-25.5 -204q-14 -57 -20.5 -94t-8.5 -61.5t1 -33.5t12 -9q16 0 118.5 104.5t120.5 136.5q4 6 30 66.5t50.5 112t34.5 59.5q39 29 75 5t50 -83q10 -39 1 -82t-50 -149q-31 -90 -24 -126 t67 -87q41 -33 60.5 -76t2.5 -62q-14 -12 -45 -12q-27 0 -88 34t-92 67q-31 31 -53 30q-25 0 -92 -63q-178 -172 -306 -84q-113 78 -67 233zM324 1468.5q2 7.5 22 30.5q39 45 86 22.5t86 -104.5q25 -53 18.5 -72.5t-47.5 -19.5q-29 0 -80 37t-73 74q-14 25 -12 32.5z M668 1424.5q-21 52.5 16 99.5q25 31 53 30q33 0 55.5 -34.5t22.5 -85.5q0 -49 -15.5 -67.5t-49.5 -10.5q-61 16 -82 68.5z" />
<glyph unicode="&#x2000;" horiz-adv-x="821" />
<glyph unicode="&#x2001;" horiz-adv-x="1642" />
<glyph unicode="&#x2002;" horiz-adv-x="821" />
<glyph unicode="&#x2003;" horiz-adv-x="1642" />
<glyph unicode="&#x2004;" horiz-adv-x="547" />
<glyph unicode="&#x2005;" horiz-adv-x="410" />
<glyph unicode="&#x2006;" horiz-adv-x="273" />
<glyph unicode="&#x2007;" horiz-adv-x="273" />
<glyph unicode="&#x2008;" horiz-adv-x="205" />
<glyph unicode="&#x2009;" horiz-adv-x="328" />
<glyph unicode="&#x200a;" horiz-adv-x="91" />
<glyph unicode="&#x2010;" d="M25 803q10 29 46 44.5t124 29.5q82 14 241.5 10t190.5 -19q27 -14 45 -35.5t10 -29.5q-10 -10 -283 -45q-88 -12 -178 -35q-59 -16 -83.5 -17t-53.5 9q-80 25 -59 88z" />
<glyph unicode="&#x2011;" d="M25 803q10 29 46 44.5t124 29.5q82 14 241.5 10t190.5 -19q27 -14 45 -35.5t10 -29.5q-10 -10 -283 -45q-88 -12 -178 -35q-59 -16 -83.5 -17t-53.5 9q-80 25 -59 88z" />
<glyph unicode="&#x2012;" d="M25 803q10 29 46 44.5t124 29.5q82 14 241.5 10t190.5 -19q27 -14 45 -35.5t10 -29.5q-10 -10 -283 -45q-88 -12 -178 -35q-59 -16 -83.5 -17t-53.5 9q-80 25 -59 88z" />
<glyph unicode="&#x2013;" horiz-adv-x="1062" d="M27 803q15 29 70.5 44.5t191.5 29.5q126 14 372.5 10t293.5 -19q42 -14 70 -35.5t15 -29.5q-15 -10 -436 -45q-136 -12 -275 -35q-91 -16 -129 -17t-82 9q-124 25 -91 88z" />
<glyph unicode="&#x2014;" horiz-adv-x="2086" d="M33 803q31 29 142 44.5t383 29.5q253 14 745 10t588 -19q83 -14 138.5 -35.5t30.5 -29.5q-30 -10 -873 -45q-271 -12 -549 -35q-182 -16 -257.5 -17t-165.5 9q-246 25 -182 88z" />
<glyph unicode="&#x2019;" horiz-adv-x="305" d="M20.5 1036.5q2.5 57.5 42.5 214.5q37 150 58 206.5t41 64.5q43 18 74.5 -4.5t44.5 -81.5q12 -47 -21 -168q-47 -182 -63 -303q-12 -90 -39 -117l-27 -29l-29 27q-29 29 -51 72q-33 61 -30.5 118.5z" />
<glyph unicode="&#x201c;" horiz-adv-x="753" d="M37 560.5q4 42.5 20 62.5q14 16 54.5 15t56.5 -20q35 -39 48 -84t15 -118q0 -84 -22.5 -132t-73.5 -71q-39 -18 -52 -18t-36 22q-49 47 -8 156q18 53 4 104q-10 41 -6 83.5zM502 283q0 47 43 187.5t61 154.5q25 16 54.5 10t50.5 -35q25 -33 23.5 -97.5t-25.5 -131.5 q-27 -68 -53.5 -98.5t-69.5 -43.5q-45 -12 -64.5 0.5t-19.5 53.5z" />
<glyph unicode="&#x201d;" horiz-adv-x="776" d="M25 1212q6 37 42.5 119t59.5 107q18 23 47 18q59 -8 75.5 -94t-26.5 -154q-31 -45 -39 -94q-10 -57 -26.5 -64.5t-65.5 23.5t-62.5 59.5t-4.5 79.5zM477 1200q0 29 12.5 49.5t57.5 65.5t66.5 57t48.5 12q94 0 94 -100q0 -33 -7.5 -49t-25.5 -31q-18 -16 -90 -88 q-41 -43 -53.5 -49t-32.5 4q-31 16 -50.5 52t-19.5 77z" />
<glyph unicode="&#x2022;" horiz-adv-x="436" d="M25 907q-12 55 5 114.5t56 92.5q27 23 44 27t56 2q78 -6 134.5 -41t80 -83t12 -106.5t-60.5 -107.5q-53 -57 -121.5 -63.5t-132.5 40.5q-35 25 -48 48.5t-25 76.5z" />
<glyph unicode="&#x202f;" horiz-adv-x="328" />
<glyph unicode="&#x205f;" horiz-adv-x="410" />
<glyph unicode="&#x20ac;" horiz-adv-x="1146" d="M37 899q20 53 60 70.5t143 17.5q86 0 108.5 15.5t79.5 107.5q25 41 123 122t121 81q10 0 128.5 52t157.5 75q57 33 113 10q23 -8 44.5 -53t6.5 -56q-18 -14 -344 -163q-31 -16 -82 -63.5t-51 -59.5q0 -16 166 -21q129 -4 184.5 -18.5t67.5 -46.5q6 -18 -5 -24.5 t-71 -12.5q-47 -4 -68.5 -14.5t-52.5 -38.5q-43 -41 -86 -56.5t-123 -15.5q-47 0 -67.5 -5t-38.5 -22q-25 -25 -25 -40t29 -42q20 -20 51 -22t182 2q150 6 181.5 3t48.5 -22q25 -25 24 -63q0 -27 -9 -35t-48 -18q-74 -20 -186.5 -22.5t-177.5 14.5q-84 23 -133.5 54.5 t-94.5 94.5l-55 76l-115 -6q-137 -8 -179 24.5t-7 120.5z" />
<glyph unicode="&#x25fc;" horiz-adv-x="1167" d="M0 0v1167h1167v-1167h-1167z" />
</font>
</defs>
</svg>
