<?xml version="1.0" standalone="no"?>
<!DOCTYPE svg PUBLIC "-//W3C//DTD SVG 1.1//EN" "http://www.w3.org/Graphics/SVG/1.1/DTD/svg11.dtd" >
<svg xmlns="http://www.w3.org/2000/svg" xmlns:xlink="http://www.w3.org/1999/xlink" version="1.1">
<metadata></metadata>
<defs>
<font id="jermmedium" horiz-adv-x="602" >
<font-face units-per-em="2048" ascent="1638" descent="-410" />
<missing-glyph horiz-adv-x="860" />
<glyph horiz-adv-x="0" />
<glyph unicode="&#xd;" horiz-adv-x="681" />
<glyph unicode=" "  horiz-adv-x="860" />
<glyph unicode="&#x09;" horiz-adv-x="860" />
<glyph unicode="&#xa0;" horiz-adv-x="860" />
<glyph unicode="!" horiz-adv-x="331" d="M26.5 450.5q-10.5 18.5 2 36t39 17.5t40 -17.5t2 -36t-42 -18.5t-41 18.5zM85 731q-1 31 11 66q29 76 105 503q14 97 28 115q12 14 37 14.5t37 -16.5q14 -16 -2 -80q-57 -221 -106 -475q-20 -106 -31.5 -142t-30.5 -42q-20 -8 -33.5 9t-14.5 48z" />
<glyph unicode="#" horiz-adv-x="1150" d="M20 596q0 37 23 57q16 14 185 59.5t210 45.5q29 0 64 22q25 14 31 26.5t6 53.5q0 59 -15 72q-16 12 -164 -17q-123 -25 -154.5 -20.5t-31.5 45.5q0 55 68 43q31 -8 127 5t112 28q14 10 11 114q-2 66 1 87.5t15 29.5q23 12 38 -9t23 -75q18 -119 72 -119q35 0 44 26t3 112 q-8 105 4 123q16 18 45 12t39 -31q14 -29 15 -110v-50.5t7 -32t13 -19.5t28.5 -4t43 2t65.5 9q102 16 133 15.5t45 -21.5q10 -20 -16 -47q-18 -20 -33.5 -23.5t-68.5 1.5q-76 8 -136 -7l-59 -14v-67q0 -68 14 -80q29 -29 154 4q123 31 145 -8q12 -18 -16 -50 q-16 -16 -30.5 -21t-41.5 -3q-51 2 -114 -6l-68 -11l2 -114q2 -74 0 -97.5t-14 -29.5q-23 -16 -38 7t-32 93q-16 78 -26.5 97.5t-32.5 23.5q-27 4 -41.5 -12.5t-7.5 -44.5q6 -35 -23 -62q-53 -51 -78 35q-14 49 -33.5 56t-109.5 -9q-106 -18 -197.5 -47t-120.5 -53 q-31 -27 -57 -27q-16 0 -21.5 6t-5.5 31zM625 881q12 -47 25.5 -63.5t35.5 -16.5q63 0 41 86q-13 49 -27 65q-12 14 -36.5 13.5t-38.5 -17.5q-12 -16 0 -67z" />
<glyph unicode="$" horiz-adv-x="765" d="M20 604q0 6 15 19q20 16 84.5 31.5t111.5 15.5q53 0 67.5 12t35.5 76q10 39 12 77.5t-4 137.5l-6 153l-78 41q-74 41 -100.5 70t-26.5 74q0 31 12.5 49t71.5 74l84 77q-4 63 -8 127h92q66 0 82 -4t35 -28q27 -29 61 -37q66 -12 66 -43q0 -16 -35 -25q-20 -4 -30.5 -8 t-18.5 -12t-10.5 -32t-3.5 -50.5t-1 -85.5v-158l37 -25q37 -27 99 -86q57 -55 72.5 -96t0.5 -104q-12 -63 -36.5 -96t-90.5 -78l-82 -58l-2 -123q0 -109 -7 -143.5t-29.5 -34.5t-29.5 32t-7 124q-2 100 -19 115q-16 12 -215 8q-197 -2 -199 14zM242 1309q0 -20 27.5 -45 t43.5 -17q40 14 17 88q-8 31 -16.5 40t-22.5 9q-18 0 -33.5 -23.5t-15.5 -51.5zM371 768l24 -27q16 -16 31.5 -21t52.5 -5q100 2 148 78q18 31 21 73.5t-11 71.5q-12 25 -41 54.5t-41 29.5q-14 0 -31.5 -23.5t-23.5 -52.5q-8 -37 -21 -35q-26 17 -28 107q0 37 -15 37 q-16 0 -22 -74q-2 -74 -23 -143zM399 1395q2 -4 7.5 -52.5t12.5 -85t17 -36.5q14 0 15 90t-13 104q-20 20 -31.5 13t-7.5 -33z" />
<glyph unicode="%" horiz-adv-x="690" d="M20.5 1136.5q-0.5 28.5 16.5 82.5q20 70 83.5 105.5t133.5 14.5q41 -10 86 -71q43 -59 63 -58q16 4 60 66q40 59 65 86q41 43 68 0q12 -18 -23 -66q-84 -127 -141 -196q-37 -45 -85 -127t-62 -105q-41 -59 -49 -100q-6 -25 -22.5 -68t-20.5 -79q-6 -53 -21 -68 q-10 -14 -34.5 -15t-39.5 13q-20 20 -3.5 71.5t104.5 235.5q45 92 39 113q-6 14 -72 22q-57 8 -86 24.5t-45 53.5q-14 37 -14.5 65.5zM109 1137q0 -20 24.5 -46t44.5 -26q18 0 49 16.5t49 36.5q14 16 15.5 26.5t-6.5 39.5q-2 2 -2 6q-20 63 -47 63q-29 -2 -78 -46t-49 -70z M379 626.5q-4 30.5 14 84.5q18 47 35 112q11 50 23 62q12 16 59 15t70 -17q29 -18 57 -62q31 -43 34 -96t-24 -94q-18 -31 -66.5 -57.5t-99.5 -32.5q-27 -4 -39 0t-28 22q-31 33 -35 63.5zM461 635q0 -10 19.5 -11t43 7t33.5 20q35 37 18 88q-14 47 -53 19q-8 -6 -14 -15 q-14 -16 -30.5 -53t-16.5 -55z" />
<glyph unicode="&#x26;" horiz-adv-x="1130" d="M20 840q0 41 29 53t139 20q90 4 133.5 10.5t67 24t21.5 43t-21 74.5q-16 49 -16 84q0 25 5 32t21 7t23.5 -8.5t11.5 -28.5q8 -37 45 -111q33 -63 59.5 -79.5t104.5 -16.5q72 0 72 -16.5t-60 -16.5q-80 0 -111.5 -25.5t-43.5 -103.5q-6 -41 -37 -76.5t-60 -35.5 q-66 0 -147.5 16t-126.5 39q-63 33 -86 56.5t-23 58.5zM188.5 805q4.5 -19 41 -32t104.5 -14t80 11q23 23 13.5 65t-36.5 42q-29 -2 -92 -17.5t-84 -23.5q-31 -12 -26.5 -31zM770 946q0 41 215 41q76 2 100.5 -6t24.5 -35q0 -8 -9 -10t-36 4q-86 16 -231 0q-39 -6 -51.5 -4 t-12.5 10z" />
<glyph unicode="(" horiz-adv-x="503" d="M20 590q0 53 25 167.5t59 225.5q47 145 145 323.5t157 229.5q25 20 38 23.5t25 -11.5q18 -18 12 -42.5t-30 -45.5q-68 -49 -166.5 -248.5t-141.5 -373.5q-29 -113 -22.5 -246t43.5 -186q27 -39 52.5 -94.5t25.5 -73.5q0 -29 -17 -41q-10 -8 -23.5 0t-45.5 41 q-37 35 -52.5 63.5t-44.5 112.5q-39 123 -39 176z" />
<glyph unicode=")" horiz-adv-x="413" d="M22.5 1392q-7.5 28 12.5 46q16 18 41.5 3.5t91.5 -79.5q84 -86 124 -153.5t66 -166.5q29 -113 34 -190.5t-13 -161.5q-23 -113 -97.5 -288t-113.5 -207q-14 -12 -33.5 -3t-23.5 31q-4 18 47 121q119 238 145 332q16 59 14 150.5t-22 162.5q-31 111 -81 185.5t-153 162.5 q-31 27 -38.5 55z" />
<glyph unicode="*" d="M20.5 1235q-4.5 35 79.5 49q98 16 17 68q-31 18 -43.5 48t0.5 50q14 23 33.5 18.5t56.5 -34.5q51 -43 67.5 -32t14.5 83q-2 45 2 61.5t18 34.5q76 80 72 -68q0 -18 -2 -40q-6 -96 9 -106.5t79 50.5q35 33 55.5 44.5t42.5 11.5q33 0 50.5 -16.5t5.5 -35.5q-10 -16 -58 -45 q-70 -39 -37 -45q4 -2 13 -2q18 0 45 -20q18 -14 19 -21.5t-7 -25.5q-14 -25 -47 -45q-33 -18 -33 -29.5t45 -73.5q96 -137 -18 -137q-23 0 -31 8t-16 41q-10 45 -36 78t-44 24q-18 -6 -13 -77q4 -53 2 -63.5t-22 -10.5q-25 0 -38 14.5t-23 50.5q-10 39 -29 50 q-14 10 -29.5 -6.5t-44.5 -71.5q-20 -45 -38.5 -52.5t-45.5 15.5q-25 25 -23.5 41t33.5 55q63 74 64 101q0 10 -55 16q-86 10 -90.5 45z" />
<glyph unicode="+" horiz-adv-x="831" d="M27 737q-12 20 4 35q16 16 116.5 32.5t147.5 12.5q43 -4 73.5 9.5t30.5 37.5q-4 33 -14 92q-8 49 -7 64t17 31q31 33 47 -7q10 -23 23 -83l20 -93h52q51 0 100 17q49 18 95 16t65 -22q45 -49 -47 -60q-211 -25 -232 -41q-27 -23 4 -127q16 -57 2 -88q-35 -70 -71 -33 q-20 18 -25 121q-6 72 -10 88.5t-27 26.5q-18 10 -43.5 7t-99.5 -21q-195 -53 -221 -15z" />
<glyph unicode="," horiz-adv-x="186" d="M29 551q18 20 46.5 -4.5t57.5 -83.5q84 -190 -45 -256q-27 -14 -38 -15.5t-19 9.5q-23 29 24 96q37 53 -8 141q-45 90 -18 113z" />
<glyph unicode="-" horiz-adv-x="557" d="M20.5 786.5q-0.5 24.5 12.5 34.5q14 6 141 4q129 -1 170 15q57 20 87 15t65 -42q33 -35 39 -52.5t-9 -33.5q-12 -12 -53 6q-43 16 -240.5 10t-199.5 7q-12 12 -12.5 36.5z" />
<glyph unicode="." horiz-adv-x="227" d="M41 449q-49 51 10 112q35 31 72 31q49 0 72.5 -38t-2.5 -73q-33 -41 -78 -50t-74 18z" />
<glyph unicode="/" horiz-adv-x="555" d="M33 397q-31 31 16 103q35 47 120 208.5t136 274.5q70 152 123 301q33 95 45 109q16 16 31.5 14t25 -23.5t5.5 -48.5q-6 -41 -58 -147q-49 -104 -49 -115q0 -6 -94 -196q-176 -369 -187 -414q-10 -47 -49 -69.5t-65 3.5z" />
<glyph unicode="0" horiz-adv-x="649" d="M25.5 900.5q13.5 119.5 56.5 203.5q31 59 120 142t181 136q43 25 86 23t63 -31q20 -27 54.5 -155.5t38.5 -202.5q18 -193 -43 -273q-47 -61 -150.5 -112t-181.5 -51q-72 -2 -134.5 35.5t-80.5 93.5q-23 72 -9.5 191.5zM104 866q-6 -113 29 -154.5t137 -41.5 q61 0 102.5 12t90.5 45q57 39 73.5 77t14.5 136q0 180 -45 190q-14 2 -79 -80.5t-124 -179.5q-63 -104 -84 -67q-4 6 -6 18q-4 25 19.5 68t89.5 131t105.5 159.5t35.5 98.5t-22.5 26t-39.5 -28q-25 -33 -59 -39q-33 -8 -92 -51q-35 -27 -54.5 -52.5t-45.5 -82.5 q-29 -57 -36.5 -89t-9.5 -96z" />
<glyph unicode="1" horiz-adv-x="124" d="M22.5 720q2.5 52 6.5 165q10 289 10 343t-10 118q-12 76 -6 86q6 12 21 8t32 -23q16 -16 19 -80.5t7 -472.5q2 -164 0 -205t-16 -55q-18 -23 -33 -22q-14 0 -20 7t-9.5 43t-1 88z" />
<glyph unicode="2" d="M20 733q0 23 10.5 41.5t43.5 50.5l53 52l111 -7q76 -4 98 -2t39 17q66 61 51.5 172.5t-94.5 165.5q-43 27 -109 47q-68 20 -80 31t11 36q27 33 78 26t103 -35t98 -77t65 -102q18 -55 16 -95t-27 -124q-25 -88 -24.5 -119t24.5 -66q94 -131 95 -186q0 -61 -31 -57 q-39 6 -76 90q-20 47 -55 90t-53 43q-14 0 -29 -18q-12 -16 -70 -50q-86 -49 -167 -24.5t-81 100.5zM145.5 733.5q1.5 -20.5 18.5 -20.5q20 0 49 20.5t25 32.5q-4 20 -33 21t-45 -17q-16 -16 -14.5 -36.5z" />
<glyph unicode="3" horiz-adv-x="647" d="M20 1268q0 39 72 55q43 10 140.5 -26.5t144.5 -79.5q68 -63 -10 -150q-37 -43 -37 -53q0 -14 80 -68q57 -39 113.5 -93t84.5 -95q18 -29 17.5 -79t-21.5 -73q-39 -43 -95 -58.5t-196 -21.5q-133 -6 -168.5 -2t-35.5 29q0 12 20 37q14 14 40 17t128 -1q106 -4 132 -1 t52 22q37 27 48.5 46t5.5 48q-12 41 -76 93t-162 101q-141 66 -141 101q-2 14 18 31q51 35 66 45q45 27 51 46t-17 42q-43 43 -190 57q-43 4 -53.5 9t-10.5 22z" />
<glyph unicode="4" horiz-adv-x="532" d="M20 958q0 35 15 119q12 68 22 174q11 90 29 119t35 25q59 -12 2 -271q-10 -49 -9 -87t13 -46q14 -8 88 -20.5t121 -14.5q37 0 48 5.5t28 29.5q14 25 17 53.5t-1 129.5q-2 104 0 128.5t18 38.5q37 35 62 9q12 -16 -6.5 -280.5t-36.5 -321.5q-12 -35 -21 -164 q-12 -156 -45 -156q-8 -2 -20 6q-53 35 -14 217q25 119 24 148q0 43 -36 56t-173 22q-104 8 -132 22t-28 59z" />
<glyph unicode="5" horiz-adv-x="718" d="M29 561q-20 35 14 35q29 -2 100 -27q90 -29 129 -31.5t121 11.5q139 29 146.5 121t-121.5 215q-117 111 -207 129q-27 4 -38 9t-22.5 11t-11.5 28.5v46.5t2 81q6 106 17.5 138t42.5 38t234.5 5t230.5 -7q33 -6 32 -29q0 -23 -42 -29t-197 -8l-172 -2l-23 -34 q-23 -37 -20 -97l4 -59l78 -45q72 -41 157.5 -125t110.5 -137q27 -55 31 -123q4 -45 1 -64.5t-18 -44.5q-25 -37 -55 -51q-35 -16 -125 -29.5t-117 -5.5q-31 10 -104 11q-57 0 -108.5 19t-69.5 50z" />
<glyph unicode="6" horiz-adv-x="507" d="M20.5 780q-0.5 25 14.5 86q37 156 119 252q16 16 44.5 54t54 64t56.5 44q49 33 65.5 37t31.5 -12q14 -23 5.5 -47.5t-38.5 -43.5q-55 -33 -111.5 -92t-81.5 -110q-31 -61 -25.5 -82t48.5 -10q51 10 117.5 6t89.5 -17q25 -18 51 -59q16 -27 21 -51.5t5 -79.5q0 -53 -5 -78 t-21 -51q-25 -41 -58.5 -63.5t-91.5 -39.5q-221 -57 -278 209q-12 59 -12.5 84zM126.5 762q-20.5 -43 4.5 -115q16 -53 42 -70.5t83 -17.5q45 0 61.5 6t38.5 31q51 53 54.5 119.5t-41.5 115.5q-41 43 -146 5q-76 -31 -96.5 -74z" />
<glyph unicode="7" horiz-adv-x="514" d="M27 1311q-12 20 6 37q12 14 31.5 14t97.5 -12q113 -20 154.5 -18.5t71.5 26t44 25.5t37 -19q20 -20 23.5 -55t-13.5 -62q-39 -59 -80 -209q-18 -63 -43 -114q-57 -117 -100 -342q-33 -170 -61 -174q-8 -2 -19 6q-23 12 -17.5 85.5t31.5 149.5q20 57 53 159.5t62 182.5 q78 219 43 246q-16 12 -131 27q-113 14 -146.5 22t-43.5 25z" />
<glyph unicode="8" horiz-adv-x="536" d="M20 1111q-2 36 27 79q23 33 72 64.5t92 41.5q74 20 182 -6q94 -20 114.5 -70.5t-18.5 -156.5q-35 -96 -133 -205l-34 -35l26 -47q68 -117 85.5 -157.5t17.5 -79.5q2 -47 -14.5 -77t-59.5 -56q-39 -25 -107.5 -27t-103.5 20q-100 63 -109.5 142.5t68.5 185.5q59 82 59 100 q0 35 -129 203q-33 45 -35 81zM132 1097q5 -36 65 -114q66 -88 84 -88q33 0 90 100.5t57 157.5q0 20 -9 27.5t-48 15.5q-53 12 -113 12q-39 0 -54.5 -6t-37.5 -28q-39 -41 -34 -77zM151.5 566.5q-4.5 -66.5 14.5 -81.5q12 -12 53 -24q37 -10 66.5 1t68.5 52l33 35l-22 45 q-19 47 -64 96t-70.5 46t-56.5 -64q-18 -39 -22.5 -105.5z" />
<glyph unicode="9" horiz-adv-x="544" d="M27 1085q-16 45 9 113t70 102q49 37 121 76t109 49q41 12 98.5 9.5t75.5 -19.5q16 -14 12 -66.5t-26 -97.5l-29 -57l2 -281q4 -283 -4 -297t-35 -12t-39 17q-16 16 -12 71q6 121 -2 243t-25 128q-16 4 -78 -19q-90 -35 -158.5 -22.5t-88.5 63.5zM117 1171q0 -37 17.5 -49 t74.5 -12q49 0 64.5 6t50.5 41q29 31 59.5 88t30.5 84q0 12 -47 12q-70 -2 -193 -92q-37 -27 -47 -41t-10 -37z" />
<glyph unicode=":" horiz-adv-x="337" d="M21.5 473q4.5 37 31.5 74q33 45 62 45q33 0 54 -31t18 -70.5t-29 -62.5q-25 -18 -67 -21.5t-58 11.5q-16 18 -11.5 55zM154 971q10 41 30 49q18 12 63.5 12t57.5 -12q16 -18 11 -53t-27 -60q-57 -57 -106.5 -33.5t-28.5 97.5z" />
<glyph unicode=";" horiz-adv-x="249" d="M33 535q14 14 38.5 13t34.5 -13q16 -20 31 -99.5t10 -111.5q-8 -43 -21 -57.5t-48 -14.5h-37l8 74q6 78 -12 110q-35 68 -4 99zM87.5 849.5q3.5 40.5 21.5 65.5q37 45 78.5 24t41.5 -85q0 -45 -14 -59.5t-57 -14.5q-45 0 -60 13q-14 16 -10.5 56.5z" />
<glyph unicode="&#x3c;" horiz-adv-x="626" d="M25.5 784q-17.5 37 35.5 80q39 29 138 174q152 221 196 281q33 41 39 76q8 33 27.5 55.5t50.5 22.5q16 0 21.5 -6.5t5.5 -24.5q0 -35 -32 -95.5t-73 -107.5q-49 -51 -49 -61q0 -12 -70 -105q-72 -96 -77 -115q-8 -25 -39 -63q-45 -55 -38 -85t70 -62q41 -23 160 -113 q76 -59 106.5 -90t61.5 -80q47 -78 47 -123q0 -35 -5 -41t-34 -6q-33 0 -47 15.5t-22 58.5q-4 37 -33 84q-27 39 -136.5 122.5t-187.5 122.5q-98 49 -115.5 86z" />
<glyph unicode="=" horiz-adv-x="888" d="M20 961q0 27 19 40q14 12 67.5 12.5t344.5 -7.5q145 -4 192.5 -3t67.5 13q72 39 112 -8q18 -18 22.5 -45t-11 -36t-246 -5t-285.5 12q-68 12 -135 0q-147 -25 -148 27zM66 698q0 37 43 45.5t243 10.5q250 0 258 6q8 8 120 5t126 -11q12 -8 11 -45t-15 -50q-29 -25 -94 21 q-29 20 -109 25.5t-135 -9.5q-63 -16 -147 -16q-86 0 -148 -16q-82 -20 -117.5 -12.5t-35.5 46.5z" />
<glyph unicode="&#x3e;" horiz-adv-x="573" d="M21.5 1428.5q-4.5 15.5 11.5 31.5q25 25 54.5 8.5t55.5 -67.5q4 -8 66.5 -97.5t66.5 -111.5q12 -45 93.5 -134t146.5 -130q25 -14 31 -25.5t6 -40.5q0 -27 -6 -38t-27 -23q-55 -29 -129 -82t-115 -96q-57 -55 -102 -152q-43 -94 -68 -115q-25 -25 -42 -10.5t-21 60.5 q-2 35 11.5 60.5t74.5 106.5q90 117 129 150q66 47 107 89t41 60q0 23 -39 62q-47 45 -217 313q-51 82 -89 125q-35 41 -39.5 56.5z" />
<glyph unicode="?" horiz-adv-x="503" d="M20 1202q2 29 70 68l12 8q63 35 140 5t137 -109q43 -55 73.5 -120t30.5 -98q0 -23 -17 -49t-93 -125q-51 -63 -60 -112q-6 -27 -12 -36t-20 -9q-41 0 -54 57q-18 74 80 170q47 45 56.5 62.5t9.5 56.5q0 51 -18.5 83.5t-78.5 92.5l-65 65l-66 -6q-61 -6 -94 -14t-31 10z M186 367q0 18 21.5 44.5t38.5 26.5q14 0 37.5 -26.5t23.5 -42.5q0 -18 -22.5 -46t-38.5 -28t-38 26t-22 46z" />
<glyph unicode="@" horiz-adv-x="964" d="M20 686q0 127 34 187.5t149 136.5q61 41 102.5 59.5t104.5 34.5q104 29 178 24q51 -6 76.5 -15t78.5 -44q82 -53 125 -116.5t64 -155.5q16 -88 10 -138q-6 -45 -39 -98t-74 -90q-47 -43 -137 -77t-155 -34q-41 0 -93 -12q-49 -12 -127 2q-72 12 -116.5 34t-91.5 62 q-51 47 -70 98.5t-19 141.5zM99.5 761q-21.5 -81 0.5 -157q14 -51 73.5 -102t125.5 -72q106 -35 168.5 -31t114.5 52q20 20 22 47.5t-12 97.5q-14 63 -32.5 75.5t-70.5 -3.5q-39 -10 -51 -22.5t-35 -61.5q-57 -121 -102 -76q-12 12 -12 21.5t14 43.5q6 14 31.5 82t48.5 122 t39 77q31 45 42 85t-1 54q-27 35 -121 2.5t-164 -98.5q-57 -55 -78.5 -136zM489 807q-10 -29 11 -27q22 7 28 27q0 16 -16 16t-23 -16zM596 967q0 -90 16 -123q20 -39 46 -145.5t26 -151.5q0 -41 4 -47t31 -6q37 0 82 45q43 49 57 86q29 86 -8 199.5t-109 164.5 q-44 31 -67 45q-29 20 -53 21q-18 0 -21.5 -12.5t-3.5 -75.5z" />
<glyph unicode="A" horiz-adv-x="886" d="M45 471q-27 0 -27 12q0 18 58 62q57 41 104 102q74 92 88 129q4 12 4 25q0 25 -18 51q-10 15 -10 29q0 35 55 71q35 23 51 78q31 125 37 318q2 53 20.5 110t45.5 90q12 14 39 11q29 -2 57.5 -61.5t46.5 -149.5q20 -90 31 -123q6 -18 20.5 -71.5t26.5 -78.5q14 -33 24 -82 q8 -43 45 -59q29 -14 33 -24.5t-14 -24.5q-16 -10 -19 -51q0 -35 35 -127.5t62 -131.5l26 -32l-20 -37q-23 -35 -49 -35q-23 0 -37.5 29.5t-24.5 105.5q-12 74 -30.5 149.5t-26.5 86.5q-13 16 -88 16q-32 0 -74 -2q-144 -10 -176 -35q-10 -8 -55 -90q-37 -72 -124 -166 t-116 -94zM403 1069q-5 -45 -5 -74q0 -33 8 -43q14 -18 114 -18q90 0 110 14q16 11 16 49q0 8 -1 17q-6 41 -36.5 113.5t-55.5 105.5q-20 25 -43 78q-21 54 -39 54q-10 0 -20 -17q-18 -29 -25 -99q-10 -102 -23 -180z" />
<glyph unicode="B" horiz-adv-x="858" d="M20 1374l52 68q47 66 86 110q35 37 43 64q4 14 16 18t51 4q59 0 60 -8q0 -8 57 -22q76 -16 139.5 -53t93.5 -80q116 -156 116 -252q0 -46 -27 -78q-29 -35 -25 -45t59 -53q71 -55 91 -131q6 -24 7 -49q0 -52 -28 -105q-25 -47 -87 -95.5t-122 -64.5q-45 -12 -96 -35 q-41 -16 -154.5 -39.5t-163.5 -23.5q-47 0 -47 14q0 47 121 64q121 16 219 55q49 20 99 33q39 10 90 52t71 81q16 31 17 74q0 27 -8.5 42t-34.5 39q-63 57 -191 78q-43 8 -57 29.5t6.5 45.5t67.5 38q84 25 101 61q5 11 5 26q0 31 -24 77q-55 98 -112.5 145t-145.5 66 q-67 13 -94 13h-9q-22 -3 -53 -34q-31 -33 -41 -69.5t-13 -116.5q-2 -48 -2 -143q0 -63 1 -148l2 -360l-33 -21q-41 -25 -53 6q-12 33 -19 199q-4 125 -12 206t-12 177z" />
<glyph unicode="C" horiz-adv-x="940" d="M33 952q18 96 32.5 141.5t43.5 88.5q78 113 233 222t274 136q34 7 100 7q26 0 58 -1q115 -4 133 -22q16 -18 6 -37q-8 -12 -36.5 -15.5t-133.5 -3.5h-159l-105 -51q-113 -57 -170 -102q-66 -51 -71 -51q-10 0 -41 -49.5t-50 -96.5q-35 -90 -48 -215q-5 -49 -5 -89 q0 -61 12 -101q37 -121 263 -185q37 -12 174 -18q34 -1 61 -1q40 0 63 2q38 3 81 15q70 22 102 22q27 0 27 -16q0 -14 -60.5 -37.5t-97.5 -23.5q-35 0 -119 -16q-59 -13 -92 -13h-3q-33 0 -110 13q-129 18 -181 38.5t-97 65.5q-96 95 -96 263q0 60 12 130z" />
<glyph unicode="D" horiz-adv-x="878" d="M20 389q0 37 55.5 53.5t231.5 28.5q207 16 264.5 30.5t139.5 69.5q41 29 55 71t14 132q0 74 -10 122t-49 142q-25 68 -87.5 167.5t-96.5 131.5q-23 23 -93 56q-43 20 -71.5 25t-93.5 5q-98 0 -132 -16l-32 -16l-2 -347v-73q0 -277 14 -295q16 -25 14 -54.5t-22 -56.5 q-18 -23 -45 -28t-37 12q-6 11 -6 285v153q2 348 11 415.5t54 104.5q26 17 44 21q7 1 19 2q22 0 62 -4q150 -12 265.5 -66.5t170.5 -138.5q141 -207 185 -433q16 -80 16 -144q0 -118 -53 -183q-61 -78 -179 -111.5t-384 -50.5q-92 -6 -146 -32q-41 -23 -58.5 -18t-17.5 40z " />
<glyph unicode="E" horiz-adv-x="1011" d="M20.5 828.5q-2.5 11.5 12.5 41.5q11 29 11 120q0 45 -3 106q-8 194 -8 256v19q2 42 20 67q17 20 31 24q10 3 36 3q13 0 30 -1q10 -1 22 -1q65 0 158 20q100 23 229 33q129 14 154 22q18 5 44 5q13 0 29 -1q46 -4 62 -16q18 -16 12 -42t-35 -44l-37 -23l-22 29 q-32 37 -113 37q-67 0 -166 -25q-115 -28 -136 -28h-1q-37 0 -95 -24t-89 -50l-43 -39v-363l47 4q224 31 282 33h16q55 0 140 -12q76 -12 98.5 -22.5t22.5 -38.5q1 -16 -25 -20q-12 -2 -52 -1q-46 0 -128 2q-46 1 -85 1q-109 0 -165 -8q-78 -11 -108 -42q-16 -16 -18 -34 q-1 -6 -1 -17q0 -21 3 -60q16 -233 30 -254q12 -15 60 -15q73 0 231 34q155 31 313 37q29 1 53 1q110 0 134 -22q23 -20 23 -42q0 -24 -27 -50l-27 -25l-22 29q-16 20 -40 24.5t-149 4.5q-311 0 -473 -74q-48 -23 -106 -28q-13 -1 -24 -1q-37 0 -50 13q-10 10 -10 151v51 q1 51 1 88q-1 64 -3 82q-4 29 -22.5 51.5t-21 34z" />
<glyph unicode="F" horiz-adv-x="946" d="M20.5 1356q-2.5 35 2 59.5t12.5 29.5t24 9q12 3 199 3q94 0 231 -1q307 -2 372 -8t65 -35q0 -14 -27 -39l-29 -24l-77 30q-75 29 -125 34q-12 1 -25 1q-40 0 -86 -12q-68 -16 -205 -19q-119 -2 -165 -13t-64 -48q-12 -25 -13 -67v-11q0 -48 7 -182q8 -129 24 -141 q5 -4 22 -4q31 0 101 14q78 18 104 19h3q26 0 80 -13q51 -12 65 -19.5t14 -23.5q0 -23 -37.5 -31t-150.5 -8q-68 0 -95.5 -5t-64.5 -26l-53 -28l-8 -150q-8 -150 -8 -151q-4 -6 -31 -2t-33 12q-6 14 -8 282q-2 285 -14 453q-4 80 -6.5 115z" />
<glyph unicode="G" horiz-adv-x="1234" d="M20 647q0 68 6.5 106t30.5 107q37 111 70 144q31 35 47 73q16 37 86 107.5t146 130.5q80 59 86 59t106 43q53 25 127 47.5t160 32.5q21 3 40 3q57 0 89 -23q33 -22 33 -42q0 -11 -9 -22q-9 -12 -71 -12q-23 0 -54 2q-43 3 -73 3q-25 0 -42 -2q-36 -5 -124 -28 q-80 -23 -116 -40t-87 -54q-76 -57 -164 -149q-53 -57 -80.5 -98.5t-66.5 -121.5q-45 -90 -54.5 -122.5t-11.5 -100.5l-6 -96l55 -82q53 -76 97 -92q35 -13 127 -13q28 0 61 1q86 2 119 7t67 23q49 25 75 62t40 102q7 34 7 63t-7 54q-10 39 -28.5 60.5t-61.5 41.5 q-33 18 -37 35.5t19 42.5q23 23 57.5 23t124.5 -27q96 -27 207 -27q190 0 200 -30q6 -12 1 -20.5t-27.5 -13.5t-61.5 -8t-110 -5l-178 -7l-7 -88q-6 -76 -27.5 -147.5t-45.5 -108.5q-29 -41 -76 -62.5t-152 -41.5q-92 -18 -124 -20q-5 -1 -10 -1q-30 0 -79 11 q-92 16 -160.5 58t-99.5 101q-23 39 -28 64.5t-5 97.5z" />
<glyph unicode="H" horiz-adv-x="681" d="M33 1491q6 29 14 39t23 10q33 0 44 -31.5t17 -138.5q8 -127 25 -199q18 -66 18 -104q0 -39 25 -63q16 -18 41.5 -22.5t138.5 -4.5q135 0 159 11q16 7 15 35q0 14 -4 34q-8 39 -9 201v34q0 131 7 158q6 27 26 39q18 12 45 -16q20 -20 22 -36q1 -4 1 -11q0 -22 -6 -74 q-11 -79 -11 -118v-6q1 -38 13 -173q14 -160 20 -326q4 -103 4 -144v-21q-2 -28 -22 -48q-25 -29 -45 -16q-12 8 -14 30q-1 11 -1 33.5t1 57.5v26q0 69 -8 137q-10 82 -27 103q-10 14 -166 14t-170 -14q-12 -12 -14 -201q0 -152 -6.5 -194.5t-28.5 -57.5q-18 -12 -37 8 q-12 12 -16.5 38t-4.5 100q2 119 11 178q3 21 3 39q0 34 -12 57t-12 83q0 27 2 60q2 35 2 62t-2 47q-4 39 -18 104q-27 104 -41 133q-14 28 -14 67q0 36 12 81z" />
<glyph unicode="I" horiz-adv-x="1130" d="M21.5 1341.5q-1.5 8.5 7.5 24.5q12 25 49 47q23 14 59.5 18.5t149.5 4.5h176l43 51q45 53 59 53q12 0 45 -41l31 -39l215 -4q43 0 105.5 -1t93 -2t35.5 -1q16 0 19 -24.5t-13 -41.5q-14 -14 -48 -12t-69 23q-37 18 -67 19h-3q-29 0 -86 -15q-63 -16 -123 -17h-38t-24 -8 t-16.5 -15t-5.5 -34t-1 -52.5t3 -78.5q7 -135 7 -206v-17q-3 -88 -3 -163q0 -88 4 -158q7 -132 25 -146q12 -10 162 -14q119 -2 152.5 -13.5t33.5 -46.5q0 -43 -37 -43q-18 0 -44 10q-47 16 -250 17q-205 -2 -236 -15q-33 -12 -92 -49q-44 -31 -67 -31q-1 1 -3 1 q-24 2 -28 38q-1 4 -1 8q0 33 47 59q52 30 146 40q57 8 77.5 32.5t31.5 92.5q6 59 6 94q-2 20 -10 330q-6 203 -10.5 262t-16.5 78q-26 38 -91 38q-33 0 -77 -10q-68 -12 -133 -20q-66 -6 -113 -35q-33 -18 -42 -19t-21 11t-13.5 20.5z" />
<glyph unicode="J" horiz-adv-x="1329" d="M20 475v4q0 20 7.5 23.5t46.5 -0.5q55 -6 100 -29q143 -67 376 -67h7q123 0 161 11t87 62q45 45 55 99q6 35 6 109q0 45 -2 104q-10 295 -45 401q-16 55 -20 166v31v40t-7.5 25t-13.5 17.5t-31.5 7.5t-46 4h-73.5h-56q-152 0 -224.5 -15.5t-119.5 -56.5q-41 -37 -69 -37 q-18 0 -22.5 6t-4.5 31q0 37 14 51q20 16 94 36t117 20q55 2 82 10q16 6 37 6q16 0 35 -4q31 -5 86 -5q42 0 96 3q22 1 44 1q68 0 136 -13q91 -19 123 -23q154 -12 205 -23.5t76 -35.5q33 -31 33 -45q0 -20 -20.5 -21.5t-45.5 14.5q-29 23 -83 40.5t-91 17.5q-45 2 -104 16 q-39 10 -53.5 10t-22.5 -10q-12 -16 -4 -35q8 -18 18 -145q6 -117 23 -215q14 -90 14 -282.5t-16 -250.5q-14 -61 -66 -112q-37 -37 -58.5 -47.5t-101.5 -24.5q-63 -10 -116 -13q-13 -1 -26 -1q-40 0 -83 7q-57 9 -85 15t-100.5 26.5t-97.5 27.5q-6 2 -20 4 q-113 31 -131.5 39t-18.5 26z" />
<glyph unicode="K" horiz-adv-x="757" d="M35 1567q14 16 28 16q23 0 33 -35t19 -127q12 -154 20 -202t25 -58q12 -8 23.5 -2t37.5 35q92 106 211 248q41 50 73 50h4q34 -3 34 -60q0 -39 -23.5 -75t-58.5 -50q-63 -27 -128 -91.5t-67 -101.5q0 -25 36 -52.5t87 -45.5q57 -20 137 -96q106 -100 151.5 -192.5 t55.5 -229.5q4 -41 4 -62q0 -11 -1 -17q-3 -18 -21 -34t-24.5 -17t-16.5 9q-10 16 -24.5 131t-18.5 127q-23 78 -117 178t-174 131q-68 27 -111 27l-45 2l-2 -262q-2 -258 -8 -271q-8 -12 -44 -12t-48 12q-5 5 -5 18q0 17 9 46q16 51 16 270q0 217 -22 303q-23 82 -23 137 q0 53 -18 154q-18 88 -18 139q0 45 14 60z" />
<glyph unicode="L" horiz-adv-x="888" d="M28 494q-7 12 -6 46q0 41 9 113q12 88 24 127q27 90 64 545q8 94 14 119.5t31 54.5q16 18 30 17.5t27 -17.5q7 -8 7 -27.5t-7 -50.5q-10 -47 -17 -100t-15.5 -134t-10.5 -110q-8 -84 -28 -198q-14 -83 -16 -177q0 -14 -1 -27q0 -69 12 -81t328 -14q250 0 313.5 -5.5 t77.5 -27.5q10 -18 -20 -51q-20 -23 -29.5 -24t-34.5 13q-23 12 -75 15.5t-232 3.5q-272 0 -348 -17q-35 -9 -58 -9q-31 1 -39 16z" />
<glyph unicode="M" horiz-adv-x="1015" d="M29 575q-14 14 0 58q12 43 22 184q39 606 66 641q12 14 26 15q18 0 35 -29t8 -45q-14 -37 -32.5 -266.5t-20.5 -397.5q0 -84 -4 -110.5t-18 -42.5q-16 -18 -42 -20.5t-40 13.5zM250 1503q10 12 23 12q17 0 38 -20q18 -16 38 -72.5t20 -91.5q0 -29 35.5 -135t56.5 -137 q14 -23 26.5 -30t32.5 -7q27 0 53.5 18.5t26.5 34.5q0 10 45 58q45 49 60 84q20 39 45 67q27 33 47 113q33 117 69 119q16 2 37 -21q16 -16 20.5 -65.5t12.5 -335.5q2 -152 16 -205q10 -49 11 -117q0 -66 18 -113q17 -50 17 -83q0 -35 -19 -52q-12 -10 -23 -10q-32 0 -53 86 q-16 74 -18 193q-2 150 -17 239q-20 115 -24 150q-8 57 -26.5 57t-63.5 -57q-59 -78 -205 -240q-28 -31 -63 -31q-17 0 -35 7q-16 8 -80 140t-78 189q-16 61 -41 119q-20 48 -20 83q0 33 18 54z" />
<glyph unicode="N" horiz-adv-x="991" d="M23 472q-3 9 -3 24q0 25 7 69q23 190 39 652q4 156 9 203.5t17 59t21.5 12.5t29.5 -7q33 -12 58 0q27 14 52.5 -3.5t41.5 -62.5q39 -104 80 -178q49 -84 103 -225.5t91 -278.5q20 -76 43 -78q31 0 97 136q0 2 2 4q23 51 42 102t28.5 82t28.5 102.5t30 106.5 q33 121 41 207q2 2 2 6q4 43 7 61.5t16.5 35t37.5 16.5q16 0 21.5 -6.5t5.5 -26.5q0 -23 -7.5 -59.5t-20.5 -86t-23.5 -87.5t-26.5 -92t-23 -73q-102 -358 -170 -479q-27 -47 -32 -76q-6 -35 -19 -47q-12 -14 -59 -13t-62 17q-14 18 -20 107q-18 221 -184 553 q-106 211 -142 213q-14 0 -20 -29q-14 -51 -37 -626q-2 -94 -5 -140.5t-11.5 -76t-17.5 -35.5t-30 -6q-31 1 -38 23z" />
<glyph unicode="O" horiz-adv-x="858" d="M20 620v10q0 52 19 136q25 121 56.5 224.5t49.5 123.5q23 23 41 62q20 39 133 153q84 86 99.5 108.5t19.5 71.5q7 60 25 97q14 23 27.5 27.5t60.5 4.5h67l82 -168q76 -150 107 -256t31 -215q0 -86 -19.5 -146t-75.5 -142q-47 -72 -113.5 -120t-189.5 -99 q-166 -68 -251 -68h-13q-84 6 -127 94q-27 48 -29 102zM119 577.5q4 -20.5 22 -38.5q14 -14 34 -18.5t63 -4.5q209 0 376 162q66 66 95.5 119t44.5 135q8 43 8 89q0 39 -6 81q-38 227 -99 297q-16 18 -29.5 17t-35.5 -19q-21 -18 -54 -18q-9 0 -18 1l-47 6l-98 -102 q-61 -61 -91 -102t-61 -105q-108 -215 -108 -404q0 -75 4 -95.5z" />
<glyph unicode="P" horiz-adv-x="720" d="M20 877v8v133q0 339 9 375q12 43 49 86t78 61q42 19 87 19q43 0 88 -17q93 -35 214 -149q84 -80 131 -199q27 -68 27 -111q0 -32 -15 -51q-25 -29 -63.5 -43t-243.5 -67q-41 -10 -94 -54q-39 -33 -59 -33q-21 0 -21 37q0 98 256 146q90 14 117.5 29.5t31.5 50.5q1 8 1 15 q-1 40 -19 70q-22 36 -105 124q-164 166 -245 166q-31 0 -62.5 -18.5t-46.5 -45.5q-23 -47 -29 -279q-2 -61 -2 -122q0 -172 13 -344q10 -147 10 -207q0 -22 -1 -33q-5 -41 -46 -41q-33 0 -41 25q-14 43 -19 469z" />
<glyph unicode="Q" horiz-adv-x="825" d="M20 797q0 78 37 180q37 98 86.5 172t128.5 149q66 66 116 97t120 51q39 10 79 10h14q48 -2 67 -18q12 -10 13 -36t-13 -36q-14 -8 -39 -4q-31 4 -29 -16q4 -29 76 -136q82 -121 100.5 -167t18.5 -138q0 -66 -4.5 -93.5t-22.5 -66.5q-31 -61 -70 -106q-35 -39 -37 -58.5 t23 -50.5q31 -37 64.5 -109.5t46.5 -125.5q10 -43 10 -56.5t-10 -23.5q-20 -16 -40 5.5t-48 90.5q-35 88 -91 142l-55 55l-102 -47q-104 -49 -168 -53q-16 -1 -28 -1q-25 0 -37 3q-17 4 -50 28q-70 51 -113 149.5t-43 209.5zM100 848q-1 -16 -1 -32q0 -185 89 -277 q33 -33 49.5 -39t71.5 -6q74 0 123 22q31 16 40 27.5t13 40.5q8 47 24.5 61t57.5 8q31 -4 43.5 1t34.5 30q45 45 62.5 93t17.5 118q0 57 -7 85t-42 95q-49 96 -109 156l-61 59l-35 -20q-25 -14 -33 -13t-26 17q-23 23 -35 22q-14 0 -87 -79.5t-97 -120.5q-23 -41 -60 -105 q-18 -33 -24.5 -60.5t-8.5 -82.5z" />
<glyph unicode="R" horiz-adv-x="714" d="M33 1198q-12 32 -12 59q0 55 47 91q29 23 32.5 34t-2.5 54q-4 37 -1 55t20 41q22 41 57 51q27 8 63 8q75 0 189 -35q61 -18 87 -32.5t52 -42.5q56 -63 56 -156q0 -23 -3 -47q-10 -82 -34.5 -130t-87.5 -116q-82 -84 -82 -96t61 -59q51 -37 107.5 -117t79.5 -146 q32 -97 32 -310v-13q0 -53 -3 -72.5t-15 -25.5q-20 -12 -39 6q-18 20 -27 166q-8 156 -26.5 220t-81.5 148q-48 63 -152 103q-56 22 -90 22q-30 0 -43 -16q-10 -13 -10 -97q0 -21 1 -47q3 -128 17 -258q6 -58 6 -90q0 -22 -3 -32q-7 -24 -52 -23q-62 0 -62 67q0 7 1 15 q2 19 2 53q-1 70 -9 200q-12 194 -24 288q-4 23 -12.5 90t-16.5 112t-22 78zM164 1245q10 -172 29.5 -220t80.5 -48q35 0 70 20.5t94 77.5q57 55 71.5 89t14.5 116q0 104 -24.5 140t-114.5 61q-51 12 -115 13h-9q-55 0 -64 -11q-35 -45 -35 -174q0 -29 2 -64z" />
<glyph unicode="S" horiz-adv-x="868" d="M33 287q-14 14 -14 27q0 27 61 51q29 12 67 20q47 8 72 8.5t72 -14.5q71 -18 154 -19q31 0 64 4q120 10 177 48q70 45 70 139q0 47 -31 91t-145 159q-90 92 -174 137q-198 102 -198 222q0 15 3 30q8 41 66.5 127t93.5 108q41 28 143 48q100 22 112 22h1q6 0 90 -27 q72 -23 99.5 -42t27.5 -46q0 -47 -47 -51h-8q-43 0 -87 39q-31 29 -48 34t-68 5q-66 0 -100.5 -16.5t-94.5 -79.5q-63 -63 -78 -117l-14 -51l55 -56q55 -55 121 -90q61 -31 170 -135t158 -180q31 -47 38 -69.5t7 -67.5q0 -86 -45 -141.5t-144 -88.5q-61 -20 -141 -23 q-16 -1 -36 -1q-79 0 -220 10q-68 5 -100 5q-10 0 -18 -1q-28 -2 -54 -16q-27 -14 -36 -14.5t-21 12.5z" />
<glyph unicode="T" horiz-adv-x="1261" d="M20.5 1401.5q-0.5 25.5 14.5 36.5q8 7 63 7q46 0 125 -5t132 -5q63 0 89 7q90 27 248 27q3 -1 6 -1q162 0 275 -18q39 -6 70 -6t53 6q24 7 51 7q11 0 23 -1q40 -4 59 -18q16 -12 13 -37t-23 -45l-23 -27q-41 33 -80 62l-192 -5q-193 -4 -203 -8q-18 -14 -27.5 -81.5 t-13.5 -264.5q-8 -283 -21 -391q-27 -268 -65 -279q-8 -2 -21 7q-23 12 -25 48q0 5 -1 12q0 36 12 103q31 156 38 245t7 298q0 285 -14 295q-16 14 -106 20q-30 2 -53 1q-47 0 -69 -7q-47 -14 -181 -22q-54 -3 -88 -3q-51 0 -58 7q-14 10 -14.5 35.5z" />
<glyph unicode="U" horiz-adv-x="825" d="M26 914q11 198 35 323q14 74 21 188q8 122 22 142q15 17 29 17t27 -15q7 -9 7 -45q0 -30 -5 -80q-35 -309 -49 -404q-16 -100 -16 -184q0 -79 14 -143q16 -74 26 -94.5t49 -47.5q49 -33 90 -44t105 -11q47 0 68.5 5t48.5 24q2 0 4 2q37 25 55 56.5t86 197.5q2 6 4 10 l33 80l-6 194q-9 224 -9 330q0 53 2 76q7 70 50 70q33 0 42 -24q5 -14 5 -46q0 -21 -2 -49q-4 -26 -4 -53q0 -13 1 -27q3 -41 6 -57.5t11 -56.5t12 -74q9 -57 9 -88q-1 -4 -1 -8q-2 -30 -18 -103q-25 -105 -25 -222q1 -11 1 -22q2 -129 30 -223q20 -63 20 -91q0 -5 -1 -9 q-4 -26 -41 -25q-29 0 -41 24.5t-29 106.5q-20 100 -28 100q-12 0 -42 -26.5t-51 -59.5q-63 -92 -147 -106q-9 -1 -21 -1q-43 -1 -121 17q-98 22 -135 49q-33 20 -69.5 74.5t-48.5 100.5q-8 30 -8 105q0 60 5 147z" />
<glyph unicode="V" horiz-adv-x="1107" d="M30 1368q-8 33 -8 55q0 26 11 37q12 12 37 13q14 0 22 -16.5t25 -84.5q33 -129 61 -219q44 -141 44 -195q0 -24 -9 -32q-18 -16 -37 20q-14 29 -53 137q-76 213 -93 285zM221 696v62q0 110 6 110q12 0 29.5 -25.5t32.5 -60.5q18 -47 37 -45q14 4 87.5 98.5t94.5 137.5 q20 41 53 74q37 39 148 208q115 174 125 175q8 0 61 69q49 70 65.5 84.5t16.5 34.5q0 12 10 16t45 4t45 -4t10 -16q0 -23 -31.5 -57.5t-78.5 -65.5q-57 -37 -72 -65q-14 -25 -45 -62q-47 -49 -206.5 -283.5t-194.5 -304.5q-10 -20 -27.5 -47.5t-28 -51.5t-14.5 -56 q-8 -41 -19.5 -60.5t-47.5 -46.5q-27 -23 -41.5 -23.5t-36.5 15.5q-14 12 -17.5 42t-5.5 144z" />
<glyph unicode="W" horiz-adv-x="1366" d="M22.5 1462q-5.5 25 6.5 39q14 18 43 15q16 -2 35.5 -31t70.5 -133q80 -164 103 -232q12 -37 49 -114.5t51 -147.5q55 -240 88 -252q10 -4 25 6q16 14 50 101.5t34 113.5q0 39 18 73t43 40q29 8 49 -2q8 -6 35 -86t54.5 -165t29.5 -91q15 -26 30 -26q13 0 27 18 q12 12 50 90t38 86q0 6 27 43q35 45 74 149q4 10 94 200t96 212q8 33 21.5 47.5t35.5 14.5q45 0 45 -37q0 -34 -40 -86q-25 -31 -159 -300.5t-210 -437.5q-51 -115 -78 -141q-18 -18 -26.5 -20t-26.5 8q-29 14 -45 65q-29 76 -65 148.5t-46 72.5q-18 0 -46 -42t-46 -97 q-20 -61 -62 -111q-37 -44 -62 -45q-4 0 -7 1q-20 4 -32.5 35.5t-12.5 74.5q0 57 -42 216t-81 253q-16 39 -40.5 99.5t-42 98.5t-44.5 85q-10 16 -35.5 59t-36.5 57q-31 51 -36.5 76z" />
<glyph unicode="X" horiz-adv-x="1013" d="M22 375q-2 8 -2 16q0 34 31 72q147 197 185 250q37 53 69 84q41 37 71 83t30 70q0 35 -66 155t-133 208q-61 82 -85 147q-12 33 -12 55q0 21 11 33q12 12 24 13q18 0 40 -26t28 -52q8 -37 33.5 -88.5t44.5 -65.5q16 -14 81.5 -112.5t65.5 -110.5q0 -14 20.5 -32.5 t37.5 -18.5q23 0 101.5 77.5t127.5 147.5q47 68 125 166q51 66 81 84t52 -2q18 -16 -5.5 -56t-43.5 -59q-23 -20 -86 -104q-68 -90 -150 -179q-90 -92 -133 -145q-31 -39 -35 -50t9 -38q20 -39 79 -117q74 -102 183 -303q42 -74 42 -114q0 -23 -14 -35q-18 -14 -47 2 q-27 14 -43 39.5t-37 85.5q-8 25 -22 53.5t-36.5 66t-35 58t-40 62.5t-29.5 46q-37 59 -58.5 79t-40.5 7q-20 -12 -71 -88q-51 -74 -90 -114q-76 -80 -144 -213q-33 -68 -59 -70q-7 -1 -14 -1q-32 0 -40 34z" />
<glyph unicode="Y" horiz-adv-x="931" d="M29 1501q-14 27 0 43t27.5 19.5t43 -16t69.5 -56.5t118 -113q186 -184 237 -215t70 -45q23 -16 48.5 14.5t35.5 63.5q10 37 82 178q41 82 60.5 110.5t33.5 31.5q25 2 41 -11.5t16 -37t-45 -83.5q-45 -63 -78 -131q-57 -123 -121.5 -269t-64.5 -155q0 -6 -27 -75 q-43 -113 -106 -346q-10 -41 -43 -69t-54.5 -14.5t-21.5 56.5t25 78q29 45 35 67q6 23 77 205q55 141 65 185q2 14 2 25q0 25 -15 38q-18 16 -37 61q-20 47 -64 78q-41 31 -207 193q-168 162 -176 162q-12 0 -26 28z" />
<glyph unicode="Z" horiz-adv-x="931" d="M27 428q-5 9 -5 20q0 47 89 140q205 207 491 616q20 27 57 78t39 55q37 49 37 70q0 14 -40 17t-238 8q-186 2 -237.5 6t-72.5 16q-37 25 -37 48q0 11 9 22q12 14 24.5 14t49.5 -14q37 -16 245 -18h37q179 0 256 14q47 7 84 7q25 0 45 -3q37 -6 44 -12.5t7 -34.5 q0 -39 -39 -76t-49 -37q-8 0 -87 -104.5t-169 -231.5q-25 -39 -92 -128t-100 -136q-45 -66 -101 -123q-57 -53 -57 -78v-26h236q184 0 248.5 -7.5t82.5 -33.5q18 -23 18 -44q0 -15 -9 -28q-14 -20 -39 -6q-27 14 -140.5 25.5t-236.5 11.5q-145 0 -193 -21q-47 -20 -96 -22 h-9q-41 0 -52 16z" />
<glyph unicode="[" horiz-adv-x="737" d="M35 1409q-31 111 6 141q16 12 100 21q66 8 123.5 25.5t57.5 31.5q0 10 98 10q106 0 98 -14q-2 -4 -37 -10q-23 -4 -135.5 -51t-167.5 -78q-16 -8 -31 -51q-10 -31 -8 -81t23 -177q4 -31 11 -137.5t14.5 -227.5t7.5 -143q4 -35 5 -52.5t13 -37t23.5 -26.5t47 -18.5 t69.5 -17.5t106 -18q117 -20 167 -37t68 -41q18 -23 21.5 -48.5t-10.5 -39.5q-10 -12 -72 22q-53 29 -155.5 56.5t-155.5 27.5q-47 0 -136.5 16.5t-103.5 28.5q-29 25 2 109q16 49 16 274q0 176 -13 289t-52 254z" />
<glyph unicode="\" horiz-adv-x="514" d="M33 1548q14 12 33 11q14 -2 44.5 -67t53.5 -138q23 -76 61.5 -186.5t53.5 -135.5q16 -27 43 -131q70 -250 127 -375l45 -94l-25 -24q-20 -23 -47 -23t-43 23q-14 25 -39 124q-4 12 -39 149.5t-45 190.5q-8 49 -29 86q-18 35 -52 126.5t-48 146.5q-14 47 -61 139 q-70 139 -33 178z" />
<glyph unicode="]" horiz-adv-x="528" d="M20 1638h84q84 0 84 -11t50.5 -11t50.5 11t108 11h111l-6 -30q-6 -25 -25 -74q-12 -33 -20 -100.5t-15.5 -150.5t-9.5 -112q-12 -98 -22 -196q-10 -109 -19 -119q-6 -12 6 -84q39 -223 54 -276q10 -37 9 -51.5t-14 -32.5q-23 -35 -50 -42.5t-113 -0.5q-68 4 -90.5 2 t-42.5 -17q-70 -49 -99 -26q-10 8 -9 18t13 35q18 35 45 53.5t80 32.5q33 8 45.5 11t28.5 15.5t20.5 18.5t9.5 32.5t5 48t2 73.5q10 309 45 374q18 35 19 254t-17 234q-18 16 -148 8q-111 -6 -133 2t-30 61z" />
<glyph unicode="a" horiz-adv-x="538" d="M20.5 531.5q-2.5 15.5 5 43t21.5 62.5q6 18 28.5 70.5t30.5 70.5q20 47 44 134t24 114q0 4 25 29q23 20 36 21t29 -17q27 -31 73 -138.5t46 -138.5q0 -49 -33 -30q-33 18 -63 79q-31 63 -47 68h-1q-16 -1 -41 -65q-18 -46 -18 -66q0 -10 4 -14q14 -18 68 -30q35 -8 65 -7 q16 0 31 2q39 4 52.5 0t37.5 -29q20 -20 26.5 -33.5t2.5 -33.5q-1 -6 -1 -13q0 -33 23 -96l29 -78l-29 -28q-31 -31 -47 -19q-16 10 -24 35t-25 100q-14 74 -46 94q-29 18 -112 17h-18q-68 -4 -82 -8t-26 -29q-14 -31 -38 -56.5t-36 -25.5t-14.5 15.5z" />
<glyph unicode="b" horiz-adv-x="620" d="M23 651q-2 5 -2 21q0 31 8 104q0 8 6 51t7 50.5t5 43t5 45t4 41t3 48t2 47.5t3.5 55.5t1.5 56v66.5q2 211 12 223q8 14 33.5 13.5t40.5 -17.5q11 -15 11 -107q0 -73 -7 -196q-3 -44 -3 -74q0 -60 13 -65q12 -4 51 18q39 25 78 25q21 0 43 -8q60 -22 147 -113 q115 -119 115 -213q0 -35 -7 -52.5t-38 -49.5q-49 -54 -107 -68q-34 -9 -95 -8q-43 0 -99 4q-215 14 -231 59zM138.5 709.5q11.5 -17.5 49.5 -17.5q35 0 97 -12q31 -6 58 -6q81 0 136 55q27 27 30 38t-7 42q-10 35 -59.5 90.5t-86.5 73.5q-30 15 -64 15h-12q-40 -3 -61 -23 q-16 -20 -40.5 -79t-39.5 -116q-12 -43 -0.5 -60.5z" />
<glyph unicode="c" horiz-adv-x="673" d="M34 674q32 110 124 207q55 59 97 85.5t124 57.5q51 18 79 24q16 3 38 2q15 0 32 -1q63 -6 92 -19.5t33 -42.5q2 -23 -15 -42t-50 -27q-6 -2 -13 -2q-23 0 -49 22q-32 26 -68 26q-20 0 -42 -8q-62 -22 -160 -118q-122 -119 -140 -206q-3 -15 -3 -29q0 -64 73 -93 q25 -8 140 -16q94 -6 123.5 -17t29.5 -45q0 -14 -9 -20t-36 -11q-43 -8 -55 -2q-4 4 -115 17q-180 18 -219 80q-25 39 -25 92q0 39 14 86z" />
<glyph unicode="d" horiz-adv-x="622" d="M29 422q-9 17 -9 46q0 33 11 82q20 93 61 169q29 53 47.5 71.5t75.5 49.5q53 29 82 37t90 10q92 6 105 20q8 11 8 88q0 39 -2 95q-2 67 -2 104q0 28 1 40q3 28 17 42q23 20 36 20t32 -20q14 -14 17 -87t3 -370q0 -436 -8 -446q-8 -12 -33.5 -10t-38.5 14q-12 18 -18 84 t-16 66t-46 -29q-92 -78 -245 -109q-52 -11 -86 -11q-17 0 -29 3q-37 8 -53 41zM116 527q0 -4 -1 -8q0 -45 12 -55q6 -5 19 -5q16 0 44 7q52 13 113 44q43 20 65.5 44t67.5 93q16 25 19 70v13q0 34 -13 48q-12 12 -77 13q-176 -2 -236 -175q-12 -37 -13 -89z" />
<glyph unicode="e" horiz-adv-x="643" d="M22 853q10 89 74 187q25 39 47.5 60.5t63.5 44.5q67 35 102 43q19 5 45 5q20 0 44 -3q56 -6 77 -19q27 -18 49 -55q14 -25 18.5 -44t0.5 -56q-12 -123 -99 -174q-55 -35 -99 -41q-13 -2 -29 -2q-36 0 -85 10q-54 12 -79 12q-11 0 -17 -2q-18 -8 -18 -59q0 -59 16.5 -98 t63.5 -87q35 -37 56 -50t62 -21q34 -7 86 -6q71 0 177 12q43 6 46 -8.5t-34 -44.5q-33 -29 -115 -35q-35 -3 -67 -3q-118 0 -204 46q-110 59 -153 184q-31 91 -31 165q0 20 2 39zM160 961q0 -23 26 -48q16 -14 37 -19t76 -5q76 0 102.5 16.5t44.5 73.5q10 35 3.5 58.5 t-39.5 58.5q-18 24 -30 24h-1q-13 0 -62 -14q-41 -10 -99 -64.5t-58 -80.5z" />
<glyph unicode="f" horiz-adv-x="786" d="M27 913q-6 9 -6 17q0 26 61 39q23 4 55 8q86 8 121 24q23 10 28 25.5t11 83.5q12 164 68 256q27 45 55.5 70.5t89.5 62.5q69 40 121 40h7q54 -3 54 -50q0 -25 -18.5 -38t-42.5 -7q-8 2 -17 2q-43 0 -105 -48q-75 -57 -93 -120q-16 -51 -20 -152v-38q0 -65 10 -74 q14 -10 167 -17q102 -2 130 -7t45 -19q25 -25 18 -41q-5 -11 -109 -11q-29 0 -67 1q-85 3 -123 3q-19 0 -27 -1q-22 -2 -30 -23q-4 -9 -4 -27q0 -28 12 -79q15 -58 15 -116q0 -78 -27 -155q-20 -59 -34 -76.5t-38 -17.5q-33 0 -39 18q-1 5 -1 11q0 20 15 59q24 63 24 167 q0 64 -9 144l-11 76l-137 -4q-45 -1 -74 -1t-42 1q-25 2 -33 14z" />
<glyph unicode="g" horiz-adv-x="858" d="M20 141q2 14 24 13.5t101 -17.5q283 -61 412 -61q76 0 108.5 8t65.5 39q16 14 20.5 37.5t4.5 111.5q0 131 -33 259t-68 128q-10 0 -34 -18q-29 -16 -91 -21q-18 -2 -34 -2q-39 0 -66 9q-27 10 -39 22.5t-24 44.5q-16 37 -17 56q-1 2 -1 5q0 19 9 60q14 68 31 100 q16 25 58 56t75 41q30 8 54 8q22 0 39 -6q36 -15 85 -72l58 -68l-8 -61q-1 -11 -1 -24q0 -54 21 -130q51 -178 66 -358q1 -16 1 -32q0 -44 -7 -95q-11 -70 -25 -94q-43 -66 -149 -77q-24 -3 -53 -3q-99 0 -255 29q-190 35 -235 41q-41 6 -69 27.5t-24 43.5zM435.5 789.5 q-1.5 -33.5 13 -55t36 -34t50 -5.5t53.5 32q23 23 29 39t6 49q-1 53 -13 80q-12 28 -45 28q-13 0 -29 -3q-57 -15 -83 -64q-16 -33 -17.5 -66.5z" />
<glyph unicode="h" horiz-adv-x="591" d="M22 462q0 6 -1 15q0 61 10 252q10 199 24 244q9 29 9 70q0 24 -3 51q-6 72 -6 99t6 97q8 74 23 74q17 0 17 -172q0 -34 -1 -76q-1 -27 -1 -54q-1 -70 7 -142q10 -98 23 -105q12 -4 45 19q29 23 115 34q51 8 74 8h7q20 -2 64 -24q61 -31 82 -66q48 -74 56 -204 q2 -23 1 -43q0 -93 -32 -127q-18 -20 -25.5 -21.5t-17.5 8.5q-16 16 -23 136q-2 115 -9 144.5t-42 68.5q-29 31 -43 37t-55 6q-59 0 -95 -25q-47 -31 -70.5 -92.5t-58.5 -233.5q-8 -37 -26.5 -50t-36.5 7q-15 15 -17 65z" />
<glyph unicode="i" horiz-adv-x="251" d="M21 1120q4 38 22 60q14 18 28.5 23t43.5 5q31 0 47 -6t35 -24q34 -34 34 -71q-1 -13 -5 -27q-18 -52 -85 -68q-17 -5 -32 -5q-22 0 -39 11q-29 18 -39 39q-11 19 -11 46q0 9 1 17zM80 414q-3 20 -3 82t3 166q6 207 12 219q6 10 25 6q12 -2 15 -17.5t5 -62.5 q2 -94 13 -248q6 -74 7 -108.5t-3 -57t-13.5 -28t-27.5 -5.5q-16 0 -22.5 9.5t-10.5 44.5zM109 1115.5q0 -17.5 4 -23t16 -2.5q18 4 18 25.5t-18 25.5q-12 2 -16 -3t-4 -22.5z" />
<glyph unicode="j" horiz-adv-x="534" d="M24 320q-4 12 -4 23q0 24 19 42q25 27 42 17.5t11 -44.5q-2 -9 -2 -17q0 -25 19 -42q25 -23 71.5 -46.5t65.5 -23.5q20 0 78 58l59 57v178q0 8 -1 35t-1 43t1 45t1 47.5t2 43t4 40t4 30.5t6 22.5t11 7.5q12 0 30 -80q16 -68 20 -240v-64q0 -118 -11 -157 q-10 -35 -56.5 -83t-85.5 -60q-13 -5 -31 -5q-32 0 -82 17q-75 26 -116 72q-43 45 -54 84zM351 1104q5 49 23.5 77.5t48.5 27.5t58 -31q31 -31 33 -68v-6q0 -33 -22 -57q-20 -23 -68 -26h-11q-38 0 -53 17q-10 12 -10 42q0 10 1 24z" />
<glyph unicode="k" horiz-adv-x="546" d="M19 1450q-1 20 6.5 27.5t21.5 5.5q12 -4 17.5 -20.5t9.5 -67.5q8 -84 14 -97q6 -10 7 -143q0 -33 -1 -74q0 -168 6 -213t29 -45q14 0 80.5 47.5t79.5 63.5q14 20 60 38q15 6 26 5q23 0 28 -25q0 -14 -104 -110q-51 -47 -74.5 -73t-29 -45t9 -29.5t51.5 -24.5 q47 -16 113.5 -58.5t91.5 -70.5q23 -25 47 -90q16 -43 18 -57.5t-10 -22.5q-20 -18 -40.5 3t-51.5 91q-14 33 -47 53q-164 98 -205 100l-39 3l-6 -72q-8 -59 -23.5 -83t-40.5 -9l-2 2q-12 6 -13 52v13q0 63 7 301v37q4 101 4 175q0 133 -12 180q-9 45 -9 70v5.5v5.5 q0 26 -9 74q-4 29 -6.5 43.5t-3.5 34.5z" />
<glyph unicode="l" horiz-adv-x="210" d="M21.5 417.5q-1.5 10.5 9.5 45.5q10 25 27.5 110.5t21.5 102.5q6 20 16 189t15 306q4 129 12 201q4 39 10 48.5t22.5 9.5t22.5 -10.5t10 -49.5q3 -22 3 -44q0 -39 -9 -79q-14 -63 -16 -258q-2 -178 -37 -504q-14 -125 -47 -125q-16 2 -43 29q-16 18 -17.5 28.5z" />
<glyph unicode="m" horiz-adv-x="862" d="M21 372q-1 7 -1 16q0 30 11 87q18 92 20 191q2 90 9.5 120.5t27.5 30.5q35 0 39 -90q0 -35 16 -35t99 82q84 82 110 82q25 0 47.5 -25.5t30.5 -62.5t36 -33t69 51q48 56 75 72q29 19 56 19q66 0 125 -111q23 -47 29.5 -82t13.5 -129q7 -80 7 -111v-8q-1 -28 -12 -39 q-14 -14 -26 -14q-19 0 -33 33q-14 31 -14 80q0 35 -14.5 112.5t-26.5 112.5q-6 20 -29.5 45t-34.5 25q-29 0 -98.5 -98.5t-79.5 -151.5q-6 -33 -30.5 -66t-47.5 -18q-12 8 -15 23.5t-1 58.5v17q-1 46 -9 98q-10 62 -26 79q-12 16 -28 16q-33 0 -83 -69q-45 -66 -86 -170 q-43 -111 -57 -138.5t-33 -27.5q-31 0 -36 28z" />
<glyph unicode="n" horiz-adv-x="495" d="M23 645q6 193 14 209q14 18 30.5 11t28.5 -36t27.5 -37t26.5 11q8 12 53 43q46 34 88 34q35 0 67 -23q70 -50 101 -191q18 -80 18 -142t-18 -106q-16 -41 -43 -31q-39 14 -39 172q0 86 -11.5 132t-37.5 75q-24 28 -49 28q-39 0 -79 -71q-65 -115 -83 -211 q-6 -47 -38 -71.5t-52 1.5q-6 6 -6 84q0 47 2 119z" />
<glyph unicode="o" horiz-adv-x="624" d="M20 688q0 68 33 129q27 55 91.5 122t99.5 77q26 8 57 35q31 26 66 26q37 0 79 -28q158 -105 158 -217q0 -54 -52 -151t-99 -130q-39 -29 -54 -49q-25 -34 -88 -34q-13 0 -29 2q-86 9 -167 62q-57 37 -76 68t-19 88zM88 709q0 -61 60.5 -105.5t142.5 -44.5q66 0 96.5 19.5 t77.5 87.5q33 49 43 73.5t10 57.5q0 49 -12 73q-14 27 -44.5 59t-55.5 44q-29 16 -51.5 14t-61.5 -22q-72 -37 -138.5 -120t-66.5 -136z" />
<glyph unicode="p" horiz-adv-x="692" d="M20 86q0 39 17 98q16 61 16 322q0 264 10 319q14 86 17 101q6 39 50 89t81 62q27 8 61 8q47 0 108 -17q103 -28 185 -87q47 -35 77 -94.5t30 -116.5q0 -63 -13 -88q-31 -55 -149 -97q-96 -34 -173 -34q-19 0 -36 2q-41 6 -51 11t-10 24q0 29 22 36q15 4 53 4q22 0 52 -1 h23q67 0 104 10q43 12 79 53l33 33l-20 57q-37 113 -162 170q-83 37 -142 37q-41 0 -71 -18q-23 -14 -30 -28.5t-11 -53.5q-10 -92 -21.5 -301t-13.5 -324q0 -127 -9 -164t-44 -55q-18 -10 -31 -10q-29 0 -31 53z" />
<glyph unicode="q" horiz-adv-x="688" d="M20 631q0 29 17.5 69.5t40.5 65.5q41 43 110.5 79t141.5 48q102 20 114 22q31 6 41.5 4.5t26.5 -18.5q31 -28 31 -80q0 -14 -3 -29q-10 -75 -94 -399q-27 -90 -30 -169v-17q0 -64 18 -78q7 -5 18 -5q36 0 119 58q47 31 60.5 34t27.5 -15q8 -9 8 -20q0 -39 -96 -101 q-104 -69 -166 -69q-23 0 -40 9q-49 27 -63 92q-5 24 -5 52q0 45 14 98q14 47 25 109l8 47l-72 -4h-23q-31 0 -47 4q-20 6 -61 35q-51 33 -86 85t-35 93zM131 653q0 -29 8 -45t39 -47q41 -41 73 -44h6q30 0 73 28q39 27 56 55.5t32 93.5q10 47 8 59.5t-20 30.5 q-27 28 -71 28q-17 0 -36 -4q-70 -15 -131 -75q-23 -20 -30 -36.5t-7 -43.5z" />
<glyph unicode="r" horiz-adv-x="385" d="M21 808q2 44 22 69q23 29 41 69q16 39 55 76q37 33 82 33q39 0 82 -25q62 -36 62 -62q1 -2 -1 -6q-7 -21 -58 -22q-14 0 -32 2q-13 1 -25 1q-35 0 -53 -9q-24 -12 -49 -57q-14 -31 -14 -131.5t17 -170.5q9 -42 9 -64q1 -18 -5 -25q-12 -15 -48 -14t-51 17q-14 18 -24 140 q-10 116 -10 165v14z" />
<glyph unicode="s" horiz-adv-x="647" d="M25 387q-8 8 2 25.5t32 31.5q29 18 87 18q1 0 2 1q55 0 90 -19q25 -12 45 -13h4q21 0 73 9q59 8 96.5 27.5t37.5 42.5q0 12 -52 59q-20 23 -39.5 44.5t-40 47t-34 42t-39 49t-37.5 49.5q-74 96 -74 150q0 12 4 22q18 49 67.5 94t98.5 55q38 6 107 7q17 0 37 -1 q100 -2 120 -22q18 -18 6 -37q-8 -14 -30 -16q-11 -1 -33.5 -1t-58.5 1q-23 1 -43 1q-73 0 -93 -12q-75 -38 -75 -87q0 -38 74.5 -143t164.5 -200q102 -106 103 -123q0 -16 -31 -47q-18 -20 -47 -30.5t-111 -26.5q-86 -19 -128 -21q-9 -1 -21 0q-42 0 -119 7 q-141 10 -145 16z" />
<glyph unicode="t" horiz-adv-x="835" d="M35 1100q-13 11 -13 24q0 17 21 39q13 15 31 19q6 1 19 2q21 0 61 -4q86 -4 157 -21q40 -9 136 -9q55 0 128 3q133 5 180 5q24 0 27 -1q8 -4 25 -37q18 -35 -8 -41q-15 -5 -72 -5q-19 0 -43 1l-113 4l-24 -37q-20 -39 -21 -122q0 -90 -12 -158q-35 -244 -46 -289t-36 -45 q-16 0 -24 12q-7 12 -8 50v9q0 35 6 91q8 62 22 178q14 104 14 205v8v44t-4 31.5t-6 24.5t-16.5 14.5t-23.5 8.5t-39.5 1t-52 0t-71.5 -5h-12q-84 -6 -129.5 -6t-52.5 6z" />
<glyph unicode="u" horiz-adv-x="571" d="M20 673v8q0 132 17 183q12 45 34.5 71t43.5 17q10 -4 12 -20q1 -6 1 -15q0 -18 -3 -51q-8 -86 -19 -137q-4 -21 -4 -45q0 -26 4 -54q8 -56 27 -79q12 -14 78 -14q49 0 65.5 7t49.5 40q27 29 41 54.5t26 74.5q23 80 23 125q0 81 43 114q20 14 32.5 13.5t28.5 -19.5 q12 -14 16.5 -58t8.5 -194q4 -248 6 -274v-11q0 -38 -12 -53q-10 -12 -17.5 -11t-23.5 17q-20 18 -40 71.5t-20 89.5t-32 16q-12 -8 -31 -23q-37 -31 -88 -51q-45 -15 -96 -15q-27 0 -56 4q-82 12 -100 50q-15 31 -15 169z" />
<glyph unicode="v" d="M20 983q0 35 4.5 42t22.5 7q29 0 50.5 -23.5t27.5 -60.5q8 -41 43 -137t35 -100q12 -37 20 -50.5t22.5 -13.5t37 37t79.5 154q93 188 130 225q29 29 45 34t32 -12q13 -13 13 -30q0 -33 -47 -84q-49 -53 -58 -82q-20 -66 -131 -258q-39 -66 -45 -109q-8 -43 -38 -74.5 t-59.5 -33.5t-47.5 24q-14 29 -15 105q0 150 -82 313q-39 76 -39 127z" />
<glyph unicode="w" horiz-adv-x="911" d="M22 979q-3 41 13 61q8 10 15 8.5t28 -20.5q29 -31 59 -98q133 -293 150.5 -293t36 20.5t18.5 38.5q0 31 14.5 64t28.5 41q22 12 39 11q16 0 30 -11q26 -23 44 -96q15 -68 36 -68q12 0 27 22q27 37 66 80q49 61 102 166q51 104 71.5 127t55.5 23q36 0 36 -24q0 -12 -9 -30 q-12 -23 -39 -59q-51 -72 -72 -119q-35 -68 -126 -182.5t-122 -130.5q-39 -16 -51 -13t-39 38q-31 37 -49 31.5t-49 -60.5q-42 -76 -77 -76q-7 0 -15 4q-41 20 -56 141q-10 82 -65 195q-53 111 -80 143q-18 25 -21 66z" />
<glyph unicode="x" d="M20 475q0 20 29 65.5t70 90.5q88 94 88 143q0 37 -107 164q-36 40 -36 70q0 19 14 34q20 20 44.5 3t90.5 -103q63 -88 78 -92h2q19 0 106 86q82 82 115 102.5t51 5.5q23 -18 14.5 -46.5t-40.5 -47.5q-37 -23 -115 -96l-78 -74l64 -129q51 -104 59 -151q2 -10 2 -18 q0 -33 -25 -48q-25 -14 -49 20.5t-30 67.5q-8 53 -39 103.5t-54 52.5q-18 0 -33.5 -13.5t-50.5 -62.5q-55 -80 -69 -117q-14 -41 -31 -59q-14 -16 -19 -15t-26 19q-25 23 -25 45z" />
<glyph unicode="y" horiz-adv-x="645" d="M23 1004q8 23 26.5 16.5t32.5 -35.5q25 -43 53 -86q117 -178 154 -250q29 -57 45 -65q16 -4 32.5 10t22.5 41q6 29 52 141.5t73 167.5q32 67 66 67q15 0 30 -12q18 -16 13 -44.5t-35 -61.5q-61 -70 -94 -174q-8 -27 -60.5 -160t-60.5 -160q-10 -29 -62 -163 q-49 -125 -55 -152q-8 -35 -31.5 -55.5t-56.5 -20.5q-27 0 -33 6t-6 37q0 41 25 74q25 37 71.5 132t59.5 132q8 31 6 53.5t-23 79.5q-43 133 -166 301q-82 111 -82 164q0 9 3 17z" />
<glyph unicode="z" horiz-adv-x="768" d="M20 1104q0 10 179 10h65h10q199 0 232 -11t33 -75v-2q0 -84 -86 -184q-23 -27 -86.5 -107t-92.5 -112q-23 -27 -27.5 -38.5t1.5 -23.5q8 -12 46 -15t179 -3q219 -2 227 -4q16 -2 36 -45t7 -54q-12 -14 -51 -12t-69 16q-29 16 -190 16q-44 0 -99 -2q-89 -2 -148 -1 q-106 0 -110 6q-10 12 -10 51q0 23 9 39t40 43q139 125 226 232.5t87 158.5q0 16 -31.5 22.5t-210.5 22.5q-106 10 -118 10q-6 2 -27 29t-21 33z" />
<glyph unicode="{" horiz-adv-x="425" d="M31.5 909.5q23.5 32.5 85.5 40.5q49 6 89 25.5t44 38.5q4 27 -30 85t-64 79q-70 43 -88.5 118.5t26.5 139.5q33 45 86 90t101 69q55 27 57 35q4 8 29.5 8t31.5 -26q6 -29 -3 -42.5t-56 -31.5q-41 -18 -86 -58t-64 -75q-16 -29 -16 -72q0 -27 9.5 -44t41.5 -48 q53 -51 94 -125t41 -115q0 -33 -11 -50t-70 -66l-33 -27l26 -49q33 -61 27 -115.5t-57 -156.5q-51 -100 -60.5 -145.5t13.5 -80.5q12 -20 29.5 -29.5t60.5 -17.5q113 -20 121 -55q4 -20 -46 -29q-35 -6 -125 8.5t-118 30.5q-39 20 -40 123.5t38 171.5q61 104 76.5 138 t15.5 57q0 33 -24.5 56t-65.5 32q-61 10 -85 45t-0.5 67.5z" />
<glyph unicode="|" horiz-adv-x="172" d="M22 589q1 185 15 247q31 109 0 237q-12 49 -13 81t9 99q8 80 25.5 167.5t23.5 99.5q6 10 24 6q12 -2 15.5 -21.5t1.5 -87.5q-6 -113 -17 -164q-14 -61 -12 -354q2 -219 5 -266t26 -98q27 -72 26 -103t-34 -61q-29 -29 -48.5 -28t-33.5 30q-14 31 -13 216z" />
<glyph unicode="}" horiz-adv-x="485" d="M25.5 77.5q-11.5 18.5 7.5 37.5q12 14 40.5 18t108.5 6q82 2 109.5 7.5t44.5 19.5q47 45 -4 168q-18 47 -44 76.5t-120 111.5q-27 23 -33 38t-6 52q0 33 7 53.5t30 49.5q33 45 48 69.5t19.5 42t-5 23.5t-31.5 12q-37 8 -64 30.5t-27 47.5q0 27 52 64q49 29 116 96 q61 59 76 112l15 54l-89 86q-86 86 -137 98q-70 18 -100 43.5t-10 50.5q29 35 133 -8q141 -59 236.5 -165.5t58.5 -164.5q-18 -27 -29 -67q-14 -39 -68.5 -99.5t-54.5 -70.5q0 -12 49 -6q49 8 72 -15.5t20 -77.5q-2 -39 -10 -49t-51 -30q-55 -27 -102 -72q-29 -27 -36 -43.5 t-7 -44.5q0 -31 10 -48.5t49 -56.5q61 -61 94 -114.5t56 -128.5q16 -61 16 -80t-12 -45q-18 -39 -53 -59.5t-161 -40t-163 -9.5q-39 10 -50.5 28.5z" />
<glyph unicode="~" horiz-adv-x="909" d="M20 846q0 49 62 84q20 10 43 14q49 13 78 29q39 16 92 14t92 -20q45 -25 119 -95q74 -72 92 -71q20 0 48 17.5t93 66.5q59 45 91 55t51 -12q29 -35 -35 -70q-27 -14 -84 -59q-100 -86 -174 -101q-37 -8 -92.5 24t-92.5 79l-36 51l-91 2q-63 2 -82.5 -1t-41.5 -24 q-35 -29 -70 -28q-61 0 -62 45z" />
<glyph unicode="&#xa2;" horiz-adv-x="479" d="M94 662q-156 80 29 350q43 61 76 92q23 23 27.5 38t4.5 62q1 66 9 103q4 20 10 27t20 7q27 0 40.5 -20.5t19.5 -69.5q4 -45 15 -57t63 -23q29 -8 40 -15t11 -19t-11.5 -19.5t-41.5 -13.5q-43 -10 -70 -30.5t-27 -45.5t-22 -127q-37 -172 -4 -199q18 -16 82 -16 q68 0 65 -10q-2 -14 -123 -62l-96 -36l-41 32q-43 35 -76 52zM111 807q0 -90 34 -94q27 -4 48 47q14 33 28 111.5t10 101.5q-12 59 -65 -12q-8 -10 -14 -23q-27 -43 -34 -65.5t-7 -65.5z" />
<glyph unicode="&#xa3;" horiz-adv-x="831" d="M23 547q-6 49 6 71.5t49 40.5q45 20 75.5 19.5t98.5 -23.5q78 -25 93 -12.5t15 100.5q0 68 -11 138.5t-23 91.5q-6 10 -56.5 21.5t-58.5 17.5q-10 8 -8 15t18 24q25 29 62 24q37 -4 54 21.5t25 93.5q20 152 175 297q88 84 133 100q96 33 123 0q31 -39 -68 -71 q-88 -29 -170 -135.5t-92 -206.5q-6 -55 12.5 -71t89.5 -16q113 0 185.5 -27.5t58.5 -64.5q-4 -12 -21.5 -15t-76.5 3q-92 8 -160 18q-76 14 -91.5 -1t-15.5 -105q4 -248 37 -285q16 -20 101 -61q72 -37 97.5 -61.5t31.5 -65.5q4 -27 1 -33t-24 -6q-29 0 -70 37 q-39 35 -87 59.5t-76 24.5q-29 0 -62 -27q-57 -49 -205 -35q-70 4 -115.5 34t-49.5 71zM129 565q0 -14 10.5 -22t40.5 -17q47 -14 66 -8q20 8 15 25.5t-32 31.5q-33 16 -65 17q-20 0 -27.5 -5t-7.5 -22z" />
<glyph unicode="&#xa7;" horiz-adv-x="780" d="M20 260q4 55 109 -14q57 -39 113 -39q35 0 49 6t33 29q41 47 38.5 94t-45.5 141q-35 72 -82 135.5t-79 81.5q-39 25 -48.5 69t7.5 128q18 92 39 121q20 27 96 67q74 39 86 56q10 16 -37 69q-78 88 -61 166q8 33 54 111t73 106q33 29 59 29q29 0 29 11t108 11h109l45 -41 q45 -41 45 -75q0 -51 -36 -58.5t-69 37.5q-23 29 -37 34t-73 5h-78l-51 -55q-45 -47 -55.5 -81t1.5 -83q10 -35 36 -72t116 -141q57 -63 88 -156q39 -119 22.5 -189.5t-94.5 -103.5l-24 -12q-35 -16 -49.5 -22.5t-29.5 -18.5t-18 -17t-1 -24.5t7 -33t17 -48.5q6 -14 8 -22 q29 -78 30 -123t-26 -121q-18 -51 -45.5 -73.5t-93.5 -39.5q-55 -16 -94 -10t-102 37q-61 31 -76 52.5t-13 76.5zM227.5 889.5q8.5 -25.5 57.5 -78.5q37 -39 52 -46t64 -7q43 0 60.5 5t32.5 19q59 64 -29 199q-27 39 -39 39q-29 -2 -96.5 -32t-83.5 -46q-27 -27 -18.5 -52.5 z" />
<glyph unicode="&#xab;" horiz-adv-x="866" d="M21.5 730q-7.5 32 50.5 97q129 145 184 229.5t63 145.5q7 42 21 58q12 14 29.5 12t29.5 -21q39 -66 -186 -383q-59 -80 -61 -106q0 -25 94 -94q80 -57 114.5 -96.5t45.5 -86.5q14 -45 28 -77q20 -35 6 -52q-16 -18 -42.5 -16t-41.5 25q-14 27 -28 67q-12 43 -86 119 t-129 104q-84 43 -91.5 75zM465.5 823.5q17.5 36.5 126.5 149.5q133 133 133 145q0 10 23 41q29 35 63.5 26t34.5 -52q0 -27 -127 -156q-127 -127 -127 -148q0 -29 113 -157q63 -74 86 -217q8 -53 -0.5 -74t-38.5 -21q-16 0 -22.5 11.5t-14.5 54.5q-18 96 -66.5 166 t-159.5 162q-41 33 -23.5 69.5z" />
<glyph unicode="&#xad;" horiz-adv-x="557" d="M20.5 786.5q-0.5 24.5 12.5 34.5q14 6 141 4q129 -1 170 15q57 20 87 15t65 -42q33 -35 39 -52.5t-9 -33.5q-12 -12 -53 6q-43 16 -240.5 10t-199.5 7q-12 12 -12.5 36.5z" />
<glyph unicode="&#xbb;" horiz-adv-x="755" d="M21.5 1187.5q-4.5 15.5 11.5 31.5q14 14 41 10q16 -2 36.5 -24.5t59.5 -84.5q72 -109 131 -174q59 -70 59 -86q0 -12 -38.5 -53t-92.5 -82q-82 -66 -100 -213q-10 -78 -23 -92q-12 -14 -37.5 -14t-39.5 16q-25 31 25 164t114 202q41 47 38 87t-54 126q-57 92 -95 134 q-31 37 -35.5 52.5zM374 485.5q-1 10.5 13 46.5q10 27 36 69t44 70.5t55 81t41 58.5q43 63 40 100t-52 66q-53 31 -105.5 95.5t-52.5 96.5q1 36 15 50q20 20 45.5 4.5t44.5 -60.5q14 -33 66 -85t91 -72q80 -39 80 -95q0 -20 -27.5 -67t-48.5 -58q-27 -16 -77 -95t-70 -138 q-35 -96 -58.5 -116.5t-60.5 18.5q-18 20 -19 30.5z" />
<glyph unicode="&#xbf;" horiz-adv-x="477" d="M29 504q8 31 18 42t41 25q53 23 98 27q51 10 103 37l53 29l6 100q5 103 21 119q29 35 57 0q14 -18 14 -121q0 -94 -20.5 -128t-100.5 -73q-20 -10 -55 -26q-109 -51 -127 -64.5t-18 -40.5v-12q-4 -51 5 -80t42 -66q29 -31 44 -37t54 -6q59 0 109.5 -7t50.5 -15 q0 -14 -42 -29.5t-106 -25.5q-57 -10 -77.5 -9.5t-44.5 15.5q-33 18 -51.5 43.5t-45.5 93.5q-51 127 -28 209zM391 1260q14 16 34.5 10t27 -22.5t-8.5 -35.5q-25 -25 -50.5 -2t-2.5 50z" />
<glyph unicode="&#xc0;" horiz-adv-x="796" d="M26 456.5q11 20.5 68 86.5q152 164 180 262q12 49 50 106q106 174 122 416q9 111 23 129q14 14 38.5 16.5t37.5 -14.5q16 -18 82 -342q33 -176 49 -207q16 -29 14 -78q-4 -45 4 -61q8 -12 47 -133q31 -98 34 -143t-21 -60q-23 -14 -38.5 10.5t-29.5 98.5q-20 90 -37 119 q-14 31 -12 65q4 37 -6 51q-8 12 -102.5 12.5t-137.5 -12.5q-78 -25 -213 -231q-109 -166 -147 -127q-16 16 -5 36.5zM405.5 903q20.5 -14 92.5 -14q49 0 67.5 5t32.5 17q14 16 13 22.5t-17 24.5q-20 25 -41 103q-19 78 -31 90q-23 31 -41 1t-39.5 -100.5t-33.5 -97.5 q-23 -37 -2.5 -51z" />
<glyph unicode="&#xc1;" horiz-adv-x="868" d="M31 592q-39 0 41 88q16 16 34 33q145 145 175 254q12 55 34 80q25 25 41 59q14 31 39 123t23 110q-6 35 18 170q6 34 31 52q23 23 37 21.5t28 -23.5q23 -35 59 -178.5t58 -284.5q8 -49 39 -97q18 -29 21.5 -43t-6 -34.5t-13.5 -36.5q-4 -20 -6 12q0 25 -14.5 42t-59.5 46 q-14 10 -14 14.5t14 12.5q16 10 17.5 30.5t-15.5 34.5q-18 14 -11 51t-13 62q-12 12 -31.5 52t-39 69.5t-38.5 29.5q-14 0 -22 -41q-2 -12 -20.5 -93t-18.5 -115v-43l82 -21q78 -23 78 -39q0 -20 -50.5 -39.5t-121.5 -25.5q-57 -4 -77 -10.5t-32 -24.5 q-63 -84 -157.5 -190.5t-108.5 -106.5zM702 766l3 35l38 -41q25 -27 47.5 -84.5t34.5 -77.5q41 -61 -2 -102l-26 -25l-25 27q-16 18 -31.5 73.5t-19.5 65.5q-21 41 -19 129z" />
<glyph unicode="&#xc2;" horiz-adv-x="1140" d="M31 510q25 45 78 80q45 27 121.5 100.5t103.5 116.5q29 45 65 88q61 70 158 270q45 92 59 111q16 16 33 63q14 43 60 111q47 66 47 74q-1 4 22 61q16 37 25.5 45t34.5 8q37 0 43 -18t-7 -168q-14 -150 -14 -437.5t12 -355.5q29 -156 30 -182t-17 -47q-49 -53 -72 16 q-20 68 -33 302q-6 102 -16 118q-14 14 -78.5 11t-150.5 -23l-105 -25l-184 -184q-188 -184 -203 -184q-41 0 -12 49zM539 971q6 -14 108.5 -15.5t116.5 13.5q12 15 12 205q0 119 -2 154.5t-12 35.5q-29 0 -121 -172q-68 -123 -87 -166t-15 -55zM995 1638h125l-8 -41 q-6 -41 -31 -67l-24 -25l-23 25q-25 24 -33 67z" />
<glyph unicode="&#xc4;" horiz-adv-x="798" d="M24 474q7 20 48 63q76 74 135 157q16 25 16 107q0 61 4 74.5t29 25.5q27 12 59 35q25 18 45 8q33 -18 109 -5t109 40l22 22l-68 93q-33 45 -52 65.5t-34.5 25.5t-24.5 -8.5t-20 -46.5q-18 -51 -18 -75q0 -25 -14.5 -51.5t-26.5 -26.5q-14 0 -14 29.5t12 70.5 q2 10 17.5 156t23.5 156q16 20 45 16q18 -2 37.5 -30.5t71.5 -133.5q80 -160 79 -166q0 -8 37 -88q39 -76 39 -121q0 -41 12 -49t10.5 -22.5t-16.5 -14.5q-16 0 -16 21.5t-31 52.5q-20 18 -34.5 21.5t-51.5 -3.5q-10 0 -62 -6t-86 -12t-50 -16q-20 -12 -56.5 -51t-36.5 -52 q0 -8 -47 -80q-49 -72 -86 -145q-31 -59 -54.5 -76.5t-49.5 4.5q-18 16 -11 36zM217 1627q0 11 49 11t49 -11t-49 -11t-49 11zM416 1630q0 8 59 8q39 0 50.5 -4t11.5 -16q0 -18 -14.5 -31.5t-35.5 -13.5q-16 0 -43.5 21.5t-27.5 35.5zM702 708.5q0 16.5 16.5 16.5 t16.5 -16.5t-16.5 -16.5t-16.5 16.5zM705 498q-51 59 0 114l24 25l19 -23q16 -20 25 -58t1 -56q-8 -25 -28.5 -26t-40.5 24z" />
<glyph unicode="&#xc7;" horiz-adv-x="890" d="M23.5 681q13.5 116 54.5 177q27 43 26 51q0 16 90.5 129t170.5 195q130 135 290 190q84 31 119 25t35 -49q0 -27 -22.5 -64t-49.5 -53q-18 -12 -24 -11t-19 17q-18 25 -18 39q0 37 -113 -20q-96 -49 -145 -87t-96 -102q-113 -150 -147 -206t-54 -128q-33 -111 -26 -154.5 t63 -76.5q25 -12 106.5 -22.5t108.5 -2.5q33 8 86 9q90 0 239 30q27 4 82 60q39 39 59.5 45t30.5 -19q6 -14 -22.5 -59t-52.5 -62q-20 -14 -93 -32.5t-108 -18.5q-41 0 -51.5 -18.5t6.5 -65.5q35 -100 -4 -143q-18 -20 -46 -24.5t-36 12.5q-8 10 6 43q8 27 1 39t-56 63 l-70 70l-100 6q-156 8 -203 67q-31 35 -17.5 151z" />
<glyph unicode="&#xc8;" horiz-adv-x="886" d="M25 556q10 26 45 42l45 23l-4 153q-6 432 -5 506t13 86q27 35 61 -4q12 -14 16.5 -38t6.5 -89v-107h227q168 -2 202 -5t54 -23q25 -23 27 -38t-17 -30q-14 -12 -75 4q-102 31 -228.5 14.5t-173.5 -67.5q-18 -18 -20 -34.5t2 -71.5q14 -176 43 -224l18 -28h246 q193 0 259.5 -7.5t84.5 -33.5q14 -18 14 -42t-14 -38q-16 -12 -86 12q-76 29 -235.5 32t-280.5 -20q-135 -27 -171 -29.5t-48 11.5q-16 20 -6 46zM72 1487q-23 35 34 49q47 10 107 -6q33 -8 115 4q83 17 159 25q250 31 330 -9q31 -14 8 -34q-8 -10 -162.5 -21.5 t-306.5 -13.5q-86 -2 -145 -17q-47 -12 -87 -6t-52 29z" />
<glyph unicode="&#xc9;" horiz-adv-x="802" d="M44.5 460.5q6.5 26.5 37.5 49.5l39 29v155q0 154 -17 180q-12 16 -13 39t5 88q12 102 -4 158q-14 53 -14 82q0 25 -29 76q-53 90 -4 178q27 45 35 45q12 0 45 -27q45 -35 181 -55t286 -16q100 2 126.5 0t35.5 -15q12 -20 -17 -47l-28 -28l-168 12q-229 16 -303 18 t-91 -10q-16 -12 -12 -96q12 -129 17.5 -156.5t23.5 -46.5q18 -23 63.5 -31t221.5 -20q53 -2 82.5 -6t48 -10.5t22.5 -13.5t0 -17q-8 -18 -54 -24.5t-167 -6.5q-98 0 -124.5 -3t-44 -20.5t-21.5 -39t-4 -107.5q0 -76 4 -105.5t18 -50.5q18 -33 42 -34.5t122 14.5 q240 43 330 41q35 0 51 -14q14 -12 15 -38t-13 -34q-12 -10 -147 -6q-143 4 -268.5 -23.5t-186.5 -74.5q-74 -57 -105 -33q-23 18 -16.5 44.5z" />
<glyph unicode="&#xca;" horiz-adv-x="1042" d="M24.5 1490q14.5 36 73.5 50q41 8 66.5 8t81.5 -14q70 -14 187.5 -15t180.5 15q150 35 205 0q33 -20 -4 -51q-14 -12 -40.5 -13.5t-115.5 5.5q-137 10 -182 0q-45 -8 -139 -7q-94 2 -115 -14q-29 -29 -39 -66.5t-10 -119.5q0 -109 21 -144q14 -23 26 -30t41 -7 q47 0 146 -16q152 -27 151 -80q0 -8 -21.5 -11t-59.5 1t-81 16q-72 16 -123 4q-55 -16 -63 -24q-16 -14 -20.5 -85t10.5 -118q16 -55 16 -88q0 -41 22.5 -52t90.5 -3q109 8 386 6t290 -12q16 -12 16 -50q0 -25 -5 -31.5t-22 -6.5q-23 0 -45 14q-55 37 -197.5 48t-242.5 -11 q-70 -18 -111 -19q-96 0 -211 -65q-49 -27 -74.5 -31t-39.5 16q-14 16 2 52q20 37 27.5 64.5t17.5 96.5q8 66 16 123q4 41 -22 95q-20 39 -23.5 64.5t0.5 113.5q12 240 -47 313q-35 43 -20.5 79zM723 1630q0 8 50 8t50 -8q0 -12 -16 -24.5t-33.5 -12.5t-34 12.5t-16.5 24.5z " />
<glyph unicode="&#xcb;" horiz-adv-x="886" d="M20.5 1320.5q-0.5 10.5 8.5 27.5q29 53 192 47q45 0 103.5 5t134.5 15t92 12q121 16 135 -26q4 -18 -18 -43l-27 -29l-37 29q-35 27 -65.5 26.5t-163.5 -26.5q-80 -16 -170 -37q-25 -4 -51.5 -26.5t-26.5 -39.5q0 -16 28.5 -110t45.5 -127l20 -43l62 8q57 8 81.5 8 t100.5 17q82 18 158 6q133 -20 133 -72q0 -37 -18.5 -42t-67.5 18q-61 27 -166 28q-74 2 -100.5 -3t-71.5 -28q-47 -23 -58.5 -34t-17.5 -50q-10 -51 -25 -51q-20 0 -50.5 36t-37.5 69q-6 39 -31.5 128t-43.5 136q-14 43 -17 80q0 37 -18 63q-12 18 -12.5 28.5zM150 1632 q0 6 116 6q76 0 95.5 -3t19.5 -15q0 -39 -41 -59.5t-91 -12.5t-77 45q-22 31 -22 39zM209 431q6 44 22 61q12 12 20.5 12t33.5 -15q27 -14 39 -13t53 18q57 24 209 55q135 27 157.5 29t55.5 -9q66 -16 67 -69q0 -35 -19.5 -39t-68.5 16q-51 25 -82.5 23t-177.5 -37 q-96 -20 -137 -42t-84 -69q-55 -63 -82 6q-12 29 -6 73zM238 652.5q0 27.5 16 27.5t16 -27.5t-16 -27.5t-16 27.5zM479 1627q0 11 39 11t39 -11t-39 -11t-39 11z" />
<glyph unicode="&#xce;" horiz-adv-x="1062" d="M29 1524q14 25 38.5 32t53 3t67.5 0q55 10 407.5 6t365.5 -17q33 -25 0 -53q-18 -14 -80 10q-51 18 -105.5 21.5t-85.5 -13.5q-27 -10 -37 -45q-12 -39 -18 -266q-4 -170 -8 -205.5t-25 -56.5l-27 -29l-18 31q-16 31 -16 299q-2 190 -5.5 231t-17.5 46q-27 12 -101.5 9 t-123.5 -16q-61 -16 -98 -16q-39 0 -60 -16q-23 -16 -57.5 -16.5t-48 16t-0.5 45.5zM135 319q-23 35 66.5 101t181.5 84q45 8 242 2q211 -6 290 -6q82 0 104.5 -8.5t22.5 -34.5q0 -35 -21.5 -44.5t-70.5 3.5q-39 8 -159.5 21.5t-161.5 13.5q-47 0 -165 -11.5t-132 -17.5 q-18 -8 -86 -68q-49 -47 -71.5 -53t-39.5 18zM514 703.5q12 91.5 35 130.5q25 45 39 45q23 0 23.5 -127t-21.5 -156q-12 -12 -37 -13t-37 13q-14 16 -2 107.5z" />
<glyph unicode="&#xcf;" horiz-adv-x="1216" d="M25.5 392.5q11.5 19.5 37.5 25.5q27 8 467 2q279 -4 370 -2t126 14q41 12 89 10t69 -16q14 -14 11 -37.5t-24 -46.5q-20 -25 -33.5 -24t-50.5 30l-38 29l-289 4q-287 4 -332 -8q-31 -10 -167 -23.5t-181 -11.5q-35 0 -50.5 17.5t-4 37zM287 1442q8 33 35.5 41t109.5 2 q37 -8 82 -5t60.5 5t56.5 9t69 11q95 17 144 29q100 23 141 -8q14 -12 12 -48t-16 -51q-16 -14 -51 5q-88 45 -193 28q-201 -29 -252 -43q-55 -12 -94 -28q-53 -23 -85 -6.5t-19 59.5zM588.5 610.5q-4.5 28.5 11.5 98.5q14 66 10 329q-1 266 15 305q14 41 39 41q18 0 20 -15 t-2 -101q-6 -119 -23 -187q-14 -61 -14 -245q4 -238 -6 -250q-2 -4 -21 -4q-25 0 -29.5 28.5z" />
<glyph unicode="&#xd1;" horiz-adv-x="1077" d="M21 627.5q2 21.5 20 103.5q29 129 33 174q6 53 24 74q10 12 11.5 28.5t-7.5 61.5q-12 72 0 121q12 51 13 98q0 106 43 148q16 14 27.5 12t58.5 -25q57 -29 73.5 -47t12.5 -49q-6 -29 28 -104q113 -246 131 -305q16 -53 53.5 -124t53.5 -77q20 -8 39.5 22.5t37 80.5 t25.5 65q16 29 60.5 136t54.5 128q59 123 82 221q12 43 37.5 81t52.5 52q47 25 68 -10q12 -18 -21 -57q-53 -68 -141 -244q-16 -35 -88 -230.5t-94 -269.5q-27 -86 -37 -96q-8 -12 -37 -14t-51 6q-18 6 -61.5 76.5t-49.5 103.5q-6 18 -61.5 137t-59.5 135q-8 25 -65 125 q-96 174 -97 68q0 -35 -14 -110.5t-29 -106.5q-6 -23 0 -164q8 -104 5.5 -130t-23.5 -63q-27 -49 -53.5 -66.5t-44.5 1.5q-12 12 -10 33.5zM236 1618q0 12 11 16t50 4q59 0 59 -8q0 -6 -24 -33q-29 -31 -62.5 -23.5t-33.5 44.5z" />
<glyph unicode="&#xd3;" horiz-adv-x="1112" d="M23 909q-6 131 5 203t52 158q35 78 99.5 156.5t121.5 117.5q59 39 86 66q18 20 45 23t146 3l161 2l35 -39q37 -43 80 -61q37 -20 113 -88q72 -70 99.5 -139.5t25.5 -171.5q0 -72 -19.5 -153t-42.5 -107q-14 -16 -37 -62q-20 -41 -131 -149q-92 -92 -178 -141.5 t-184 -69.5q-57 -12 -82 -11.5t-78 15.5q-43 10 -66.5 21.5t-55.5 36t-48 34.5q-27 18 -45.5 40.5t-36.5 58.5t-31 55q-18 29 -23 59.5t-11 142.5zM57.5 914.5q1.5 -25.5 24.5 -111.5q20 -82 33.5 -106.5t54.5 -65.5q59 -59 115 -88q84 -43 220 -22.5t236 89.5q8 6 39 27.5 t43 28.5q37 27 49 49q12 25 60 86q45 59 86 140t41 114q0 27 -20.5 117t-30.5 106q-25 41 -74 97.5t-78 78.5q-47 33 -117.5 65.5t-107.5 39.5q-43 6 -82 -13q-27 -10 -36.5 -10t-23.5 16q-16 18 -30.5 18.5t-52.5 -18.5q-39 -20 -130.5 -114.5t-117.5 -141.5 q-43 -74 -54.5 -102.5t-15.5 -73.5q-4 -49 -20 -129q-12 -51 -10.5 -76.5z" />
<glyph unicode="&#xd4;" horiz-adv-x="1073" d="M23 881q6 59 55 193t86 190q41 61 167 166.5t171 134.5q39 26 43 49q2 16 12 20t45 4q41 0 59.5 -12t86.5 -80q162 -166 233.5 -285.5t71.5 -226.5q0 -123 -80 -196q-33 -31 -147.5 -106t-182.5 -107q-172 -88 -329.5 -92.5t-227.5 75.5q-33 37 -52.5 120t-10.5 153z M96 821q4 -88 19.5 -127t56.5 -65q23 -16 49.5 -20.5t108.5 -4.5q127 0 178 14t179 78t165 92q88 72 112.5 101t39.5 80q18 70 10 114q-6 51 -91 176t-163 201q-84 78 -96 78q-80 -10 -158 -27q-20 -4 -82 -57q-43 -41 -84 -72q-43 -29 -115.5 -155.5t-107.5 -229.5 q-25 -74 -21 -176z" />
<glyph unicode="&#xd6;" horiz-adv-x="1013" d="M21.5 900.5q-5.5 152.5 52.5 242.5q31 53 37 78q12 39 71.5 124t110.5 134q66 66 65 80q0 12 -15 13t-21 -11q-8 -10 -40 -10.5t-32 12.5q0 10 18 43q14 25 28.5 28.5t82.5 3.5q90 0 90 -11t43 -11q49 0 64.5 -10.5t21.5 -44.5q4 -29 17.5 -43.5t62.5 -44.5 q61 -35 154.5 -123t128.5 -142q31 -45 32.5 -116.5t-26.5 -114.5q-104 -152 -313.5 -275.5t-360.5 -121.5q-63 0 -118.5 23.5t-86.5 62.5q-61 82 -66.5 234.5zM94 915q0 -106 12.5 -142t61.5 -83l43 -41l121 -4l121 -2l110 55q111 57 163 93t110 96q53 57 69.5 90t16.5 84 q0 92 -99 199q-201 222 -258 245q-35 14 -77 11t-68 -19q-39 -25 -131 -128t-127 -163q-37 -61 -52.5 -126.5t-15.5 -164.5z" />
<glyph unicode="&#xd9;" horiz-adv-x="927" d="M22.5 772.5q-6.5 142.5 6.5 220.5q25 158 60.5 324t45.5 184q14 23 31.5 26t26.5 -16q6 -16 -23 -145q-43 -199 -58.5 -310.5t-15.5 -234.5q0 -133 10.5 -181t47.5 -89q25 -25 40 -30t56 -5q59 0 121 35q8 6 47 27.5t53 29.5t39 25.5t43 34.5q35 35 57 45q29 16 54 53 q8 12 27.5 37.5t31.5 43t25.5 43t19.5 48.5q12 49 29 72q14 20 11 41.5t-24 74.5q-14 43 -16 101q0 55 -16 102q-16 43 -17.5 91t13.5 63q14 12 37.5 12t35.5 -14q12 -16 23 -70q2 -12 12 -58t14 -67q29 -115 9 -229q-25 -137 -27 -173t10 -67q10 -23 14.5 -52.5t0 -51 t-12.5 -21.5q-14 0 -47 51q-31 51 -53 56q-18 4 -51 -31q-121 -135 -264.5 -227t-235.5 -92q-129 0 -168 124q-16 57 -22.5 199.5zM830.5 472q-6.5 23 5.5 97q10 76 20 78q6 2 18 -16q2 -4 9 -15q27 -55 23.5 -111t-34.5 -56q-35 0 -41.5 23z" />
<glyph unicode="&#xda;" horiz-adv-x="1173" d="M20 676q0 193 39 414.5t82 291.5q16 25 43 25q18 0 23.5 -8t5.5 -41q0 -51 -27 -103q-74 -143 -73 -469v-200q49 -47 96 -94l125 4q90 2 120.5 9t96.5 38q55 25 90 51.5t90 85.5q90 92 129 143q29 45 78 105q45 57 45 82q0 20 21.5 140t33.5 171q10 39 39 53 q18 10 27.5 8t25.5 -20q20 -18 22.5 -34.5t-5.5 -82.5q-10 -94 -37 -145q-35 -70 -64.5 -245t-27.5 -296q2 -86 -4 -108.5t-35 -22.5q-41 0 -50 43t7 154q29 176 18 184q-2 4 -12 4q-20 0 -143 -119q-115 -113 -160 -147.5t-119 -69.5q-115 -55 -224.5 -59t-180.5 41 q-61 39 -78 79t-17 138zM578 1616q-2 14 4 18t30 4q25 0 33 -4t8 -16q0 -23 -17.5 -35t-35.5 -4t-22 37z" />
<glyph unicode="&#xdb;" horiz-adv-x="1052" d="M20 768q0 94 12.5 278.5t22.5 239.5q37 211 62 250q16 23 33.5 23t31.5 -21q12 -23 -2 -72q-49 -172 -63 -606q-6 -147 5 -192t56 -70q33 -18 77 -15t140 25q362 90 451 262q16 35 19 51.5t-5 43.5q-10 39 -10 114.5t12 130.5q35 180 52.5 229.5t52.5 67.5q18 8 25 7 t20 -13q20 -16 20 -119q-2 -172 -22.5 -306t-53.5 -187q-33 -47 -43 -95.5t-6 -131.5q2 -68 -1 -88.5t-15 -28.5q-23 -16 -40 9.5t-22 82.5l-4 65h-41q-43 0 -79 -24q-76 -51 -255.5 -106.5t-267.5 -55.5q-43 0 -71.5 21.5t-59.5 78.5q-20 39 -25.5 65t-5.5 87z" />
<glyph unicode="&#xdc;" horiz-adv-x="1015" d="M23 889q-4 111 3 175t37 249q6 37 16.5 93t10.5 67q12 68 57 67q76 0 25 -139q-12 -31 -35.5 -166t-30.5 -156q-10 -47 -9 -143t14 -143q12 -49 34.5 -75t69.5 -38t94 1t164 73q78 39 114 65.5t89 83.5q74 80 93 113t32 100q4 14 12 58.5t12 60.5q10 53 11 104 q0 47 16.5 131.5t28.5 98.5q39 47 75 -43q16 -35 27 -84q20 -96 5 -169t-77 -175q-43 -72 -43 -121q0 -18 -9 -82t-1 -98q29 -137 -2 -170q-23 -23 -47 -23q-25 0 -32 34t-7 148q0 70 -4 92.5t-14 22.5q-14 0 -90 -72q-82 -78 -239 -151.5t-239 -73.5q-74 0 -133 96 q-16 27 -21 59t-7 130z" />
<glyph unicode="&#xdf;" horiz-adv-x="776" d="M20 257q0 30 19 101q23 76 41 156q10 51 8 63.5t-20 28.5q-29 20 -26 38t44 50q33 25 42 43.5t17 71.5q23 123 62 303t57 240q27 78 33 123q12 72 92 86q25 6 41 6t24.5 -1t30 -6.5t39.5 -9.5q127 -29 192.5 -106.5t20.5 -147.5q-12 -18 -100 -112q-84 -84 -78 -99 q6 -14 70 -34q68 -20 97.5 -52t29.5 -81q0 -92 -97 -195q-51 -55 -92 -76.5t-123 -38.5q-98 -18 -170 -6q-74 12 -86 2t-26 -112q-18 -139 -30.5 -183.5t-37.5 -70.5q-18 -23 -28.5 -27t-22.5 2q-23 14 -23 44zM218 725q1 -33 11 -43q12 -12 111 -12q86 0 133 19.5t109 78.5 q72 66 82 105.5t-31 78.5q-31 29 -81 43.5t-91 8.5q-76 -12 -103 32q-25 53 48 70q35 6 71.5 31.5t100.5 87.5q45 45 56 62.5t11 47.5q0 29 -7.5 44.5t-27.5 35.5q-27 25 -40 34t-37.5 16.5t-61.5 7.5q-41 0 -53 -6.5t-35 -39.5q-45 -70 -94 -307q-2 -12 -12.5 -53 t-19.5 -83t-19.5 -94t-15.5 -92t-4 -73z" />
<glyph unicode="&#xe0;" d="M35 461q-39 33 28 117q27 35 71 113.5t59 99.5q25 41 59 137q31 96 44 111.5t38.5 14.5t40.5 -18q25 -29 88 -161t63 -152q0 -27 29 -148q18 -80 20.5 -101t-10.5 -34q-10 -10 -18 -11t-25 9q-23 12 -35 43t-28 117q-16 98 -56.5 118.5t-132.5 -26.5q-66 -33 -89 -54.5 t-48 -70.5q-29 -57 -56.5 -85.5t-41.5 -18.5zM252 1628q0 10 59 10q41 0 51.5 -5t20.5 -27q20 -51 113 -103q47 -27 66.5 -53.5t19.5 -60.5q0 -45 -19.5 -48.5t-64.5 37.5q-57 49 -90 66q-57 31 -106.5 88t-49.5 96zM303 870q-41 -47 21 -47q31 0 41.5 15.5t-5.5 33.5 q-27 33 -57 -2z" />
<glyph unicode="&#xe1;" horiz-adv-x="624" d="M22 580q5 38 31 77q31 45 53 105q14 47 70 162q49 102 60 141q7 37 30 55q33 31 54.5 14.5t66.5 -108.5q41 -80 74 -108q23 -18 28 -31t0 -35q-6 -39 15 -102q10 -29 18 -68t8 -83t-18 -54q-23 -14 -43 17.5t-41.5 119.5t-34 109.5t-41.5 21.5q-27 0 -98.5 -22.5 t-87.5 -36.5q-18 -14 -36.5 -56.5t-25.5 -83.5q-4 -29 -16 -52t-27.5 -33.5t-25.5 -0.5q-18 14 -13 52zM262 915q0 -16 6 -21t23 -5q18 0 22 6.5t2 24.5q-2 23 -17 32t-28 -4q-8 -6 -8 -33zM416 1450q0 51 41 121l41 67h53q53 0 53 -8t-45 -61q-43 -51 -55 -99 q-12 -45 -24.5 -59t-37.5 -14q-18 0 -22 8t-4 45z" />
<glyph unicode="&#xe2;" horiz-adv-x="559" d="M20 416q0 25 59.5 144.5t94.5 164.5q45 55 62 158q5 38 28 61q33 29 57.5 15.5t51.5 -74.5q20 -49 71 -109q33 -35 40.5 -51t2.5 -39q-6 -33 23 -143q25 -86 20.5 -111.5t-43.5 -25.5q-25 0 -37 18t-22 70q-12 66 -37.5 112.5t-50.5 48.5q-31 6 -76 -10t-71 -39 q-27 -27 -39.5 -54.5t-24.5 -84.5q-10 -51 -23.5 -67.5t-48.5 -16.5q-25 0 -31 5t-6 28zM113 1161q-59 35 32 133q59 63 84 119q23 54 41 70q18 12 43 12t35 -14q12 -12 19 -45q8 -37 86 -162q76 -129 82 -168q4 -31 -0.5 -36t-32.5 -5q-33 0 -52.5 18.5t-35.5 61.5 q-10 33 -58 106q-41 63 -67.5 65.5t-67.5 -52.5q-63 -84 -77.5 -98.5t-30.5 -4.5zM290 775q-1 -7 5 -11t12 -1t6 10t-5 11t-11 1t-7 -10z" />
<glyph unicode="&#xe4;" horiz-adv-x="622" d="M20 498q-6 14 19 53q8 14 34.5 84t49.5 90q25 25 51.5 74t34.5 88t31 59q27 25 44 15.5t42 -58.5q29 -57 65 -90l39 -31l-20 -39q-16 -31 -14.5 -60.5t36.5 -193.5q14 -68 9 -94t-31 -33q-20 -4 -39 34t-35 126q-37 164 -74 176q-25 10 -149 -147q-74 -96 -93 -53z M59 1235q0 29 15.5 46t70 49t82.5 32q29 0 74 -33t61 -67q16 -39 9.5 -69t-41.5 -69q-23 -25 -38.5 -31t-49.5 -6q-55 0 -111 33q-45 25 -59.5 48.5t-12.5 66.5zM158 1200q8 -18 51 -18q41 0 54 17.5t-4 35.5t-50 18t-49.5 -16t-1.5 -37zM437.5 1313q1.5 10 19.5 28 q23 23 61 23q63 0 79.5 -55.5t-30.5 -100.5q-35 -33 -49 -32q-16 0 -39.5 26.5t-32.5 59.5q-10 41 -8.5 51z" />
<glyph unicode="&#xe7;" horiz-adv-x="438" d="M20 551q0 53 17.5 115.5t40.5 93.5q27 35 89 72t107 45q84 16 117 -11q14 -12 -2 -43q-16 -33 -35.5 -40t-95.5 -13l-88 -6l-43 -84q-33 -59 -37 -76.5t6 -54.5q14 -51 39 -72.5t80 -34.5q66 -14 121 4q86 23 82 -12t-96 -86q-20 -10 -28.5 -23.5t-12.5 -39.5 q-4 -47 -35 -78q-35 -37 -47.5 -32t-12.5 52q0 33 -6 48.5t-26 35.5q-33 33 -48 66q-12 31 -49 82q-37 47 -37 92z" />
<glyph unicode="&#xe8;" horiz-adv-x="555" d="M26 837q11 17 60 44q41 20 66 53q23 31 101.5 92.5t117.5 77.5q76 33 120 10.5t44 -94.5q0 -39 -9.5 -56.5t-52.5 -64.5q-66 -68 -98 -84q-33 -18 -89.5 -32.5t-90.5 -14.5q-68 0 -68 -43q0 -45 68 -78q12 -6 26 -10q43 -14 168 -6q82 4 104.5 2t26.5 -12q8 -18 -2 -29 q-8 -8 -137 -29q-90 -12 -122 -12t-91 12q-86 20 -108.5 43t-18.5 88q6 68 -10 99q-16 27 -5 44zM74 1546q14 16 40.5 14.5t53.5 -24.5q25 -20 82 -55q109 -61 108 -135q0 -37 -12 -37q-39 0 -123 71q-47 43 -100 70q-88 47 -49 96zM195 870q0 -16 7 -20t36 -4q80 0 163 57 q29 20 37 32.5t8 35.5q0 35 -13 48t-46 13q-47 0 -119.5 -61.5t-72.5 -100.5z" />
<glyph unicode="&#xe9;" horiz-adv-x="677" d="M20 729.5q0 34.5 21.5 109t38.5 101.5q31 47 135.5 103.5t198.5 74.5q39 8 78.5 1t52.5 -27q14 -20 14 -70q0 -47 -28.5 -92t-79.5 -78q-37 -25 -82 -29t-164 6l-96 9v-164l47 -45q45 -43 84 -58q88 -29 256 11q162 35 161 2q-4 -16 -90 -46t-172 -44q-141 -23 -262 34 q-31 14 -45 32t-35 63q-33 72 -33 106.5zM211 930q4 -10 25.5 -14.5t85.5 -4.5q70 0 90 4.5t37 22.5q18 20 22 54t-12 50q-12 10 -52 11.5t-51 -9.5q-12 -10 -51 -22q-35 -10 -67.5 -43t-26.5 -49zM307 1323q0 16 40 96.5t79 139.5q51 80 76 79q31 0 34 -28.5t-24 -63.5 q-111 -131 -121 -207q-8 -51 -21.5 -62t-37.5 9q-25 29 -25 37z" />
<glyph unicode="&#xea;" horiz-adv-x="575" d="M20 752q0 43 7.5 67.5t38.5 73.5q27 47 49 70.5t75 58.5q78 51 111 65q74 27 125 -12t51 -123q0 -63 -92 -112t-207 -49q-59 0 -74 -13q-29 -31 4 -72.5t97 -58.5q158 -41 254 -49q84 -2 94 -10q6 -6 -16 -29q-14 -16 -33 -19t-86 3q-207 14 -312 61q-47 20 -66.5 53 t-19.5 95zM139 1284q2 29 12.5 39t53.5 31q59 29 92 71q26 38 49 56q14 14 27 14q25 0 48 -37t23 -76q0 -20 43 -71q68 -74 68 -148q0 -39 -55 -10q-43 25 -76 70q-55 80 -85 89t-87 -36q-41 -35 -80 -35q-27 0 -32 6t-1 37zM158 895q0 -20 11 -23.5t69 -3.5q151 0 151 80 q0 37 -14.5 50.5t-55.5 13.5q-43 0 -102 -43t-59 -74z" />
<glyph unicode="&#xeb;" horiz-adv-x="614" d="M76 776q-113 76 6 76q47 0 65.5 9t83.5 67q84 78 168 123q90 49 131 46t58 -61q12 -49 -0.5 -79.5t-59.5 -65.5q-59 -45 -90.5 -59.5t-95.5 -30.5q-76 -16 -88 -35q-14 -23 16.5 -48.5t89.5 -41.5q94 -27 117 -38t23 -32q0 -25 -33 -24.5t-141 22.5q-92 20 -124 36.5 t-52 59.5q-16 39 -74 76zM163.5 1308.5q-4.5 26.5 18.5 49.5q33 37 55.5 21.5t18.5 -72.5q-4 -43 -21.5 -57.5t-41.5 7.5q-25 25 -29.5 51.5zM285 883q6 -16 38.5 -14.5t70.5 13t70 33t34 39.5q3 25 -9 41q-35 41 -127 -22q-51 -33 -67 -52.5t-10 -37.5zM447.5 1365.5 q-2.5 13.5 11.5 29.5q12 12 36.5 11t36.5 -13q12 -16 8.5 -41t-20.5 -37q-18 -12 -47 14q-23 23 -25.5 36.5z" />
<glyph unicode="&#xee;" horiz-adv-x="358" d="M27 1288q10 12 34 37q49 57 76 96q23 35 36 43.5t38 8.5q33 0 47 -15.5t25 -62.5q6 -47 32 -90q45 -74 11 -84q-33 -10 -99 51q-39 35 -51 41t-29 -4q-72 -45 -102 -45q-35 0 -18 24zM76 480q-6 50 2 179q10 162 12 220q2 61 8 75q10 12 25.5 11.5t28.5 -17.5 q16 -16 16 -264q0 -164 -3 -208t-18 -56q-18 -20 -38 -8q-27 18 -33 68z" />
<glyph unicode="&#xef;" horiz-adv-x="399" d="M22.5 1329.5q8.5 34.5 47.5 34.5t47 -32t-23 -64l-24 -27l-25 25q-31 29 -22.5 63.5zM51 323.5q-6 28.5 2 149.5q14 162 15 369q2 158 5 192.5t19 46.5q59 45 72 -43q12 -84 -12 -342q-14 -180 -15 -268q-2 -88 -9 -110.5t-36 -22.5q-35 0 -41 28.5zM287.5 1317.5 q-13.5 31.5 9.5 54.5q18 18 41.5 12t34.5 -32q12 -29 2 -47.5t-39 -18.5q-35 0 -48.5 31.5z" />
<glyph unicode="&#xf3;" horiz-adv-x="567" d="M25 782q8 51 36.5 123t55.5 107q31 37 45 73q27 66 90 78q63 14 114.5 -10.5t122.5 -101.5l58 -62v-80q0 -55 -5 -77.5t-30 -59.5q-35 -55 -60.5 -81.5t-66.5 -55.5q-70 -47 -109.5 -61.5t-101.5 -14.5q-53 0 -71.5 5t-39.5 26q-27 27 -37 80t-1 112zM98.5 764 q-8.5 -84 22.5 -113q45 -41 92 -40t131 44q72 37 126 117t36 125q-10 33 -45 77t-66 64q-59 39 -73 17q-6 -14 -78 -43q-43 -20 -60.5 -35.5t-33.5 -44.5q-43 -84 -51.5 -168zM267.5 1460.5q-7.5 63.5 33.5 126.5q23 37 35 44t49 7q33 0 43 -4t10 -18q0 -12 -39 -63.5 t-39 -65.5q0 -90 -38 -90q-47 0 -54.5 63.5z" />
<glyph unicode="&#xf4;" horiz-adv-x="755" d="M20 756q0 78 6.5 106.5t34.5 87.5q62 127 150 150q33 6 123 2q170 -6 216 -18.5t103 -63.5q33 -27 57.5 -75t24.5 -81q0 -49 -38 -115.5t-93 -113.5q-88 -74 -125 -97.5t-133 -60.5q-190 -76 -272 43q-31 49 -42.5 95.5t-11.5 140.5zM53 741q0 -53 19.5 -108t48.5 -84 l35 -35l106 4q109 4 173.5 34t148.5 116q90 90 103 141t-34 119q-25 31 -48 49t-70 41q-86 39 -131.5 42t-120.5 -24q-90 -35 -133 -65q-33 -23 -45.5 -42.5t-28.5 -68.5q-23 -78 -23 -119zM183.5 1384q15.5 21 78.5 56q98 55 131 157q14 45 40 43t48 -49q25 -47 25 -82 q0 -33 24 -94q29 -59 15 -74q-25 -25 -64 -4t-49 64q-8 31 -41 30t-72 -32q-29 -23 -75 -53q-25 -14 -33 -14.5t-23 11.5q-20 20 -4.5 41z" />
<glyph unicode="&#xf6;" horiz-adv-x="608" d="M23 662q-10 88 18.5 179t83.5 136q39 37 78 34t63 -42q25 -43 64 -86q25 -31 33 -49.5t8 -51.5q-2 -154 -162 -225q-31 -12 -47.5 -14t-44.5 6q-47 12 -66.5 35.5t-27.5 77.5zM96 745q-8 -86 13 -106q12 -14 57 -14q29 0 44 7t36 30q23 23 30 39t7 51q0 55 -23 92 q-14 23 -26.5 29t-43.5 6q-49 0 -59 -13q-27 -35 -35 -121zM145.5 1336q-18.5 34 6.5 59q14 14 26 11t35 -24q25 -23 25 -61q0 -27 -4.5 -31t-24.5 2q-45 10 -63.5 44zM493 1378q-1 25 11 37q16 16 29.5 13t33.5 -27q29 -27 17 -47q-12 -16 -37 -20.5t-41 7.5q-12 12 -13 37 z" />
<glyph unicode="&#xf9;" horiz-adv-x="534" d="M20.5 656.5q-2.5 37.5 10.5 172.5q14 152 12 191q-2 49 10 63t38 15.5t36 -13.5q35 -45 4 -180q-18 -78 -22.5 -164t12.5 -102q20 -20 50 -6t87 74q66 66 84 106.5t18 120.5q0 127 50 153q27 14 45 0q12 -10 13 -34.5t-3 -100.5q-6 -96 2 -151.5t35 -106.5q14 -27 12 -35 t-22 -30q-20 -20 -29.5 -22.5t-30.5 7.5q-27 12 -41 52q-12 35 -34.5 37t-43.5 -31q-20 -31 -92 -82q-47 -37 -66.5 -45t-50 -5t-42 9t-23.5 33q-16 37 -18.5 74.5zM109 1628q0 10 59 10q39 0 56.5 -7t51.5 -40q51 -47 60 -88q0 -18 1 -28.5t-10.5 -11.5t-26.5 5.5t-46 22.5 q-39 18 -92 69.5t-53 67.5z" />
<glyph unicode="&#xfa;" horiz-adv-x="573" d="M20 578q0 45 21.5 129t46.5 133q16 35 27.5 46t29.5 13q25 2 28 -3t-1 -42q-4 -45 -25 -96q-18 -49 -24 -118t8 -87q14 -16 59 -16q82 2 166 114q39 51 56.5 94t25.5 105q11 66 25 80q12 14 36.5 14t39.5 -16q10 -12 7 -41t-26 -129q-20 -98 -19 -162t23 -129l29 -76 l-29 -29q-20 -18 -29.5 -20t-27.5 8q-49 27 -49 139q0 53 -15.5 63.5t-54.5 -17.5q-102 -78 -194.5 -88.5t-116.5 53.5q-16 35 -17 78zM300.5 1187.5q-5.5 16.5 1.5 47.5t26 70q33 66 55 86q27 22 45 63q18 37 50 67.5t59 4.5q18 -18 8 -48t-53 -79q-57 -63 -103 -148 q-43 -80 -65 -80q-18 0 -23.5 16.5z" />
<glyph unicode="&#xfb;" horiz-adv-x="598" d="M20.5 698q-0.5 29 12.5 103q53 288 82 319q37 43 65 -2q8 -14 3 -38.5t-44 -161.5q-29 -96 -28 -216v-64.5t4 -39.5t9 -24.5t20.5 -6.5t30.5 2t46 13q72 20 106.5 48.5t80.5 104.5q33 55 37 71.5t-7 61.5q-10 47 -6 100.5t21 71.5q10 14 36 15q35 0 46.5 -35t15.5 -162 q6 -141 20 -258q10 -80 3 -104.5t-39 -24.5q-16 0 -22.5 9t-10.5 38q-20 139 -47 148q-18 6 -58 -29q-106 -90 -194 -125t-131 -4q-20 16 -39 100q-12 61 -12.5 90zM193 1423q0 20 45 35q72 20 107 46t58 73q20 43 30.5 52t35.5 9q33 0 40 -19.5t5 -90.5q-2 -61 35 -142 q27 -59 29 -84.5t-20.5 -33.5t-53.5 21.5t-53 80.5q-27 59 -46.5 66.5t-87.5 -19.5q-53 -20 -88.5 -18t-35.5 24z" />
<glyph unicode="&#xfc;" horiz-adv-x="538" d="M33 813q4 31 12 95.5t12 82.5q11 76 23 90q23 29 45 11.5t22 -62.5q2 -35 -12 -125q-12 -86 -18 -182l-6 -98h26q49 0 125 111.5t86 195.5q6 57 25.5 98t42.5 41q29 0 39 -45t10 -180q0 -123 4 -153.5t25 -61.5q43 -72 14 -103q-14 -12 -49 -12t-47 14q-6 8 -25.5 87 t-19.5 100q0 33 -62 -37q-12 -12 -24 -27q-43 -53 -95.5 -90t-87.5 -41q-33 0 -55 29q-37 49 -10 262zM159.5 1339.5q-14.5 30.5 10.5 55.5q14 12 25 12q18 0 28 -17.5t10 -46.5q0 -23 -4 -28.5t-20 -5.5q-35 0 -49.5 30.5zM360.5 1382.5q12.5 24.5 45.5 24.5q23 0 36 -13.5 t13 -36t-13.5 -35.5t-35.5 -13q-31 0 -44.5 24.5t-1 49z" />
<glyph unicode="&#x2000;" horiz-adv-x="820" />
<glyph unicode="&#x2001;" horiz-adv-x="1640" />
<glyph unicode="&#x2002;" horiz-adv-x="820" />
<glyph unicode="&#x2003;" horiz-adv-x="1640" />
<glyph unicode="&#x2004;" horiz-adv-x="546" />
<glyph unicode="&#x2005;" horiz-adv-x="410" />
<glyph unicode="&#x2006;" horiz-adv-x="273" />
<glyph unicode="&#x2007;" horiz-adv-x="273" />
<glyph unicode="&#x2008;" horiz-adv-x="205" />
<glyph unicode="&#x2009;" horiz-adv-x="328" />
<glyph unicode="&#x200a;" horiz-adv-x="91" />
<glyph unicode="&#x2010;" horiz-adv-x="557" d="M20.5 786.5q-0.5 24.5 12.5 34.5q14 6 141 4q129 -1 170 15q57 20 87 15t65 -42q33 -35 39 -52.5t-9 -33.5q-12 -12 -53 6q-43 16 -240.5 10t-199.5 7q-12 12 -12.5 36.5z" />
<glyph unicode="&#x2011;" horiz-adv-x="557" d="M20.5 786.5q-0.5 24.5 12.5 34.5q14 6 141 4q129 -1 170 15q57 20 87 15t65 -42q33 -35 39 -52.5t-9 -33.5q-12 -12 -53 6q-43 16 -240.5 10t-199.5 7q-12 12 -12.5 36.5z" />
<glyph unicode="&#x2012;" horiz-adv-x="557" d="M20.5 786.5q-0.5 24.5 12.5 34.5q14 6 141 4q129 -1 170 15q57 20 87 15t65 -42q33 -35 39 -52.5t-9 -33.5q-12 -12 -53 6q-43 16 -240.5 10t-199.5 7q-12 12 -12.5 36.5z" />
<glyph unicode="&#x2013;" horiz-adv-x="1063" d="M20 786.5q-1 24.5 25 34.5q28 6 280 4q255 -1 337 15q113 20 172.5 15t128.5 -42q66 -35 78 -52.5t-18 -33.5q-24 -12 -105 6q-86 16 -477.5 10t-395.5 7q-24 12 -25 36.5z" />
<glyph unicode="&#x2014;" horiz-adv-x="2088" d="M20 786.5q-2 24.5 50 34.5q55 6 559 4q512 -1 674 15q227 20 346 15t257 -42q131 -35 155 -52.5t-36 -33.5q-47 -12 -210 6q-170 16 -953.5 10t-791.5 7q-48 12 -50 36.5z" />
<glyph unicode="&#x2019;" horiz-adv-x="245" d="M23 1167q24 253 108 312q20 14 45 15t37 -11q31 -33 -10 -111q-53 -106 -76 -223q-10 -47 -22.5 -65.5t-36.5 -18.5q-31 0 -41.5 22.5t-3.5 79.5z" />
<glyph unicode="&#x201c;" horiz-adv-x="579" d="M23.5 153.5q-7.5 12.5 0 33t27.5 42.5l29 35l-21 84q-31 133 -4 162q27 35 70 -68q12 -35 29 -84q25 -84 26.5 -104.5t-10.5 -40.5q-18 -27 -56 -49.5t-65 -22.5q-18 0 -25.5 12.5zM350 465q0 20 26.5 40.5t49.5 18.5q18 -2 33.5 -21.5t48.5 -86.5q43 -86 50 -132 t-19 -75q-20 -20 -57.5 -23.5t-55.5 17.5q-8 10 -7 20t13 33q20 37 12 65.5t-49 79.5q-45 54 -45 64z" />
<glyph unicode="&#x201d;" horiz-adv-x="606" d="M23 1290q8 31 46 108.5t56 100.5q14 16 38.5 17.5t39.5 -13.5q37 -37 -25 -104q-45 -51 -53 -80t-2 -111q8 -98 -10 -100q-12 0 -45 33q-27 29 -39.5 70.5t-5.5 78.5zM429.5 1338q15.5 79 70.5 124q33 27 51 29t31 -21q12 -18 -17 -55q-25 -31 -41 -76q-8 -29 -7 -41 t15 -32q25 -33 29 -60q6 -23 1 -26.5t-44 -3.5q-31 0 -43 5t-24 23q-37 55 -21.5 134z" />
<glyph unicode="&#x2022;" horiz-adv-x="360" d="M20 985q0 27 30 73t61 66q39 27 110.5 10.5t100.5 -59.5q45 -63 -11.5 -146t-146.5 -83q-49 0 -74 16q-27 18 -48.5 56t-21.5 67z" />
<glyph unicode="&#x202f;" horiz-adv-x="328" />
<glyph unicode="&#x205f;" horiz-adv-x="410" />
<glyph unicode="&#x20ac;" horiz-adv-x="1126" d="M25 752q-11 18 2 45q33 59 264 69l139 6l33 62q20 41 23 55.5t-7 26.5t-32.5 14t-96.5 -2q-115 -8 -114 10q0 10 22 37q20 20 35.5 23.5t136.5 9.5l131 8l23 45q35 72 117.5 159t156.5 130q63 37 131 51t81 14.5t28 -16.5q16 -20 -3.5 -38.5t-82.5 -37.5 q-82 -25 -128 -52.5t-98 -80.5q-49 -51 -73.5 -82.5t-31.5 -54.5t5 -34t45 -19q55 -14 78 -39t18.5 -44.5t-32.5 -12.5q-147 37 -177 26q-16 -8 -40.5 -56t-18.5 -65q10 -31 264 -30q66 0 86.5 -3.5t20.5 -13.5t-17.5 -13t-72.5 -3q-90 0 -151.5 -16.5t-110.5 -16.5 q-45 0 -60.5 -14.5t-15.5 -55.5q0 -123 203 -278q45 -35 122.5 -42t153.5 17q78 25 80 15q2 -4 2 -11q0 -14 -47 -32q-14 -6 -59.5 -22.5t-63.5 -22.5q-86 -31 -130 -27t-108 53q-70 53 -145 129q-109 113 -109 219q0 29 -19.5 39.5t-72.5 10.5q-51 0 -137 -15.5t-111 -27.5 q-25 -14 -36 4z" />
<glyph unicode="&#x25fc;" horiz-adv-x="1054" d="M0 0v1055h1055v-1055h-1055z" />
</font>
</defs>
</svg>
