<?xml version="1.0" standalone="no"?>
<!DOCTYPE svg PUBLIC "-//W3C//DTD SVG 1.1//EN" "http://www.w3.org/Graphics/SVG/1.1/DTD/svg11.dtd" >
<svg xmlns="http://www.w3.org/2000/svg" xmlns:xlink="http://www.w3.org/1999/xlink" version="1.1">
<metadata></metadata>
<defs>
<font id="scottmedium" horiz-adv-x="735" >
<font-face units-per-em="2048" ascent="1638" descent="-410" />
<missing-glyph horiz-adv-x="860" />
<glyph horiz-adv-x="0" />
<glyph unicode="&#xd;" horiz-adv-x="681" />
<glyph unicode=" "  horiz-adv-x="860" />
<glyph unicode="&#x09;" horiz-adv-x="860" />
<glyph unicode="&#xa0;" horiz-adv-x="860" />
<glyph unicode="!" horiz-adv-x="198" d="M21 719.5q2 60.5 22 144.5q20 70 29 180q6 105 22 123q27 31 49.5 14.5t32.5 -75.5q4 -33 -6 -94.5t-57 -266.5q-16 -68 -34 -90t-42 -8q-18 12 -16 72.5zM59 289q1 41 9 49q16 16 31.5 3t19.5 -48q2 -31 -2 -38t-25.5 -7t-27 7t-5.5 34z" />
<glyph unicode="#" horiz-adv-x="1099" d="M33 901q-39 39 34.5 71t135.5 32q41 0 55 17t21 71q6 59 20 77q25 27 53.5 10.5t50.5 -69.5q37 -88 82 -31q66 84 88 84q16 0 74 -51q61 -53 96 -70q23 -12 31 -24t10 -39q4 -33 -10 -53.5t-72 -65.5l-30 -24l24 -48q10 -18 22.5 -31.5t20.5 -11.5q18 6 160 17 q119 10 149.5 3t30.5 -46q0 -25 -36.5 -34t-133.5 -9q-78 0 -151 -31q-74 -31 -142 -39q-106 -10 -150 -35.5t-77 -97.5q-25 -57 -46 -79.5t-48 -22.5q-33 0 -47.5 26.5t-20.5 104.5q-6 66 -4 88t23 55q20 33 25 61.5t5 100.5v12q0 86 -16 96.5t-110 -12.5q-10 -2 -17 -4 q-55 -12 -71.5 -12t-28.5 14zM366.5 712.5q-6.5 -12.5 3 -17.5t18.5 1.5t9 18.5q0 10 -10 10q-14 0 -20.5 -12.5zM385 850q0 -66 16 -66q14 0 31.5 53t9.5 76q-6 14 -21 17.5t-28 -6.5q-8 -8 -8 -74zM483 721q0 -23 6.5 -28t34.5 -5q45 0 58.5 21.5t1.5 76.5q-17 60 -17 99 q0 33 -16 34t-29 -32q-39 -98 -39 -166z" />
<glyph unicode="$" horiz-adv-x="782" d="M28 380.5q15 20.5 54 33.5q61 16 77.5 44.5t16.5 121.5q0 111 14 165q10 45 7.5 59.5t-25.5 43.5q-82 94 -82 186q0 68 24.5 109t100.5 96q88 68 109 90q20 29 53 146q39 139 39 143q6 20 35 20q37 0 41 -37.5t-19 -152.5q-8 -43 14.5 -48t94.5 23q180 72 180 -24 q0 -18 -12.5 -23.5t-57.5 -11.5q-61 -8 -161.5 -46t-110.5 -58q-16 -29 -62.5 -188t-46.5 -179q0 -27 37 -64.5t94 -68.5q43 -25 72 -63t29 -72q0 -61 -127 -146q-82 -55 -121 -100l-43 -49l-105 -2q-102 -6 -118 14q-16 18 -1 38.5zM190 1040q4 -43 8.5 -54t18.5 -11 q25 0 41 59q16 63 16 96q0 31 -16 32t-43 -27q-18 -18 -22.5 -37t-2.5 -58zM263 580q5 -45 32 -48q23 -4 74 38.5t51 62.5q0 16 -39 48t-59 32q-27 0 -45.5 -44t-13.5 -89z" />
<glyph unicode="%" horiz-adv-x="1103" d="M20 1034q0 92 71 186.5t155 112.5q18 4 30.5 5t17.5 1t20.5 -4t25.5 -6q31 -6 57 -41q16 -25 18.5 -44t-5.5 -83q-12 -84 -42 -132t-96 -85q-98 -57 -175 -29.5t-77 119.5zM49 213q-20 43 12.5 106.5t137.5 180.5t336 348q285 291 303 291q23 0 49 -31t20 -49 q-10 -16 -43 -33q-31 -12 -213 -184q-160 -158 -237 -230q-59 -57 -138 -146t-100 -122q-23 -39 -19.5 -49t40.5 -2q29 4 36 1t7 -18q0 -27 -31 -63q-23 -27 -37 -32t-53 -3q-35 2 -48.5 8.5t-21.5 26.5zM121 1051q4 -25 24 -39q27 -16 53.5 17.5t32.5 92.5q6 68 19 82 q14 13 14 23q0 23 -41 2q-16 -8 -28 -21q-29 -31 -53.5 -83t-20.5 -74zM729 547q14 43 81 141.5t122 161.5q18 20 59 20q25 0 33 -5t8 -21q0 -27 -31 -66q-39 -51 -28 -82q2 -8 10 -8q12 0 53 -43q51 -45 48 -88t-60 -104q-100 -104 -213 -107q-158 0 -82 201zM801 467 q0 -45 65 -14q39 18 78 55q66 63 25 104q-18 18 -56.5 14.5t-58.5 -26.5t-36.5 -64.5t-16.5 -68.5z" />
<glyph unicode="&#x26;" horiz-adv-x="571" d="M20 797q0 84 9.5 120.5t50.5 137.5q57 141 57 184q0 51 26.5 129t53.5 105q29 29 44 29.5t67 -21.5q47 -20 67.5 -52t38.5 -110t5 -104.5t-83 -51.5q-80 -29 -92 -43t-10 -73q2 -109 23.5 -180.5t52.5 -67.5q20 4 23 33.5t-15 39.5q-16 10 -17.5 38t15.5 48 q35 45 89 55.5t93 -22.5q47 -37 24.5 -97t-126.5 -179q-35 -39 -33 -61.5t43 -57.5q45 -39 36 -60.5t-50 -15.5t-80 33q-35 25 -109 25q-135 0 -180 67q-23 37 -23 152zM129 770q12 -61 41 -57q8 0 20 12q10 10 11.5 27.5t-6.5 66.5q-14 72 -33 74q-10 2 -25 -14 q-23 -29 -8 -109zM262 1315q-10 -31 12 -29q25 2 31 25q2 2 2 4q0 18 -19.5 18t-25.5 -18z" />
<glyph unicode="(" horiz-adv-x="665" d="M20 502q0 121 58.5 262t154.5 252q47 53 47.5 63t98.5 84q61 45 89 59.5t58 14.5q29 0 46.5 -8t37.5 -31q29 -31 33 -48t-10 -32q-12 -12 -66 6q-37 12 -51 13.5t-37 -11.5q-45 -25 -130 -110.5t-116 -141.5q-10 -14 -33.5 -53t-30.5 -53t-22.5 -46t-22.5 -63.5 t-15 -72.5q-10 -72 -9.5 -100.5t15.5 -73.5q23 -68 66.5 -116t123.5 -83q45 -20 64.5 -34.5t17.5 -24.5q-2 -16 -20.5 -21.5t-45 -1.5t-57.5 16.5t-62.5 32t-54.5 41.5q-127 127 -127 281z" />
<glyph unicode=")" horiz-adv-x="440" d="M20 1204q0 18 6.5 25.5t24.5 7.5q27 0 71 -24.5t44 -36.5q0 -10 80 -97q70 -76 98.5 -128t54.5 -148q18 -66 19.5 -94.5t-8.5 -87.5q-33 -199 -236 -414q-115 -123 -123 -115t11.5 44t43.5 59q27 23 54 84q31 63 45 77q16 10 67 115q33 70 40 101.5t7 108.5t-7 108.5 t-40 101.5q-35 74 -80 126t-141 130q-31 26 -31 57z" />
<glyph unicode="*" horiz-adv-x="555" d="M22.5 1137q-4.5 16 2.5 61q12 96 34.5 119.5t72.5 -7t65.5 -24.5t15.5 57q0 60 14 74q37 37 78 -39q23 -47 40 -52t52 26q31 25 73 29.5t58 -15.5q14 -16 1 -119.5t-35 -132.5q-20 -29 -62 -43q-45 -12 -58.5 -24.5t-19.5 -45.5q-6 -39 -39 -69q-23 -23 -32 -24t-37 14 q-41 20 -82 26q-39 6 -54.5 21.5t-25.5 52.5q-8 37 -39 74q-18 25 -22.5 41z" />
<glyph unicode="+" horiz-adv-x="788" d="M22 809q-4 10 7 22q20 18 114 25q96 4 109 16q20 14 49 193q6 41 18 57q25 29 49.5 9.5t26.5 -68.5q0 -41 -8 -98q-10 -55 10.5 -64.5t108.5 10.5q92 20 172 23q53 2 69.5 -1t20.5 -15q4 -23 -41 -42.5t-174 -48.5q-143 -33 -173 -58.5t-15 -100.5q35 -188 8 -213 q-20 -16 -49 1t-43 54q-37 88 -224 262q-31 27 -35 37zM211 729q4 -23 27 -27q12 -2 16 1.5t2 15.5q-4 23 -29 26q-10 4 -14 0t-2 -16z" />
<glyph unicode="," horiz-adv-x="180" d="M20 152.5q0 27.5 19 58.5q20 27 12 106q-8 81 6 97q33 37 76 -21q27 -35 27 -110q0 -129 -74 -170q-27 -14 -46.5 -1t-19.5 40.5z" />
<glyph unicode="-" d="M49 641q-61 59 19 80q41 10 120 16q406 33 416 41q6 6 44 -1t52 -19q33 -29 -2 -58q-16 -14 -143 -26q-207 -16 -399 -45q-55 -8 -71.5 -6t-35.5 18z" />
<glyph unicode="." horiz-adv-x="194" d="M20 445.5q0 35.5 25 58.5q33 35 73 19.5t54 -68.5q4 -18 -2 -32.5t-29 -37.5q-35 -35 -53 -37t-43 30t-25 67.5z" />
<glyph unicode="/" horiz-adv-x="731" d="M39 201q-47 -8 16 133q55 119 154 262q51 74 141 207q27 45 64 97t63.5 92t50.5 89q25 57 109 176q18 27 35 27q18 0 30.5 -19.5t6.5 -39.5q-6 -25 -56.5 -108t-70.5 -107q-23 -25 -50 -78q-18 -41 -94 -144.5t-159 -207.5q-35 -43 -53.5 -75t-40 -76t-48.5 -89 q-59 -100 -67 -115q-10 -20 -31 -24z" />
<glyph unicode="0" d="M23 684q12 109 101 232.5t173 150.5q51 14 84 55q23 31 31 33t26 -12q86 -68 94 -72q182 -141 183 -244q0 -90 -113 -183t-270 -134q-121 -29 -185.5 -14.5t-105.5 79.5q-25 41 -18 109zM124.5 648.5q22.5 -58.5 102.5 -58.5q82 0 177.5 38t168.5 99q29 23 36 38t7 48 q0 41 -21.5 85t-45.5 54q-18 6 -64 -45q-37 -43 -55 -36.5t-22 65.5q-4 41 -18.5 49t-59.5 -8q-39 -12 -98.5 -71.5t-86.5 -110.5q-43 -88 -20.5 -146.5z" />
<glyph unicode="1" horiz-adv-x="391" d="M20 887q-2 20 15.5 45.5t77.5 89.5q100 108 120 133q23 27 64 32t59 -13q31 -31 -14 -261q-49 -229 -12 -301q16 -33 14 -65.5t-22 -46.5q-25 -14 -49.5 12.5t-41.5 83.5q-14 43 -15 71.5t9 100.5q12 78 17.5 118t5.5 66.5t-3 33.5t-12 7q-18 0 -57 -55 q-74 -106 -123 -98q-27 6 -33 47z" />
<glyph unicode="2" horiz-adv-x="636" d="M21.5 846.5q-1.5 9.5 7.5 27.5q28 53 137 76q74 16 110.5 14.5t63.5 -22.5q20 -16 26.5 -31.5t6.5 -50.5q-2 -55 -26.5 -108.5t-94.5 -147.5q-92 -129 -43 -135q20 0 194 57q111 35 147 42t48 -3q18 -16 18 -30q0 -18 -34.5 -42t-71.5 -30q-43 -8 -156 -51 q-92 -37 -177 -45.5t-114 14.5q-37 31 -8 108.5t115 174.5q41 47 61.5 96t6.5 67q-29 37 -132 -2q-37 -14 -47 -14t-24 14q-12 12 -13.5 21.5z" />
<glyph unicode="3" horiz-adv-x="565" d="M20 252q0 84 226 237q94 61 100 88t-59 62q-49 29 -67.5 64.5t-10.5 89.5q6 43 34.5 82.5t57.5 50.5q25 6 25 24.5t-25 18.5q-27 0 -86 -31q-70 -37 -111 -27.5t-32 60.5q4 27 51 49t174 57q135 35 162 35q25 2 55.5 -22.5t30.5 -45.5q0 -16 -117 -137 q-115 -117 -115 -141q0 -25 78 -64q72 -37 90.5 -65.5t-2.5 -71.5q-14 -29 -80.5 -85t-122.5 -85q-31 -16 -80 -55t-59 -53q-37 -59 -84 -64q-33 -4 -33 29z" />
<glyph unicode="4" d="M20 741q0 25 20.5 42.5t131.5 88.5q94 59 168 127q102 98 143 50q29 -35 -22 -88.5t-195 -141.5q-100 -59 -81.5 -93t167.5 -64q96 -20 116.5 -20.5t41.5 15.5q29 27 42 61t32 126q16 88 29.5 118.5t35.5 30.5q27 0 32 -76.5t-15 -160.5q-20 -90 -8 -269.5t42 -234.5 q14 -29 15 -51q0 -14 -7.5 -19.5t-29.5 -5.5q-72 0 -90 45q-10 27 -19 125q-8 102 -26 141q-14 29 -57.5 44.5t-151.5 31.5q-68 10 -162 50t-127 73q-25 27 -25 55z" />
<glyph unicode="5" horiz-adv-x="831" d="M27 381q14 20 36 16q23 -2 84.5 30t92.5 62q88 82 -66 197q-90 66 -116.5 113t-12.5 106q12 45 73.5 68.5t192.5 32.5q145 12 256 41q96 25 124 27.5t75 -3.5q27 -6 36 -13t9 -24q0 -18 -15.5 -26.5t-78.5 -20.5q-217 -43 -360.5 -91t-143.5 -79q0 -23 78 -104 q66 -68 82 -113t0 -108q-23 -82 -166 -148q-86 -39 -156 -14q-47 16 -24 51z" />
<glyph unicode="6" horiz-adv-x="534" d="M23.5 478q-13.5 75 48.5 204q43 92 145 199q107 108 162 143q57 41 74 41q12 0 41 -31q55 -57 -41 -84q-45 -14 -148 -116q-104 -100 -104 -119q0 -29 143 -64q66 -16 107 -55q29 -25 36 -42t7 -52q0 -49 -25 -79t-96 -63q-76 -35 -131.5 -36.5t-112.5 30.5 q-92 49 -105.5 124zM116 519q5 -50 27 -73q25 -23 81.5 -26.5t90.5 12.5q66 35 78 76t-37 70q-35 20 -120.5 24t-105 -14.5t-14.5 -68.5z" />
<glyph unicode="7" horiz-adv-x="733" d="M25 813q-14 25 20.5 52.5t89.5 35.5q225 27 383 68q104 27 149.5 8t45.5 -90q0 -53 -97 -244q-94 -195 -122 -293q-20 -68 -29.5 -85t-29 -17t-23.5 10t-4 55q0 119 120 359q61 127 62 162q0 27 -6 31.5t-39 4.5q-43 0 -88 -12q-43 -12 -178.5 -35.5t-186.5 -27.5 q-53 -2 -67 18z" />
<glyph unicode="8" horiz-adv-x="538" d="M28.5 417q20.5 64 118.5 228q29 45 29 70.5t-29 79.5q-29 59 -36 95t6 77q10 37 36 60.5t83 43.5q47 18 106 17t94 -17q51 -27 66.5 -48.5t15.5 -64.5q0 -37 -8 -54t-39 -46q-49 -45 -78 -41q-29 6 -57 -22q-25 -29 -17.5 -55.5t54.5 -84.5q51 -57 50 -99t-56 -93 q-66 -63 -176.5 -109.5t-145.5 -23.5q-37 23 -16.5 87zM141 469q0 -33 35 -18q18 6 55 26q39 20 50.5 33.5t15.5 40.5q4 41 -12 59q-12 14 -40 15.5t-40 -13.5q-18 -25 -41 -76t-23 -67zM213 913q0 -37 17.5 -64.5t39.5 -27.5q16 0 74.5 64t58.5 80q0 14 -15 18t-64 6 q-70 4 -90.5 -10t-20.5 -66z" />
<glyph unicode="9" horiz-adv-x="516" d="M20 948q1 99 134 199q31 25 52 33t62 8q88 -2 158 -51.5t70 -110.5q0 -37 -28 -147.5t-46 -141.5q-14 -31 -6 -162l10 -131h-31q-31 0 -47 19q-16 20 -20 135t8 174q14 68 -1.5 78t-98.5 -8q-90 -23 -140 -8q-45 12 -60.5 35.5t-15.5 78.5zM132 951.5q13 -29.5 85 -9.5 q82 25 116 63.5t3 69.5q-16 14 -68 15q-33 0 -49 -8.5t-45 -41.5q-55 -59 -42 -88.5z" />
<glyph unicode=":" horiz-adv-x="147" d="M21.5 605.5q-2.5 15.5 13.5 31.5q14 14 40.5 13t41.5 -15q14 -18 9 -46t-24 -40q-20 -12 -53 16q-25 25 -27.5 40.5zM29 884q-14 20 2 40t42.5 20t45.5 -20q16 -20 1.5 -40t-46 -20t-45.5 20z" />
<glyph unicode=";" horiz-adv-x="202" d="M20.5 253q-2.5 17 5 46t19.5 61q27 68 37 125q12 59 39 88q16 20 24.5 21.5t20.5 -10.5q20 -20 15 -83t-34 -116q-29 -51 -66.5 -100t-49.5 -49q-8 0 -10.5 17zM24 783q-5 28 9 46q29 33 57 2q16 -20 14 -44.5t-20 -40t-37 -1.5q-18 10 -23 38z" />
<glyph unicode="&#x3c;" horiz-adv-x="978" d="M25 745q6 18 98 84t164 103q53 26 139 92q63 49 97 60.5t55 -9.5q16 -16 14 -42.5t-19 -43.5q-25 -18 -114 -65q-262 -141 -287 -176q-16 -27 39 -52l8 -4q53 -23 234 -30q492 -23 505 -99q2 -12 -12 -26q-12 -10 -38.5 -8.5t-119.5 20.5q-145 29 -321 29 q-240 0 -353.5 44t-88.5 123z" />
<glyph unicode="=" horiz-adv-x="1101" d="M20 610q4 20 35 41q33 27 153 56.5t187 29.5q80 1 129 11q59 14 287.5 10t247.5 -21q47 -39 -12 -51q-55 -10 -256 -10q-291 0 -551 -62q-184 -45 -215 -14q-4 4 -5 10zM135 1014q39 14 238 16q165 2 200 10q31 8 81.5 3t68.5 -17q14 -14 14 -41t-14 -39 q-18 -10 -438 -18q-74 -2 -95.5 2t-42.5 24q-49 45 -12 60z" />
<glyph unicode="&#x3e;" horiz-adv-x="780" d="M22 966.5q-7 43.5 46 53.5q27 6 69 0q53 -4 189 -16q319 -23 372 -58q59 -37 62 -72q0 -14 -73 -91.5t-126 -118.5q-47 -37 -153 -119q-96 -76 -111 -76q-12 0 -12 29q0 25 48 77t181 173q86 78 86 94q0 29 -58.5 41t-211.5 12q-193 0 -242 12q-59 16 -66 59.5z" />
<glyph unicode="?" horiz-adv-x="675" d="M22.5 906.5q-4.5 11.5 2 29.5t22.5 39q61 82 303 145q113 29 135 29q41 0 89.5 -13.5t64.5 -29.5q57 -57 -80 -238q-102 -133 -113.5 -156.5t-7.5 -76.5q6 -61 -9 -78.5t-52 12.5q-29 25 -41 62t0 76q6 27 68.5 115.5t107.5 135.5q33 35 20 56q-14 23 -84.5 25.5 t-115.5 -15.5q-20 -8 -72.5 -24.5t-93.5 -34t-64 -35.5q-45 -35 -59 -35q-16 0 -20.5 11.5zM383.5 320q11.5 38 42.5 38q16 0 47 -34.5t29 -49.5q-4 -18 -45.5 -23t-57.5 11q-27 20 -15.5 58z" />
<glyph unicode="@" horiz-adv-x="1048" d="M22.5 558q-6.5 44 12.5 130q31 141 127 262q39 51 161.5 126t196.5 93q59 16 185 17.5t156 -12t84 -84t69 -115.5q35 -100 -4 -182q-39 -80 -173.5 -166t-222.5 -86q-37 0 -54 -7.5t-40 -29.5q-49 -51 -92 -69.5t-127 -24.5q-102 -6 -102 -19.5t38.5 -51.5t69.5 -54 q33 -16 154 -60q72 -27 96.5 -41t24.5 -28t-10.5 -18.5t-47.5 -2.5q-61 4 -102 21q-178 68 -238.5 113.5t-111.5 152.5q-43 92 -49.5 136zM150 608q0 -49 32.5 -70.5t110.5 -21.5q61 0 78.5 7t50.5 42q39 43 63 111q23 76 41.5 98.5t54 22.5t51 -15.5t23.5 -56.5 q10 -39 27 -45q29 -12 82 13.5t106 76.5t62.5 68.5t9.5 70.5q0 140 -102 199q-57 33 -103.5 35t-130.5 -25q-193 -59 -313 -149q-49 -37 -77 -77t-13 -54q8 -8 114 43q389 195 426 51q4 -12 5 -29q0 -53 -27 -64.5t-70 25.5q-35 29 -65.5 29t-106.5 -31q-135 -53 -232 -128 t-97 -126z" />
<glyph unicode="A" horiz-adv-x="825" d="M22 324q-1 4 -1 10q0 28 22 86q33 90 55 121q18 27 35 73q12 37 64 125q49 78 73 146q25 63 47 94q14 23 36 74t36 71q25 33 33 64q10 37 35 82t45 63q25 27 53 27q7 0 15 -2q36 -8 63 -53q25 -37 52.5 -136.5t33.5 -169.5q6 -51 13 -65t34 -27q40 -19 40 -48 q0 -20 -20 -44q-16 -25 -16 -82t16 -106q21 -58 21 -95q0 -36 -19 -53q-18 -14 -49 2q-59 31 -61 162q0 66 -22 73q-3 1 -9 1q-26 0 -92 -33q-162 -82 -270 -82q-47 0 -66.5 -25.5t-58.5 -138.5q-31 -92 -47.5 -116.5t-44.5 -24.5q-40 1 -46 27zM335 744q5 -9 27 -19 q23 -8 41.5 -7t57.5 15q63 25 117 64l57 39v79q0 87 -25 177q-18 63 -27.5 79.5t-27.5 16.5q-29 0 -47 -27q-31 -49 -99.5 -198.5t-72.5 -178.5q-6 -31 -1 -40z" />
<glyph unicode="B" horiz-adv-x="845" d="M27 317q1 2 7 2q18 0 77 -20q63 -23 102 -25h9q36 0 85 13q55 16 111.5 59t161.5 150q86 86 105.5 112.5t16.5 55.5q-4 27 -16 41t-59 40q-86 49 -120 121q-19 40 -19 80q0 32 12 64q16 43 35 88q15 43 1 55q-6 5 -18 5q-17 0 -45 -9q-47 -14 -70 -37q-14 -16 -15 -29.5 t9 -50.5q16 -61 27 -137q33 -246 51 -342q10 -47 10 -77q0 -56 -34 -56q-39 0 -89 96q-29 55 -128 203.5t-136 191.5q-43 47 -43 86q0 43 56 82q92 68 228 123.5t255 73.5l45 8q18 2 42 -28.5t24 -58.5t-33 -87t-62 -82q-16 -14 -16 -65q0 -43 30.5 -79t106.5 -79 q73 -43 89 -84q5 -13 5 -28q0 -35 -24 -83q-45 -86 -187.5 -211t-230.5 -153q-63 -20 -137 -21q-117 0 -197 49q-43 25 -22 43zM156 981q0 -18 29.5 -68.5t66.5 -95.5q49 -57 49 -69q0 -10 18 -11q15 0 19 44q1 10 1 22q-1 38 -9 88q-12 66 -31 117q-12 33 -39 32 q-23 0 -63.5 -23.5t-40.5 -35.5z" />
<glyph unicode="C" horiz-adv-x="886" d="M37 719q20 55 74.5 142t103.5 138q51 55 74 86q18 29 84.5 77t134.5 83q70 35 80 37t55 -12q47 -14 47 -27q0 -8 -18 -14q-16 -6 -49 -10q-39 -6 -66 -17.5t-63 -42.5q-66 -53 -101 -78q-66 -47 -203 -252q-51 -74 -62 -101.5t-11 -70.5q0 -49 17.5 -75.5t66.5 -53.5 q13 -6 40 -6q32 0 82 8q93 16 318 76q115 31 170 35q35 2 45 -1t10 -17q0 -18 -50 -39t-273 -92q-106 -35 -153.5 -44.5t-115.5 -9.5q-96 0 -147 21.5t-80 75.5q-26 47 -26 99q0 41 16 85z" />
<glyph unicode="D" horiz-adv-x="864" d="M20 1074q0 17 25 42q17 16 33 20q6 1 16 0q18 0 51 -3q43 -6 88.5 -15.5t104.5 -25t84 -21.5q248 -59 356 -162q67 -65 67 -146q0 -9 -1 -18q-8 -92 -96 -174q-37 -37 -132.5 -95t-142.5 -75q-55 -20 -94 -41q-47 -25 -138 -44q-58 -12 -84 -12q-15 0 -19 4 q-12 11 -4.5 30.5t26.5 19.5q27 0 149.5 46.5t165.5 72.5q78 47 111 66q80 43 115.5 94t35.5 123v61l-73 49q-80 53 -123 53q-12 0 -21 -5q-14 -6 -8 -25q12 -43 15 -153q1 -25 1 -46q0 -71 -8 -100q-10 -35 -21.5 -47t-35 -2t-57 40.5t-95.5 94.5q-225 233 -268 330 q-23 47 -23 64zM158 1001q-1 -3 -1 -6q-1 -27 57 -99q64 -80 126 -120q35 -22 55 -22q22 0 25 28v7q0 34 -17 112q-8 45 -17 62.5t-34 27.5q-26 11 -100 21q-23 3 -41 3q-39 0 -53 -14z" />
<glyph unicode="E" horiz-adv-x="856" d="M20 997q0 37 15.5 51.5t64.5 22.5q154 27 349.5 75t238.5 71q33 18 78 18t59 -16q14 -18 11 -45q-2 -18 -45 -44t-181 -96q-190 -94 -239 -127q-42 -28 -42 -49q0 -3 1 -6q6 -15 25 -15q31 0 96 35q39 18 75.5 21.5t53.5 -12.5q14 -15 14 -45q0 -10 -2 -22 q-6 -46 -35 -87q-27 -37 -71 -75t-60 -38q-20 0 -27.5 18.5t7.5 35.5q18 25 18 39q0 18 -31 18q-37 0 -46 -31.5t-9 -152.5l2 -148l31 8q25 4 139.5 59.5t179.5 92.5q42 25 71 25q19 0 32 -11q20 -16 -9 -49q-49 -55 -227 -139q-177 -84 -247 -85h-5q-65 0 -79 28 q-8 16 -8 61q0 37 5 94q3 37 3 58q0 11 -1 19q-2 22 -18 44q-41 59 -114 214t-73 185zM132 906.5q3 -11.5 13 -21.5q27 -27 31 -2q4 29 -18 43q-2 2 -6 4q-12 2 -17.5 -5t-2.5 -18.5zM291 970.5q4 -14.5 26 -14.5q18 0 44 19t26 33q0 8 -17.5 9t-38 -3t-28.5 -13 q-16 -16 -12 -30.5z" />
<glyph unicode="F" horiz-adv-x="727" d="M20.5 941q-2.5 24 6.5 63q10 53 26 75q29 33 149 117t165 100q63 25 98 43q29 19 86 19h3q54 0 69 -17q10 -12 10 -27q0 -45 -78 -122q-65 -66 -88 -66q-13 0 -13 20q0 5 1 11q4 35 -17 47q-3 2 -9 2q-27 0 -107 -47q-96 -57 -156 -119q-41 -41 -48 -57t-3 -51 q8 -55 36.5 -110.5t53.5 -57.5q3 -1 7 -1q51 0 191 95q74 49 155 92t99 43q23 0 38.5 -18.5t6.5 -36.5q-4 -18 -38 -35q-41 -18 -150 -82q-111 -68 -211 -123l-96 -53l10 -55q10 -59 10 -123q0 -16 -1 -32q-3 -81 -19 -97q-14 -12 -23.5 -13t-27.5 9q-33 16 -39 35 q-10 27 -35 235.5t-43 263.5q-16 49 -18.5 73z" />
<glyph unicode="G" horiz-adv-x="862" d="M20 508l27 133q25 123 56.5 203t99.5 190q74 123 98.5 154.5t67.5 60.5q49 33 100 36h10q44 0 70 -25q25 -23 25 -59v-7q-3 -41 -29 -66l-29 -26q-31 39 -63 80l-43 -25q-29 -14 -85.5 -79.5t-56.5 -84.5q0 -8 -45 -82q-45 -72 -72.5 -168t-27.5 -184q0 -68 5 -83t36 -32 q37 -24 61 -24h3q24 2 75 29q92 47 195 180q37 51 86 112q44 58 44 84q0 18 -22 19q-12 0 -31 -2q-25 -6 -157 -21q-55 -6 -88 -6q-19 0 -31 2q-31 6 -31 35q0 45 146 55q281 27 340 30q14 1 25 1q37 0 46 -8q20 -16 15.5 -45t-31.5 -51q-117 -104 -211 -224 q-72 -94 -112 -135t-101 -80q-55 -37 -80.5 -45t-83.5 -8h-12q-69 0 -101 20q-36 23 -65 87z" />
<glyph unicode="H" horiz-adv-x="817" d="M21 506q2 51 20 219q12 109 22 233q8 119 29 140q16 16 30 16q19 0 34 -31q15 -32 15 -72q0 -27 -7 -59q-12 -55 -12 -141t10 -92q14 -8 39 10q19 12 55 12q16 0 35 -2t37 -2q94 0 149 54q19 17 23 47q2 14 2 56q0 47 -2 130q-4 104 -4 158t4 57q9 9 18 9q18 0 41 -34 q14 -20 19.5 -60t9.5 -146l4 -174h33q27 0 88 16q29 9 49 9q35 0 35 -32q0 -20 -41 -48.5t-86 -41.5q-55 -16 -68 -30q-12 -14 -14 -166q-4 -123 -15.5 -159t-48.5 -36q-43 0 -53 43q-3 13 -3 28q0 36 17 87q19 53 19 87q0 30 -15 46q-12 12 -55 13h-7q-40 0 -89 -11 q-28 -7 -52 -7q-62 0 -98 46q-14 16 -22 18t-21 -8q-21 -15 -21 -52v-14q4 -48 32 -71q32 -23 32 -52q0 -31 -38 -69q-33 -33 -67 -33t-52 35q-10 20 -10 60v14z" />
<glyph unicode="I" horiz-adv-x="882" d="M20 423q-2 34 27 50q14 8 25.5 2t38.5 -37l39 -49l96 17q156 27 170 69q1 3 1 7q0 21 -32 79q-86 166 -141 324q-29 84 -68 131q-32 39 -32 60q0 6 3 11q14 23 61.5 30t199.5 13q184 5 194 15q4 6 40 6q28 0 76 -4q108 -8 124 -21q22 -18 22 -46q0 -22 -14 -50 q-31 -63 -100 -98q-43 -23 -61 -23q-7 -1 -9 3q-3 3 -3 8q0 16 30 55q31 39 30.5 52t-90.5 13h-92v-245q0 -248 12 -263q5 -4 15 -4q20 0 59 15q63 25 119 27h8q49 0 53 -19q2 -18 -21.5 -30.5t-105.5 -35.5q-43 -12 -68.5 -27.5t-58.5 -51.5q-41 -44 -57 -52q-13 -7 -48 -6 h-18q-10 1 -20 1q-58 0 -141 -19q-65 -15 -112 -15q-17 0 -31 2q-54 7 -89 43q-29 29 -31 63zM265 957.5q5 -27.5 44 -123.5q29 -74 43.5 -95.5t32.5 -23.5q31 -4 45 26q14 33 14 139.5t-14 121t-76.5 14.5t-77.5 -15q-16 -16 -11 -43.5z" />
<glyph unicode="J" horiz-adv-x="1017" d="M23.5 508.5q7.5 19.5 27.5 19.5q31 0 64 -41q23 -31 38 -37t58 -6q39 0 60.5 8.5t62.5 36.5q53 41 119.5 132.5t93.5 162.5q29 70 47 97q27 37 40 105q6 32 6 53q0 23 -7 32q-15 18 -64 18q-62 0 -180 -30q-86 -23 -146.5 -34t-98.5 -12t-55 8t-17 28q0 25 54 45t185 41 q191 33 240 51q57 18 153 18h19q262 -10 272 -37q8 -23 -14.5 -34t-89.5 -15q-100 -8 -129 -33.5t-47 -126.5q-23 -109 -47 -143q-23 -35 -84 -151q-63 -125 -102.5 -177.5t-98.5 -91.5q-89 -58 -176 -58h-3q-89 1 -143 64q-25 27 -35 57.5t-2.5 50z" />
<glyph unicode="K" horiz-adv-x="745" d="M20 679v16q0 200 13 237q12 39 14 145q0 96 9.5 131t31.5 35q25 0 33 -41t10 -170q0 -94 4 -123.5t17 -34.5h2q24 0 225 207q191 192 250 258q35 38 60 38q19 0 32 -21q4 -7 4 -17q-1 -21 -21 -55q-30 -49 -100 -110q-131 -121 -229 -218l-148 -141l4 -53q4 -53 23 -62 q16 -10 174 -47q117 -27 166 -52.5t49 -53.5q-1 -23 -21 -25h-5q-21 0 -68 13q-164 41 -313 47l-74 2l-8 -78q-10 -80 -41 -111q-22 -22 -40 -22q-27 0 -42 53q-11 39 -11 253z" />
<glyph unicode="L" horiz-adv-x="661" d="M26 537q-6 16 -5 34q0 33 18 75q29 66 113 175q51 68 51 80q0 10 37 88q34 76 34 103q0 23 35 22q35 0 49.5 -16.5t14.5 -53.5q0 -47 -54.5 -145t-123.5 -176q-41 -47 -47 -73.5t17 -51.5t98 -41t171 -16q115 0 161 -22.5t46 -82.5q0 -55 -26 -55q-16 0 -42 20 q-29 20 -54 25.5t-109 5.5q-141 0 -254.5 31t-129.5 74zM218 1162.5q-15 36.5 5 54.5q6 8 27 4q12 -2 19 -26t5 -46.5t-14 -22.5q-27 0 -42 36.5z" />
<glyph unicode="M" horiz-adv-x="1044" d="M22 418q-2 6 -2 15q0 23 17 63q27 57 45 118q12 45 74 213q45 131 90 280.5t53 205.5q10 44 37 69q21 20 38 20q29 0 48 -56q10 -33 18 -86q57 -307 80 -334q14 -14 39 6q18 16 62 102q41 82 107.5 172t92.5 97q27 10 49 -15q18 -18 22 -61q2 -27 2 -124q0 -55 -1 -132 q0 -111 1 -170.5t4 -108.5t13.5 -70.5t22.5 -35t37 -25.5q54 -26 54 -53q0 -4 -1 -8q-8 -32 -78 -31q-51 0 -76.5 23.5t-44.5 87.5q-38 130 -38 221q0 36 6 65q14 63 14 148q0 53 -4 64.5t-25 11.5q-16 0 -32.5 -23t-55.5 -100q-63 -129 -85.5 -156t-74.5 -27q-33 0 -49 6.5 t-35 26.5q-53 57 -53 178q0 96 -35 115q-23 12 -36 -29q-37 -104 -87.5 -278t-54.5 -217q-10 -88 -38.5 -139.5t-71.5 -51.5q-40 -1 -48 23z" />
<glyph unicode="N" horiz-adv-x="974" d="M24 406q-4 11 -3 21q0 24 18 48q18 23 18 60q0 35 31 153q33 109 43 180q8 59 24.5 80t57.5 21q37 0 65.5 -29t69.5 -104q78 -152 107.5 -196t52.5 -48h5q44 0 86 66q44 70 114 262q119 333 176 399q25 27 43 27q23 0 23 -26q0 -27 -25 -81q-76 -164 -148 -369 q-41 -121 -95 -240.5t-77 -142.5q-17 -20 -60 -20q-6 1 -14 1q-54 4 -83 28q-49 39 -177 249q-31 51 -43 52q-12 0 -50 -133.5t-46 -200.5q-6 -51 -19.5 -71.5t-41.5 -20.5q-40 1 -52 35z" />
<glyph unicode="O" horiz-adv-x="831" d="M41 700q45 138 186 289q51 55 91 78t108 33q44 7 65 7h5q20 -1 36 -11q53 -35 52 -78q-4 -22 -26 -22q-11 0 -26 5q-29 14 -88 15q-43 0 -62.5 -11.5t-82.5 -74.5q-86 -90 -137 -166q-35 -51 -42 -75.5t-7 -82.5q0 -57 6 -75.5t33 -47.5q39 -39 86 -39t73 13 q415 214 415 476q0 79 -38 163q-27 59 -39 74.5t-47 21.5q-51 15 -51 29q0 12 21.5 15t52 -6t55.5 -26q51 -33 76.5 -77t42.5 -123q12 -55 11 -98q0 -16 -1 -30q-6 -52 -39 -114q-47 -94 -93 -148.5t-136 -121.5q-106 -80 -151.5 -99.5t-131.5 -25.5q-31 -3 -57 -3 q-51 0 -78 11q-41 16 -70 76q-32 62 -32 132q0 56 20 117z" />
<glyph unicode="P" horiz-adv-x="710" d="M24 1082q17 56 115 85q101 33 326 60q37 5 68 5q47 0 77 -13q80 -33 80 -111q0 -35 -54 -117t-106 -123q-53 -43 -118 -104l-68 -62l23 -90q25 -92 51 -147q27 -54 27 -89q1 -8 -1 -16q-8 -38 -53 -38q-27 0 -40 19t-34 85q-33 121 -96 207q-21 31 -21 50l1 13 q0 26 -40 90q-44 70 -44 78t-49 76q-48 67 -48 116q0 14 4 26zM121 1018q-1 -4 -1 -8q0 -28 23 -74l27 -55l51 6q37 6 50.5 1t33.5 -34q31 -39 47 -27q88 66 114 92.5t81 108.5q20 31 20 72v39l-73 -2q-72 -2 -184.5 -26t-149.5 -44q-35 -20 -39 -49z" />
<glyph unicode="Q" horiz-adv-x="638" d="M20 696l46 13q27 6 48 23.5t56 62.5q54 71 54 91q0 2 -1 3q-8 18 -47 35q-37 14 -55 35.5t-10 39.5q6 16 24.5 15.5t79.5 -27.5q66 -29 156 -35q82 -4 104.5 -22.5t28.5 -79.5q8 -59 28 -84q86 -96 86 -162q0 -84 -100 -192q-51 -55 -69 -93q-16 -35 -46 -46t-108 -11h-9 q-143 0 -193 62q-52 63 -64 262zM143 428q0 -27 29 -56.5t49 -21.5q25 10 27 31.5t-21 44.5q-18 20 -37.5 27.5t-33 0t-13.5 -25.5zM198 618q19 -49 101 -131l76 -73l41 20q41 18 73 82q30 59 30 98q0 36 -25 72q-4 4 -74 98q-49 61 -62 62q-20 0 -77.5 -47t-71.5 -74 q-18 -36 -18 -68q0 -21 7 -39z" />
<glyph unicode="R" horiz-adv-x="1095" d="M22 918q8 22 56 32q43 8 76 41q49 43 75.5 57.5t92.5 30.5q69 18 133 18q38 -1 75 -7q97 -18 146 -70q23 -25 34 -74q7 -32 7 -63q0 -17 -2 -35q-10 -53 -74 -139q-66 -88 -66 -103q0 -16 76 -16h17q94 2 213 22q89 15 138 15q56 0 56 -21q0 -23 -50 -42t-175 -42 q-176 -33 -224 -38q-18 -2 -37 -2l-59 5q-57 8 -90 43l-34 37l34 58q35 57 103 123q49 47 59 65t10 61q0 63 -28 91q-16 18 -38 23t-93 5q-90 0 -138.5 -13t-85.5 -48q-55 -50 -64 -102q-2 -13 -2 -30q0 -51 21 -141q28 -119 46 -229q14 -83 13 -113q0 -10 -1 -14 q-11 -29 -45 -29q-14 0 -31 5q-31 6 -48.5 47t-39.5 157q-19 82 -19 128q0 20 4 34q7 23 7 48q0 13 -2 26q-5 39 -31 119q-17 43 -17 66q0 8 2 14z" />
<glyph unicode="S" horiz-adv-x="659" d="M20.5 334q-0.5 33 18.5 59q43 59 219 148q88 43 88 66q0 20 -51 55q-121 85 -121 177q0 108 100 211q96 99 238 144q47 14 64 15q2 0 4 -1q14 -2 38 -26q18 -20 20.5 -30.5t-9.5 -31.5q-29 -56 -82 -80q-32 -15 -66 -14q-22 0 -45 6q-29 8 -43 2t-47 -39 q-83 -80 -82 -142q0 -88 164 -140q82 -27 111.5 -45.5t29.5 -44.5q0 -29 -20.5 -43.5t-114.5 -55.5q-178 -78 -230 -107.5t-95 -80.5q-33 -37 -47.5 -47t-24.5 -2q-16 14 -16.5 47z" />
<glyph unicode="T" horiz-adv-x="1073" d="M29 997q16 31 44.5 39t149.5 19q96 8 215 23.5t213 23.5q162 16 213 22q76 10 119.5 10t54.5 -10q18 -20 12 -50t-32 -58q-36 -34 -76 -34q-29 0 -59 17q-43 17 -103 17h-21q-73 -4 -139.5 -33t-66.5 -63q0 -14 33 -154q31 -135 39 -219q14 -98 26 -144q8 -28 8 -48 q0 -49 -45 -56q-5 -1 -10 -1q-43 0 -59 64q-6 33 -89 199t-116 209q-31 43 -95.5 84t-125.5 59q-70 20 -88.5 37t-1.5 47zM260 936q0 -20 22.5 -49t86.5 -90q104 -100 114 -121q6 -14 9 49v6q0 55 -13.5 128t-25.5 93q-10 16 -103 17h-90v-33z" />
<glyph unicode="U" horiz-adv-x="765" d="M20 793q0 131 12.5 177t49.5 46q20 0 28.5 -5t15.5 -27q5 -17 5 -45v-18q-2 -42 -4 -114l-6 -182l39 -41q43 -43 79 -43h3q37 2 86 53q78 80 135 189.5t67 193.5q7 56 23 72q16 20 47 13t45 -34q14 -29 14 -158q0 -233 62 -333q24 -38 24 -64q-1 -41 -37 -51 q-9 -2 -17 -2q-26 0 -48 22q-16 18 -42 105.5t-26 126.5q0 24 -12 24q-25 0 -102 -100q-72 -94 -121 -127t-119 -33q-117 2 -159 75t-42 280z" />
<glyph unicode="V" horiz-adv-x="802" d="M22 1020q7 21 37 21q14 0 33 -5q25 -6 75 -82.5t60 -126.5q10 -39 31 -67q10 -14 35 -72q59 -133 92 -135q16 -2 30.5 24.5t43.5 127.5q31 104 81 225t93 194q47 80 57 119q4 27 29.5 59.5t46.5 18.5q16 -14 16 -42q0 -18 -6 -43q-18 -62 -96 -216q-150 -299 -191 -563 q-12 -84 -27.5 -119t-43.5 -39q-6 -1 -11 -1q-46 0 -59 64q-6 29 -57 123.5t-60 116.5q-14 43 -34 74q-18 25 -62 108q-33 70 -82 142q-33 50 -33 80q0 8 2 14z" />
<glyph unicode="W" horiz-adv-x="1021" d="M23 983q4 23 11 29t27 2q31 -4 53.5 -47t28.5 -111q8 -72 34 -181.5t36 -109.5q6 0 59.5 43t59.5 43q33 0 71.5 -31.5t73.5 -84.5q49 -74 75 -96.5t44 -10.5q35 18 133 285q53 141 115.5 283.5t79.5 158.5q10 10 36 8t38 -13q4 -4 4 -13q0 -17 -14 -57q-22 -60 -58 -109 q-18 -29 -46 -96.5t-36 -108.5q-10 -43 -33 -82q-23 -49 -53 -152q-37 -133 -80 -208.5t-78 -75.5q-20 0 -84.5 65.5t-95.5 116.5q-25 45 -43.5 59.5t-34.5 3t-35 -50.5q-27 -55 -59 -75q-23 -14 -32 -11.5t-40 33.5q-45 43 -57 94q-14 57 -47 187q-55 209 -55 287 q0 16 2 26z" />
<glyph unicode="X" horiz-adv-x="817" d="M20 287l23 43q23 41 76 100q67 74 139 176q69 96 68 112q0 8 -74 66q-70 56 -74 62q-8 12 -57 12q-45 0 -70.5 23.5t-25.5 64.5q0 39 16 54.5t55 15.5t79 -23.5t58 -54.5q15 -31 25 -31q4 0 77 -61.5t79 -61.5q12 0 71 70q51 61 152 166q94 94 111 94q35 0 46 -47 q4 -17 4 -38q0 -35 -12 -79q-14 -52 -14 -87q0 -12 2 -21q1 -5 1 -15q-1 -41 -21 -167q-26 -156 -39 -193q-6 -18 -37 -35q-20 -10 -34.5 -7t-53.5 28q-59 41 -113 94q-53 55 -82 55q-39 0 -145 -134q-103 -129 -103 -176t-4 -52q-12 -18 -41.5 -14.5t-52.5 28.5zM489 717 q0 -18 55.5 -78.5t73.5 -60.5q16 0 31 26q12 26 41 166q24 116 24 143q0 6 -1 7q-6 12 -21 12q-18 0 -110.5 -97.5t-92.5 -117.5z" />
<glyph unicode="Y" horiz-adv-x="614" d="M37 1102q25 18 53.5 -1.5t42.5 -64.5q14 -53 29.5 -66.5t79.5 -25.5l75 -16l52 55q51 57 89 131q32 62 32 94q0 6 -1 11q-2 7 -2 15q0 23 23 46q26 28 46 28q8 0 14 -4q24 -16 24 -81q0 -70 -56.5 -166t-189.5 -256q-47 -53 -51 -80q-2 -8 -33 -158q-23 -109 -23 -183 q0 -14 1 -26q2 -24 2 -43q0 -28 -6 -41q-9 -22 -41 -22q-62 0 -62 94q0 49 17 123q51 225 51 280q0 29 -45 58q-72 47 -116 157q-23 58 -23 94q0 32 18 48z" />
<glyph unicode="Z" horiz-adv-x="1085" d="M20.5 633.5q-0.5 7.5 7 15.5t23 16.5t44 20.5t65.5 24.5t94 30.5l209 70l80 84q68 70 111.5 120t67 85t27 53t-9.5 29q-1 1 -4 1q-18 1 -102 -23q-96 -26 -201 -66q-141 -51 -227 -150q-25 -27 -36 -33t-26 2q-27 18 -27 45q0 14 8 31q22 49 97 103q61 43 223.5 103.5 t268.5 80.5q56 12 92 13q24 0 39 -6q39 -13 38 -64q0 -39 -103 -175.5t-103 -150.5q0 -8 32 -8q12 0 32 1q64 5 142 10q14 1 27 1q60 0 113 -18q25 -10 35 -20.5t8 -20.5q-4 -20 -45 -28.5t-152 -10.5q-178 -2 -282 -41q-27 -10 -95.5 -105.5t-93.5 -156.5 q-14 -37 -1.5 -56.5t48.5 -19.5q27 0 104 42t159 101q45 34 67 34q6 0 10 -3q31 -18 11.5 -48t-101.5 -93q-104 -80 -155.5 -107t-106.5 -27t-80.5 14.5t-46.5 53.5q-11 26 -11 56q0 21 5 43q12 56 55 112q42 55 42 83q0 7 -3 13q-2 6 -10 6q-14 0 -154 -55 q-111 -45 -148.5 -50t-53.5 21q-6 10 -6.5 17.5z" />
<glyph unicode="[" horiz-adv-x="638" d="M20.5 233q-0.5 29 12.5 54q20 35 92 303q14 57 31.5 183t21.5 153q14 72 25 207q14 199 39.5 288.5t76.5 130.5q31 23 67 24t99 -22q84 -29 108.5 -44t24.5 -40t-25.5 -26.5t-84.5 18.5q-53 18 -86 19q-53 0 -86 -79t-49 -251q-18 -207 -37 -325.5t-60 -315.5 q-2 -4 -4 -14q-25 -119 -15.5 -136.5t89.5 -1.5q4 0 8 2q59 10 120 4t67 -26q12 -29 -24 -48.5t-107 -25.5q-90 -10 -154 -49q-98 -63 -135 -25q-14 14 -14.5 43z" />
<glyph unicode="\" horiz-adv-x="485" d="M23 1192q-8 35 6 51q41 51 112 -106q12 -31 29 -72q12 -31 52 -101.5t50 -103.5q16 -45 45 -82q35 -41 92.5 -162.5t55.5 -146.5q-10 -72 -64 -6q-14 16 -28 41q-98 156 -174 299q-41 80 -66 123q-23 41 -63.5 138t-46.5 128z" />
<glyph unicode="]" horiz-adv-x="856" d="M27 397q-12 23 8 41q33 33 315 13q82 -6 112 -3t79 21q4 2 14 6q33 12 46 17.5t29.5 22.5t20.5 27.5t9.5 49.5t5.5 68.5t2 105.5v31q4 176 10 231t29 133q14 45 20 64.5t5 41t-5 26.5t-27.5 10.5t-44 4.5t-71.5 -5l-125 -9v33q0 27 12 44.5t41 28.5t49.5 15t61.5 10 q12 2 18 5q51 8 99 -0.5t71 -28.5q27 -25 23.5 -83t-41.5 -208q-33 -123 -38 -168t3 -145q8 -158 5 -210t-24 -93q-27 -51 -63.5 -71t-151.5 -42q-84 -16 -121.5 -18.5t-93.5 8.5q-72 14 -176 10q-57 -2 -77.5 1t-28.5 15z" />
<glyph unicode="a" horiz-adv-x="825" d="M26 542q-6 19 -6 38q0 60 62 129q68 74 188.5 144.5t210.5 90.5q40 7 82 7q27 0 57 -3q74 -8 101 -30q25 -24 25 -44q0 -15 -15 -28q-9 -7 -24 -7q-19 0 -48 11q-48 19 -101 19q-57 0 -121 -22q-122 -42 -234 -151q-76 -75 -76 -106q0 -19 27 -23q10 -2 22 -2 q51 0 128 41t142 101q41 41 63.5 53t49.5 12q37 0 62.5 -26.5t48.5 -92.5q25 -61 43 -88q31 -47 63 -119q29 -64 29 -80q0 -20 -25 -20q-16 0 -77.5 71.5t-84.5 114.5q-20 43 -45.5 69t-46.5 26q-23 0 -61 -33q-35 -29 -135 -80q-100 -49 -162 -49q-116 1 -142 77z" />
<glyph unicode="b" horiz-adv-x="462" d="M20 346q0 18 19 78q31 109 42 178.5t21 200.5q10 163 10 197q0 1 1 4q0 34 -11 122q-6 52 -6 81.5t6 37.5q14 14 41 15q35 0 53 -94q13 -70 13 -183q0 -38 -2 -82l-2 -182l67 2q13 1 25 1q53 0 88 -22q35 -20 46 -39.5t11 -62.5q0 -23 -17 -46.5t-71 -74.5 q-121 -113 -166 -158q-53 -53 -69.5 -61t-36.5 2q-31 16 -49 45q-13 24 -13 41zM176 469q39 6 98 66q27 26 27 38q0 23 -31 27q-20 2 -33.5 -8t-37.5 -45q-36 -53 -36 -70q0 -8 9 -8h4z" />
<glyph unicode="c" horiz-adv-x="770" d="M24 498q-4 16 -4 33q0 60 48 143q67 111 184 162q25 10 38 7t36 -28q18 -20 20 -29.5t-8 -31t-59.5 -50t-71.5 -28.5q-18 0 -41 -43t-23 -74q0 -49 25 -55q6 -2 17 -1q32 0 106 13q125 27 241 62q121 35 167 39q51 4 51 -19q0 -16 -58 -46q-62 -32 -145 -54 q-53 -14 -160 -47q-122 -40 -207 -40q-23 0 -43 3q-95 14 -113 84z" />
<glyph unicode="d" horiz-adv-x="620" d="M23 389q6 41 29.5 78t41.5 37q14 0 49 18q26 15 36 15q5 0 5 -5q0 -6 -8 -18q-6 -10 -16 -22q-20 -25 -26.5 -42.5t-4.5 -54.5q4 -35 9 -45t24 -14h3q32 0 119 86q91 90 126 160q51 104 79.5 192t63.5 262q9 47 9 97q0 65 -15 137q-8 39 10 39q27 0 39 -119q5 -51 5 -98 q0 -62 -9 -117q-25 -152 -38 -210t-44 -153q-43 -131 -88 -182q-47 -57 -74 -94q-45 -61 -137 -94q-51 -18 -89 -18q-32 0 -56 12q-22 14 -36 60q-9 30 -9 61q0 16 2 32z" />
<glyph unicode="e" horiz-adv-x="419" d="M24 502q-4 15 -3 34q0 39 14 95q45 190 162 213q24 5 46 5q15 0 27 -2q34 -5 47 -20q12 -15 12 -42q0 -75 -93 -244q-41 -78 -41 -88q0 -6 32 -6q26 0 72 4q35 2 57 2q41 0 43 -7v-10q-6 -25 -75.5 -56.5t-122.5 -31.5q-43 -2 -59.5 6t-53.5 47q-54 55 -64 101z" />
<glyph unicode="f" horiz-adv-x="733" d="M27 575q23 37 145 37q76 2 88 19q14 16 33 100q84 352 141 424q23 29 39 30t43 -22q28 -26 28 -58q0 -6 -1 -11q-6 -39 -47 -78q-31 -25 -46.5 -56.5t-39.5 -105.5q-16 -51 -24.5 -81t-10.5 -54.5t2 -34.5t19.5 -15t35 -4t55.5 9q68 12 150 20q38 4 55 4q8 0 12 -1 q9 -3 9 -25q0 -29 -15 -43q-18 -12 -139 -33q-125 -23 -164 -43q-25 -16 -30 -31.5t-5 -81.5q0 -53 5.5 -79.5t23.5 -57.5q25 -39 30 -80t-13 -57q-12 -14 -48 10q-61 43 -79 225q-8 80 -25 93q-10 10 -56 10q-20 0 -46 -2q-28 -2 -47 -2t-28 2q-18 4 -36 24q-27 29 -14 49z " />
<glyph unicode="g" horiz-adv-x="548" d="M20 -180q0 4 3 10q6 20 6 29q0 12 41 18q100 23 200 119q45 45 54.5 63.5t9.5 57.5q0 59 -29 116q-23 45 -41 124t-18 126q0 27 20 101q16 53 46 79.5t83 36.5q26 4 47 4q50 0 73 -24q15 -15 15 -39q0 -28 -20 -68q-41 -80 -67 -80q-12 0 -21 19q-6 10 -8 29 q-8 41 -16.5 46t-30.5 -20q-19 -20 -19 -71q0 -16 2 -36q8 -79 45 -175q42 -107 42 -175q0 -64 -36 -120q-29 -45 -88 -94.5t-108 -69.5q-41 -16 -117 -16q-25 0 -37 1t-21.5 3t-9.5 6z" />
<glyph unicode="h" horiz-adv-x="1099" d="M20 399q0 23 72 93q29 31 66 71.5t61.5 69.5t65.5 80t57 69q100 121 143 273q25 90 52 135q25 47 51 47q40 0 40 -93q0 -66 -20 -179q-16 -93 -16 -148q0 -29 4 -47q10 -39 33.5 -72.5t40.5 -33.5q14 0 71 55q59 53 101 53q80 0 98 -108q8 -39 27.5 -61.5t66.5 -47.5 q46 -24 46 -60q0 -4 -1 -9q-6 -42 -59 -42q-35 0 -35 -23.5t35 -70.5q35 -45 35 -61q0 -17 -41 -17q-43 0 -78 34t-43 83q-6 29 -8 40t-10.5 23.5t-14.5 15.5t-28.5 4t-43 -2t-65.5 -7q-47 -8 -63.5 -17.5t-41.5 -44.5q-60 -85 -124 -117q-29 -14 -50 -14q-28 0 -47 23 q-21 26 -21 83q0 21 2 46q10 94 66 283q6 23 -6 20q-29 -4 -65 -63q-2 -4 -4 -7q-68 -113 -160 -211t-131 -98q-27 0 -42.5 14.5t-15.5 38.5zM485 483q-1 -11 0 -20q1 -42 15 -43h1q19 0 56 55q29 43 31.5 55t-13.5 43q-19 42 -37 42q-12 0 -24 -21q-20 -33 -29 -111z" />
<glyph unicode="i" horiz-adv-x="313" d="M27 965q23 37 105 37h10q90 -2 124 -31q18 -18 18 -32q0 -28 -75 -38q-39 -5 -71 -5q-75 0 -107 30q-18 19 -4 39zM114 373.5q1 25.5 9 62.5t14 60.5t16.5 57.5t12.5 42q25 99 37 113q12 16 40.5 15t43.5 -17q4 -6 4 -20q0 -31 -21 -99q-29 -96 -37 -189 q-4 -74 -17 -100.5t-46 -26.5q-23 0 -37 13.5t-17 38t-2 50z" />
<glyph unicode="j" horiz-adv-x="761" d="M25 -109q14 20 46.5 29.5t110.5 9.5q51 2 81 9.5t75 31.5q57 31 90 60.5t119 128.5q59 68 81.5 113.5t41.5 129.5q10 53 11 81v5q0 26 -9 60q-16 59 -29 84q-14 27 -50 58.5t-58 39.5q-29 6 -29 31q0 27 32 101.5t50 86.5q29 23 51.5 10.5t23.5 -41t-18 -57.5 q-18 -25 -15 -48t27 -62q53 -80 74 -196q11 -58 11 -111.5t-11 -102.5q-23 -104 -93.5 -216t-154.5 -175q-39 -31 -102 -78q-49 -39 -115 -51q-49 -10 -91 -10q-67 0 -118 24q-37 18 -37 39q0 8 5 16z" />
<glyph unicode="k" horiz-adv-x="759" d="M20 379l19 80q13 60 13 86q0 9 -1 14q-2 6 -2 15q0 21 12 57q27 76 58 276q28 185 57 230q17 26 35 26q14 0 29 -16q5 -6 5 -24q0 -37 -22 -124q-13 -66 -23 -127q-8 -48 -8 -82v-16q2 -37 13 -37q12 0 147 68q106 53 160 63q12 2 23 2q37 0 53 -26q4 -7 4 -15 q0 -21 -29 -43q-39 -30 -133 -67q-188 -78 -188 -160v-39l82 -8q156 -12 231 -16q152 -12 172 -34q18 -18 6 -40q-8 -14 -48 -18q-16 -1 -51 -1q-50 0 -138 3q-223 4 -271 14q-41 12 -55 4t-33 -49q-20 -48 -47 -48q-18 0 -39 21z" />
<glyph unicode="l" horiz-adv-x="333" d="M20 252q-1 5 -1 12q0 54 40 230q45 200 82 290q35 84 68 258q2 4 2 13q6 33 11 46t18.5 25.5t35.5 12.5q27 0 33 -35q3 -12 3 -27q0 -18 -4 -43q-7 -45 -19 -65q-8 -12 -31 -90q-4 -18 -26.5 -94t-34.5 -115q-70 -236 -70 -327q0 -56 27 -56q10 0 28 10q41 20 45 -21 q1 -6 1 -12q0 -41 -38 -82q-31 -34 -66 -34q-16 0 -34 8q-55 22 -70 96z" />
<glyph unicode="m" horiz-adv-x="1157" d="M20 532v25q0 161 50 164q23 2 55 -27q35 -31 49 -30q12 0 45 43q50 63 93 63q20 0 38 -14t32.5 -47t14.5 -66t20.5 -37t49.5 23q47 43 82 58t84 15q63 0 104 -23.5t78 -82.5q39 -59 88 -113.5t82 -70.5q28 -15 70 -15h14q8 1 16 1q39 0 49 -18q14 -20 -18 -52 q-20 -23 -35.5 -27t-52.5 0q-61 6 -129 48t-98 95q-31 55 -81 106.5t-73 51.5q-61 0 -160 -115q-41 -47 -57 -57t-46 -8t-41 14.5t-36 59.5q-18 39 -30.5 54t-24.5 13q-20 -4 -76 -86q-70 -106 -107 -106q-3 -1 -7 1q-36 12 -42 160z" />
<glyph unicode="n" horiz-adv-x="780" d="M21 378q2 30 22 99q20 61 39 156q12 77 37 108q20 27 32.5 24t63.5 -48q31 -27 78 -35q53 -10 103 -44t145 -126q115 -111 157.5 -123t57 -34.5t-5 -40t-64.5 -17.5q-49 0 -106.5 38t-145.5 128q-63 63 -84.5 76.5t-58.5 13.5q-35 0 -48.5 -8t-37.5 -43q-25 -37 -64 -103 q-27 -47 -54.5 -64.5t-49.5 -0.5q-18 14 -16 44z" />
<glyph unicode="o" horiz-adv-x="514" d="M33 829q13 13 153 13h21q115 -2 138.5 -6.5t37.5 -26.5q27 -37 68 -82q43 -52 43 -89q0 -35 -33 -79q-47 -67 -135 -101q-56 -22 -104 -21q-28 0 -54 7q-68 16 -100 84q-18 38 -19 73q0 28 12 56q18 42 18 61q0 21 -30 46q-28 22 -28 41q0 12 12 24zM146 619.5 q-3 -25.5 24 -52.5q23 -23 36 -25q1 0 3 1q16 0 63 10q68 14 86 27q18 16 14.5 56t-28.5 60q-30 30 -73 30h-8q-48 -3 -77 -38q-37 -43 -40 -68.5z" />
<glyph unicode="p" horiz-adv-x="710" d="M22 552q-1 8 -1 16q0 79 14 100q14 20 51 32q29 8 103 8q38 0 87 -2q146 -6 195 -22q49 -18 104 -33q45 -12 80 -44t35 -60q0 -27 -24 -60q-25 -31 -98.5 -81t-118.5 -66q-109 -37 -158 -82q-18 -18 -22.5 -46t-4.5 -144q0 -133 -11 -180.5t-42 -47.5q-29 0 -50.5 38 t-27.5 93q-6 53 -20.5 83t-61.5 91q-27 33 -29 44.5t13 37.5q20 33 20 68t-16 100q-16 63 -17 157zM70 563q-5 -15 -5 -36q0 -31 11 -74q18 -76 37.5 -110t38.5 -32q23 5 23 72q0 50 -13 137q-8 53 -15.5 67.5t-23.5 14.5q-41 0 -53 -39zM264 432q0 -45 5 -53t32 -8 q35 0 117.5 40.5t113.5 73.5q20 27 16.5 47.5t-31.5 35t-60.5 22.5t-65.5 10l-72 4l-28 -55q-27 -55 -27 -117z" />
<glyph unicode="q" horiz-adv-x="552" d="M29 582q12 27 65.5 54.5t110.5 37.5q31 5 57 5q16 0 29 -2q35 -5 102 -34q61 -25 80 -45t12.5 -53t-41.5 -109q-39 -76 -48 -109.5t-9 -84.5q0 -59 16.5 -105.5t63.5 -120.5q16 -27 40.5 -98.5t24.5 -97.5q0 -10 -43 -10q-27 0 -35 5t-8 19q0 37 -88 186q-78 127 -78 232 q0 30 7 59q14 57 14 88q0 55 -119 58q-92 2 -135 37q-27 21 -27 51q0 17 9 37z" />
<glyph unicode="r" horiz-adv-x="626" d="M20 744q2 32 19.5 42.5t46.5 -2.5q31 -16 45 -43q16 -31 34.5 -25.5t57.5 52.5q33 41 92.5 77t112.5 52q18 4 52 4q16 0 38 -1q64 -3 78 -13q14 -12 7 -30.5t-29.5 -33t-43.5 -8.5q-6 1 -14 1q-31 0 -94 -19q-98 -31 -146.5 -100.5t-62.5 -196.5q-8 -86 -24.5 -112 t-53.5 -5q-25 12 -36 44t-29 138q-14 78 -33 113q-17 31 -17 59v7z" />
<glyph unicode="s" horiz-adv-x="587" d="M25 645q8 29 129 100q130 76 241 146q94 61 118 70.5t40 -9.5q16 -15 16 -35q0 -19 -15 -43q-30 -49 -87 -67q-53 -16 -117 -55q-59 -35 -90 -47q-35 -10 -20 -29q12 -12 45 -12q51 0 94 -14.5t55 -35.5q14 -25 14 -54q0 -28 -12 -58q-26 -62 -92 -107 q-51 -35 -75.5 -63.5t-35.5 -67.5q-12 -41 -34.5 -56t-40 3t-17.5 61q0 76 115 183q43 43 43 71q0 18 -14.5 22.5t-87.5 4.5q-113 -1 -149 19q-26 14 -26 47q0 12 3 26z" />
<glyph unicode="t" horiz-adv-x="710" d="M39 578q-20 16 -20 32q0 26 49 52q35 18 88 32q84 18 112.5 44t34.5 81q27 205 47 230q10 12 17.5 10t27.5 -21q20 -20 23 -38q1 -7 2 -23q0 -26 -4 -78q-3 -37 -3 -63q0 -52 11 -60q16 -12 125 -18q141 -8 141 -47q0 -8 -6 -19q-14 -20 -104 -22q-88 0 -127 -19l-37 -20 v-131q0 -82 -4 -110t-17 -36q-23 -14 -45 6.5t-35.5 68.5t-13.5 108q-1 70 -23 79q-5 2 -13 2q-30 0 -103 -24q-66 -18 -89.5 -21.5t-33.5 5.5z" />
<glyph unicode="u" d="M22 460q-1 7 -2 19q0 24 5 68q6 80 24.5 161t32.5 99q16 14 41 14q39 1 42 -27v-7q0 -32 -22 -125q-23 -96 -24 -118t16 -40q23 -23 45 -23q53 0 143.5 65.5t147.5 147.5q70 100 106 100q37 0 54 -104q0 -12 6 -55t9 -62.5t10.5 -53.5t14.5 -57.5t17 -43.5q28 -51 28 -87 q0 -20 -9 -34q-7 -13 -18 -13q-15 0 -38 23q-31 33 -50 73t-40 116q-19 82 -37 89q-2 1 -5 1q-20 0 -70 -47q-53 -51 -133 -104.5t-117 -65.5q-17 -4 -35 -4q-24 0 -50 7q-46 13 -71 46q-17 20 -21 42z" />
<glyph unicode="v" horiz-adv-x="856" d="M29 823q10 20 30 20q13 0 31 -9q33 -18 49.5 -50t38.5 -120q53 -207 86 -207q16 0 66 45q219 182 274 231q49 45 129 94q69 39 91 39q7 0 10 -4q2 -6 2 -20q0 -29 -93 -107q-80 -68 -225 -203q-130 -124 -143 -124q-10 0 -29 -37q-25 -39 -65 -68q-29 -23 -40.5 -26 t-31.5 8q-29 16 -41 47q-16 41 -52 167t-36 144q0 23 -29 66q-32 45 -32 79q0 19 10 35z" />
<glyph unicode="w" horiz-adv-x="1026" d="M35 758q18 18 58 15t61 -23q51 -53 79 -158q14 -62 37 -68q3 -1 7 0q24 0 73 35q67 44 113 45q56 0 82 -65q14 -39 39.5 -67t46.5 -28q16 0 89 42t150 94q56 40 91 40q24 0 38 -20t-4 -40.5t-74.5 -49.5t-116 -74t-87.5 -80q-29 -35 -76 -47q-33 -8 -46 -6t-38 19 q-41 29 -74 79q-39 56 -64 56t-95 -68q-72 -68 -110 -68q-4 1 -8 1q-38 8 -52 106q-12 98 -31 143t-55 80q-48 42 -48 75q0 17 15 32z" />
<glyph unicode="x" horiz-adv-x="638" d="M20 162q0 49 17.5 80.5t87.5 105.5q66 68 72 104q1 5 1 10q0 36 -32 105q-46 101 -46 151q0 29 15 42q25 23 54.5 0t43.5 -76q16 -53 36 -86t34 -33q12 0 133 116t135 116q16 0 31.5 -14.5t15.5 -30t-94 -117.5q-113 -123 -139.5 -160t-13.5 -53q14 -23 31 -23 q24 0 53 50q35 55 63 55q20 0 23.5 -6t-0.5 -35q-6 -33 -42 -93.5t-61 -80.5q-20 -15 -51 -15q-7 0 -15 1q-40 4 -69 28q-37 31 -47 31q-18 0 -85 -76t-79 -111q-8 -25 -18.5 -35t-24.5 -10q-20 0 -24.5 9.5t-4.5 50.5z" />
<glyph unicode="y" horiz-adv-x="573" d="M25 -10q6 29 96 211t117 221q23 29 22 41q0 8 -51 65q-111 125 -139 176q-15 26 -15 46q0 19 13 32q17 17 37 17q15 0 31 -9q40 -22 71 -81q16 -35 55 -77t53.5 -42t53.5 43t61 86q27 47 55.5 65.5t49.5 -0.5q19 -15 19 -41q0 -23 -14 -55q-30 -70 -116 -160 q-76 -82 -127 -176q-14 -25 -37 -67q-104 -195 -120 -235q-14 -32 -14 -72q0 -9 1 -19q2 -10 2 -16q1 -19 1 -34q0 -45 -9 -61q-12 -22 -49 -4q-27 12 -42 60q-10 27 -10 52q0 18 5 34z" />
<glyph unicode="z" horiz-adv-x="669" d="M20 791q0 31 21.5 43.5t89.5 23.5q64 8 164 35q94 26 149 26q30 1 48 -7q54 -20 53 -113v-74l53 -4q29 -2 40 -7t11 -18q0 -23 -100 -57q-100 -31 -133 -61q-37 -35 -94.5 -122t-57.5 -110q0 -14 3 -19t16.5 -2t32 11t55.5 29q72 40 102 40q18 0 21 -14q2 -6 2 -12 q0 -31 -56 -74q-128 -107 -204 -107q-42 0 -68 33q-24 32 -24 65v8q3 38 34 104q37 70 37 81q0 12 -61 21q-41 4 -50.5 10t-9.5 27q0 31 31 49t121 43q176 47 176 143q0 39 -16 39q-20 0 -166 -37q-119 -28 -168 -28h-4q-48 2 -48 35z" />
<glyph unicode="{" horiz-adv-x="610" d="M27 696q8 16 38.5 26.5t133.5 37.5q51 14 100 57t49 76q0 29 -39 147q-39 123 -43 197q-4 49 -1 69.5t22 43.5q20 27 80.5 60.5t119.5 51.5q49 16 62 17q29 2 39 -36t-10 -59q-16 -12 -66 -22q-49 -8 -89 -35t-52 -59q-10 -23 -5 -52.5t33 -117.5q45 -141 45 -189 q0 -49 -24.5 -98t-65.5 -80q-25 -20 -34 -37.5t-13 -56.5q-6 -61 -49 -125q-43 -63 -55 -109q-12 -35 -9 -46t27 -38q35 -37 96 -65q53 -23 74 -43.5t12 -40.5q-14 -39 -130.5 4t-161.5 105q-39 49 -38 80.5t44 121.5q51 106 45 125q-8 18 -60 25q-47 6 -68.5 24.5 t-6.5 40.5z" />
<glyph unicode="|" horiz-adv-x="161" d="M20 523.5q-4 310.5 19 394.5q14 53 14 77.5t-16 81.5q-18 78 -15 242.5t21 187.5q16 18 44 20.5t40 -14.5q14 -16 4 -222t-25 -244q-14 -39 -8 -115t8 -385q0 -305 21 -357q14 -37 14 -48t-14 -23q-41 -43 -80 41q-23 53 -27 363.5z" />
<glyph unicode="}" horiz-adv-x="395" d="M20 86q0 14 12.5 24.5t43.5 22.5q158 59 78 307q-23 78 -23 189q0 78 -6 100.5t-37 63.5q-43 55 -43 94q0 31 36 99.5t85 127.5q33 41 59.5 94.5t26.5 75.5q0 14 -10.5 20.5t-38.5 10.5q-86 14 -92 57q-6 29 41 45h6q47 14 117.5 -2t86.5 -45q12 -20 13 -78 q0 -55 -41 -106q-27 -37 -76 -113t-61 -92q-25 -33 -29 -63.5t14 -43.5q12 -12 86 -20q106 -10 107 -51q0 -14 -53 -74q-51 -57 -65.5 -99t-4.5 -98q45 -233 31 -307q-16 -92 -117 -157q-90 -59 -129 -27q-16 14 -17 45z" />
<glyph unicode="~" horiz-adv-x="931" d="M20.5 608q-6.5 43 34.5 99q45 63 92 95t123 48q115 25 300.5 -32.5t291.5 -153.5l49 -43l-32 -31q-2 -2 -9 -8q-16 -16 -31.5 -12.5t-88.5 48.5q-27 16 -41 25q-147 90 -332 102q-74 4 -96.5 -1t-71.5 -33q-92 -55 -82 -101q4 -14 -13.5 -29.5t-37.5 -15.5 q-49 0 -55.5 43z" />
<glyph unicode="&#xa2;" horiz-adv-x="706" d="M20 528q0 76 136 299q49 84 144 181.5t155 128.5q47 23 66.5 57.5t53.5 144.5q38 115 46 125q29 35 57 -2q16 -18 -8 -88q-23 -61 -39 -133q-12 -43 -10 -58.5t22 -41.5q29 -37 29 -97q0 -84 -32 -157.5t-65 -61.5q-12 6 -14 25.5t2 87.5q10 98 -2 102h-12 q-16 -4 -34.5 -35.5t-76.5 -152.5q-29 -57 -73 -139q-51 -92 -52 -107q0 -14 43 -20q82 -16 35 -74q-29 -35 -100 -74q-72 -37 -108 -41t-89 17q-45 18 -59.5 40.5t-14.5 73.5zM119 567q0 -43 15.5 -56t39.5 7q14 12 119.5 217t105.5 221q0 27 -37 2q-16 -12 -32 -34 l-84 -105q-57 -66 -92 -136.5t-35 -115.5z" />
<glyph unicode="&#xa3;" horiz-adv-x="770" d="M21.5 382q-3.5 9 9.5 30q12 27 47 42t80 15q39 0 92 55.5t90 134.5q35 76 21.5 95.5t-105.5 19.5q-82 0 -114.5 9.5t-32.5 31.5q0 16 20.5 24.5t89.5 22.5q109 20 129 31q16 12 23 186q6 127 11 160t30 68q35 53 84 88q70 49 119 29.5t49 -95.5q0 -55 -18.5 -70.5 t-61.5 7.5q-31 16 -40 16t-32 -22q-23 -20 -27 -46t-4 -143q0 -162 17 -172q12 -8 82 -22q41 -8 53 -15.5t12 -22t-11 -21.5t-48 -13q-66 -10 -83.5 -23.5t-29.5 -60.5q-12 -53 -59 -141q-47 -86 -34 -101.5t118 2.5q111 16 181.5 0t70.5 -57q0 -18 -21 -25 q-35 -10 -424 -39q-141 -12 -182 -26q-33 -10 -45 -7t-33 23q-20 23 -23.5 32z" />
<glyph unicode="&#xa7;" horiz-adv-x="774" d="M29 72q10 10 17 10t30 -12q49 -27 105.5 7t133.5 136q37 49 46.5 71.5t9.5 71.5q0 70 -23 101q-14 25 -82 123q-68 96 -121 186t-59 121q-10 31 4 82q8 29 25.5 47t74.5 55q86 55 97 55q29 0 -33 80q-76 102 -18 193q20 33 71.5 64.5t100.5 41.5q35 10 149 6 q88 -4 125 -20t59 -59q12 -23 12.5 -31t-12.5 -19q-31 -27 -104 27q-33 23 -127 23q-80 0 -121 -16.5t-61 -57.5q-23 -43 -16 -66.5t50 -52.5q39 -29 111 -102.5t139 -155.5q31 -41 41.5 -62.5t10.5 -55.5t-9.5 -53t-36.5 -52q-49 -51 -96 -72q-45 -20 -84 -57l-37 -39 l39 -76q39 -78 43 -156q0 -57 -6 -78.5t-43 -72.5q-43 -68 -84 -105q-94 -84 -151.5 -110.5t-112.5 -9.5q-37 10 -56.5 39.5t-0.5 50.5zM227 977q-102 -104 43 -246q41 -39 65.5 -39t72.5 41q37 29 36 72q0 49 -16.5 105t-36.5 79q-31 33 -80 30t-84 -42z" />
<glyph unicode="&#xab;" horiz-adv-x="831" d="M20 752q0 33 10.5 51t49.5 53q133 129 205 168q57 29 80 -8q37 -55 -66 -123q-59 -37 -107.5 -80t-48.5 -56.5t27 -41t39 -27.5q14 0 57 43q33 35 131.5 112t110.5 77q10 0 67 49q49 39 68 44t35 -14q18 -23 -4.5 -53.5t-102.5 -89.5q-188 -141 -215.5 -170t0.5 -61 q33 -35 74 -45.5t172 -14.5q106 -4 143 -9t52 -19q23 -18 8 -41q-8 -14 -35 -17.5t-115 -1.5q-143 2 -204 -8q-68 -12 -113 0t-86 55t-111 80q-66 33 -93.5 67t-27.5 81z" />
<glyph unicode="&#xad;" d="M49 641q-61 59 19 80q41 10 120 16q406 33 416 41q6 6 44 -1t52 -19q33 -29 -2 -58q-16 -14 -143 -26q-207 -16 -399 -45q-55 -8 -71.5 -6t-35.5 18z" />
<glyph unicode="&#xbb;" horiz-adv-x="837" d="M23 438q10 35 90 121q45 47 71.5 78t43 57.5t18.5 42t-8.5 29.5t-32 22.5t-58.5 16.5q-51 12 -54 45t46 47q47 14 119 -4.5t115 -56.5q20 -16 20 -61.5t-20 -74.5q-18 -29 -119 -135q-96 -102 -123 -147q-20 -35 -50 -44t-48.5 9t-9.5 55zM515 902q-30 44 3 75 q16 16 29.5 13t46.5 -25q23 -16 91.5 -47t90.5 -48q45 -37 40 -112.5t-58 -124.5q-39 -39 -84 -105q-49 -72 -70 -88q-16 -14 -23.5 -13t-27.5 22q-27 29 -18 59q8 27 54 94.5t73 89.5q25 25 24 62q0 27 -10 38t-51 29q-80 37 -110 81z" />
<glyph unicode="&#xbf;" horiz-adv-x="565" d="M20 401q0 123 105 209q182 150 213 213q20 43 56 78t65 0q25 -29 -18.5 -114t-104.5 -132q-12 -10 -113 -88q-61 -45 -82.5 -84t-21.5 -98q0 -37 6 -54.5t33 -41.5q39 -37 66.5 -51.5t74.5 -12.5t76 17q18 12 47 16t51.5 1t22.5 -13q0 -16 -35 -48t-72 -53 q-57 -31 -122.5 -19.5t-120 47.5t-90.5 98.5t-36 129.5zM412 1083q0 27 14 41t52 14.5t52.5 -14t14.5 -41.5q0 -55 -68 -55q-37 0 -51 16q-14 12 -14 39z" />
<glyph unicode="&#xc0;" horiz-adv-x="927" d="M22.5 471q8.5 43 45.5 86q47 53 110 162q133 223 340 530q47 76 113 152q135 162 135 207q0 23 9 26.5t56 3.5t58.5 -5t17.5 -25q6 -31 -22 -70q-47 -61 -66 -301q-4 -70 0 -85t31 -36q37 -29 37 -43q0 -16 -43 -65q-31 -37 -37 -58.5t-6 -111.5q2 -123 18 -150 q16 -31 17.5 -75t-15.5 -58q-10 -8 -20 -3t-33 32q-31 33 -41 74.5t-14 144.5l-2 74l-43 -3q-45 -2 -111 -10q-41 -6 -57.5 -3t-26.5 13q-16 20 -2 52q8 20 37 32.5t100 28.5q37 6 70 35q23 20 30 39.5t13 73.5q0 10 6 70.5t8 82.5q6 43 4 56.5t-12 13.5q-31 0 -133 -135.5 t-168 -259.5q-25 -47 -89.5 -154t-92.5 -164q-72 -145 -122 -204.5t-83 -32.5q-25 20 -16.5 63z" />
<glyph unicode="&#xc1;" horiz-adv-x="880" d="M23 475q8 16 63 43q57 27 78 53q63 70 93 111t58 98q31 61 93.5 144.5t85.5 124.5q137 219 200 352q39 80 51 94q12 12 40 8t40 -20q14 -16 14.5 -101.5t-10.5 -476.5q-6 -197 -4 -255t15 -83q18 -35 19 -78t-15 -57q-35 -29 -68 68q-39 113 -39 282q0 70 -3 93.5 t-15 27.5q-18 6 -137 -49q-119 -57 -131 -57t-58.5 -59.5t-83.5 -123.5q-31 -55 -104 -125q-45 -43 -67.5 -56t-49.5 -13q-35 0 -54.5 16.5t-10.5 38.5zM557 958q14 -14 102 43q55 37 66.5 53.5t22.5 73.5q14 76 14 119q0 33 -16.5 37t-34.5 -27q-172 -276 -154 -299z" />
<glyph unicode="&#xc2;" horiz-adv-x="1093" d="M27.5 455q17.5 32 105.5 127q80 84 171 193.5t151 174.5q125 137 231 281q64 81 121 149q68 76 80 76q76 0 16 -223q-18 -74 -39.5 -193.5t-42 -256t-26.5 -175.5q-12 -57 -23 -182q-14 -152 -51 -152q-10 0 -21 7q-43 27 -14 137q51 199 68 502q8 117 18 127q6 8 9 39.5 t1 60.5t-8 29q-12 0 -33 -25q-14 -14 -15 -25.5t5 -35.5q14 -35 6 -56q-6 -20 -129 -102q-117 -78 -234.5 -201t-205.5 -254q-72 -109 -127 -74q-31 20 -13.5 52zM625 1628q0 10 55 10t55 -10q0 -12 -18.5 -25.5t-38 -13.5t-36.5 13.5t-17 25.5zM942 1614q0 14 8 19t37 5 q33 0 44 -7t26 -34q14 -27 16 -38t-8 -23q-18 -20 -33 -20q-18 0 -54 39t-36 59z" />
<glyph unicode="&#xc4;" horiz-adv-x="911" d="M22 315.5q-6 18.5 9 46.5q14 29 48 71t150 173q29 35 110 135.5t130 151.5q33 39 254 321q55 70 55 80q1 10 19 37q16 23 44.5 26t43.5 -14q12 -16 0 -131q-10 -94 -15 -278q-4 -162 -18 -180q-16 -16 -10 -125q6 -68 4 -91.5t-12 -33.5q-23 -14 -44.5 -3t-37 49 t-19.5 91q-6 78 -20 92q-10 14 -123 15h-113l-84 -86q-92 -94 -137 -164q-39 -57 -110.5 -129t-92.5 -72q-25 0 -31 18.5zM587.5 875.5q12.5 -17.5 74.5 -17.5q49 0 62 6t30 35q24 39 24 127q0 57 -7 75.5t-25.5 4.5t-53.5 -68q-49 -74 -82 -108q-35 -37 -22.5 -54.5z M668 1628q0 10 55 10q59 0 53 -14q-4 -10 -35 -22q-37 -14 -55 0q-18 16 -18 26z" />
<glyph unicode="&#xc7;" horiz-adv-x="788" d="M23 737q-8 47 15 166t50 182q78 174 264 299q117 77 172 91q88 23 166 6q47 -10 63.5 -35t14.5 -76q-2 -35 -12.5 -50t-24.5 -6t-29 40q-16 33 -28 40t-58 11q-145 8 -321 -178q-84 -88 -121 -159t-55 -181q-16 -94 -7 -133t58 -78q39 -31 61.5 -32t53.5 24 q33 29 72.5 31.5t70.5 -19.5q20 -12 34.5 -11t67.5 25q61 27 86 23t31 -41q8 -53 -65 -70q-39 -6 -51.5 -23.5t-20.5 -76.5q-8 -70 -31 -111q-25 -47 -76 -108.5t-65 -61.5q-35 0 -6 82q10 27 24 55q70 135 37 173q-12 16 -71 10q-104 -12 -195.5 46t-103.5 146z" />
<glyph unicode="&#xc8;" horiz-adv-x="813" d="M20 381q2 123 16.5 247t31.5 154q16 31 18 96.5t-10 110.5q-23 74 53 168q47 55 57 55t56 -20q29 -12 50 -12t66 8q72 14 217 10q90 -4 124 -10t55 -21q41 -31 39 -85t-41 -54q-18 0 -54 31q-27 23 -52 27t-120 4q-145 0 -213.5 -19.5t-93.5 -71.5q-18 -33 -29.5 -100.5 t-1.5 -87.5q10 -27 -14 -63q-18 -23 -21 -51.5t-1 -129.5q6 -143 12 -159q10 -12 117 -13q80 0 129 13.5t137 56.5q37 20 57 4q20 -18 18.5 -46t-26.5 -36q-31 -8 -70 -37q-53 -33 -150 -56.5t-163 -17.5q-76 8 -115 -12q-25 -16 -33 -15t-24 15q-23 23 -21 117zM231 793 q20 8 82 16q78 10 115 22q31 12 76 13q39 2 66.5 -21.5t27.5 -56.5q0 -61 -94 -47q-63 6 -115 -6q-90 -20 -149 32q-39 35 -9 48zM440 1630q0 8 58 8q41 0 54 -6t28 -30q23 -41 94 -119q72 -78 71 -92q0 -16 -15 -30.5t-30 -14.5q-31 0 -145.5 126.5t-114.5 157.5z" />
<glyph unicode="&#xc9;" horiz-adv-x="858" d="M23 231q-10 31 45 50q16 6 34 8q63 12 127 39q209 90 238 116q26 25 61 41q41 23 65.5 20t24.5 -30q0 -33 -71.5 -86t-200.5 -119q-94 -47 -133 -60t-84 -13q-94 -2 -106 34zM63 539q18 47 40 235.5t22 308.5q0 88 4 113t21 35q24 16 219 65q186 45 311 48.5t151 -37.5 q12 -20 -14 -50q-18 -18 -45 -21t-139 -1q-156 4 -197 -16q-45 -18 -94 -31q-63 -16 -81.5 -43t-20.5 -111l-4 -96l51 -4q49 -4 133 29q68 27 124 31.5t81 -13.5q20 -18 18 -59t-27 -64t-37 -22.5t-55 18.5q-31 12 -57.5 11t-116.5 -21q-131 -29 -141 -37 q-18 -12 -30.5 -111.5t-6.5 -177.5q8 -96 -10 -110q-23 -20 -51.5 0t-40.5 63q-14 49 -7 68zM473 1624q0 14 49 14q31 0 39 -5t8 -23q0 -25 -23.5 -59.5t-41.5 -34.5q-10 0 -20.5 35.5t-10.5 72.5z" />
<glyph unicode="&#xca;" horiz-adv-x="772" d="M20 468q-4 112 23 222q6 29 17.5 71t15.5 59.5t9 49t6 64.5t1 80q0 72 6 100.5t29 67.5q31 61 29 94t19.5 42t100.5 11q121 0 207 20.5t86 47.5q0 18 -41 57t-59 39q-23 0 -78 -49q-84 -76 -125 -35q-18 18 -9 39.5t62 77.5q66 74 66 92q0 12 15.5 16t62.5 2h76l51 -63 q43 -51 102.5 -167t59.5 -149q0 -23 -13.5 -40t-31.5 -17q-16 0 -52 31q-33 27 -71.5 28t-139.5 -22q-102 -25 -147 -25q-41 0 -53 -14q-14 -23 -26.5 -97.5t-12.5 -135.5q-2 -61 2 -71.5t31 -10.5q31 0 98 18q104 27 162.5 7.5t58.5 -81.5q0 -47 -21.5 -57t-74.5 10 q-41 14 -68.5 15.5t-101.5 -11.5q-106 -16 -133 -39q-23 -23 -27 -56.5t12 -65.5q41 -76 21 -177q-8 -41 -7 -56t11 -28q12 -12 26.5 -12t57.5 12q66 18 168 58q125 49 125 12q0 -8 -4 -18q-16 -39 -131 -96.5t-211 -71.5q-96 -16 -144 59q-31 51 -35 163z" />
<glyph unicode="&#xcb;" horiz-adv-x="1198" d="M25.5 257.5q13.5 21.5 56.5 29.5q35 10 68.5 18t58 15.5t58.5 17.5t51.5 16t54.5 19.5t50 18.5t57 21.5t59 22.5q102 39 260 117q180 90 202 65q4 -6 5 -18q0 -27 -54.5 -65.5t-134.5 -71.5q-27 -10 -176 -74q-434 -188 -545 -188q-43 0 -63.5 17.5t-7 39zM305 572.5 q6 84.5 47 185.5q45 108 45 137q0 10 36 134t36 132q0 16 -29 56q-23 29 -23.5 37t15.5 24q25 20 64 31q68 20 185.5 40.5t170.5 22.5q80 2 113 12q35 8 107.5 3t86.5 -19q20 -16 17.5 -66.5t-25.5 -74.5q-27 -27 -44 -25t-48 41l-33 45l-74 -8q-16 -2 -172 -20 q-168 -16 -186 -41q-8 -10 -39 -97q-29 -88 -10.5 -102t133.5 8q117 25 162 13.5t45 -64.5q0 -37 -27 -66l-27 -28q-41 31 -77 61l-121 -26q-121 -25 -148 -50q-18 -18 -48.5 -114.5t-35.5 -106.5q-18 -37 -14 -106q2 -47 -1 -63.5t-15 -24.5q-23 -14 -43 6 q-29 29 -23 113.5zM555 1552q-4 20 27 43q20 14 65 17.5t72 -4.5q18 -8 18 -36t-18 -44q-18 -14 -72 -15q-84 0 -92 39zM930 1616q8 29 35.5 22.5t46.5 -41.5q14 -27 16 -38t-8 -23q-18 -20 -33 -20q-18 0 -40.5 38.5t-16.5 61.5z" />
<glyph unicode="&#xce;" horiz-adv-x="903" d="M27 616q-14 23 6 41.5t69 24.5q215 27 232 47q10 8 25.5 56.5t29.5 101.5t19 63q14 43 39.5 145.5t25.5 127.5q2 18 -6 26t-35 15q-41 12 -56.5 25.5t-15.5 37.5q0 18 10.5 25.5t45.5 13.5q27 4 43 13.5t22 15.5t18.5 28.5t16.5 30.5q14 25 30.5 25t51.5 -29 q25 -20 48.5 -25.5t74.5 -7.5q76 0 109.5 -8t46.5 -31q23 -35 -25.5 -50t-127.5 -22.5t-99 -15.5q-27 -14 -48.5 -49t-21.5 -65q0 -23 -43 -160q-41 -127 -49 -177.5t8 -62.5q8 -6 110.5 -18.5t110.5 -20.5q35 -33 -41 -51q-14 -2 -33 -4q-45 -6 -121.5 -25.5t-117.5 -25.5 q-57 -6 -166 -29q-154 -37 -186 14zM264 1532.5q-4 16.5 6 69.5q4 27 15.5 31.5t62.5 4.5q72 0 72 -12q0 -10 -45 -61q-49 -49 -80 -49q-27 0 -31 16.5zM705 1624q-4 14 38 14q68 0 25 -36q-16 -14 -36.5 -6t-26.5 28z" />
<glyph unicode="&#xcf;" horiz-adv-x="905" d="M27 375q-16 25 10 42t90 23q76 6 84 21q10 12 27 98q10 57 49 227t49 224q6 33 15 78t15.5 80.5t6.5 74.5v43l-45 -10q-51 -10 -113.5 -7t-77.5 15q-12 10 -19 41t3 35q2 0 56 5t151.5 13t177.5 15q135 12 145 20q10 10 80 -1t105 -28q27 -12 36 -24t11 -37 q8 -86 -39 -111q-59 -33 -76 56l-8 41h-115q-76 0 -97.5 -4.5t-35.5 -22.5q-18 -29 -43 -109.5t-25 -119.5q0 -43 -16 -66q-16 -27 -35 -139q-18 -102 -39 -162q-31 -86 2 -147q12 -23 21.5 -28t30.5 -1q82 18 96 17t14 -25q0 -29 -14 -43q-27 -23 -117 -53.5t-170 -47.5 q-88 -18 -131 -14t-59 31zM311 1626q0 12 43 12t43 -12t-43 -12t-43 12z" />
<glyph unicode="&#xd1;" horiz-adv-x="1294" d="M23.5 382q-11.5 40 25.5 83q31 37 31 49q0 10 39 72q51 78 170 293q39 68 82 178t63 194q27 98 43 117q20 23 52 0.5t62 -80t46 -127.5q102 -455 133 -487q20 -23 35 -23q14 0 64.5 84t78.5 156q25 63 80 158q115 195 143 268q27 62 37 113q4 33 11.5 42t27 9t23.5 -8.5 t4 -40.5q0 -51 -64.5 -205t-146.5 -295q-29 -51 -125 -256q-27 -47 -59 -115q-61 -123 -125 -86q-20 12 -66.5 144.5t-83.5 281.5q-27 109 -51 211q-35 137 -113 -92q-31 -90 -92 -207q-74 -137 -151 -291q-51 -102 -75 -137t-40 -37q-47 -6 -58.5 34zM514 1618q8 20 80 20 t72 -8q-2 -20 -40 -64t-57 -46q-37 -6 -54 24.5t-1 73.5zM823 1630q0 8 128 8t128 -10t-30 -39q-31 -29 -84.5 -28.5t-96.5 30.5q-45 29 -45 39z" />
<glyph unicode="&#xd3;" horiz-adv-x="864" d="M22 616.5q3 30.5 21 108.5q23 88 76 206t106 195q82 119 201 219.5t205 120.5q68 16 96.5 10t67.5 -44q49 -49 49 -80q0 -51 -64 -4q-8 8 -20 18l-51 43l-82 -27q-59 -18 -110.5 -55t-51.5 -61q0 -12 41 -62q84 -102 207 -280q82 -119 89 -204t-59 -188 q-49 -74 -129 -135q-84 -61 -126 -80.5t-119 -29.5q-150 -20 -250 61q-41 33 -59.5 72t-32.5 117q-8 49 -5 79.5zM111 528q20 -78 89.5 -122t153.5 -31q86 10 198 88t153 153q16 33 16 100.5t-19 110.5q-25 59 -119.5 196.5t-133.5 166.5q-25 23 -39 22q-25 0 -93.5 -100 t-126.5 -221q-51 -109 -73.5 -206t-5.5 -157zM594 1550q-2 18 2 43q4 33 12 39t41 6q35 0 40 -4t1 -28q-18 -78 -61 -88q-29 -6 -35 32z" />
<glyph unicode="&#xd4;" horiz-adv-x="1058" d="M20 746.5q0 123.5 23 193.5q39 109 145.5 234.5t217.5 193.5q16 12 67 44t74 44q73 48 145 66q76 18 111 18q45 0 98 -15.5t74 -35.5q31 -27 49 -81t14 -98t-28 -44q-14 0 -22.5 13t-16.5 52q-16 68 -33 94q-14 20 -32.5 25.5t-90.5 5.5q-100 0 -115.5 -18.5t11 -106.5 t67.5 -170q35 -70 62.5 -163t27.5 -140q0 -66 -32.5 -140.5t-85.5 -129.5q-184 -193 -424 -197q-59 -2 -86 3t-56 24q-80 49 -139 160q-25 45 -25 168.5zM102 786q-4 -106 23 -176q25 -61 54.5 -84.5t109.5 -40.5q53 -10 79.5 -9t86.5 18q86 25 121.5 44t87.5 72 q184 190 104 430q-31 92 -76 202t-57 124q-41 53 -229 -88q-172 -131 -252 -295q-31 -61 -39.5 -95t-12.5 -102zM760 1628q0 10 31 10q49 0 14 -34q-10 -10 -27.5 -1t-17.5 25z" />
<glyph unicode="&#xd6;" horiz-adv-x="1153" d="M20 737q0 92 5.5 133t27.5 105q33 96 68 153q35 55 49 93q33 76 184 161q51 31 61.5 42.5t4.5 39.5l-6 39l75 -2q86 1 170 19q127 27 251 6t186 -78q27 -27 33 -42t4 -56q-2 -37 -7.5 -48.5t-21.5 -11.5q-23 0 -37 45q-10 45 -33.5 68.5t-68.5 38.5q-45 14 -157 13 t-144 -13q-20 -10 -24.5 -19.5t-0.5 -38.5q6 -33 41 -92t41 -80q16 -45 31 -61q23 -27 46 -130t23 -181q-2 -182 -125 -330q-61 -70 -61 -80t-75 -56t-114 -59q-92 -35 -184 -10t-147 98q-53 72 -74 143.5t-21 190.5zM98 727q0 -109 19.5 -162t83.5 -119q37 -39 54 -45 t81 -6q55 0 85 8.5t77 32.5q80 41 149.5 132t95.5 190q18 70 17.5 109.5t-29.5 185.5q-14 70 -67.5 173t-88.5 130q-37 27 -64.5 23.5t-90.5 -44.5q-150 -98 -242 -270q-47 -90 -63.5 -158.5t-16.5 -179.5z" />
<glyph unicode="&#xd9;" horiz-adv-x="1107" d="M35 909q27 174 109 387.5t145 270.5q29 29 46 33t34 -13q41 -41 -39 -127q-129 -147 -191 -444q-39 -186 -33 -289q4 -106 24 -144t87 -63q47 -18 66.5 -21t48.5 7q78 27 221 163t233 269q74 111 138.5 236.5t72.5 177.5q6 45 25.5 65.5t40.5 5.5q33 -18 22.5 -67 t-73.5 -172q-180 -354 -422 -590q-98 -94 -177 -136t-159 -42q-143 -2 -199.5 124t-19.5 369zM639 1628q0 10 67.5 10t67.5 -10q0 -12 -17.5 -25.5t-33.5 -13.5q-23 0 -53.5 14.5t-30.5 24.5z" />
<glyph unicode="&#xda;" horiz-adv-x="1107" d="M20 604q-4 23 23 145.5t51 182.5q16 37 31 96q14 53 64 149.5t79 125.5q25 27 41.5 29.5t32.5 -13.5q39 -39 -27 -115q-41 -49 -68.5 -105.5t-66.5 -178.5q-47 -141 -53 -254q-4 -80 0 -101.5t23 -42.5q29 -31 51 -30q25 0 101.5 40.5t137.5 85.5q84 68 241 232t200 233 q106 174 133.5 205t54.5 8q18 -14 18 -36q0 -31 -62 -143.5t-97 -145.5q-106 -98 -201 -201q-80 -84 -198.5 -179t-215.5 -153q-121 -74 -209 -18q-29 18 -45 53t-39 131zM516 1335q0 39 16 78q16 37 68 115q49 71 49 90.5t49 19.5q84 0 21 -79q-25 -31 -64 -93 q-70 -109 -92 -138.5t-33 -31.5q-14 0 -14 39z" />
<glyph unicode="&#xdb;" horiz-adv-x="997" d="M21.5 1358.5q-1.5 13.5 7.5 40.5q12 43 37 74q25 29 40 29.5t41 -21.5q23 -23 25 -49.5t-10 -153.5q-37 -352 -43 -473q-8 -143 18.5 -228t79.5 -85q80 0 255 187t267 370q18 35 32.5 54t25 37.5t26.5 65.5q31 84 47 78q12 -6 13 -47q0 -72 -106.5 -268.5t-201.5 -298.5 q-72 -82 -83 -101q-23 -29 -97 -84q-119 -90 -227 -65q-86 18 -123 141q-14 49 -14 147.5t16 438.5q6 94 3 127t-15 53q-12 18 -13.5 31.5zM897 1602q-4 25 1 30.5t32 5.5q23 0 32 -6t13 -24q8 -31 -12.5 -52.5t-41 -7t-24.5 53.5z" />
<glyph unicode="&#xdc;" horiz-adv-x="991" d="M20 856q1 261 91 447q4 8 10 24t13 30.5t16.5 34t17.5 35t18.5 31t21.5 25.5t21.5 16t22.5 4t22 -14q18 -18 11.5 -48t-45.5 -89q-82 -127 -115 -318q-16 -86 -18.5 -207.5t12.5 -164.5q14 -37 51 -79t59 -42q16 0 79 36.5t126 84.5q59 41 181 163.5t165 182.5 q57 76 101.5 178t50.5 170q6 76 22 76t17 -84q0 -147 -66 -281q-39 -78 -163 -217t-197 -191q-49 -33 -80 -61q-45 -43 -112.5 -89t-100.5 -54q-45 -14 -78 -5t-72 46q-82 78 -82 360z" />
<glyph unicode="&#xdf;" horiz-adv-x="1271" d="M20 111q0 27 19.5 41t48.5 6q100 -25 332 317q96 141 123.5 236.5t29.5 292.5q2 139 7.5 184t27.5 100q31 82 62 115q27 29 80 61.5t92 40.5q43 10 63.5 9t93.5 -17q131 -29 191.5 -82t60.5 -137q0 -55 -40 -120.5t-134 -162.5l-16 -16q-53 -53 -58.5 -75.5t17.5 -102.5 q4 -16 6 -25q14 -55 14 -80.5t-14 -91.5q-18 -82 -40.5 -123t-78.5 -94q-55 -53 -87 -71.5t-70 -18.5q-86 0 -158 70q-47 45 -80 39.5t-68 -66.5q-29 -49 -103.5 -129t-129.5 -123q-49 -35 -105 -35q-47 0 -66.5 13.5t-19.5 44.5zM557 480q2 -36 41 -60q35 -23 93.5 -25 t94.5 17q49 27 77 68.5t48 119.5q18 68 20.5 94.5t-7.5 63.5q-16 63 -33 75.5t-72 6.5q-63 -8 -80 12q-16 20 -4 41q10 16 30.5 27.5t111.5 54.5q94 43 186 140t92 155q0 67 -121 112q-51 20 -112.5 23.5t-90.5 -12.5q-35 -20 -79.5 -68.5t-67.5 -91.5q-20 -37 -24.5 -68.5 t-4.5 -115.5q0 -127 -18 -191q-16 -74 -16 -125q0 -57 -33 -135q-33 -82 -31 -118z" />
<glyph unicode="&#xe0;" horiz-adv-x="634" d="M20 543q0 29 40 114.5t85 147.5q29 43 104 98.5t118 65.5q74 18 123 -10.5t47 -88.5q-2 -82 -56 -106q-43 -20 -63 27q-8 18 -8 45q0 41 -15.5 46t-66.5 -22q-68 -37 -126.5 -117.5t-58.5 -140.5q0 -25 6.5 -31t32.5 -6q43 2 70 19q29 16 88 17t98 -15q37 -16 99 -29 q117 -20 57 -82q-25 -27 -74 -31t-80 19q-23 16 -82 16t-108 -18q-53 -18 -113 -19q-39 0 -55 5.5t-33 27.5q-29 29 -29 68zM367 1499q4 6 24 6q33 0 76 -41q45 -39 82 -55q51 -23 42 -57.5t-63 -22.5q-130 28 -159 141q-6 23 -2 29z" />
<glyph unicode="&#xe1;" horiz-adv-x="669" d="M23 588q-12 55 47 143.5t147 147.5q127 84 203 2q33 -33 35 -46.5t-17 -58.5q-16 -41 -14 -121t20 -116q14 -35 0 -52q-23 -29 -59.5 -17.5t-62.5 54.5q-23 35 -42.5 38t-66.5 -21q-43 -20 -99.5 -23.5t-70.5 14.5q-14 20 -20 56zM150 649q2 -10 14 -10q14 0 79.5 52 t65.5 63q0 14 -14 28q-16 18 -33.5 11t-58.5 -48q-57 -59 -53 -96zM420 1227q0 70 127 250q16 23 43.5 26.5t46.5 -14.5q18 -18 9 -37.5t-58 -77.5q-63 -74 -101 -137q-68 -115 -67 -10z" />
<glyph unicode="&#xe2;" d="M20 592q0 72 100.5 202t198.5 187q61 37 103.5 35t81.5 -41q27 -27 34 -44.5t7 -58.5q0 -63 -31 -124q-31 -57 -31 -78t31 -60q27 -35 29 -50t-16.5 -30.5t-69.5 5.5q-55 20 -98.5 17t-96.5 -30q-66 -33 -126 -33t-87 33q-29 31 -29 70zM143.5 659.5 q-10.5 -43.5 16.5 -53.5q39 -14 131 52.5t125 132.5q27 51 29.5 74.5t-13.5 39.5q-31 29 -97.5 -12t-135.5 -131q-45 -59 -55.5 -102.5zM272 1202q-20 31 52 100.5t133 79.5q43 8 85 -1t64 -29q25 -23 67 -107t42 -110q0 -53 -39 -54q-43 2 -68 60q-2 8 -4 14 q-25 84 -81 102.5t-124 -32.5q-39 -33 -75.5 -39t-51.5 16z" />
<glyph unicode="&#xe4;" d="M20 559q0 18 27 69.5t53 80.5q41 49 132 114.5t128 71.5q94 16 137.5 -29t4.5 -118q-14 -27 -12 -41.5t22 -59.5q29 -53 33 -113.5t-19 -76.5q-23 -20 -52.5 0t-41.5 65q-12 47 -24 66q-20 25 -86 5t-150 -75q-33 -27 -70 -26q-25 0 -53.5 23.5t-28.5 43.5zM228.5 695.5 q7.5 -13.5 90.5 9.5q105 28 68 73q-16 20 -33.5 16.5t-62.5 -36.5q-70 -49 -62.5 -62.5zM265 1280q3 27 27.5 39t60.5 7t67 -23q49 -33 14 -62q-27 -20 -78 -20q-57 0 -71 16q-23 16 -20 43zM631.5 1239.5q-2.5 14.5 13.5 30.5q14 14 27 14q18 0 30.5 -19.5t12.5 -50.5 q0 -35 -13.5 -37.5t-44.5 25.5q-23 23 -25.5 37.5z" />
<glyph unicode="&#xe7;" horiz-adv-x="540" d="M20 428q0 152 119 310.5t246 181.5q82 14 121 -17q14 -10 14 -49t-14 -54.5t-53 -14.5t-60 18q-25 16 -55.5 -0.5t-87.5 -75.5q-78 -80 -115 -183.5t2 -135.5q18 -16 100 0t125 45q37 25 73 26.5t44 -20.5q8 -18 -53 -74l-61 -57l6 -74q4 -51 -2.5 -76.5t-36.5 -85.5 q-47 -88 -89 -137t-59 -35q-20 16 -15 45t40 92q43 78 43 140q0 61 -14 73q-14 10 -84 27q-133 33 -134 131z" />
<glyph unicode="&#xe8;" horiz-adv-x="743" d="M20 766q0 31 29 63q25 29 60 93q31 51 89 103t119 83q104 53 179 16t41 -125q-4 -14 -76 -70.5t-162 -117.5q-59 -39 -59 -57.5t41 -42t88 -29.5q43 -6 69.5 -28.5t16.5 -45.5q-12 -33 -134 -6t-174 74q-29 29 -53 20q-23 -6 -48.5 18.5t-25.5 51.5zM229 899 q10 -12 58 16q37 23 68.5 54t31.5 45q0 35 -59 0q-23 -14 -45 -35q-68 -63 -54 -80zM352 1563q37 37 82 -52q31 -63 164 -194q131 -131 125 -148q-20 -27 -75.5 -2t-133.5 96.5t-127 149.5q-74 111 -35 150z" />
<glyph unicode="&#xe9;" horiz-adv-x="638" d="M20.5 793q-0.5 51 16.5 79q14 29 102 120.5t121 111.5q37 23 49 22q25 0 59.5 -17t43.5 -32q14 -23 12 -62.5t-16 -76.5q-12 -31 -66.5 -105.5t-79.5 -95.5q-51 -43 31 -53q76 -10 90 -51q12 -35 -39 -41q-10 -2 -18 -2q-96 2 -180.5 38t-112.5 87q-12 27 -12.5 78z M127 838q12 -20 31 -27q20 -2 96 77t70 97q-23 57 -134 -53q-49 -45 -60 -62.5t-3 -31.5zM289 1186q-16 14 8 57q33 55 82 122t57 67q12 0 51 57q39 59 70 84q33 27 49 14q16 -16 9 -34.5t-50 -63.5q-55 -57 -55 -70q0 -8 -55 -65q-55 -53 -82 -107q-51 -94 -84 -61z" />
<glyph unicode="&#xea;" horiz-adv-x="499" d="M23 563q27 135 98.5 250t175.5 184q84 55 84 70q0 16 -39 68.5t-51 52.5q-18 0 -88 -80q-53 -59 -83 -73.5t-52 9.5q-20 18 -8 42t77 94q86 92 86 104q0 10 25 43q37 45 90 25q20 -8 80 -133q49 -98 58 -150.5t-13 -97.5q-18 -39 -27 -76q-16 -80 -110.5 -190.5 t-155.5 -120.5q-35 -6 -40 -14.5t-1 -49.5q2 -57 23.5 -69.5t83.5 10.5q43 16 56 16t25 -12q39 -41 -34 -74q-86 -39 -170 -14q-25 6 -39 18q-29 23 -44.5 72t-6.5 96zM197 760q0 -12 12 -12t68.5 60.5t56.5 72.5q0 41 -68 -23q-72 -66 -69 -98z" />
<glyph unicode="&#xeb;" horiz-adv-x="745" d="M20.5 557q-0.5 74 10.5 113q18 61 123.5 179t181.5 161q45 25 103.5 31t78.5 -15q45 -45 -45 -129q-145 -141 -260 -199q-68 -35 -95.5 -86t-5 -94t88.5 -55q57 -12 47 -49q-27 -41 -98 -45q-53 0 -80 15t-37 56q-12 43 -12.5 117zM203 1278q0 27 12 39t92 14 q59 0 84 -12t15 -41q-12 -31 -88 -47.5t-101 8.5q-14 12 -14 39zM623 1253q14 43 71 -12q29 -29 31 -45t-16 -33q-31 -25 -66.5 13t-19.5 77z" />
<glyph unicode="&#xee;" horiz-adv-x="491" d="M20.5 1155q-0.5 27 107 188.5t146.5 194.5q18 14 46 14t40 -14q14 -20 39 -145q23 -119 47 -172q25 -47 25 -82q0 -23 -5 -30t-26 -7q-35 0 -59.5 32.5t-50.5 118.5q-35 104 -47 105q-12 0 -62.5 -52.5t-77.5 -93.5q-80 -119 -106 -96q-16 12 -16.5 39zM43 559 q-16 59 18.5 174t81.5 164q23 20 54.5 19t46.5 -23q12 -20 -23 -66q-45 -55 -59.5 -91t-16.5 -101q-6 -84 11.5 -102.5t91.5 -10.5l78 10v-43q0 -37 -14.5 -52t-55.5 -23q-70 -14 -130 26.5t-83 118.5z" />
<glyph unicode="&#xef;" horiz-adv-x="718" d="M27 1227q-14 25 8.5 43t75.5 26q66 10 77 10.5t23 -12.5q14 -14 14 -40.5t-14 -39.5q-33 -25 -99.5 -20.5t-84.5 33.5zM188 643q33 238 70 322q16 41 36.5 37.5t31.5 -50.5q8 -45 -15 -164q-23 -109 -23.5 -169t19.5 -111q33 -88 -35 -88q-117 0 -84 223zM633 1278 q6 18 23.5 18t33.5 -18q12 -16 6 -34.5t-22 -18.5q-18 0 -32.5 18.5t-8.5 34.5z" />
<glyph unicode="&#xf3;" horiz-adv-x="710" d="M20 590q0 25 58.5 109.5t75.5 84.5q14 0 86.5 71t72.5 83q0 10 -30.5 36.5t-30.5 37.5q0 33 88 -4q51 -25 123 -31q63 -6 84.5 -20.5t21.5 -51.5q0 -23 -36.5 -99.5t-75.5 -131.5q-27 -41 -120 -107.5t-134 -74.5q-76 -18 -129.5 10t-53.5 88zM143 618q0 -68 136 25 q59 39 96 88t33 84q-6 55 -95 -14q-76 -59 -123 -110.5t-47 -72.5zM338 1169q0 25 254 295q84 90 96 47q2 -10 2 -28q0 -29 -22.5 -59.5t-120.5 -129.5q-143 -143 -176 -143t-33 18z" />
<glyph unicode="&#xf4;" horiz-adv-x="681" d="M29 672q23 111 94 231.5t145 169.5q49 35 87 39t85 -16q84 -41 95 -138q16 -119 -58 -247.5t-207 -216.5q-129 -84 -200.5 -31t-40.5 209zM104 604q0 -55 34 -61t91 37q76 59 116 103t71 105q33 63 41 128t-15 85q-14 14 -63 15q-41 0 -69.5 -22.5t-96.5 -110.5 q-33 -43 -71 -140.5t-38 -138.5zM250 1317q0 20 76 96t125 105q82 47 124.5 23.5t71.5 -132.5q33 -129 -6 -188q-16 -27 -43 -17q-18 6 -37.5 50t-25.5 100q-6 55 -23 61q-18 6 -90 -61q-72 -66 -105 -74q-27 -6 -47 5t-20 32z" />
<glyph unicode="&#xf6;" horiz-adv-x="858" d="M27 707q12 80 53 159.5t94 134.5t91 79t91 32q43 8 87 1t65 -26q66 -53 67 -256q2 -121 -19 -191.5t-81 -147.5q-57 -72 -106.5 -98.5t-122.5 -26.5q-84 0 -115 18q-57 39 -90 135t-14 187zM116 735.5q-30 -104.5 19 -200.5l29 -60l78 -4q49 -4 70.5 2t56.5 31 q100 68 137 282q12 72 11 90.5t-15 36.5q-20 19 -47 74q-23 47 -41 51q-59 6 -166 -98q-102 -100 -132 -204.5zM270 1423q-1 27 13 41q18 18 155 -8q43 -8 46 -28.5t-35 -41.5q-37 -18 -88.5 -19t-71.5 15q-18 14 -19 41zM735.5 1345q-4.5 28 9.5 46q14 16 45 13t44 -24 q14 -25 -19 -57.5t-57 -17.5q-18 12 -22.5 40z" />
<glyph unicode="&#xf9;" horiz-adv-x="706" d="M22 640q-4 28 1 108q14 231 69 290q25 27 41 15q18 -16 19.5 -62.5t-15.5 -142.5q-23 -129 -21.5 -168t27.5 -66q20 -18 30.5 -20t35.5 8q63 25 194 199q53 72 97.5 68.5t97.5 -83.5q59 -86 79.5 -171t-9.5 -111q-25 -20 -44.5 2t-41.5 94q-43 147 -84 148q-16 0 -54 -52 q-39 -55 -114 -125q-78 -76 -125 -84q-63 -10 -95 6.5t-59 71.5q-25 47 -29 75zM266 1612q-6 18 0 22t39 4q31 0 43 -7t27 -32q27 -45 111.5 -131t115.5 -98q39 -16 35 -37q0 -12 -19 -12q-39 0 -101 25.5t-97 56.5q-41 35 -91.5 104.5t-62.5 104.5z" />
<glyph unicode="&#xfa;" horiz-adv-x="804" d="M20.5 818.5q0.5 31.5 47.5 78.5q53 51 98 45t61 -72q12 -47 -12 -188q-47 -260 -10 -297q41 -41 114 39q102 106 162 221q41 76 70 92q39 18 55.5 -9.5t22.5 -121.5q8 -100 23.5 -138t60.5 -69q96 -68 63 -108q-16 -18 -47 -19q-33 0 -96.5 67t-77.5 116t-31 49 q-16 0 -49 -45q-49 -66 -118.5 -133.5t-100.5 -83.5q-41 -18 -71.5 -5t-63.5 62q-25 39 -29 96.5t6 206.5l11 117l-46 33q-43 35 -42.5 66.5zM303 1053q-53 0 43 129q61 82 94 114.5t105 83.5q53 41 71.5 47.5t34.5 -10.5q23 -23 4.5 -48.5t-118.5 -108.5q-86 -70 -150 -138 q-70 -70 -84 -69z" />
<glyph unicode="&#xfb;" horiz-adv-x="733" d="M20 631q0 45 50 196q49 147 49 181q0 61 35.5 103t66.5 15q41 -35 -18 -196q-43 -113 -68 -199q-23 -70 -23.5 -90t13.5 -49q12 -29 21.5 -34t37.5 -1q80 12 184.5 117.5t176.5 245.5l63 124l-43 86q-43 84 -53 134q-6 39 -18.5 49t-34 -4.5t-60.5 -57.5 q-43 -47 -63.5 -61t-44.5 -14q-82 0 16 124q41 52 117 132q72 76 121 30.5t80 -213.5q23 -119 49 -149q35 -43 38 -119t-28 -137q-16 -29 -18 -142q-2 -94 -10.5 -130.5t-28.5 -39.5q-14 -4 -27.5 15.5t-22 54.5t-8.5 74q0 57 -16 59q-18 2 -70 -65q-49 -68 -57 -68 q-12 0 -76 -55q-119 -102 -198 -103q-61 0 -96.5 50.5t-35.5 136.5z" />
<glyph unicode="&#xfc;" horiz-adv-x="690" d="M25.5 846q17.5 133 66.5 158q33 16 49 0q35 -27 0 -121q-16 -47 -17 -130t15 -100q29 -31 67 -5t77 100q12 23 34.5 61.5t40 69t27.5 65.5q45 129 107 80q29 -20 37 -71.5t10 -209.5q4 -205 -17 -221q-10 -8 -39 6q-55 29 -55 164q0 55 -14 56q-16 -2 -76 -95 q-61 -92 -85 -114.5t-63 -22.5q-104 0 -147 109q-35 88 -17.5 221zM88 1192q-16 33 0 51q23 18 59.5 14t65.5 -29.5t12 -47.5q-18 -33 -68.5 -29t-68.5 41zM516.5 1306.5q-13.5 34.5 11.5 61.5q14 14 27 14q20 0 57 -23.5t48.5 -44t9.5 -30.5t-23 -31l-26 -28l-46 24 q-45 23 -58.5 57.5z" />
<glyph unicode="&#x2000;" horiz-adv-x="819" />
<glyph unicode="&#x2001;" horiz-adv-x="1639" />
<glyph unicode="&#x2002;" horiz-adv-x="819" />
<glyph unicode="&#x2003;" horiz-adv-x="1639" />
<glyph unicode="&#x2004;" horiz-adv-x="546" />
<glyph unicode="&#x2005;" horiz-adv-x="409" />
<glyph unicode="&#x2006;" horiz-adv-x="273" />
<glyph unicode="&#x2007;" horiz-adv-x="273" />
<glyph unicode="&#x2008;" horiz-adv-x="204" />
<glyph unicode="&#x2009;" horiz-adv-x="327" />
<glyph unicode="&#x200a;" horiz-adv-x="91" />
<glyph unicode="&#x2010;" d="M49 641q-61 59 19 80q41 10 120 16q406 33 416 41q6 6 44 -1t52 -19q33 -29 -2 -58q-16 -14 -143 -26q-207 -16 -399 -45q-55 -8 -71.5 -6t-35.5 18z" />
<glyph unicode="&#x2011;" d="M49 641q-61 59 19 80q41 10 120 16q406 33 416 41q6 6 44 -1t52 -19q33 -29 -2 -58q-16 -14 -143 -26q-207 -16 -399 -45q-55 -8 -71.5 -6t-35.5 18z" />
<glyph unicode="&#x2012;" d="M49 641q-61 59 19 80q41 10 120 16q406 33 416 41q6 6 44 -1t52 -19q33 -29 -2 -58q-16 -14 -143 -26q-207 -16 -399 -45q-55 -8 -71.5 -6t-35.5 18z" />
<glyph unicode="&#x2013;" horiz-adv-x="1063" d="M61 641q-90 59 28 80q61 10 177 16q600 33 615 41q8 6 64.5 -1t76.5 -19q49 -29 -3 -58q-23 -14 -211 -26q-305 -16 -589 -45q-81 -8 -105.5 -6t-52.5 18z" />
<glyph unicode="&#x2014;" horiz-adv-x="2088" d="M100 641q-180 59 56 80q121 10 354 16q1200 33 1229 41q18 6 130 -1t154 -19q97 -29 -6 -58q-47 -14 -423 -26q-611 -16 -1178 -45q-162 -8 -211 -6t-105 18z" />
<glyph unicode="&#x2019;" horiz-adv-x="288" d="M22.5 773.5q-6.5 19.5 2 53t28.5 70.5q80 141 117 315q21 93 35 107q29 31 57 -2q12 -16 0 -82q-16 -102 -37.5 -165.5t-77.5 -170.5q-43 -82 -63.5 -113.5t-34.5 -31.5q-20 0 -26.5 19.5z" />
<glyph unicode="&#x201c;" horiz-adv-x="557" d="M24 158.5q7 17.5 33 58.5q45 70 45 105q1 30 7 71q6 23 13 31t23 8q20 0 40 -18.5t32 -46.5q12 -35 -15.5 -101.5t-70.5 -109.5q-41 -41 -65.5 -47.5t-40.5 20.5q-8 12 -1 29.5zM359.5 106.5q-1.5 26.5 15.5 51.5q18 28 51 229q4 39 39 75t63 1q18 -23 2 -148t-45 -176 t-58.5 -71.5t-49.5 -1.5q-16 14 -17.5 40.5z" />
<glyph unicode="&#x201d;" horiz-adv-x="423" d="M23 1055q10 51 59 30q51 -20 63 -79q2 -12 2 -23q0 -23 19 -39q18 -14 18 -61t-18 -62q-18 -14 -48 -2t-50 45q-23 35 -37 96.5t-8 94.5zM199 1015q-2 20 12 36q25 25 51.5 4t83.5 -105q43 -66 53.5 -98.5t-8.5 -50.5q-25 -25 -76 21t-94 130q-20 43 -22 63z" />
<glyph unicode="&#x2022;" horiz-adv-x="499" d="M21.5 971.5q7.5 67.5 60.5 124.5q35 37 68.5 41t93.5 -21q33 -16 45 -29.5t20 -48.5q16 -57 30.5 -69.5t55.5 -5.5q84 14 84 -50q0 -31 -31.5 -51t-121.5 -47q-125 -37 -183.5 -32t-87.5 55q-41 66 -33.5 133.5z" />
<glyph unicode="&#x202f;" horiz-adv-x="327" />
<glyph unicode="&#x205f;" horiz-adv-x="409" />
<glyph unicode="&#x20ac;" horiz-adv-x="978" d="M22.5 792.5q-8.5 20.5 16 38t72.5 23.5q45 6 74.5 22.5t29.5 36.5q0 14 -37 39q-51 39 -32.5 63.5t102.5 33.5q49 6 71.5 18t77.5 63q113 104 205 169t215 131q61 31 101 23.5t40 -50.5q-2 -41 -44 -67.5t-103 -26.5q-45 0 -186.5 -102.5t-141.5 -135.5q0 -14 140 -20 q117 -4 160.5 -22.5t50.5 -63.5q2 -20 -27 -57.5t-47 -37.5q-10 0 -6 -30q8 -39 -24 -55.5t-124 -18.5q-109 -2 -237 -12q-98 -6 -119 -12.5t-37 -34.5q-23 -39 -23 -99q0 -43 8.5 -60.5t45.5 -53.5l53 -54l96 4q59 4 93 12.5t81 32.5q109 55 119 27q4 -6 4 -16 q0 -29 -43 -66t-86 -45q-41 -6 -84 -27q-37 -20 -110 -20q-162 -2 -240 133q-27 43 -31 66.5t2 97.5l8 102l-36 17q-39 14 -47.5 34.5zM317 870q16 -12 175 -10q127 4 153.5 8t26.5 21q0 22 -41 51q-27 16 -53.5 22.5t-88.5 6.5q-74 0 -92 -6.5t-47 -34.5q-47 -47 -33 -58z " />
<glyph unicode="&#x25fc;" horiz-adv-x="798" d="M0 0v799h799v-799h-799z" />
</font>
</defs>
</svg>
