<?xml version="1.0" standalone="no"?>
<!DOCTYPE svg PUBLIC "-//W3C//DTD SVG 1.1//EN" "http://www.w3.org/Graphics/SVG/1.1/DTD/svg11.dtd" >
<svg xmlns="http://www.w3.org/2000/svg" xmlns:xlink="http://www.w3.org/1999/xlink" version="1.1">
<metadata></metadata>
<defs>
<font id="waynemedium" horiz-adv-x="516" >
<font-face units-per-em="2048" ascent="1638" descent="-410" />
<missing-glyph horiz-adv-x="860" />
<glyph horiz-adv-x="0" />
<glyph unicode="&#xd;" horiz-adv-x="681" />
<glyph unicode=" "  horiz-adv-x="860" />
<glyph unicode="&#x09;" horiz-adv-x="860" />
<glyph unicode="&#xa0;" horiz-adv-x="860" />
<glyph unicode="!" horiz-adv-x="477" d="M21.5 215.5q-2.5 14.5 13.5 30.5q14 16 44 12t44 -25q12 -20 -19 -51l-28 -30l-29 26q-23 23 -25.5 37.5zM133 506q-12 12 2 57q16 51 64.5 207t64.5 211q37 115 53 217q41 226 76 279q18 29 33 28q18 0 25.5 -8t5.5 -35.5t-11.5 -70.5t-29.5 -127q-51 -205 -62 -222 q-20 -37 -96 -340q-51 -209 -96 -210q-14 0 -29 14z" />
<glyph unicode="#" horiz-adv-x="1099" d="M28 1017q17 19 66 30q55 12 93 47.5t38 74.5t19.5 123t31.5 99q14 16 31 16q10 0 12.5 -17.5t-2.5 -76.5q-10 -106 -18 -139q-10 -47 6.5 -59.5t67.5 -2.5q53 14 98 14q43 0 82 41q29 29 35 48.5t10 78.5q4 82 20 129q10 23 23.5 35t25 10t17.5 -18q8 -20 -12 -115 q-18 -86 -18.5 -120.5t14.5 -49.5q14 -12 148 -15t200 7l63 10v-45q0 -33 -6 -39t-35 -6q-41 0 -75 13q-33 12 -103 -7q-74 -18 -137 -18q-66 0 -80 -14.5t-14 -77t14 -76.5t76 -14q92 0 158.5 -29t66.5 -66q0 -18 -51 -10q-96 12 -177 15.5t-93 -7.5q-16 -14 -24.5 -62 t-18.5 -187q-6 -104 -12.5 -134t-25 -50.5t-26.5 -22.5t-20 8q-29 31 -2 166q41 217 12 250q-14 16 -61.5 18t-75.5 -12q-51 -27 -66.5 -54.5t-17.5 -95.5q0 -84 -9.5 -115.5t-31.5 -31.5q-39 0 -41 123q-2 57 -19.5 74.5t-66.5 9.5q-47 -6 -62 12q-18 20 -3.5 37.5 t71.5 46.5l72 37l4 65q4 66 -12.5 83.5t-75.5 11.5q-63 -10 -80 12q-20 23 -3 42zM287 923.5q0 -63.5 16 -77.5q18 -14 115 2q94 14 110 26q15 13 15 89v77h-76q-121 -2 -164 -39q-16 -14 -16 -77.5z" />
<glyph unicode="$" horiz-adv-x="839" d="M23 406q10 12 59 -23q51 -37 164 -68q115 -33 176 35q18 23 40.5 138.5t29.5 238.5l6 92l-49 35q-29 18 -49.5 45t-45.5 78q-109 229 66 323q55 31 115 39q47 8 60.5 25.5t33.5 95.5q27 92 71 92q12 0 13.5 -16t-4.5 -72q-6 -76 4 -94t63 -33q45 -12 44 -25.5t-50 -17.5 q-63 -8 -87 -40.5t-52 -151.5q-35 -135 -27 -203q6 -49 15.5 -65.5t48.5 -45.5q55 -43 76.5 -79.5t21.5 -92.5q0 -59 -35 -117.5t-96 -103.5q-119 -84 -164 -186q-27 -57 -41 -57t-31 38q-14 29 -25.5 35t-54.5 6q-68 2 -134 27t-111 68q-68 61 -51 80zM387 1094 q0 -41 8 -59.5t45 -53.5t50.5 -43t27.5 0q25 16 41 92t12 150l-4 80h-39q-66 0 -103.5 -45.5t-37.5 -120.5zM522 434q16 -18 34.5 -11t57.5 48q66 70 76 118t-33 91q-31 29 -47 30t-30 -24q-23 -41 -45.5 -140.5t-12.5 -111.5z" />
<glyph unicode="%" horiz-adv-x="1128" d="M20 1112q3 178 140 250q37 20 49 20q10 0 65 -55q45 -43 125 -106q119 -94 119 -213q2 -76 -66.5 -116t-201.5 -38q-86 0 -122 20.5t-73 94.5q-23 37 -29 65.5t-6 77.5zM70 344q0 8 51 65.5t123 125.5q180 182 225 235q66 78 166 218t151 224q70 114 144 218 q16 23 35.5 22.5t33.5 -22.5q12 -18 -81 -152q-262 -377 -490 -627q-49 -53 -100.5 -119.5t-96.5 -115.5q-66 -72 -65 -80q0 -10 -29 -27q-31 -16 -49 0t-18 35zM72 1104.5q2 -23.5 28 -76.5q29 -57 67 -76.5t118 -19.5q88 0 124.5 22.5t36.5 77.5q0 35 -8 52.5t-43 50.5 q-58 53 -78 63q-29 14 -39 11t-30 -27l-21 -31l-39 25q-41 25 -62.5 21.5t-37.5 -34.5q-18 -35 -16 -58.5zM606 541q0 57 19 110q18 55 10 76q-19 59 59 96q47 20 91 21.5t116 -17.5q76 -20 111 -39.5t63 -60.5q106 -158 -155 -264q-313 -125 -314 78zM704.5 528.5 q4.5 -14.5 16.5 -24.5q23 -16 113 5t141 58q45 33 31 83t-80 85q-27 12 -76 13q-29 0 -42 -6.5t-28 -26.5q0 -2 -12 -19.5t-19.5 -30t-18.5 -33t-16 -36.5t-9.5 -34.5t0 -33z" />
<glyph unicode="&#x26;" horiz-adv-x="882" d="M20 909q0 47 54.5 94t146.5 82q72 27 90 27q31 2 78 -18.5t82 -49.5q39 -33 56.5 -38t25.5 16q8 18 22 18q6 0 9.5 -4t4.5 -18t1 -38t-4 -65q-6 -111 7 -134t85 -29q61 -6 63 -25q2 -14 -47 -14q-55 0 -80.5 -18.5t-25.5 -59.5q0 -43 -18.5 -60.5t-40 0t-27.5 60.5 q-8 45 -48 68.5t-124 33.5q-137 16 -197.5 38t-87.5 65q-25 41 -25 69zM119 916.5q-4 -29.5 41 -66.5q41 -33 143 -55q102 -23 147.5 -10.5t45.5 63.5q0 37 -15.5 65.5t-60.5 75.5q-35 37 -52.5 44t-62.5 7q-41 0 -62.5 -8t-62.5 -39q-57 -47 -61 -76.5zM801 706.5 q0 18.5 30.5 18.5t30.5 -18.5t-30.5 -18.5t-30.5 18.5z" />
<glyph unicode="(" horiz-adv-x="505" d="M20.5 648q-0.5 28 16.5 95q23 92 65 203q31 76 91.5 176.5t91.5 124.5q20 16 51 68.5t70 83.5q72 55 79 4q4 -23 -67 -92q-96 -92 -178 -215t-119 -232q-27 -82 -23 -200q0 -82 6.5 -104.5t28.5 -45.5q33 -37 66.5 -53.5t85.5 -22.5q45 -8 81.5 -30.5t36.5 -40.5 q0 -16 -26 -41l-29 -27l-125 57q-109 49 -139.5 83t-50.5 126q-12 55 -12.5 83z" />
<glyph unicode=")" horiz-adv-x="307" d="M35 1464q18 18 48 11t44 -31q29 -57 67.5 -176t61.5 -215q41 -178 28.5 -303t-87.5 -316q-47 -119 -70 -152.5t-55 -33.5q-66 0 26 172q61 117 84 211t19 223q-6 158 -44 289t-104 213q-57 71 -18 108z" />
<glyph unicode="*" horiz-adv-x="585" d="M22 867q-12 34 44 57q25 8 30.5 18t3.5 37q-6 90 82 12q39 -35 60.5 -28.5t35 55.5t31 61.5t68.5 5.5q39 -6 57 -1.5t41 24.5q33 27 48.5 29t31.5 -17q16 -20 2 -40.5t-72 -59.5q-123 -84 -110 -117q8 -16 71 -31q72 -16 96.5 -35.5t18.5 -54.5q-31 -143 -151 -69 q-45 29 -58.5 17.5t-7.5 -73.5q4 -41 2 -54t-14 -13q-16 0 -49 29.5t-33 44.5q0 27 -23 6q-14 -10 -22 -33q-14 -37 -37 -33q-14 4 -17.5 22.5t-0.5 88.5l2 102l-50 8q-68 8 -80 42z" />
<glyph unicode="+" horiz-adv-x="796" d="M20 930q0 10 62.5 18t134.5 8t85 21.5t7 124.5q-8 105 8 121q16 18 46 10t45 -33q14 -33 14 -123q0 -94 19.5 -108.5t115.5 4.5q98 20 133 18t60 -26l26 -29l-28 -29q-31 -27 -58 -18q-27 8 -135 -8l-109 -15v-80q0 -82 21 -133q14 -37 14 -47t-14 -24 q-12 -14 -21.5 -14.5t-29.5 10.5q-55 31 -74 204q-8 63 -23 74q-16 12 -116 16q-74 4 -128.5 21.5t-54.5 36.5z" />
<glyph unicode="," horiz-adv-x="163" d="M23 199q-8 12 12 100q20 86 14 172q-4 59 -1 70.5t22 11.5q39 0 69 -102q20 -70 -35 -187q-37 -80 -67 -78q-8 2 -14 13z" />
<glyph unicode="-" d="M20 754q1 10 11 24q16 18 66 18.5t118 -18.5q68 -18 135 -18q82 0 114 -9.5t32 -31.5q0 -106 -310 -35q-164 39 -166 70z" />
<glyph unicode="." horiz-adv-x="258" d="M22.5 398q-10.5 65 32.5 108q25 25 79 24.5t79 -26.5q20 -20 23.5 -71.5t-17.5 -78.5q-16 -20 -58 -31.5t-77 -3.5q-51 14 -61.5 79z" />
<glyph unicode="/" horiz-adv-x="854" d="M27 197q-18 18 15.5 83.5t141.5 217.5q137 199 150 223q25 41 78 113q45 61 113.5 189t99.5 214q20 51 72 142t79 122q33 37 51 25q6 -2 7 -13q0 -14 -17 -32q-20 -20 -141 -262q-131 -258 -133 -263q-10 -12 -31 -55q-25 -55 -70 -129t-69 -102q-51 -57 -209 -322 q-35 -59 -55.5 -90t-37 -50.5t-24.5 -18.5t-20 8z" />
<glyph unicode="0" horiz-adv-x="663" d="M20 889q2 39 35 149.5t51 137.5q2 6 28 43.5t40 60.5q12 18 22.5 35.5t13.5 28t1 10.5q-31 12 -37 23.5t8 33.5q14 29 40 39t106 18q94 10 120.5 9.5t36.5 -15.5q16 -18 9 -45q-8 -29 69 -178q51 -104 63.5 -141t16.5 -101q6 -123 -44 -220t-165 -185q-201 -154 -321 -25 q-37 41 -66 164q-27 121 -27 158zM96 874q0 -176 76 -256q31 -33 88 -30.5t109 37.5q53 37 110.5 100t73.5 104q41 100 47 139.5t-8 98.5q-39 140 -125 240q-43 51 -57 51q-23 0 -81.5 -36t-92.5 -71q-49 -49 -95 -155q-31 -74 -38 -110t-7 -112z" />
<glyph unicode="1" horiz-adv-x="284" d="M43 330q-47 31 4 184q63 193 92 363q12 80 27 139q12 55 10 217q-2 156 6 203q4 27 12.5 36t24.5 9q27 0 39 -17q10 -16 4 -148t-20 -190q-14 -68 -15 -104q-4 -43 -39 -225q-39 -188 -49 -303q-6 -74 -13 -99.5t-28 -46.5q-20 -20 -30.5 -23t-24.5 5z" />
<glyph unicode="2" horiz-adv-x="638" d="M31.5 431.5q29.5 115.5 89.5 174.5l45 47q104 -8 205 -16l35 45q37 49 73 141q29 66 36 100.5t7 112.5t-6 109t-33 82q-55 113 -134 127t-220 -64q-63 -35 -86 -6q-16 20 14 55q25 25 85.5 53t113.5 40q47 8 70 10q33 2 78 -13.5t65 -35.5q35 -31 74 -121t51 -164 q10 -57 9 -88t-17 -96q-18 -74 -37 -118t-72 -138q-31 -57 -22.5 -81t73.5 -61q61 -39 76 -55q14 -20 14 -46t-14 -40q-41 -41 -131 41q-35 33 -55.5 44t-48.5 11q-31 0 -53.5 -15t-82.5 -73q-66 -63 -120 -94t-74 -12q-37 29 -7.5 144.5zM119 471q0 -27 28 -27 q27 0 63 35.5t28 55.5q-12 20 -39 17t-53.5 -28.5t-26.5 -52.5z" />
<glyph unicode="3" horiz-adv-x="710" d="M37 553q4 0 20.5 -19.5t30.5 -44.5q31 -55 90.5 -99t100.5 -44q55 0 161.5 70.5t134.5 126.5q20 41 12.5 65.5t-57.5 75.5q-59 57 -111 80.5t-149 34.5q-121 12 -128 46t106 68q74 23 156.5 70t138.5 100q37 35 44 52.5t7 73t-6 69.5t-33 31q-72 45 -182 6 q-109 -39 -109 12q0 29 22.5 43.5t98.5 28.5q158 31 221 -6q18 -8 56 -76q25 -49 27.5 -67.5t-9.5 -69.5q-12 -66 -49 -113t-119 -102q-86 -59 -88 -72q-4 -12 16.5 -32.5t71.5 -49.5q121 -70 150.5 -160t-35.5 -188q-51 -74 -207 -154q-217 -113 -354 113q-63 119 -29 131z " />
<glyph unicode="4" horiz-adv-x="622" d="M20 874q-2 47 29 103q10 20 38 68.5t30 50.5q4 8 63.5 109.5t71.5 146.5q12 47 24 65q20 25 46 8.5t26 -53.5q0 -33 -33 -88q-162 -287 -176 -311q-18 -35 -20 -46.5t10 -25.5q10 -14 29.5 -16t79.5 2q14 2 43 4q55 4 78.5 6t57.5 9t44 9.5t27.5 17.5t19.5 23.5t7 35 t5 46v62.5v30q0 147 8.5 190.5t32.5 43.5q27 0 35 -66.5t4 -257.5q-2 -150 -8 -199.5t-25 -99.5q-29 -72 -37 -215q-10 -172 -38 -172q-12 0 -35 21q-20 23 -21.5 43t8.5 114q20 162 22.5 197t-9.5 49q-14 18 -193 19q-113 0 -159 6t-63 20.5t-22 50.5z" />
<glyph unicode="5" horiz-adv-x="786" d="M20 389q8 10 113 -47q43 -25 125 -21.5t135 29.5q66 33 162 135.5t111 153.5q33 119 -15 213q-31 63 -72.5 90t-111.5 27q-66 0 -97.5 -15.5t-99.5 -79.5q-88 -80 -108.5 -61.5t-14.5 170.5t-6 197q-10 39 -1 79t32 58q20 14 34.5 14t39.5 -16q25 -18 121 -21.5t176 13.5 q160 29 168 22q2 -2 2 -22v-4q0 -20 -23.5 -26.5t-169.5 -23.5q-18 -2 -26 -4q-172 -20 -218 -53q-16 -12 -15 -75.5t18 -78.5q14 -14 79 -2q139 27 236 0q70 -20 121 -111t51 -192q-2 -63 -21.5 -111t-78.5 -137q-37 -55 -68 -84.5t-92 -68.5q-219 -145 -367 -70 q-18 10 -49 39t-52.5 54.5t-17.5 29.5z" />
<glyph unicode="6" horiz-adv-x="935" d="M20 496q2 115 37 190.5t164 255.5q78 104 158 252q25 49 76 116.5t80 92.5q27 25 41 27t30 -13q18 -18 7 -40.5t-70 -90.5q-43 -49 -80 -97t-78 -106.5t-70 -97.5q-92 -117 -167.5 -265.5t-75.5 -207.5q0 -100 84 -170t200 -70q41 0 44 17.5t-21 91.5q-25 70 -12 129 q10 59 30.5 89t67.5 54q41 20 128 26.5t140 -7.5q33 -8 95.5 -65.5t74.5 -90.5q25 -63 3.5 -137t-75.5 -115q-35 -27 -156.5 -51.5t-223.5 -24.5q-131 0 -250 41t-154 101q-18 29 -22.5 57.5t-4.5 108.5zM440.5 457q-6.5 -47 30.5 -117q25 -45 37 -53t57 -11q121 -8 223 60 q37 27 44.5 40t7.5 56q0 49 -21.5 101.5t-46.5 60.5q-20 8 -127 8q-76 0 -95.5 -5t-47.5 -34q-55 -59 -61.5 -106z" />
<glyph unicode="7" horiz-adv-x="833" d="M41 1309q-68 57 82 82q16 2 37 6q25 2 182.5 20.5t235.5 24.5q125 12 155.5 10t52.5 -22q29 -27 27 -43.5t-39 -59.5q-70 -84 -110 -213q-23 -68 -77.5 -175.5t-101.5 -172.5q-55 -80 -84 -150q-35 -74 -59 -108q-23 -33 -33 -74q-6 -27 -14 -33t-35 -6q-29 0 -36 5.5 t-7 31.5q0 35 44 110.5t106 151.5q94 109 213 410q16 41 25 67.5t18.5 54t13.5 43t5 32t-1 23.5t-10 15.5t-17.5 11.5t-28 5t-34.5 1t-45 -1q-96 -4 -279 -33q-102 -18 -138 -21.5t-48 7.5z" />
<glyph unicode="8" horiz-adv-x="743" d="M27 651q12 55 65 139t96 111l43 31l-6 84q-8 90 14.5 153.5t90.5 128.5q68 68 123 88q53 18 109 19.5t73 -16.5q14 -18 6 -66q-4 -31 2 -50.5t35 -64.5q45 -63 45 -121q2 -55 -17.5 -89.5t-72.5 -73.5q-57 -41 -68 -60q-6 -18 41 -73q72 -88 94.5 -126t22.5 -79 q0 -82 -63.5 -129t-208.5 -76q-195 -37 -312 14q-68 29 -99.5 101.5t-12.5 154.5zM98 594q0 -45 5.5 -63.5t23.5 -34.5q57 -51 211 -52q190 0 272 70q23 18 30 34.5t7 51.5q0 68 -43 114t-164 107q-51 27 -121.5 26t-111.5 -30q-47 -31 -78 -92t-31 -131zM322 1008 q18 -18 42.5 -22.5t106.5 -4.5q84 0 107.5 4t42.5 23q27 29 26 90q0 43 -8 60t-43 52q-33 31 -52.5 40.5t-49.5 9.5q-92 0 -162 -103q-68 -96 -10 -149z" />
<glyph unicode="9" horiz-adv-x="720" d="M20 1079q0 27 24 87.5t44 86.5q27 37 95.5 78.5t125.5 57.5q63 16 133 16q51 2 75 -6t83 -49q70 -49 87.5 -83t8.5 -102q-8 -53 -55 -116q-20 -25 -34.5 -53.5t-20.5 -45t-18.5 -56.5t-18.5 -58q-18 -49 -14 -220q4 -164 -7 -182q-8 -14 -37.5 -14t-39.5 14 q-18 23 -22.5 67t5.5 91q12 61 37 192q10 49 14 71t2 45.5t-6 28.5t-24.5 7t-39 -2t-63.5 -14q-94 -20 -149 -14.5t-103 40.5q-31 25 -56.5 66t-25.5 67zM94 1102q0 -45 39 -82q29 -29 49.5 -34t85.5 -5q160 0 218.5 48t58.5 183q0 45 -6 62.5t-35 44.5q-41 39 -82 37 q-100 0 -214 -89t-114 -165z" />
<glyph unicode=":" horiz-adv-x="403" d="M25 378q12 50 47 87q41 41 90 42t88 -38q51 -49 33.5 -102.5t-97.5 -94.5q-51 -27 -95 -21.5t-58 38.5q-20 39 -8 89zM197 1004q0 49 17 67.5t67 18.5q53 0 77.5 -25t24.5 -78q0 -33 -6 -48t-27 -32q-53 -41 -103 -9t-50 106z" />
<glyph unicode=";" horiz-adv-x="589" d="M41 27q23 31 65 79q88 94 95 125q8 33 0 125q-8 91 6 109q35 41 67 -25q18 -37 25 -98q8 -82 -44 -172t-142 -147q-137 -86 -72 4zM351.5 1001.5q17.5 59.5 72.5 65.5q86 12 123 -35q43 -57 8 -115.5t-111 -58.5q-35 0 -49 6t-26 25q-35 53 -17.5 112.5z" />
<glyph unicode="&#x3c;" horiz-adv-x="890" d="M26.5 706.5q-14.5 26.5 8.5 53.5q23 25 65 39q41 14 252 153.5t271 192.5q63 58 96 74q20 10 41.5 14t35 1t13.5 -13q0 -35 -172 -148q-352 -233 -401 -282q-31 -31 -17 -52q8 -16 43 -31.5t187 -72.5q129 -51 237.5 -104.5t128.5 -77.5q33 -35 48.5 -70t2.5 -47 q-23 -25 -57.5 -9.5t-95.5 72.5q-82 78 -113 88q-37 10 -146.5 53.5t-144.5 61.5q-47 23 -106 29q-66 6 -114 27.5t-62.5 48z" />
<glyph unicode="=" horiz-adv-x="829" d="M27 1014q8 12 36.5 15t126.5 3q104 -2 193.5 8.5t191.5 8.5q119 0 154 -12.5t35 -49.5q0 -39 -25.5 -46t-99.5 9q-88 20 -229 13q-195 -14 -276 -12.5t-99 20.5q-20 20 -8 43zM45 779q0 15 23 40q47 51 108 8q47 -33 422 7q109 10 142.5 1.5t58.5 -53.5q16 -33 0 -51 q-27 -35 -166 2q-61 14 -94 13t-158 -21q-145 -25 -214 -21.5t-99 35.5q-23 25 -23 40z" />
<glyph unicode="&#x3e;" horiz-adv-x="901" d="M20.5 1174.5q-3.5 30.5 14.5 46.5q16 18 33.5 13t56.5 -36q43 -37 98 -82q57 -43 253 -137t272 -113q115 -31 131 -74.5t-72 -93.5q-145 -82 -492 -422q-154 -152 -168 -126q-6 10 0 40q20 88 82 134q39 25 133 112q82 78 187 166q133 113 156.5 135.5t19.5 38.5 q-10 18 -111 58q-55 23 -254 114q-78 37 -183 96.5t-130 79.5q-23 20 -26.5 50.5z" />
<glyph unicode="?" horiz-adv-x="628" d="M22.5 1302.5q-4.5 6.5 2.5 28.5q12 51 67 85t168 59q68 14 94 10q115 -18 144.5 -30.5t56.5 -49.5q41 -57 50 -102.5t-7 -108.5q-18 -66 -38.5 -104.5t-57.5 -81.5q-35 -39 -52.5 -82t-9.5 -74q6 -27 -14 -74q-18 -47 -12 -143l8 -96l-33 4q-72 8 -86 178q-8 92 4 138 t55 95q117 127 156 215q29 68 20.5 105t-61.5 94q-27 29 -45 34t-92 5q-86 0 -126 -13.5t-89 -56.5q-45 -41 -78 -41q-20 0 -24.5 6.5zM262 315q0 40 49 103q39 49 57.5 58t37.5 -11q18 -16 14 -45t-27 -58q-27 -33 -43 -69q-23 -49 -55.5 -41t-32.5 63z" />
<glyph unicode="@" horiz-adv-x="991" d="M23.5 824.5q17.5 146.5 97.5 236.5q37 43 99.5 78t127.5 49q45 10 135 6q193 -12 308 -162q39 -53 48 -75.5t9 -69.5q0 -57 -20.5 -94t-67.5 -66q-35 -23 -134.5 -49.5t-146.5 -26.5q-25 0 -126 -24.5t-130 -24.5q-43 0 -44 -16.5t38 -53.5q76 -72 259 -123t364 -51 q131 0 131 -16q0 -20 -203 -24.5t-291 14.5q-143 29 -254.5 94.5t-159.5 151.5q-57 100 -39.5 246.5zM104 868q0 -59 13 -59q12 0 59 31q51 33 146.5 68.5t134.5 35.5q49 0 98 -37t57 -80q4 -31 13.5 -37t44.5 -6q51 0 82 31q20 23 22 36t-10 54q-12 45 -63.5 105.5 t-98.5 87.5q-33 16 -156.5 16t-164.5 -18t-107 -92q-49 -51 -59.5 -72t-10.5 -64zM203 688h76q57 0 73.5 7t55.5 44q51 51 51 92q0 37 -26.5 37t-113.5 -34q-80 -35 -98 -51.5t-18 -53.5v-41z" />
<glyph unicode="A" horiz-adv-x="892" d="M26 404q13 48 52 102q43 59 125 205q43 72 88 129q51 61 59 92q8 33 25 49q20 23 66 142.5t53 166.5q8 58 16 70q7 13 16 13q16 -1 38 -41q34 -64 36 -144q0 -57 23 -119q12 -31 39.5 -127t54.5 -154q39 -88 49 -135t31 -88q75 -145 75 -186q0 -9 -4 -14q-16 -18 -41 -19 q-18 0 -29.5 21.5t-33.5 103.5q-41 139 -86 177t-193 59q-63 8 -106 24q-44 15 -66 15q-7 0 -11 -1q-20 -6 -44 -49q-6 -10 -47 -79.5t-68.5 -124t-36.5 -91.5q-10 -51 -30.5 -69.5t-44.5 4.5q-10 12 -10 32q0 16 5 36zM381 862q0 -47 117 -84q56 -17 86 -17q18 1 28 7 q16 11 17 51q0 20 -4 47q-15 78 -56 168q-43 92 -59 92t-72.5 -115.5t-56.5 -148.5z" />
<glyph unicode="B" horiz-adv-x="837" d="M20 444l43 62q39 60 49 110q5 27 5 74q0 40 -4 94q-21 320 -21 450q0 71 6 87q8 18 23.5 26.5t50.5 14.5q60 11 123 27q59 16 103 16q30 0 52 -7q56 -18 130 -93q110 -118 110 -198q0 -30 -39 -106l-39 -71l31 -21q31 -20 94 -82q53 -49 69 -90q10 -26 11 -57 q0 -19 -4 -41q-12 -66 -96 -154t-185 -139q-44 -24 -116 -24h-3q-71 0 -145 18q-48 12 -83 12q-15 0 -27 -2q-27 -4 -42.5 3t-45.5 40zM131 1112q0 -119 39 -149.5t188 -30.5h131l52 51q37 35 45 52.5t8 58.5q0 59 -19 92q-18 35 -67 79t-84 56q-43 12 -49 12 q-150 -27 -197 -69.5t-47 -151.5zM160 612q2 -57 4 -84.5t8 -57.5t12 -40t24.5 -23.5t36 -17.5l52.5 -12q64 -15 113 -15q42 0 72 10q68 22 151 113q39 41 72.5 100.5t33.5 88.5q0 20 -53 70t-100 77q-52 24 -106 24q-37 0 -74 -11q-23 -8 -80 -8q-24 0 -54 1l-94 7l-12 -33 q-9 -22 -9 -93q0 -40 3 -96z" />
<glyph unicode="C" horiz-adv-x="776" d="M25 664q-4 49 -4 93q-1 123 29 211q40 118 163 253q43 49 132 113.5t122 72.5q19 4 39 4q38 -1 80 -15q64 -22 69 -55q2 -14 -4 -16t-30 2q-17 3 -36 3q-57 0 -131 -31q-100 -42 -169 -113q-57 -63 -88 -112.5t-58 -131.5q-31 -88 -32 -209v-9q0 -115 26 -187 q18 -45 54 -88t75 -62q80 -39 239 -40q39 0 83 3q38 1 67 1q57 0 77 -5q28 -8 28 -43t-27 -42q-15 -4 -49 -4q-29 0 -72 3q-305 25 -403 76q-90 45 -130 117.5t-50 210.5z" />
<glyph unicode="D" horiz-adv-x="888" d="M22 1244q5 68 15 88t41 28q38 10 80 11q93 0 209 -51q168 -73 323 -224q74 -74 99.5 -108t48.5 -89q28 -75 30 -109v-6q0 -35 -16 -114q-12 -61 -28.5 -87t-84.5 -94q-147 -150 -293 -165q-31 -2 -41 0t-10 14q0 20 25 20q57 0 162.5 70t148.5 133q47 76 59 118 q5 18 4 41q0 30 -8 68q-14 63 -60 161t-77 124q-57 51 -204.5 127t-237.5 82q-27 2 -45 2q-27 0 -33 -4q-24 -15 -24 -122q0 -22 1 -48q2 -51 21 -369q12 -229 22.5 -291.5t38.5 -74.5q31 -16 64 -17q35 0 35 -14q-2 -20 -47 -27q-109 -17 -137 -17h-3q-24 1 -41 28 q-12 18 -17 67t-7 185q-6 289 -12 467q-3 70 -3 122q0 44 2 75z" />
<glyph unicode="E" horiz-adv-x="823" d="M22.5 1362.5q6.5 14.5 51.5 32.5q16 7 52 7q24 0 56 -3q76 -8 330 -8q252 -2 270 -19q20 -18 18.5 -34.5t-28.5 -41.5q-23 -20 -32 -21t-38 13q-109 51 -340 51h-4h-74.5t-48 -6t-32.5 -11t-13.5 -26.5t-7.5 -39v-62.5v-6q2 -94 14.5 -185.5t28.5 -105.5q12 -12 154 -16 q141 -4 160 -21q18 -14 20 -44t-14 -40q-11 -5 -75 -5q-32 0 -77 1q-39 0 -56.5 1t-41 -2t-30.5 -3t-18 -11.5t-12.5 -17.5t-3.5 -27.5t0 -35.5t5 -51q16 -242 32 -260q12 -12 197 -15q164 -4 218 -12t54 -35q0 -25 -46 -32t-204 -9q-178 -2 -200 -20q-23 -16 -63 -16.5 t-54 16.5q-12 14 -12 69q0 63 -12.5 295t-22.5 338q-16 168 -34.5 250t-49.5 123q-23 31 -16.5 45.5z" />
<glyph unicode="F" horiz-adv-x="952" d="M23 1402q-5 11 4 25q7 13 29 17q10 2 32 2q25 0 66 -2q76 -4 128 -4t81.5 1t108 5t144.5 6q116 4 184 4q60 0 82 -3q50 -7 50 -50q0 -41 -20 -45h-6q-22 0 -72 26q-53 29 -81 32q-9 1 -27 1q-35 0 -101 -4q-285 -14 -367 -45l-47 -16l8 -121q8 -121 12 -205 q0 -49 6.5 -70.5t24.5 -42.5l31 -32l186 4q77 2 118 2q31 0 42 -1q25 -3 25 -24q0 -51 -232 -61q-139 -6 -153 -19q-15 -12 -17 -212v-51q0 -156 14 -208q7 -33 7 -59q0 -20 -4 -37q-9 -39 -35 -39q-37 0 -45 29q-16 43 -19 387q-2 281 -10 383t-43 250q-16 68 -27.5 92 t-42.5 49q-29 25 -34 36z" />
<glyph unicode="G" horiz-adv-x="952" d="M47 874q33 115 78 191t137 170q170 174 293 223q48 20 104 20q51 0 109 -16q104 -29 139 -84q25 -37 -22 -22q-18 4 -47 18q-65 31 -140 31q-47 0 -98 -12q-59 -14 -115.5 -57.5t-169.5 -155.5l-129 -133l-39 -121q-47 -148 -47 -241v-15q4 -95 66 -181q37 -51 86 -76.5 t160 -56.5q73 -17 126 -17h16q58 3 130 36q53 23 98 66.5t56 80.5q2 9 2 20q0 24 -9 56q-14 49 -14 97t-14 63q-18 12 -158 18q-88 0 -120.5 5t-45.5 20q-20 20 -8 41q10 14 47 17t172 3q133 -2 172 -6t53 -18t17 -56v-36q0 -54 -4 -168q-2 -104 -5 -152.5t-11.5 -81.5 t-18.5 -40t-31 -7q-29 0 -55 20q-18 12 -30.5 12.5t-51.5 -14.5q-48 -18 -161 -18q-32 0 -69 1q-169 7 -243 36q-150 59 -204 202q-27 73 -27 158q0 84 26 180z" />
<glyph unicode="H" horiz-adv-x="958" d="M20 1333h31q23 0 31 -13t20 -71q18 -84 19 -114q0 -35 24 -134q49 -223 50 -309q0 -59 38 -200q37 -137 42.5 -172t-7.5 -54q-14 -17 -28 -17q-19 0 -39 30q-18 29 -49 179t-43 265q-6 70 -40 265.5t-40 256.5zM219 844q0 25 12.5 36t56.5 16q31 4 75 4q17 0 37 -1 q68 -2 200 -10q53 -6 90 -6q26 0 44 3q44 7 52.5 21.5t-0.5 61.5q-2 14 -9 74.5t-15.5 105.5t-16.5 65q-15 33 -15 69q0 13 2 25q7 50 42 50q10 0 39 -23.5t29 -34.5q0 -10 12 -112q2 -33 18 -189q8 -86 39 -125q25 -35 25 -48t-29 -50q-25 -32 -27 -54q-1 -7 -1 -18 q0 -29 4 -88q18 -262 41 -303q14 -27 14 -56.5t-14 -41.5q-14 -14 -42 -14t-40 16q-33 43 -45 385q-8 166 -19 178q-8 10 -152 22q-123 10 -226 9h-35h-35q-57 0 -81 5q-30 7 -30 28z" />
<glyph unicode="I" horiz-adv-x="843" d="M20 1360q5 13 185 13h73q252 -3 345 -19q76 -16 127 -19q49 -2 67.5 -25.5t-12.5 -49.5q-7 -5 -20 -5q-21 0 -58 13q-47 18 -147 19h-10q-90 0 -111 -17q-10 -10 -10 -181q0 -73 2 -176q4 -283 13 -390t34 -144q14 -23 31.5 -28t82.5 -7q98 0 133 -9t35 -32 q0 -20 -32.5 -29.5t-118.5 -11.5q-82 -2 -103 -20q-25 -18 -49 -16.5t-69 26.5q-35 16 -52.5 18t-58.5 -6q-65 -17 -103 -17q-42 0 -51 21q-9 25 15 35q20 8 65 8h19h28q53 0 82 6l33 7l-6 165q-31 743 -57 779q-10 12 -134 20q-78 2 -105.5 8.5t-41.5 22.5q-25 25 -21 41z " />
<glyph unicode="J" horiz-adv-x="573" d="M20 403q5 24 26 24q24 0 71 -32q59 -41 138 -63q55 -16 96 -16q18 0 34 3q35 6 49.5 15.5t28.5 38.5q16 31 15 55.5t-25 138.5q-37 164 -45 242q-40 331 -40 473q0 87 15 104q14 20 33 21q25 0 33 -27q5 -16 5 -46q0 -22 -3 -52q-4 -26 -4 -62q0 -19 1 -40q3 -62 7 -92.5 t13 -91t13 -95.5q16 -125 45 -299q28 -180 28 -227q0 -46 -40 -84q-27 -27 -44 -35t-50 -8q-104 0 -264 76q-82 43 -113 51q-27 8 -23 28z" />
<glyph unicode="K" horiz-adv-x="786" d="M23 1245q-4 7 -4 25q0 23 6 64q10 73 22 73q20 0 52 -170t46 -356q8 -96 19 -97q12 0 80 56l131 102q51 39 162.5 152.5t111.5 126.5q0 12 31 28q31 14 49 0q18 -16 19 -35q0 -16 -117 -137l-119 -121l37 -82q86 -207 153 -350q64 -134 64 -168q0 -5 -2 -8 q-15 -24 -36 -24q-16 0 -34 14q-23 20 -94 194q-78 195 -118 266.5t-70 71.5q-16 0 -76 -67q-37 -43 -54.5 -55.5t-39.5 -10.5q-39 4 -54 -6q-12 -9 -13 -73v-9q0 -59 11 -112q32 -148 33 -216q0 -73 -39 -73q-41 0 -60.5 61.5t-33.5 225.5q-6 104 -20.5 261.5t-22.5 270.5 q-12 166 -20 178z" />
<glyph unicode="L" horiz-adv-x="745" d="M23 1374q6 37 12 47.5t26 10.5q31 0 40.5 -23t11.5 -100q10 -463 18 -611.5t25 -171.5q16 -27 50 -33t222 -22q14 -2 23 -2q274 -23 274 -79q0 -13 -10 -23q-16 -19 -49 -19q-29 0 -70 14q-102 35 -304 35q-69 0 -149 -4q-15 -1 -28 -1q-49 0 -61 12q-15 16 -17 401 q-2 389 -12 452q-5 32 -5 66q0 25 3 51z" />
<glyph unicode="M" horiz-adv-x="1038" d="M41 1378q31 29 39 29q23 0 53.5 -34t52.5 -83q35 -74 115 -145q201 -184 244 -203q23 -10 34 -7t35 28q37 35 68 96q25 47 112 168t111 141q18 14 58 14q29 0 35 -7t12 -46q3 -21 3 -44q0 -42 -9 -93q-7 -41 -7 -156q0 -178 17 -532q5 -90 5 -143q0 -63 -7 -72 q-10 -14 -39 -15.5t-39 13.5q-10 20 -10 223q-2 166 -13 446q-10 229 -30 240q-2 1 -4 1q-15 0 -48 -50q-12 -20 -34 -60q-84 -145 -183 -249q-22 -29 -51 -29h-7q-34 4 -67 45q-35 39 -73 76q-33 29 -142 133q-104 100 -120 100q-10 1 -12 -79q-1 -44 -2 -145q0 -81 1 -198 q2 -167 2 -261q0 -70 -1 -100q-3 -68 -17 -75q-11 -7 -20 -7q-28 0 -42 67q-6 39 -12 106q-10 135 -10 186q0 10 1 52.5t3 109t4 121.5q4 95 4 155q0 31 -1 51q-3 62 -15 116q-13 62 -13 77t19 39z" />
<glyph unicode="N" horiz-adv-x="1159" d="M29 1272q-7 26 -7 43.5t7 25.5q18 23 40.5 12.5t71.5 -63.5q158 -170 261.5 -266t238.5 -195q57 -41 158 -137q85 -86 113 -86q6 0 10 4q6 9 6 39q0 18 -2 43q-43 362 -60 463q-7 52 -7 92q0 27 3 49q6 41 12.5 51.5t26.5 10.5q29 0 29 -2t12 -119q10 -115 25 -203 q31 -201 47 -438q8 -102 18 -135t45 -78t52.5 -89t3.5 -56q-14 -16 -38 -12.5t-40 22.5q-23 27 -64 47q-43 20 -55 65q-14 47 -78 136q-51 70 -158.5 183.5t-152.5 143.5q-33 25 -83 67t-95 73q-80 57 -136 112q-50 48 -73 48q-3 0 -6 -1q-12 -6 -14 -28q-1 -6 -1 -18 q0 -28 4 -87q10 -154 11 -258q2 -131 28 -252q20 -81 20 -126v-11q-3 -45 -32 -61q-20 -12 -41 8q-14 14 -18.5 49t-4.5 151q-2 182 -12 197q-10 16 -18 154q-27 344 -47 432z" />
<glyph unicode="O" horiz-adv-x="874" d="M23 770q10 139 82.5 288.5t158.5 207.5q66 45 119 90q45 35 64.5 43t56.5 6q39 -4 52 -11.5t30 -37.5q23 -45 114 -131q63 -57 82 -83t37 -83q33 -102 35 -142v-8q0 -40 -18 -114q-94 -399 -371 -557q-72 -40 -111 -50q-19 -5 -40 -5q-22 0 -46 5q-41 12 -100 67.5 t-86 111.5q-26 51 -46 185q-14 99 -15 170q0 26 2 48zM113 719q0 -72 15 -179.5t30 -142.5q34 -75 118 -109q40 -16 77 -16q41 0 77 19q43 23 140.5 128t117.5 152q59 133 72.5 184.5t13.5 155.5q0 94 -5 123t-34 76q-31 57 -65.5 84t-118.5 59q-82 35 -88 45q-9 14 -26 14 q-19 0 -49 -16q-56 -32 -85 -88q-14 -29 -59 -80q-59 -66 -96 -182q-35 -111 -35 -216v-11z" />
<glyph unicode="P" horiz-adv-x="759" d="M20.5 1313q-0.5 43 14.5 55q16 12 39 16q12 2 67.5 2t153.5 -2q158 -2 215 -16t117 -65q47 -39 79.5 -101.5t32.5 -111.5q0 -39 -12 -59.5t-76 -84.5q-86 -84 -158.5 -118.5t-183.5 -43.5q-109 -8 -127 -26q-25 -27 -25 -129q0 -62 9 -152q9 -89 9 -119v-6 q-1 -26 -13 -41q-23 -23 -43.5 -5t-30.5 69q-4 20 -4 44q0 43 12 101q22 89 22 153q0 51 -14 85q-14 33 -24 180q-18 258 -45 307q-14 25 -14.5 68zM120 1272q0 -2 -1 -6q0 -17 8 -60q14 -68 14 -127q0 -68 17.5 -134t40.5 -89q35 -32 102 -32q31 0 67 6q118 22 197 94 q57 51 78 96q16 35 17.5 50t-13.5 56q-27 82 -78 122t-172 75q-69 21 -125 21q-76 0 -125 -39q-25 -21 -27 -33z" />
<glyph unicode="Q" horiz-adv-x="1021" d="M20 817q0 96 29 166q97 232 361 406q102 67 114 67q31 0 109 -17.5t100 -29.5q109 -55 168.5 -125t81.5 -164q14 -70 19 -173q1 -26 1 -49q0 -66 -10 -101q-12 -49 -70.5 -168t-78.5 -135t-16.5 -32t40.5 -63q47 -63 66 -102q16 -31 17 -41t-11 -20q-10 -8 -21 -8 q-39 0 -102 83q-41 59 -57 68q-2 1 -6 1q-21 0 -82 -30q-45 -20 -78 -26.5t-98 -6.5q-203 0 -291 89q-45 45 -113 180q-53 98 -62.5 130t-9.5 101zM82 752q31 -115 57.5 -165t81.5 -100q72 -61 101 -79q27 -12 157 -13q84 0 116 4t56 21q38 22 38 54q0 22 -17 48 q-18 27 -15.5 55.5t25.5 40.5q14 10 24.5 5t32.5 -29q33 -41 45 -41q12 4 54 41q68 59 92 216q10 63 10 121q0 88 -22 165q-29 94 -112 166.5t-194 103.5q-57 15 -93 15q-8 0 -15 -1q-37 -4 -88 -37q-55 -35 -140.5 -116.5t-119.5 -130.5q-45 -66 -69 -174q-13 -60 -13 -106 q0 -36 8 -64z" />
<glyph unicode="R" horiz-adv-x="743" d="M25 311q12 45 12 523q0 477 8 485q13 14 149 57q114 36 173 37q11 0 20 -2q102 -16 181 -68.5t120 -130.5q35 -66 35 -135q-1 -29 -7 -58q-20 -99 -110 -183q-43 -45 -43 -88q0 -35 25.5 -119t52.5 -133q14 -29 47 -117t33 -98q0 -8 -27 -9q-29 0 -74 83t-88 212 q-39 117 -60 151t-50 25q-8 -2 -21 -2q-29 -1 -79 9q-72 14 -111 32q-26 13 -42 13q-17 -1 -25 -13q-16 -24 -19 -139q-6 -92 -16.5 -147.5t-14.5 -149.5q-4 -135 -16 -149q-12 -11 -21 -11q-16 0 -28 31q-8 24 -8 52q0 20 4 42zM125 953q-1 -12 -1 -22q0 -31 5 -51 q6 -28 20.5 -38.5t36.5 -3.5q9 2 23 3q34 0 96 -14l90 -16l80 39q74 39 110 75t52 87q7 26 7 50t-7 48q-25 72 -65.5 113.5t-112.5 70.5q-41 15 -114 15q-7 -1 -14 -1q-83 -2 -116 -22q-31 -18 -45 -58t-33 -161q-10 -68 -12 -114z" />
<glyph unicode="S" horiz-adv-x="794" d="M20 451q0 23 28 23q37 0 124 -42q4 -2 10 -4q104 -55 209 -86q72 -24 113 -24q9 0 17 2q42 6 97 55q43 35 60.5 72.5t17.5 89.5q0 43 -13 64.5t-85 92.5q-74 72 -129 111t-152 88q-55 27 -80.5 58.5t-39.5 88.5q-6 33 -6 55v11q2 24 18 80q25 82 70 133t129 94 q72 35 106 36h3q35 0 104 -32q78 -37 96 -112q4 -20 0 -26.5t-25 -6.5q-31 0 -80 43q-45 41 -91 43h-5q-45 0 -106 -35q-66 -35 -90.5 -79t-24.5 -124q0 -61 6 -79.5t35 -43.5q63 -63 203 -129q35 -14 116.5 -96t102.5 -121q16 -33 16 -116q0 -55 -6 -83t-29 -67 q-39 -70 -80 -91.5t-143 -21.5q-76 0 -105.5 6.5t-76.5 30.5q-164 80 -271 107q-43 12 -43 35z" />
<glyph unicode="T" horiz-adv-x="882" d="M20.5 1305.5q-0.5 27.5 14.5 35.5q14 8 327 9h113q205 0 246 6q30 5 54 6q87 0 87 -72q0 -45 -22 -56q-8 -4 -19 -4q-19 0 -49 11q-53 21 -181 21h-6q-122 0 -139 -19q-9 -10 -9 -50q0 -23 3 -56q6 -66 21.5 -335.5t19.5 -320.5q6 -59 6 -83v-10q-2 -19 -20 -38 q-22 -25 -41 -25q-16 0 -29 17q-18 20 -26 320q-16 559 -37 585q-10 12 -85 12q-28 0 -65 -2q-43 -2 -74 -2q-67 0 -77 9q-12 14 -12.5 41.5z" />
<glyph unicode="U" horiz-adv-x="892" d="M20.5 1353.5q-0.5 26.5 18.5 41.5q18 16 47 0q55 -31 55 -168q0 -82 30 -265.5t58 -271.5q18 -61 64.5 -120.5t93.5 -84.5q33 -16 117 -16h84l61 63q63 63 103 156q28 68 32 104q2 17 2 57q0 47 -2 126q-2 137 -9 184t-34 127q-33 96 -36.5 130t12.5 48q15 15 28 15 q22 0 39 -43q12 -33 29 -101q10 -47 25.5 -98t20.5 -88t11 -115q2 -36 2 -65q0 -37 -3 -64q-5 -49 -27 -145q-33 -152 -54 -189q-51 -82 -152 -142t-187 -60q-41 0 -66 8t-66 35q-80 53 -125 135t-88 252q-24 90 -24 157v5q0 61 -12.5 153t-30.5 154q-16 59 -16.5 85.5z" />
<glyph unicode="V" horiz-adv-x="952" d="M20 1343q0 33 18.5 51.5t37.5 4.5q16 -10 180 -340t199 -422q33 -86 55 -94q3 -1 6 -1q22 0 59 52q55 76 183 508q83 288 110 319q20 19 38 21q26 2 26 -23q0 -32 -62 -217q-72 -215 -94 -305q-25 -98 -80 -233q-57 -143 -65 -199q-10 -51 -30.5 -77t-55.5 -36 q-6 -2 -13 -2q-26 0 -48 27q-28 33 -66 127q-102 250 -144 336q-14 29 -34.5 80t-49.5 94q-104 176 -137 240.5t-33 88.5z" />
<glyph unicode="W" horiz-adv-x="1191" d="M35 1343q23 18 46 8t41.5 -45.5t18.5 -76.5q0 -39 41 -195.5t64 -199.5q8 -20 39.5 -104.5t59.5 -143t45.5 -58.5t84.5 109q80 123 96.5 141.5t51.5 18.5q84 0 98 -95q8 -49 39 -111.5t47 -62.5q14 0 44 55.5t40 104.5t37 115q61 164 129 383q29 96 49 125.5t45 15.5 q20 -13 20 -51q-1 -8 -1 -18q-6 -52 -37 -125q-20 -49 -38 -92.5t-26 -69t-28.5 -86t-34.5 -103.5q-47 -139 -62 -245q-6 -63 -16 -94t-41 -72q-43 -65 -69 -65q-4 0 -8 2q-26 14 -95 157q-47 96 -68.5 129t-36.5 33q-29 0 -56.5 -35t-66.5 -117q-70 -153 -108 -153 q-27 0 -63.5 80.5t-102.5 285.5q-109 338 -164 483q-30 78 -30 124q0 32 16 48z" />
<glyph unicode="X" horiz-adv-x="710" d="M21 1324q-5 34 16 42q7 2 13 2q40 0 87 -80q37 -63 62 -92q25 -31 71 -117q41 -80 71 -115.5t46 -29.5q33 12 97.5 150.5t84.5 236.5q13 54 25 70q14 16 42 15t42 -17q12 -14 6 -36t-49 -128q-31 -76 -55 -111q-20 -31 -29 -61q-10 -31 -49 -97t-56 -114 q-10 -33 -1.5 -55.5t57.5 -106.5q76 -127 129 -184q58 -62 58 -102q0 -22 -17 -36q-20 -16 -50 -0.5t-57 58.5q-156 248 -174 248q-27 0 -75 -90.5t-58 -159.5q-6 -51 -19.5 -71.5t-39.5 -20.5q-56 0 -56 46q0 32 27 85q14 27 94 194q47 100 53.5 126t-4.5 63 q-12 43 -99 179l-87 136q-25 45 -70 102q-31 37 -36 71z" />
<glyph unicode="Y" horiz-adv-x="784" d="M20 1366q0 27 5.5 34t23.5 7q23 0 43.5 -19.5t52.5 -74.5q6 -8 20.5 -32t41 -67t43.5 -69q117 -188 180 -189q14 0 56 57.5t67 108.5q18 43 76.5 131t79.5 103q20 18 36 10q25 -8 18 -43t-40 -72q-139 -158 -246 -430q-45 -121 -57 -189q-8 -44 -8 -109q0 -33 2 -70 q3 -56 3 -86q0 -15 -1 -24q-2 -26 -15 -30q-20 -8 -41.5 25t-27.5 82q-8 68 -13 207q-4 139 -13 200.5t-32 108.5q-18 37 -102 167t-121 181q-31 43 -31 82z" />
<glyph unicode="Z" horiz-adv-x="1003" d="M30 432q22 68 68 96q80 53 138 138q41 57 120 129q78 68 140 161q61 94 151 183q92 92 92 104q0 41 -263 41q-54 0 -118 -2q-129 -4 -189 -4h-32q-49 2 -53 14q-8 20 11.5 33t82.5 27q53 11 233 11q144 0 369 -7q20 0 46 1t53.5 0t50 -3t38 -12.5t15.5 -26.5 q0 -20 -38 -51t-75 -43q-29 -8 -72.5 -46t-140.5 -139q-168 -176 -211 -239q-49 -68 -98 -115q-55 -53 -106.5 -123t-51.5 -92q0 -17 14 -21q6 -2 24 -2q21 0 57 2q29 2 195.5 20.5t242.5 18.5q66 0 87 -4t40 -22q22 -22 22 -37q0 -18 -30 -27q-18 -6 -43 -6q-29 0 -66 8 q-36 8 -77 8q-30 0 -62 -4q-281 -25 -367 -53q-68 -23 -122 -26h-15q-41 0 -55 14q-15 15 -15 42q0 23 10 54z" />
<glyph unicode="[" horiz-adv-x="712" d="M20 203q0 37 36 177t59 198q35 82 100 329q82 293 139 488q45 137 45 192v51h146q160 0 145 -14q-4 -6 -59 -12q-61 -6 -88 -29q-47 -45 -115 -222t-129 -423q-43 -172 -82 -305q-37 -115 -57 -217q-18 -98 -7 -120t78 -13q43 4 57.5 -1.5t37.5 -25.5q31 -33 18.5 -53.5 t-59.5 -18.5q-29 2 -116 -15t-112 -17q-27 0 -32 7t-5 44z" />
<glyph unicode="\" horiz-adv-x="294" d="M20 1509q0 16 16.5 18.5t31.5 -14.5q10 -14 55 -220t67 -349q12 -86 33 -168q16 -72 16.5 -121t20.5 -100q14 -39 13 -49t-25 -35q-20 -20 -30.5 -24.5t-22.5 4.5q-25 14 -33 62t-6 163q2 135 -13 225q-16 88 -24 164q-10 84 -56 252q-43 172 -43 192z" />
<glyph unicode="]" horiz-adv-x="860" d="M27 119q-14 16 16 45q23 20 49.5 25.5t114.5 7.5q88 4 113.5 9t41.5 23q33 37 99 330q31 125 76 268q35 121 86 332t71 324q10 57 9 74.5t-13 29.5q-33 33 -205 8q-108 -14 -108 33q0 10 231 10h232l-9 -39q-6 -37 -22 -71q-14 -29 -35 -127q-39 -188 -129 -512 q-70 -254 -110 -477q-20 -133 -37 -172q-4 -10 -20.5 -82t-28.5 -88q-31 -37 -136 16q-43 20 -68.5 24.5t-99.5 0.5q-104 -10 -118 8z" />
<glyph unicode="a" horiz-adv-x="839" d="M37 633q41 201 160 323q47 49 84 72t127 62q59 23 81 24q29 0 118 -46t100 -67q10 -18 10 -46q0 -65 -53 -183q-53 -114 -53 -185q-1 -18 3 -33q16 -75 123 -128q45 -23 59.5 -37t16.5 -35l6 -37l-61 7q-59 6 -117.5 34.5t-77.5 61.5q-21 36 -48 36q-25 0 -54 -32 q-35 -37 -96.5 -69.5t-98.5 -32.5q-43 0 -117.5 25.5t-95.5 47.5q-32 36 -32 111q0 54 16 127zM125 471q33 -31 63.5 -41t87.5 -10q53 0 71 8t65 55q39 41 59.5 76t46.5 105q33 86 55.5 174t22.5 125q0 26 -27 51q-29 27 -69 27q-26 0 -58 -11q-80 -29 -178 -123 q-53 -51 -75.5 -83.5t-51.5 -98.5q-42 -106 -42 -171q0 -56 30 -83z" />
<glyph unicode="b" horiz-adv-x="690" d="M20 353q0 44 19 87q20 55 51 193q37 152 57 194q31 68 72 306q16 98 47 221t41 135q14 16 29 16q14 0 16 -53v-13q0 -45 -12 -77q-16 -39 -45 -180.5t-29 -180.5q0 -45 18.5 -45t18.5 11q0 16 23.5 32.5t48.5 16.5q43 0 105.5 -43t99.5 -96q33 -51 61.5 -135.5 t28.5 -135.5q0 -117 -121 -237q-86 -85 -164 -109q-35 -11 -72 -11q-45 0 -94 17q-41 14 -85 14q-12 0 -25 -1q-16 -2 -29 -2q-31 0 -43 13q-17 19 -17 63zM145 418q0 -39 109 -78q31 -11 59 -11q23 0 45 8q48 17 113 87q59 61 79.5 104t20.5 107q0 55 -41.5 139.5 t-78.5 102.5q-39 18 -58 18q-27 0 -78 -57.5t-77 -112.5q-25 -55 -59 -168t-34 -139z" />
<glyph unicode="c" horiz-adv-x="630" d="M21 607q2 28 22 87q29 90 56.5 140.5t82.5 107.5q57 61 96 88.5t105 54.5q70 29 102 29q35 0 66 -35t47 -96q12 -45 13 -59.5t-11 -24.5q-14 -14 -27 -14q-26 0 -51 55q-16 31 -27.5 39t-41.5 10q-12 1 -22 1q-37 0 -66 -16q-37 -20 -109 -89q-82 -82 -111 -156 q-30 -72 -30 -142q-1 -16 1 -32q8 -86 60 -139q51 -60 120 -68q13 -2 27 -1q61 0 142 30q68 27 97.5 29t35.5 -17q8 -18 -11.5 -38.5t-74.5 -49.5q-41 -23 -72.5 -28t-122.5 -7q-84 0 -116.5 4t-53.5 19q-37 25 -71.5 92.5t-46.5 140.5q-8 48 -8 75v10z" />
<glyph unicode="d" horiz-adv-x="768" d="M24 714q14 102 68 177q29 35 125 85t166 64q37 8 74 8q32 0 63 -6q65 -12 93 -12q11 0 15 2q18 6 27 62q7 59 7 83v5q-18 168 -18 221.5t20 73.5q16 18 23 20t20 -8q15 -14 29 -136q13 -107 12 -196v-24q-2 -201 -18.5 -314.5t-20.5 -271.5q-4 -131 -10.5 -186.5 t-19.5 -78t-42 -30.5q-9 -2 -18 -2q-45 0 -64 61q-12 47 -24.5 57.5t-51.5 2.5q-10 -2 -26 -2q-34 0 -95 9q-88 13 -149 32q-37 12 -85 54t-77 87q-27 45 -27 112q0 24 4 51zM123 680q0 -63 7 -80.5t46 -54.5q29 -31 58.5 -46.5t82.5 -29.5q88 -25 150 -25q41 0 54.5 7.5 t37.5 44.5q33 49 51 133q9 48 9 69q0 22 -13 41q-18 26 -18 52t18 53q20 29 9 47t-64 47q-55 27 -105 28h-3q-49 0 -121 -26q-57 -20 -107.5 -60t-75.5 -85q-16 -35 -16 -115z" />
<glyph unicode="e" horiz-adv-x="886" d="M27 731q-6 26 -6 52q-1 79 55 157q74 104 192 127q53 11 112 11q64 0 133 -13q134 -25 189 -78q27 -25 35 -42t8 -52q0 -49 -21.5 -77t-72.5 -46q-41 -14 -189 -15h-23q-134 0 -226 11l-90 10v-39q0 -84 98 -147q59 -39 124 -51.5t253 -20.5q150 -8 209 -20.5t59 -36.5 q0 -15 -90 -23q-59 -5 -141 -5q-44 0 -94 1q-154 6 -248 34t-164 87q-47 43 -68.5 79t-33.5 97zM164 879q6 -18 104 -33q61 -9 113 -9q32 0 61 3q150 12 177.5 19t27.5 28q0 29 -30.5 54.5t-81.5 37.5q-57 14 -170 14h-115l-47 -49q-40 -41 -40 -60q0 -3 1 -5z" />
<glyph unicode="f" horiz-adv-x="806" d="M20 797q0 28 78 67l74 37l6 158q8 178 35 268t85 138t177 77q65 16 122 16q51 0 95 -12q94 -28 94 -96q0 -45 -38 -53q-6 -1 -13 -1q-32 0 -67 29q-37 31 -99 31q-41 0 -58 -9t-54 -48q-63 -70 -89 -120t-34 -116q-2 -23 -6 -63q-14 -132 -14 -162v-2q1 -27 22 -45 q4 -6 8 -10q37 -39 94 -62q55 -23 55 -39q0 -18 -65 -26q-66 -8 -82 -25q-7 -10 -7 -89q0 -54 3 -138q2 -68 5 -163t3 -99v-8q0 -65 -32 -78q-7 -2 -13 -2q-27 0 -49 51q-20 45 -45 73q-16 23 -22.5 50.5t-10.5 97.5q-1 21 -1 42q0 82 13 152q8 43 8 69q0 23 -6 33 q-12 23 -75 32q-97 15 -97 45z" />
<glyph unicode="g" horiz-adv-x="770" d="M22 727q9 127 115 205q35 24 137 67q86 35 113 38h8q27 0 78 -15q41 -10 59.5 -10t53.5 12q27 10 46 10q13 0 22 -5q20 -13 57 -89q39 -74 39 -126v-11q-5 -55 -56 -129q-57 -82 -57 -107t24.5 -142.5t24.5 -164.5q0 -80 49 -217q10 -26 10 -72q0 -12 -1 -25 q-3 -63 -19 -102q-10 -23 -21.5 -28.5t-54.5 -5.5q-53 0 -55 10q0 2 6 12q8 16 31 39q19 15 19 113v10q-1 108 -23 201q-27 119 -39 200q-16 102 -39 129q-16 18 -31 20h-4q-18 0 -82 -14q-85 -18 -171 -18h-17q-94 2 -133 27q-90 56 -90 167q0 10 1 21zM100 16 q0 105 111 162q66 33 131 35q66 0 66 -20q-4 -29 -109 -50q-49 -8 -84 -45q-27 -25 -34 -42t-7 -60t7 -66.5t36 -60.5l43 -59h-37q-45 0 -84 65.5t-39 140.5zM102 737v-9q0 -52 20 -80q23 -30 95 -56q43 -16 67 -18q4 -1 9 -1q27 0 82 11q94 16 123 34q20 14 24 33t4 88 q-2 172 -65 203q-45 22 -87 22q-20 0 -40 -4q-60 -16 -146 -88q-59 -51 -70.5 -69.5t-15.5 -65.5zM637 779q0 -42 18.5 -42t18.5 42t-18.5 42t-18.5 -42z" />
<glyph unicode="h" horiz-adv-x="688" d="M25 1414q-4 38 -4 61t4 30q8 12 28 8q18 -2 41 -106q16 -85 16 -113q0 -7 -1 -10q-2 -6 -2 -16q0 -28 14 -84q13 -62 13 -86q0 -8 -1 -13q-2 -5 -2 -15q0 -23 12 -73q33 -123 39 -280q0 -45 13.5 -74t33.5 -29q16 0 60 78q59 100 97 122q14 8 29 8q27 0 58 -25t111 -190 t82 -212q1 -17 1 -31q0 -65 -22 -75q-20 -8 -36.5 16.5t-28.5 81.5q-31 123 -86.5 230.5t-92.5 107.5q-43 0 -91 -118q-41 -101 -41 -174q0 -12 1 -23q4 -33 0 -49.5t-22 -32.5q-23 -27 -37 -29t-41 18q-18 12 -24.5 80t-6.5 234q0 63 -16 129q-13 53 -25 132q-9 59 -9 81 l1 15q0 16 -16 91q-12 51 -12 94l1 7q0 43 -14 88q-16 70 -24 146z" />
<glyph unicode="i" horiz-adv-x="198" d="M20 1214q0 31 11.5 50.5t31.5 19.5q29 0 39 -36t-10 -58q-16 -14 -43 -14q-18 0 -23.5 6.5t-5.5 31.5zM59 737q-6 50 -6 80t6 39q14 14 29 14q25 0 37 -39.5t18 -150.5q10 -156 23 -217q14 -72 14 -115q0 -56 -24 -63q-14 -6 -39 20q-20 20 -26.5 49t-10.5 129 q-10 158 -21 254z" />
<glyph unicode="j" horiz-adv-x="526" d="M37 -31q18 0 18 -12q0 -16 46 -56t87 -59q42 -18 74 -18q10 0 19 2q29 6 68.5 41t58.5 72q17 34 17 236q0 74 -3 171q-8 361 -35 469q-7 26 -7 55q0 11 1 23q4 41 20 59q14 20 29.5 14.5t18.5 -30.5q2 -20 4 -199q2 -150 14 -320.5t29 -252.5q10 -55 10 -107 q0 -32 -4 -62q-10 -79 -49 -128l-39 -51q-166 -4 -332 -6l-31 57q-32 58 -32 83q0 19 18 19zM410 1350q0 29 14 43q18 16 32.5 12t14.5 -26.5t-13.5 -40t-31.5 -17.5q-16 0 -16 29z" />
<glyph unicode="k" horiz-adv-x="587" d="M20.5 661q-0.5 11 16.5 35q16 25 20 86.5t6 311.5q2 119 4.5 185.5t4.5 108.5t5 55t9 13q12 0 15 -56.5t3 -252.5q0 -225 7.5 -300t29.5 -75q16 0 109.5 88t120.5 127q35 57 93 116.5t79 59.5q25 0 24.5 -32.5t-121.5 -149.5q-123 -119 -157 -172q-33 -51 -68 -84 q-33 -31 -33 -41q0 -14 144 -160q145 -152 168 -192l24 -47l-32 -31q-33 -33 -52 -27q-18 8 -57 90q-33 72 -55.5 100.5t-87.5 78.5q-54 40 -78 40q-19 0 -19 -25q0 -9 2 -22q9 -40 9 -74q0 -23 -4 -43q-11 -50 -41 -50q-10 0 -19.5 40.5t-9.5 94.5q0 76 -47 166 q-12 27 -12.5 38z" />
<glyph unicode="l" horiz-adv-x="260" d="M22 264q-2 11 -2 32q0 23 3 58q2 74 15 147.5t60 289.5q27 109 31 165q4 55 14 91q8 43 9 215q0 178 18 196q16 22 32 22q14 0 29 -18q8 -11 8 -52q0 -20 -2 -48q-6 -84 -26 -166q-14 -64 -14 -116v-13v-6q0 -75 -45 -301q-35 -164 -37 -367q0 -82 -4.5 -105.5 t-22.5 -41.5q-29 -27 -49 -15q-13 10 -17 33z" />
<glyph unicode="m" horiz-adv-x="1034" d="M24 372q9 86 56 347q55 322 82 330q33 14 35 -33q0 -29 -9 -86q-8 -57 -20 -158q-6 -55 -16 -65q-12 -12 -10.5 -27.5t16.5 -15.5q18 0 18 21.5t25 72.5q25 49 24 90q2 37 42 135t71 135q18 23 61 43.5t78 26.5q23 0 58.5 -52.5t50.5 -103.5q14 -49 30 -106 q12 -35 13 -76q0 -41 18 -41q16 0 19 16q0 20 84 182t100 173q20 12 55 0q51 -16 86 -146q23 -86 23 -160q0 -37 -6 -71q-12 -70 -15 -250q-2 -143 -9 -188.5t-30 -59.5q-25 -14 -43 8.5t-18 65.5q0 45 14 186q22 218 22 333q0 91 -14 118q-20 39 -36 45t-48 -13.5 t-32 -33.5q0 -10 -37 -94q-35 -76 -103 -310q-18 -63 -30.5 -104t-24.5 -74t-20 -48t-17.5 -27.5t-16.5 -9.5t-18 7q-24 15 -24 64q0 37 14 94q20 74 23 283l2 211l-41 43q-38 38 -67 38q-3 -1 -5 -1q-31 -4 -69 -54q-63 -82 -134 -381q-20 -92 -63 -232t-55 -155 q-12 -16 -40 -15t-42 17q-10 13 -10 52q0 23 3 54z" />
<glyph unicode="n" horiz-adv-x="651" d="M20 344l9 102q4 55 16 141.5t12 186.5q0 137 8.5 178t34.5 41q27 0 35 -36.5t8 -149.5q2 -104 15 -105q16 6 28 54q10 39 36 101.5t38 105.5q23 71 74 122q50 54 101 54q21 0 42 -9q51 -18 102.5 -180t51.5 -301q0 -217 -53 -327q-20 -39 -38 -39q-8 0 -16 8 q-15 14 -15 59q0 48 17 131q18 94 21 250q1 38 1 66q0 57 -3 77q-4 30 -23 64q-53 90 -89 100q-5 2 -11 2q-33 0 -78 -51q-29 -31 -45 -64.5t-37 -103.5q-82 -274 -124 -371.5t-83 -101.5z" />
<glyph unicode="o" horiz-adv-x="788" d="M23 655q-2 27 -2 51q1 87 23 144q28 72 142 209q39 47 47 96q7 46 25 66q10 12 37 12q12 0 27 -2q88 -12 129 -36t122 -110q139 -141 179 -253q17 -48 17 -94q0 -61 -30 -120q-29 -55 -66.5 -89.5t-107.5 -69.5q-130 -66 -251 -66q-18 -1 -36 1q-137 12 -210 102 q-25 31 -32 57.5t-13 101.5zM76 640q12 -62 80 -126l47 -49l139 6q90 2 127 8t80 27q78 37 108.5 84t36.5 139q4 44 4 77q0 40 -6 62q-12 39 -58.5 90.5t-107.5 90.5q-61 38 -117 38q-15 -1 -31 -3q-70 -14 -159 -95q-55 -51 -73.5 -79.5t-45.5 -102.5q-26 -78 -27 -133 q0 -19 3 -34z" />
<glyph unicode="p" horiz-adv-x="829" d="M25 -12q-4 14 -4 30q0 28 14 58q16 33 24 82q10 49 39 133q25 78 63 232.5t46 213.5q8 74 13 112t13.5 71.5t13.5 43t20.5 21.5t27.5 13t41 10.5t55 23.5q58 23 107 33q25 4 48 4q124 0 202 -123q60 -95 60 -200q0 -92 -46 -191q-29 -59 -49.5 -81.5t-83.5 -63.5 q-96 -61 -148 -70q-16 -2 -34 -2q-35 0 -77 8q-61 12 -98 37q-33 25 -57 25q-16 0 -25 -19q-8 -23 -49 -225q-27 -127 -37 -159t-26 -42q-13 -7 -23 -7q-21 0 -30 32zM233 528l56 -55q37 -39 55 -46t76 -7q90 0 133 15.5t72 60.5q57 82 72.5 129t15.5 133v108l-51 49 q-52 50 -95 64q-39 12 -49 11t-65 -21q-51 -20 -108.5 -72.5t-57.5 -79.5q0 -20 -27 -155z" />
<glyph unicode="q" horiz-adv-x="768" d="M20 616q3 76 33 138q49 104 160 162.5t319 93.5q39 5 86 30q43 23 71 23q29 0 44 -24q14 -22 14 -64q0 -48 -18 -121q-27 -117 -52.5 -163t-105.5 -130q-59 -61 -81.5 -94t-36.5 -76q-16 -49 -16.5 -65.5t14.5 -38.5q18 -31 28 -84q2 -16 2 -34q0 -61 -27 -147 q-34 -110 -85 -174q-20 -25 -37 -31.5t-49 -6.5h-56v53q0 80 76 305q18 53 18.5 68.5t-16.5 46.5l-22 41l41 32q39 35 38 47q0 11 -95 11h-17q-115 0 -149.5 11t-55.5 58q-25 52 -25 120v13zM74 598q6 -29 39 -68q25 -27 42 -32.5t89 -5.5q100 0 139 24q37 25 58.5 57.5 t60.5 135.5q40 103 40 155q0 28 -12 41q-14 14 -81 15q-84 0 -179.5 -54.5t-153.5 -131.5q-45 -61 -45 -111q0 -13 3 -25zM338 7q0 -50 16 -50t30.5 50.5t14.5 111.5q0 69 -15 69t-32 -65q-14 -66 -14 -116z" />
<glyph unicode="r" horiz-adv-x="761" d="M47 618q31 162 68 377q4 29 11 37t26 8q29 0 36 -30q7 -27 22 -27q19 0 52 43q37 47 70 75.5t86 55.5q55 29 91 29t93 -29q74 -37 123 -108q33 -45 4 -45q-14 0 -88 40q-74 37 -145 43q-20 2 -36 2q-24 0 -34 -4q-18 -6 -57 -36q-61 -47 -118.5 -132.5t-57.5 -128.5 q0 -25 -31 -122q-29 -104 -41 -170q-14 -68 -41 -97q-25 -28 -40 -28q-20 0 -20 54t27 193z" />
<glyph unicode="s" horiz-adv-x="698" d="M20 451q0 29 43 2q12 -6 33 -21q74 -48 165 -70q51 -12 88 -12q30 0 50 8q43 18 76 72.5t33 106.5q0 43 -9.5 60t-54.5 60q-63 63 -104 80q-39 14 -76 57.5t-37 73.5v17q1 91 41 147q44 62 140 88q65 18 116 18q92 0 140 -59q14 -18 14 -43.5t-14 -40.5q-14 -14 -54 15 q-25 18 -46 24t-66 6q-125 0 -179 -100l-24 -47l51 -45q45 -41 107 -82q90 -56 130 -160q20 -53 20 -99q0 -45 -19 -83q-25 -45 -50.5 -67.5t-87.5 -51.5t-116 -31h-7q-52 0 -114 25q-53 20 -121 74.5t-68 77.5z" />
<glyph unicode="t" horiz-adv-x="514" d="M27 983q-18 29 23.5 48.5t112 34.5t87.5 24q12 4 25.5 35.5t50.5 140.5q14 43 28 100q18 66 49 115q33 49 58 49q10 0 10 -12q0 -16 -113 -334q-16 -44 -16 -67q0 -14 6 -21q16 -18 33 -19q25 0 69 -21.5t44 -33.5q0 -14 -80 -23q-80 -8 -103 -18q-18 -8 -94 -160 q-49 -102 -62.5 -139t-13.5 -88t5.5 -66.5t25.5 -29.5q16 -12 76.5 -24.5t97.5 -30t19 -46.5q-16 -25 -69 -25q-22 0 -50 4q-96 14 -140 60q-29 31 -45 88q-12 39 -12 59.5t12 61.5q20 63 56 121q63 111 80 170l8 33l-84 -2h-16q-67 0 -78 16z" />
<glyph unicode="u" horiz-adv-x="835" d="M24 458q8 68 35 224q43 213 68 289t49 76q16 0 20.5 -9.5t2.5 -44.5q-2 -55 -27 -135q-50 -170 -68 -310q-7 -53 -7 -89q0 -60 18 -74q14 -12 69 -29q30 -7 57 -8q33 0 63 12q54 20 114 82q55 59 78.5 110.5t89.5 256.5q60 196 80 229q18 27 36 27q13 0 27 -14 q12 -12 12 -39q0 -37 -22 -101q-35 -102 -59.5 -214.5t-24.5 -172.5v-80l55 -45q125 -102 125 -134q0 -9 -10 -13t-27 -4q-33 0 -90 34.5t-108 86.5q-45 51 -62 51q-12 0 -45 -41q-59 -75 -186 -103q-47 -10 -87 -11q-68 0 -116 30q-40 27 -54 61q-9 22 -9 57q0 21 3 45z " />
<glyph unicode="v" horiz-adv-x="716" d="M20 989q4 35 21 37h4q21 0 37 -43q18 -47 22 -123q8 -92 35 -192.5t49 -124.5q19 -21 40 -21q11 0 22 6q33 16 123 97q94 86 136 148.5t66 148.5q25 90 39 104q12 16 41 12q43 -4 41 -26q0 -33 -125 -221q-135 -205 -192 -269q-55 -63 -88 -121q-39 -63 -84 -77 q-11 -3 -21 -3q-31 0 -56 31q-32 41 -32 121q0 76 -51 285q-6 29 -12 64q-7 36 -13 84q-4 28 -3 52q-1 17 1 31z" />
<glyph unicode="w" horiz-adv-x="1024" d="M21 1000.5q2 17.5 16 27.5q20 18 39 6q33 -22 33 -83q0 -36 -11 -85q-12 -51 -12 -75.5t12 -67.5q18 -68 19 -182q0 -102 13 -128q7 -14 24 -14q14 0 34 9q39 16 92.5 76.5t67.5 101.5q12 49 25 166q12 168 67 188q18 6 35 -8q12 -10 12 -92q0 -37 -2 -88q-4 -74 -4 -114 q0 -27 2 -40q4 -31 27 -78q31 -57 66.5 -78.5t105.5 -21.5q80 0 120 25.5t77 101.5q29 63 42 115.5t37 205.5q8 50 8 87q0 81 -40 104q-35 18 -52 28l-30 17l28 31q27 27 55.5 27.5t53.5 -25.5q17 -20 21 -46q1 -11 1 -34q0 -34 -2 -94q-8 -246 -49 -396 q-16 -55 -68.5 -115.5t-117.5 -101.5q-52 -29 -118 -31h-8q-61 0 -103 27q-43 27 -43 35q0 14 -46.5 62.5t-58.5 48.5q-14 0 -39 -35q-23 -39 -88 -88q-43 -31 -63.5 -39t-55.5 -6q-33 2 -49 10t-33 28q-18 25 -21 65t-5 204q0 225 -10 307q-6 45 -4 62.5z" />
<glyph unicode="x" horiz-adv-x="647" d="M20 993q0 25 21 25q13 0 35 -10q25 -10 53 -37q53 -47 102 -125q31 -45 51.5 -64.5t49 -16.5t60.5 26.5t87 76.5q37 39 68 58.5t51 19.5t27 -20q2 -5 2 -10q0 -40 -111 -113q-80 -49 -117 -94l-41 -45l31 -72q104 -232 104 -314q0 -23 -8 -34q-12 -18 -45 -19 q-29 1 -37 19q-6 15 -6 54v21v9q-1 50 -21 115q-22 71 -54 108q-20 23 -47 26t-50 -14q-29 -25 -69.5 -98.5t-46.5 -114.5q-6 -53 -23 -53q-12 -1 -14 17q-1 9 -1 27.5t1 45.5l4 90l67 72q68 70 88 108q14 27 12.5 41.5t-28.5 57.5q-31 55 -115 137q-80 77 -80 100z" />
<glyph unicode="y" horiz-adv-x="792" d="M20 -45q0 51 168 303q51 76 69.5 101.5t41.5 70.5t26 55.5t3 45t-5.5 51t-19.5 63.5q-45 139 -82 227q-39 93 -39 114q0 4 2 5q2 2 11 2q12 0 71.5 -115.5t59.5 -138.5q0 -14 37.5 -57t52.5 -43q12 0 66.5 73.5t90.5 137.5q70 126 127 194q16 18 35 17.5t33 -21.5 q2 -3 2 -8q0 -25 -53 -96q-82 -115 -357 -535q-63 -98 -151 -243q-57 -98 -103.5 -155.5t-68.5 -57.5q-16 0 -17 10z" />
<glyph unicode="z" horiz-adv-x="978" d="M23 301q8 23 49 68q47 51 143 178q84 117 109 141q18 16 59 76q39 55 49 59q16 8 57 75q37 61 37 76q0 17 -124 17q-34 0 -74 -1q-34 -1 -62 -1q-130 0 -141 19q-12 20 8 41q14 14 56.5 20t175.5 10q217 6 241 8h4q28 1 54 -23q26 -26 26 -56q0 -23 -32.5 -60 t-120.5 -114q-43 -39 -174.5 -209t-151.5 -213q-18 -41 0 -52q29 -14 317 -16q317 0 361 -8q25 -4 43 -15.5t23.5 -22.5t-3.5 -22q-10 -10 -456 -16q-167 -2 -275 -2q-178 0 -186 6q-20 14 -12 37z" />
<glyph unicode="{" horiz-adv-x="735" d="M20 631q0 23 30 46t65 30q47 8 75 20q33 16 105 84t86 96q39 78 -12 183q-49 94 -40 167.5t79 149.5q37 43 106 95.5t104 66.5q29 10 63 7t34 -17q0 -18 -10 -19q-25 0 -113 -75.5t-115 -118.5q-39 -61 -41 -105.5t29 -120.5q31 -72 30 -124t-32 -113q-39 -78 -94.5 -125 t-173.5 -99q-63 -29 32 -124q61 -59 76 -107q16 -66 -6.5 -147.5t-81.5 -159.5q-33 -47 -37 -62q0 -37 154 -90q92 -33 128 -53t36 -39q0 -39 -121 10q-72 31 -142 39q-66 6 -108.5 31t-50.5 57q-14 57 82 166q45 51 58 81t13 81q0 41 -14 63.5t-88 100.5q-104 109 -105 125 z" />
<glyph unicode="|" horiz-adv-x="169" d="M20 682q0 90 14.5 229.5t26.5 178.5q12 41 12.5 103t-12.5 103q-20 74 -27 146.5t3 99.5q27 59 63 14q16 -18 13 -319q-2 -272 -11 -471q-4 -106 -1 -167.5t20 -149.5q27 -154 26 -332q4 -190 -16 -205q-10 -8 -39 8q-31 16 -43 62.5t2 99.5q25 102 -14 393 q-16 123 -17 207z" />
<glyph unicode="}" horiz-adv-x="761" d="M20 170q0 12 77 22.5t110 2.5q27 -8 105.5 12t133.5 47q49 25 103.5 81t62.5 89q6 23 -3 55.5t-46 128.5q-16 47 -18 123q0 72 -24.5 121t-24.5 92q0 61 22.5 110.5t102.5 168.5q23 35 18 98l-2 68l-68 30q-66 35 -137 41q-47 6 -58.5 12.5t-11.5 26.5q0 18 7.5 23.5 t31.5 5.5q57 0 140.5 -19.5t111.5 -40.5q76 -55 86.5 -120.5t-43.5 -155.5q-59 -96 -76.5 -139t-9.5 -72t49 -68q37 -33 46.5 -50t9.5 -50q0 -51 -31 -86q-53 -66 0 -147q59 -88 -2 -209q-70 -141 -188 -176q-78 -23 -191 -45.5t-145 -22.5q-43 0 -90.5 14.5t-47.5 28.5z " />
<glyph unicode="~" horiz-adv-x="1001" d="M23 791q-10 23 22.5 57.5t95.5 71.5q86 49 133.5 49t106.5 -54q100 -90 137 -110.5t105 -20.5q55 2 83.5 10.5t86.5 36.5q59 31 72.5 45.5t19.5 53.5q8 49 24 69q23 27 47.5 10.5t24.5 -59.5q0 -41 -41 -95t-100 -95q-102 -68 -225 -68t-189 70q-104 109 -182 108 q-39 0 -66.5 -13t-75.5 -50q-66 -53 -79 -16z" />
<glyph unicode="&#xa2;" horiz-adv-x="858" d="M20 879q0 92 17.5 138t71.5 89q31 27 110.5 60.5t114.5 33.5q18 0 41.5 38t30.5 81q8 49 36 141q29 86 29 131q0 33 6 40t33 7t31 -6t0 -33q-6 -39 -49 -157q-41 -109 -52 -172q-4 -37 -1 -54.5t26 -44.5q31 -43 31 -55q0 -14 -56 -20q-39 -6 -49 -15.5t-22 -50.5 q-20 -66 -56 -233q-10 -39 -20 -121q-4 -55 -1 -71.5t21 -33.5q35 -31 156 -36t213 20q156 39 156 6q0 -14 -84 -39.5t-203 -46.5q-111 -23 -182 -8q-31 6 -46.5 8t-29.5 -4t-19.5 -13t-10.5 -34t-6 -53.5l-3 -79.5q-6 -147 -18 -148q-14 4 -21 174l-6 172l-74 84 q-70 78 -92.5 138.5t-22.5 167.5zM68 922q-23 -80 53 -234q61 -119 104 -33q20 39 39 121q8 33 23.5 100.5t19.5 86.5q19 71 19 112q0 27 -6.5 33t-32.5 6q-57 0 -127 -62.5t-92 -129.5z" />
<glyph unicode="&#xa3;" horiz-adv-x="905" d="M21.5 465q7.5 47 52.5 84q125 111 342 39q82 -27 100 -15q23 14 43.5 77t13.5 108q-4 51 -21 69.5t-65 18.5q-125 0 -137 33q-8 20 8.5 30.5t46 14.5t60.5 6t57.5 8t32.5 18q8 16 23.5 90t19.5 130q19 170 109 266q41 39 60 51t44 12q61 0 72 -32q6 -20 -31 -33 q-4 0 -8 -2q-41 -6 -103 -72q-41 -41 -54 -66.5t-25 -87.5q-20 -94 -13 -178q6 -55 12.5 -72.5t26.5 -25.5q33 -16 65.5 -16t32.5 -19q0 -16 -61 -20q-33 -4 -47 -9.5t-27.5 -13.5t-19.5 -34.5t-9.5 -57.5t-9.5 -96l-12 -168l49 -49q47 -49 142 -97q57 -31 75.5 -45 t18.5 -32t-6.5 -24.5t-24.5 -6.5q-37 0 -106.5 29.5t-114.5 64.5q-53 41 -64.5 41t-54.5 -61q-47 -63 -128 -116.5t-134 -53.5q-35 0 -54.5 10t-64.5 51q-66 63 -92 131q-27 74 -19.5 121zM76 379q27 -53 62.5 -91t72.5 -48q35 -12 52.5 -9.5t58.5 23.5q74 37 117.5 100.5 t21.5 100.5q-8 16 -53 47q-41 29 -136.5 29.5t-138.5 -25.5q-37 -23 -53.5 -60.5t-3.5 -66.5z" />
<glyph unicode="&#xa7;" horiz-adv-x="931" d="M20 1115q0 9 11 28q8 18 43 34.5t129 47.5q158 51 233 61q78 11 119 23q61 14 158.5 -8.5t146.5 -63.5q31 -25 44.5 -67t4.5 -85q-8 -43 -58 -91t-171 -128q-154 -102 -193 -141l-36 -39l4 -160q2 -84 6 -223q2 -37 -2 -49t-17 -14q-18 -4 -32.5 18.5t-18.5 60t0 82.5 q10 80 10 152q0 51 -5 72.5t-25 50.5l-33 41l27 37q29 37 34 86q2 4 2 16q33 246 84 246q12 0 2 -115q-8 -109 3.5 -131t62.5 -2q37 16 110.5 73.5t127.5 110.5q29 29 37 46.5t6 43.5q-4 27 -15.5 40.5t-48.5 31.5q-82 45 -233.5 41t-255.5 -55q-35 -16 -45 -66 q-6 -35 -5.5 -465t9.5 -479q2 -18 -2.5 -24.5t-18.5 -6.5t-18 25q-6 41 -13 440q-6 467 -20 482q-14 14 -66 0q-33 -10 -45 -9.5t-24.5 12t-12.5 20.5z" />
<glyph unicode="&#xab;" horiz-adv-x="976" d="M19.5 588.5q-3.5 15.5 18 49.5t62.5 76t125 124q190 184 224 186q16 2 20 -23q4 -20 -147 -178q-98 -98 -126 -134t-28 -59.5t8 -33.5t39 -23q49 -20 121 -36q137 -37 135 -2q0 14 -16 36q-29 35 -13.5 70t88.5 107q63 63 172 151.5t134 108.5q53 47 73.5 54t38.5 -15 q18 -20 -2 -50t-69 -59q-59 -31 -101 -68q-45 -39 -71 -57q-35 -23 -85.5 -83t-50.5 -80.5t30 -34t114 -31.5q63 -12 120.5 -44t84 -67t6.5 -57q-10 -12 -19.5 -12.5t-38.5 12.5q-45 18 -75 37q-25 16 -90.5 32.5t-110.5 18.5q-23 0 -27 -5t0 -34q8 -41 -14 -59 q-57 -51 -119 -7q-41 31 -111 52q-250 68 -280 102q-16 20 -19.5 35.5z" />
<glyph unicode="&#xad;" d="M20 754q1 10 11 24q16 18 66 18.5t118 -18.5q68 -18 135 -18q82 0 114 -9.5t32 -31.5q0 -106 -310 -35q-164 39 -166 70z" />
<glyph unicode="&#xbb;" horiz-adv-x="1075" d="M29 1022q23 25 61.5 11.5t142.5 -83.5q123 -84 167 -135t44 -115q0 -53 -25.5 -81.5t-113.5 -71.5q-88 -45 -121 -74q-49 -41 -108 -24q-43 12 -33 47q8 16 152 88q145 74 149 96q8 45 -50 104.5t-175 120.5q-131 70 -90 117zM559 451q4 20 81 76.5t165 105.5 q61 35 106 69.5t45 49.5q0 23 -48 61.5t-97 56.5q-63 25 -115 25q-51 0 -82 16q-27 12 -33.5 40t9.5 48t56 14.5t163 -48.5q92 -29 131 -47.5t68 -47.5q47 -47 47 -87t-45 -93q-45 -51 -101 -84q-252 -143 -291 -233q-23 -55 -47 -29q-33 31 -12 107z" />
<glyph unicode="&#xbf;" horiz-adv-x="571" d="M35 145q-33 68 8 137.5t139 112.5q78 35 90 68q13 28 13 194q0 104 3 134t14 30t15.5 -30.5t4.5 -137t4 -144.5t18 -69q37 -66 18.5 -92t-102.5 -35q-121 -12 -164 -80q-8 -12 -3 -24t30 -35l39 -41l192 -12q129 -8 161 -14.5t34 -20.5q4 -16 -4 -18t-43 4 q-57 8 -140 -13q-117 -29 -206.5 -4t-120.5 90zM212 1117.5q-3 15.5 13 31.5q14 14 29 14q29 0 39 -36.5t-12 -59.5q-14 -14 -41 12q-25 23 -28 38.5z" />
<glyph unicode="&#xc0;" horiz-adv-x="782" d="M20 432q0 61 52 162q55 113 98 240q37 113 50 160.5t56 224.5q41 174 53.5 216t26.5 68q17 29 31 84q8 39 17.5 45t48.5 6h55v-67q0 -63 31 -148q27 -70 44 -145.5t33.5 -176t32.5 -163.5q27 -129 21 -156q-4 -20 23.5 -133.5t54.5 -189.5q14 -37 14 -48.5t-14 -25.5 q-41 -41 -76 59l-15 50q-29 109 -30 184q-4 102 -53.5 135t-198.5 33q-96 0 -117.5 -4t-40.5 -27q-25 -31 -33 -78q-10 -47 -45 -114q-27 -55 -54.5 -134t-27.5 -102q0 -16 -18.5 -16t-18.5 61zM284 1022q9 -55 85 -76q63 -14 129 -14h67l8 51q11 82 -81 369 q-29 86 -46.5 89t-60.5 -70t-63 -140q-47 -154 -38 -209z" />
<glyph unicode="&#xc1;" horiz-adv-x="858" d="M37 383q-72 59 139 287q70 76 105 139q82 160 192.5 313.5t202.5 239.5q59 55 81.5 64.5t41.5 -13.5q12 -12 26.5 -147.5t12.5 -194.5q-4 -49 -9 -383q-4 -326 -20 -350q-10 -12 -41 22q-16 16 -20.5 57.5t-6.5 196.5l-6 230q-150 2 -301 2l-37 -51q-35 -51 -73 -88 q-31 -29 -88.5 -110t-94.5 -148q-27 -47 -55.5 -65.5t-48.5 -0.5zM557 955.5q4 -21.5 61 -33.5q78 -18 98.5 -12.5t33.5 48.5q14 52 10 156q-2 68 -11.5 92.5t-26.5 13t-46 -62.5q-37 -63 -80 -123q-43 -57 -39 -78.5zM653 1602q0 23 5.5 29.5t25.5 6.5q27 0 29 -5 t-13.5 -36.5t-31 -29.5t-15.5 35z" />
<glyph unicode="&#xc2;" horiz-adv-x="1077" d="M20 315q0 25 156 205q51 60 51 72q0 4 49.5 71.5t49.5 73.5q0 10 88 148q133 207 168 276q14 31 61 91.5t59 90.5q12 33 30 46.5t50 17.5q41 0 47.5 -30.5t-6.5 -190.5q-10 -170 -10 -229.5t10 -342.5q10 -289 25 -331q14 -45 2 -63.5t-55 -18.5q-27 0 -35 6t-12 31 q-8 41 -9 260q0 221 -14 235q-12 14 -79.5 15.5t-113.5 -11.5q-43 -12 -81 -2q-25 6 -36.5 3t-31.5 -23q-29 -31 -63.5 -88.5t-47.5 -75.5q-53 -82 -100 -156q-49 -78 -79 -103.5t-54 -6.5q-18 16 -19 30zM481 834l119 2q117 4 131 20q14 18 12 122t-16 159q-14 51 -29 51 q-35 -2 -112.5 -120t-96.5 -202zM496 1466q22 29 53 62l100 108q96 0 195 2l49 -77q51 -80 106 -140q88 -96 39 -137q-10 -8 -30.5 6.5t-75.5 69.5q-84 86 -117 129q-29 39 -43 39q-12 0 -119 -103q-68 -68 -94.5 -86t-52.5 -18q-127 0 -10 145z" />
<glyph unicode="&#xc4;" horiz-adv-x="866" d="M23 1638h100q68 0 83 -4t15 -20q0 -33 -39 -65.5t-73 -32.5q-39 0 -55.5 17t-24.5 62zM27 362q-14 18 22 166q37 147 57 248q14 78 50.5 242t52.5 248q43 247 63 272q12 14 64.5 14t66.5 -16t50 -119q25 -70 84 -232.5t65 -174.5q16 -53 51 -96.5t62 -43.5q12 0 16 -13 t-1 -32.5t-17 -38.5q-16 -25 -8 -84t47 -196q31 -104 30 -154q0 -45 -17 -65.5t-42 -3.5q-16 8 -26.5 40.5t-24.5 133.5q-16 109 -41 200t-45 111q-51 53 -203 53q-137 0 -197 -51q-31 -29 -49 -102.5t-18 -163.5q-2 -66 -6 -91.5t-19 -39.5q-39 -45 -67 -11zM215 948 q6 -33 49 -37h19q61 -6 135 -18q68 -12 94.5 -3t26.5 44q0 20 -62.5 179.5t-97.5 225.5q-41 78 -66.5 66t-46.5 -121q-57 -295 -51 -336zM600.5 1535q2.5 38 20.5 69q14 25 30.5 29.5t91.5 4.5h103l-10 -43q-6 -43 -21.5 -66.5t-46.5 -41.5q-29 -16 -84 -18.5t-70.5 13 t-13 53.5z" />
<glyph unicode="&#xc7;" horiz-adv-x="1083" d="M23 764q-6 76 24 211q20 84 37.5 126t54.5 99q90 133 211 233.5t217 120.5q45 10 138.5 3t142.5 -23q43 -14 106.5 -58t79.5 -71q12 -20 -2 -39q-12 -14 -25.5 -12t-54.5 26q-170 96 -291.5 97.5t-234.5 -91.5q-96 -80 -134 -118.5t-71 -91.5q-55 -96 -74.5 -173 t-15.5 -180q8 -123 21 -166q12 -39 95 -131t128 -114q33 -16 145 -17q125 0 242 35t188 96q29 25 61.5 25t47.5 -25q14 -20 -13.5 -50t-68.5 -40q-39 -8 -64 -24q-18 -12 -150 -57.5t-151 -45.5q-35 0 -68.5 -69.5t-13.5 -94.5q16 -18 35 -18q20 0 72.5 -27.5t81.5 -52.5 q33 -31 33 -87t-33 -105q-20 -31 -34.5 -38t-59.5 -7l-64 2l31 26q100 88 31 154q-18 18 -39 21t-78 1q-82 -4 -99.5 13.5t1.5 83.5q18 63 18 108q0 35 -9 46t-69 40q-121 59 -217 195.5t-108 263.5z" />
<glyph unicode="&#xc8;" horiz-adv-x="692" d="M24.5 1323q-8.5 86 8.5 117q21 16 121 30q80 14 256 18.5t225 -7.5q35 -6 37 -30t-31 -34q-27 -6 -203 -8q-285 -2 -332 -43q-14 -16 -2 -80q10 -66 5 -110q-14 -94 63 -132q27 -12 47.5 -13t71.5 7q78 14 128 13.5t111 -19.5q39 -14 53.5 -23.5t14.5 -21.5 q0 -16 -14.5 -21t-71.5 -5q-125 -2 -237.5 -13.5t-120.5 -21.5q-10 -12 -17 -252q-6 -240 -14 -252q-8 -14 -24.5 -15t-24.5 13q-6 10 4 57q14 45 -6 117q-18 72 -17 317q2 250 -10 289q-12 37 -20.5 123zM205 514q14 14 26.5 13t53.5 -17q45 -20 213 -27q168 -8 168 -22 q0 -16 -84 -17q-88 0 -164 -18q-66 -14 -121 -8t-84 33q-39 34 -8 63z" />
<glyph unicode="&#xc9;" horiz-adv-x="1052" d="M21 210q-3 9 4 69q4 45 21 114.5t44 155.5t33 108q14 57 43 164q16 59 18 87t-8 69q-8 43 -6 62.5t18 56.5q27 51 27 123q0 94 31 186q8 14 18 14q8 0 11.5 -28.5t0 -71.5t-11.5 -80q-14 -59 2 -96l17 -35l129 -2q72 0 113.5 -6t61 -16.5t17.5 -28.5q-4 -12 -18.5 -16.5 t-59.5 -4.5q-141 -2 -211.5 -36.5t-81.5 -110.5q-8 -55 -38 -185q-12 -53 -17.5 -80.5t-4.5 -53t8 -35t28.5 -13.5t47.5 -1t75 9q98 14 256 4q111 -6 134 -11t23 -23q0 -16 -14 -20.5t-76 -4.5q-113 -2 -244.5 -17.5t-195.5 -33.5q-68 -20 -92.5 -50t-34.5 -106 q-6 -45 -12 -55t-27 -10q-25 0 -28 9zM240 1546q0 31 29.5 49.5t76.5 18.5q53 0 53 12t316 12q227 0 272 -3t45 -19q0 -27 -46 -32t-124 13q-57 14 -82.5 14.5t-81.5 -14.5q-78 -20 -137 -20q-51 0 -180 -31q-121 -31 -131 -30q-10 0 -10 30z" />
<glyph unicode="&#xca;" horiz-adv-x="868" d="M20.5 1421.5q-0.5 30.5 14.5 42.5q14 14 59 9q39 -8 137 14q90 20 185 22q90 0 98 11q4 4 -4 30.5t-17.5 53t-9.5 28.5q0 6 41 6q27 0 45.5 -11t55.5 -50q41 -41 61.5 -53.5t58.5 -16.5q47 -4 75 -20.5t28 -38.5q0 -16 -16.5 -16t-61.5 16q-78 25 -308.5 8.5 t-307.5 -53.5q-55 -27 -25 -141q18 -70 47 -267q10 -74 27 -94q14 -16 225 -24q215 -10 221 -27q10 -27 -10.5 -35t-67.5 2q-45 12 -104 4t-180 -41q-53 -14 -69.5 -44.5t-2.5 -86.5q12 -45 18 -147q2 -92 17 -113q35 -39 139 -10q61 16 193.5 9t132.5 -26q0 -16 -35 -16 q-23 0 -123 -18.5t-135 -14.5q-51 6 -137 -12q-137 -31 -187 2q-35 23 15 66q76 61 53 172q-10 59 -4 94q6 41 -12 113q-20 74 -19 131q2 72 -31.5 250t-62.5 227q-16 35 -16.5 65.5zM122 1547.5q-13 31.5 3 70.5q8 20 78 20q72 0 71 -10q0 -14 -46 -63t-60 -49 q-33 0 -46 31.5z" />
<glyph unicode="&#xcb;" horiz-adv-x="829" d="M22.5 1451.5q8.5 21.5 55.5 31.5q174 33 334 76q111 29 213 24q84 -6 109.5 -17.5t25.5 -43.5q0 -49 -92 -11q-43 16 -95 5q-45 -8 -118 -9q-68 2 -162 -37t-115 -38q-12 0 -14 -36t3 -89.5t15.5 -108.5t25.5 -102t30 -64q16 -18 48.5 -22t166.5 -9q154 -2 193.5 -13 t39.5 -50q0 -18 -24.5 -21.5t-159.5 1.5q-127 2 -163 -1.5t-65 -19.5q-29 -20 -33.5 -35.5t-4.5 -91.5q0 -84 12 -164t28 -100q14 -16 117 -8q193 18 304.5 8t111.5 -43q0 -31 -244 -31q-205 -2 -291 -47q-51 -29 -102 -10q-41 12 -14 51q18 31 12 129q-29 418 -43 510 q-12 63 -21 141q-6 66 -20 106t-45 81q-27 37 -18.5 58.5zM113 1616q0 14 13 18t67 4q76 0 77 -14q2 -10 -24 -27q-51 -33 -92 -27.5t-41 46.5z" />
<glyph unicode="&#xce;" horiz-adv-x="768" d="M20 1425q0 14 11.5 20.5t44.5 10.5q29 4 180 33q129 27 150 27q20 0 21 11t-17 54q-17 45 -17 51t45 6q31 0 42.5 -7t27.5 -38q16 -29 30.5 -39t49.5 -16q51 -10 71.5 -27.5t6.5 -40.5q-12 -20 -123 -20q-109 -2 -279 -25q-180 -23 -212 -22.5t-32 22.5zM31 281 q-12 31 20.5 45t114.5 14q70 2 92.5 7t42.5 24q33 31 23 61q-8 29 -7 238q2 211 -14 286q-32 127 -12 289q6 61 21.5 62.5t31.5 -56.5q16 -53 14 -325q-4 -270 15 -344q20 -72 20 -117q0 -47 24.5 -58.5t127.5 -13.5q127 -2 151 -8q23 -8 40.5 -28.5t6.5 -28.5 q-6 -6 -160.5 -18.5t-263.5 -16.5q-72 -2 -153 -27q-68 -16 -96.5 -14t-38.5 29zM57 1618q8 20 56 20q41 0 45 -8t-25 -37q-23 -25 -45 -28.5t-30.5 10.5t-0.5 43z" />
<glyph unicode="&#xcf;" horiz-adv-x="880" d="M39 1303q-41 41 16 53q39 8 140 10q145 2 190 20q37 14 73 13.5t122 -19.5q68 -14 170 -20q74 -6 92 -11.5t18 -21.5q0 -14 -8 -18t-35 -2q-82 8 -195.5 4t-127.5 -15q-16 -16 -17 -71q0 -53 -18 -123q-18 -66 -19 -195q0 -129 -14 -176q-14 -49 8 -127q23 -82 33 -94 q6 -12 119 -21q78 -4 112.5 -15t34.5 -36q0 -31 -170 -30q-51 0 -68.5 -5.5t-33.5 -25.5t-24.5 -22.5t-37.5 7.5q-39 16 -104 0q-63 -18 -127 -14q-41 4 -52.5 8t-11.5 21q0 14 20.5 23.5t86.5 25.5q47 10 65.5 14t42 19.5t28.5 24t14.5 43t11.5 61t8 94.5q14 174 16 379 q2 193 11 209q16 27 -41 39q-53 12 -119 -4q-104 -25 -145.5 -26t-63.5 24zM170 1638h86q57 0 71.5 -4t14.5 -18q0 -29 -27.5 -52.5t-62.5 -23.5t-50.5 14.5t-23.5 51.5zM549 1628q0 10 104 10q100 0 101 -12q2 -8 -37 -22q-57 -20 -112.5 -12.5t-55.5 36.5z" />
<glyph unicode="&#xd1;" horiz-adv-x="1099" d="M20 217q-8 39 107 410q55 172 74 235q25 78 24 119q0 51 70 340q21 82 31 94q16 18 38.5 14t38.5 -28q14 -23 23.5 -77t30.5 -234q12 -106 43.5 -225.5t66.5 -190.5q39 -80 115 -156t139 -98q96 -37 133 -15.5t62 127.5q31 137 4 345q-10 76 -16.5 130t-7.5 88.5t2 51 t12 16.5q49 0 63 -442q8 -156 -7 -224.5t-69 -127.5q-31 -33 -47 -40t-65 -7q-41 0 -71 9t-83 38q-57 31 -83.5 56.5t-76.5 98.5q-78 113 -106 201q-25 72 -52.5 184.5t-37.5 177.5q-6 51 -21 52q-10 0 -29.5 -72t-42 -165t-34.5 -124q-20 -51 -33.5 -92t-30 -112.5 t-28.5 -116.5q-35 -127 -45 -199q-6 -49 -24.5 -68.5t-41.5 -5.5q-23 10 -25 33zM312.5 1550.5q-5.5 38.5 4.5 67.5q10 27 48 20.5t65 -36.5q16 -23 32.5 -30t47.5 -7q39 0 85 21.5t46 39.5q0 12 74 12q49 0 66.5 -6t35.5 -28q18 -20 45 -30.5t101 -25.5q117 -23 116.5 -33 t-43.5 -49t-49 -67q-4 -14 -9 -21.5t-13.5 -4.5t-19.5 13.5t-32 32.5q-45 49 -96 70q-51 27 -65 43q-18 23 -47 18.5t-103 -39.5q-84 -45 -162 -53q-55 -4 -69.5 0t-32.5 29q-20 25 -25.5 63.5zM969 1279q0 30 18.5 30t18.5 -30t-18.5 -30t-18.5 30z" />
<glyph unicode="&#xd3;" horiz-adv-x="716" d="M21.5 888.5q3.5 180.5 27.5 272.5q29 86 31 154q0 59 10 82q8 20 117 100q104 78 129 111q23 29 70 30q43 0 45 -16q0 -8 -19 -14q-47 -18 37 -72q49 -31 82 -72t74 -125q43 -84 61.5 -170t5.5 -137q-10 -53 -44 -136t-60 -122q-33 -49 -116 -132t-120 -101 q-100 -49 -180 -18.5t-131 136.5q-23 49 -19.5 229.5zM64.5 853q15.5 -138 72.5 -198q27 -29 44.5 -35t76.5 -6q55 0 77.5 6.5t61.5 34.5q66 47 92.5 79t73.5 114q43 76 50.5 103.5t7.5 113.5q0 113 -25 186.5t-84 134.5q-53 58 -88 76q-33 18 -82 19q-31 0 -50.5 -12.5 t-66.5 -61.5q-57 -61 -85.5 -116.5t-55.5 -160.5q-35 -139 -19.5 -277z" />
<glyph unicode="&#xd4;" horiz-adv-x="1110" d="M20 778q0 186 9 244q20 133 34.5 181t51.5 112.5t62.5 89.5t113.5 80q125 79 158 114q27 27 48 32t109 5q80 2 104.5 -2t32.5 -18q12 -20 86 -51q72 -29 105 -60q35 -31 78 -109.5t59 -138.5q16 -59 18.5 -177.5t-14.5 -174.5q-29 -113 -87 -233.5t-113.5 -179t-120 -90 t-176.5 -56.5q-88 -18 -124 -20t-108 8q-96 14 -145 37.5t-92 77.5q-59 72 -72.5 124t-16.5 205zM72 864.5q0 -24.5 10 -67.5q18 -68 18 -119q0 -39 21.5 -92.5t50.5 -85.5q59 -66 201.5 -81.5t273.5 30.5q82 29 106.5 44t92.5 78q139 135 170 342q53 344 -98 512l-52 56 h-131q-131 0 -182 -19q-53 -18 -82 -18t-29 18q0 47 -135 -47q-57 -41 -81.5 -66.5t-53.5 -80.5q-18 -35 -32.5 -81t-20.5 -73t-19.5 -94.5t-17.5 -83.5q-10 -47 -10 -71.5z" />
<glyph unicode="&#xd6;" horiz-adv-x="1163" d="M20.5 750.5q-0.5 29.5 20.5 121.5q37 162 100.5 256.5t251.5 268.5q49 43 88 92q39 51 78 63q45 14 155.5 7t164.5 -25q70 -29 134 -93.5t97 -137.5q23 -59 29 -94t4 -126q-6 -432 -342 -684q-172 -129 -303 -151q-172 -33 -294 71.5t-169 323.5q-14 78 -14.5 107.5z M108.5 692q16.5 -170 139.5 -286q57 -55 118.5 -72t149.5 0q211 39 362.5 200.5t200.5 397.5l25 117l-29 127q-23 92 -36 117.5t-70 84.5l-76 78h-123q-86 0 -114.5 -6t-77.5 -35q-117 -63 -232 -172.5t-162 -200.5q-92 -180 -75.5 -350zM811 1626q0 12 43 12t43 -12 t-43 -12t-43 12z" />
<glyph unicode="&#xd9;" horiz-adv-x="1038" d="M23 1217q-9 106 14 186q20 78 36.5 78t18.5 -11q0 -2 2 -33.5t5 -94t5 -117.5q16 -326 25.5 -409t38.5 -130q53 -92 252 -141q59 -14 82.5 -14.5t79.5 16.5q57 14 120.5 49t106.5 72q45 41 98.5 171t48.5 193q-6 106 19 107q53 0 31 -113q-43 -229 -129 -330 q-66 -78 -99 -107.5t-86 -56.5q-45 -20 -79.5 -27t-112.5 -9q-135 -6 -198.5 15t-135.5 95q-74 82 -74 101q0 16 -20 57q-16 29 -23.5 102.5t-25.5 350.5zM469 1628q0 10 47 10q35 0 43 -7t12 -42q8 -51 2 -57t-55 40t-49 56zM909 1489q0 39 17 39q20 0 31.5 -22.5 t23.5 -80.5q2 -16 12.5 -65t14.5 -66q10 -59 9 -76.5t-16 -17.5q-35 0 -49 139q-4 68 -24 91q-19 22 -19 59z" />
<glyph unicode="&#xda;" horiz-adv-x="854" d="M20 931q-2 81 23 199q20 100 33.5 133t34.5 33q41 0 12 -118q-18 -82 -19 -258q0 -115 5.5 -159t25.5 -99q4 -12 14.5 -41t12.5 -36t12 -26.5t15.5 -24t18.5 -15.5t26.5 -13t35 -7t47 -6t58.5 -1q82 0 106.5 6t57.5 30q43 31 69.5 67t71.5 124q53 104 65.5 167.5 t8.5 205.5q-4 150 -11.5 183.5t-42.5 76.5q-59 75 -20 112q57 59 106 -106q16 -53 31 -129q16 -80 16.5 -109.5t-14.5 -99.5q-20 -98 -20 -123q0 -27 -39 -127t-62 -137q-33 -49 -91 -105.5t-101 -76.5q-135 -70 -256 -39q-86 23 -127 85t-72 216q-29 137 -31 218z" />
<glyph unicode="&#xdb;" horiz-adv-x="882" d="M20.5 921.5q-0.5 28.5 14.5 92.5q23 90 18 162q-6 68 15 163q23 96 18 134q0 33 19.5 48t39.5 -3q18 -14 19.5 -56.5t-17.5 -87.5q-31 -88 -42 -185t-7 -263q4 -225 28 -324.5t81 -138.5q76 -49 109.5 -61.5t99.5 -12.5q53 0 80.5 6t70.5 31q111 61 177.5 162.5 t76.5 228.5q14 186 -7 349t-71 257q-25 47 -28.5 96.5t14.5 67.5q10 8 23.5 3t27 -26.5t21.5 -52.5q37 -139 54 -400t-5 -378q-23 -123 -83 -206t-173 -142q-51 -27 -80 -33t-113 -6q-119 0 -170 23q-45 20 -67.5 46.5t-65.5 104.5q-29 53 -38 83t-9 83q-2 84 -20 156 q-10 51 -10.5 79.5zM180 1624q-4 14 39 14q70 0 25 -36q-16 -14 -37 -6t-27 28zM567 1628q0 10 43 10q25 0 34 -4t9 -18q0 -20 -15 -35.5t-42 10.5q-29 27 -29 37z" />
<glyph unicode="&#xdc;" horiz-adv-x="933" d="M23 731q-6 162 4 201q12 47 14 164q4 131 17.5 316.5t19.5 205.5q10 23 31.5 20.5t27.5 -26.5q8 -33 9 -233.5t-5 -215.5q-12 -18 -34.5 -116.5t-16.5 -110.5q6 -16 -14 -113q-14 -68 -14.5 -90t16.5 -61q29 -76 61.5 -111t110.5 -74q72 -37 100.5 -43t118.5 -4 q102 2 166.5 25.5t118.5 81.5q43 43 83 156.5t40 189.5q0 45 4 60.5t16 15.5t14 -15.5t-2 -66.5q-10 -156 -63 -271q-59 -129 -179 -196.5t-241 -38.5q-59 14 -109.5 14t-135.5 44t-115 87q-27 33 -32 61.5t-11 143.5zM745 1489q16 16 33 13t41 -29q35 -33 60.5 -106 t31.5 -148q2 -27 2 -41.5t-1 -24.5t-4 -12t-7 0q-16 6 -24 71q-6 63 -22.5 93t-68.5 73q-86 68 -41 111z" />
<glyph unicode="&#xdf;" horiz-adv-x="956" d="M21.5 -72.5q-3.5 19.5 1.5 86.5q6 111 26.5 237t51 274.5t40.5 215.5q27 162 43 260q8 39 27 39q8 0 11 -5t2 -26.5t-6 -53t-15 -97.5q-10 -53 -25.5 -140t-25.5 -140q-18 -92 -14.5 -135.5t32.5 -67.5q29 -25 87 -34t108 3q211 53 298 87t146 89q92 88 16 160 q-35 33 -107.5 51.5t-262.5 40.5q-70 8 -94.5 22.5t-24.5 45.5q0 25 14.5 38t46.5 23q31 8 140 51q100 39 162.5 92.5t62.5 102.5q0 51 -53.5 69.5t-202.5 20.5q-98 2 -129 -2t-82 -29l-70 -37l-32 35q-20 18 -24.5 29.5t3.5 23.5q14 20 52 29.5t87 3.5q57 -3 123 13 q96 27 211 6t160 -70q25 -29 28 -82t-20 -92q-16 -29 -87 -81t-155 -97q-41 -20 -41 -33q0 -16 142 -53q172 -49 218 -82t46 -109q0 -53 -23.5 -87t-89.5 -74q-59 -35 -200.5 -85.5t-239.5 -70.5q-51 -12 -79 -12t-75 12q-76 16 -105.5 1t-37.5 -79q-2 -23 -16.5 -95.5 t-14.5 -131.5q0 -49 -4 -64.5t-15 -15.5t-14.5 19.5z" />
<glyph unicode="&#xe0;" horiz-adv-x="823" d="M47 641q-51 158 2 264q33 63 118 124.5t167 84.5q39 12 61 4q47 -6 123 -16q158 -25 182 -82q8 -29 25 -117q12 -66 12 -92.5t-14 -77.5q-27 -96 -28 -116.5t20 -43.5q25 -25 56.5 -78t31.5 -63q0 -8 -19.5 -11t-44 1t-37.5 12q-16 14 -45 55q-25 35 -50 38t-64 -25 q-31 -25 -110 -53.5t-111 -28.5q-27 0 -91 18q-133 39 -184 203zM84 778q0 -31 26.5 -106.5t45.5 -98.5q25 -29 84 -55t96 -26q59 0 123.5 29.5t103.5 72.5q20 27 12 88q-4 41 -5 71.5t2 80t3 79.5l3 86l-43 21q-39 18 -146 20q-76 0 -99.5 -6t-68.5 -37q-51 -35 -94 -104.5 t-43 -114.5zM411 1410.5q-13 33.5 3 51.5t33.5 15.5t48.5 -31.5q25 -23 87 -135.5t62 -134.5q0 -41 -76 26q-47 43 -92 105q-53 70 -66 103.5z" />
<glyph unicode="&#xe1;" horiz-adv-x="737" d="M20.5 730q-4.5 87 45.5 161q29 43 112.5 108.5t110.5 65.5q33 0 64.5 36t37.5 81q10 68 35.5 127t95.5 180q59 98 80 123.5t43 25.5q33 0 31 -20q0 -25 -60 -123q-61 -102 -109 -202.5t-48 -127.5v-4q0 -20 12 -20t84 12q10 2 16 4q55 10 69.5 -11.5t6.5 -109.5 q-16 -174 -74 -288q-29 -59 -28 -132q0 -63 22.5 -91.5t83.5 -37.5q66 -12 66 -38q-2 -29 -82 -31q-68 -2 -95.5 12t-58.5 72q-39 68 -53 71q-14 6 -61 -12q-45 -20 -142 -20q-74 0 -92 6t-53 41q-55 55 -59.5 142zM104 754q0 -94 55.5 -132t157.5 -14q119 29 152 115 q8 20 39 170q10 49 14 73.5t4 48t-4 30t-20.5 8.5t-33.5 -2t-52 -17q-145 -43 -227.5 -117.5t-84.5 -162.5z" />
<glyph unicode="&#xe2;" horiz-adv-x="888" d="M29 586q20 84 53 138t111 138q80 84 147.5 130t155.5 79q111 41 157 -18q16 -25 17.5 -51.5t-6.5 -135.5q-8 -92 -17.5 -134t-28.5 -83q-23 -45 -25.5 -64.5t7.5 -68.5q14 -63 38 -89t81 -38q35 -8 46 -15t11 -22q0 -23 -40 -33t-95 -2q-41 4 -62.5 23.5t-54.5 79.5 q-14 25 -23 30t-30 1q-33 -8 -100 -56q-162 -109 -260 -53q-55 33 -78 100.5t-4 143.5zM100 543q0 -49 6.5 -65.5t30.5 -39.5q39 -33 72 -38t76 12q117 47 179 126.5t62 182.5q0 33 27 145q16 70 18 95.5t-6 35.5q-18 20 -43 19q-20 -2 -87.5 -35t-76.5 -47q-6 -10 -77 -62 q-57 -43 -85 -76.5t-63 -109.5q-33 -70 -33 -143zM332 1194q-18 23 2 51.5t63 42.5q45 12 107.5 49t111.5 78t64 41q14 0 41 -26.5t43 -57.5q27 -51 65.5 -158.5t38.5 -130.5q0 -53 -43 -16q-47 39 -90 139q-31 66 -49 103q-10 23 -40 22.5t-56 -20.5q-39 -27 -70 -41 q-41 -23 -76 -58q-33 -31 -63.5 -36t-48.5 18z" />
<glyph unicode="&#xe4;" horiz-adv-x="937" d="M25 674q8 59 79 160q74 100 119 127q49 33 64 49q55 68 164 88q76 14 75 14q10 6 80 -14.5t92 -34.5q80 -47 54 -184q-14 -88 -21 -134q-6 -70 -49 -151q-37 -70 -40 -119t26 -94q53 -78 151 -72q53 0 60 -18q16 -37 -43.5 -60.5t-122.5 -5.5q-47 12 -91 52t-57 83 q-14 51 -32.5 61.5t-61.5 -5.5q-45 -18 -127 -33q-164 -29 -260 76q-43 47 -56.5 95t-2.5 120zM104 633q0 -43 8.5 -60.5t43.5 -52.5q51 -51 102 -65q35 -10 60.5 -7t89.5 21q98 27 120 53q12 12 29.5 63.5t36 120t20.5 72.5q10 33 25 109q10 51 8 66.5t-20 35.5 q-16 16 -36 21.5t-65 5.5q-74 0 -110 -15q-68 -25 -157 -104.5t-126 -151.5q-27 -51 -29 -112zM365.5 1354q11.5 63 56.5 86q27 14 41 14t31 -14q49 -37 58 -87t-26 -75q-31 -18 -74.5 -24.5t-60.5 6.5q-37 31 -25.5 94zM689 1286q-3 43 26 74q25 23 82 20q39 -4 53 -12 t39 -43t28 -48t-8 -32q-14 -29 -49 -49t-67 -20q-31 0 -68 34q-33 33 -36 76z" />
<glyph unicode="&#xe7;" horiz-adv-x="765" d="M36 445.5q-36 91.5 7 203.5q33 84 122 183.5t173 142.5q43 23 92 34t82 9t33 -19q0 -18 -51 -18q-86 0 -188.5 -75t-172.5 -189q-27 -41 -33 -66.5t-6 -87.5q0 -72 14.5 -99.5t67.5 -55.5q33 -16 155 -12.5t201 24.5q96 25 156 26q37 2 47 -1t10 -19t-19 -24.5t-89 -22.5 q-193 -39 -217 -66q-14 -18 1 -38.5t56 -34.5q59 -20 75.5 -44t16.5 -85q0 -55 -7 -73t-44 -54q-115 -109 -172 -113q-20 -2 -20 16q0 29 98 84q55 33 78 82l22 51l-32 33q-23 23 -33 25t-43 -15q-70 -35 -100.5 -15t-24.5 95q2 45 -3 57.5t-36 26.5q-39 20 -86 27 q-94 16 -130 107.5z" />
<glyph unicode="&#xe8;" horiz-adv-x="802" d="M22.5 835.5q4.5 22.5 57.5 86.5q119 137 266 168q88 18 192.5 -10.5t147.5 -84.5q20 -27 22.5 -65.5t-16.5 -63.5q-16 -20 -121.5 -44.5t-152.5 -16.5q-31 4 -122 -14.5t-114 -18.5q-59 0 -68.5 -36t40.5 -81q55 -53 131.5 -83.5t156.5 -30.5q53 0 122 -18.5t143.5 -18.5 t74.5 -17q0 -12 -23.5 -16t-99.5 -6q-125 -2 -163 0q-41 4 -175.5 37t-160.5 47q-39 18 -74 66.5t-45 95.5q-23 102 -18.5 124.5zM169.5 882.5q18.5 -18.5 94.5 -28.5q84 -10 160 8q76 20 119 21q37 0 56 18.5t5 40.5q-8 16 -53 47q-59 41 -185 23.5t-180 -76.5 q-35 -35 -16.5 -53.5zM203 1534q8 23 28.5 16.5t75.5 -43.5q53 -37 105.5 -104.5t54.5 -102.5q0 -68 -86 35q-49 59 -102 97q-92 67 -76 102z" />
<glyph unicode="&#xe9;" horiz-adv-x="892" d="M22.5 891q12.5 76 92.5 153q69 68 116 93q88 47 205 2q70 -27 102.5 -64t39.5 -92q4 -55 -15.5 -90t-73.5 -64q-31 -14 -70.5 -20t-135.5 -12q-98 -2 -131 -8.5t-41 -18.5q-12 -20 26.5 -60t105 -74t229.5 -71t247 -37q154 0 153 -45q0 -18 -51 -10q-66 8 -205 19 q-129 8 -265 41.5t-201 72.5q-31 18 -50.5 40t-38.5 63q-51 106 -38.5 182zM104 938l27 -27q18 -20 45 -24t129 -4q104 0 130 4t44 24q39 39 23.5 86t-78.5 80q-27 12 -90 13q-68 0 -122 -28t-79 -75zM397.5 1357q-4.5 36 2 82t22.5 74q25 49 31 84q4 27 12 34t31 7t28.5 -6 t5.5 -30q0 -37 -48 -134.5t-48 -122t-18 -24.5q-14 0 -18.5 36z" />
<glyph unicode="&#xea;" horiz-adv-x="833" d="M20 791q0 16 8.5 24t32.5 12q37 8 129 103q72 74 158 126t156 66q29 4 35 12.5t4 39.5q0 43 -14.5 122.5t-24.5 96.5q-12 14 -33 14q-18 0 -133 -75t-180 -128q-35 -29 -58.5 -23.5t-25.5 44.5q-4 31 53 71q55 41 139 121q80 76 115 88q35 10 96 6q68 -6 90.5 -39.5 t42.5 -154.5q20 -133 64 -217q35 -72 39 -102.5t-15 -55.5q-14 -20 -156.5 -89t-168.5 -69q-23 0 -101.5 -20.5t-89.5 -30.5q-39 -31 8.5 -117t116.5 -108q51 -14 279 -23q135 -4 181 -9t46 -15q0 -16 -57 -17q-61 0 -150 -20q-92 -18 -162 -10q-57 6 -137 29.5t-112 43.5 q-25 16 -55.5 68.5t-47.5 108.5q-14 51 -43 75q-29 23 -29 52zM240 846q12 -16 83.5 -3t167 49t121.5 64q20 23 25.5 34.5t-2.5 23.5q-14 23 -91 25.5t-116 -17.5q-188 -100 -188 -176z" />
<glyph unicode="&#xeb;" horiz-adv-x="882" d="M22.5 780q-8.5 29 11 48.5t56.5 11.5q27 -4 39 2t33 39q55 82 211 125q74 20 131 15t125 -38q113 -53 112 -119q0 -41 -49 -53t-264 -23q-121 -8 -152.5 -14t-52.5 -26q-29 -27 -29.5 -54.5t25.5 -68.5q51 -74 213 -121q82 -23 256 -23q113 0 143.5 -4t30.5 -16 t-43 -14.5t-215 -0.5q-258 4 -303 21q-70 23 -132.5 94.5t-62.5 128.5q0 29 -40 47q-35 14 -43.5 43zM76 1282q-10 35 8 53t84 41q80 25 96 10q16 -14 17.5 -80.5t-15.5 -86.5q-29 -35 -104.5 -10.5t-85.5 73.5zM280.5 867q-4.5 -21 26.5 -33q33 -12 80 -11.5t143 19.5 q113 23 111 43q0 12 -37 35q-45 27 -141 25.5t-137 -30.5q-41 -27 -45.5 -48zM486 1270q1 16 34 61q23 33 38 42t40 9q39 0 54.5 -16t15.5 -57q0 -72 -57.5 -101.5t-102.5 19.5q-23 27 -22 43z" />
<glyph unicode="&#xee;" horiz-adv-x="401" d="M21.5 499.5q-5.5 57.5 23.5 176.5q29 121 70 223q37 94 54 94t13 -22q-61 -203 -77.5 -334t14.5 -156q18 -16 75.5 -8t96.5 31q72 41 88 16q2 -4 2 -8q0 -16 -21.5 -31.5t-95.5 -52.5q-92 -47 -128 -51t-68 26q-41 39 -46.5 96.5zM178 1403q6 18 29 14q12 -2 20.5 -20.5 t5 -34.5t-15.5 -16q-18 0 -31.5 19.5t-7.5 37.5z" />
<glyph unicode="&#xef;" horiz-adv-x="557" d="M26 675q13 118 56 224q39 107 41 109q6 18 25.5 20t25.5 -14q6 -18 -55 -205q-51 -154 -54.5 -204t33.5 -85q45 -41 121 -43t154 37q39 18 53 6q35 -35 -51 -69q-78 -31 -182 -31q-80 0 -111 15.5t-49 64.5q-20 57 -7 175zM119 1257q0 27 24.5 76t51.5 74q25 23 41 23 t40 -27q18 -20 20.5 -33.5t-7.5 -48.5q-20 -78 -90 -109q-59 -29 -76 21q-4 10 -4 24zM385 1260q2 58 35 83q37 27 74.5 5.5t42.5 -70.5q2 -20 -8.5 -33.5t-41.5 -38.5q-53 -37 -73 -24q-31 20 -29 78z" />
<glyph unicode="&#xf3;" horiz-adv-x="811" d="M25.5 552q-11.5 52 1.5 142q18 111 43.5 168.5t89.5 126.5q72 74 114 146q35 63 88 98q35 25 46.5 43t21.5 65q14 70 62 150q45 72 63 113q14 35 41 34q43 0 44 -46t-40 -95q-90 -104 -96 -148t63 -94q61 -45 92 -90q72 -109 95.5 -148.5t29.5 -74.5q18 -80 -17.5 -155.5 t-135.5 -174.5q-109 -104 -185.5 -151t-177.5 -66q-121 -20 -188 56q-43 49 -54.5 101zM90 643q0 -43 24.5 -85t63.5 -66q47 -29 99.5 -21t171.5 64q57 25 121.5 80t107.5 114q25 33 30 55.5t5 83.5q0 92 -26.5 147.5t-96.5 106.5q-82 66 -92 43q-4 -6 -4 -22 q-2 -47 -39 -75t-97 -28q-35 0 -94 -43t-92 -88q-27 -43 -54.5 -130t-27.5 -136z" />
<glyph unicode="&#xf4;" horiz-adv-x="706" d="M23 653q6 10 12 84q4 76 45 144q43 70 49 120q6 45 25.5 65.5t68.5 29.5q35 8 85.5 37.5t62.5 35.5q41 16 53 16.5t33 -18.5q47 -41 -11 -69q-31 -10 -45 -27q-8 -14 -59 -24q-41 -6 -96.5 -50.5t-98.5 -105.5q-23 -31 -46 -126t-17 -132q14 -96 29.5 -136t50.5 -71 q41 -39 74.5 -49t103.5 -4q68 4 137 51q104 72 152 194q20 59 43 58q12 0 12 -25q0 -33 -52 -123t-91 -125q-35 -31 -106.5 -70.5t-110.5 -47.5q-74 -16 -153 22.5t-110 104.5q-16 39 -32.5 133t-7.5 108zM174.5 1266.5q18.5 29.5 71.5 60.5q137 80 196 154q51 66 106.5 45 t69.5 -109q8 -55 27 -106q20 -51 6 -66q-18 -18 -51 7.5t-49 70.5q-18 55 -29.5 69.5t-36.5 14.5q-27 0 -123 -96q-78 -76 -119.5 -97.5t-66.5 3.5q-20 20 -1.5 49.5zM547 926q-6 18 4 16q10 0 22 -12q14 -16 15 -25q0 -14 -23 2q-14 9 -18 19zM625 827q0 20 39 -14 q35 -31 18 -47q-4 -6 -12 -6q-10 0 -27.5 26.5t-17.5 40.5z" />
<glyph unicode="&#xf6;" horiz-adv-x="641" d="M20.5 729q-2.5 86 18.5 123q8 20 22.5 78.5t28.5 81.5q14 20 94 70.5t115 60.5q23 6 72 -1t63 -18q14 -12 8 -65q-4 -39 2.5 -51.5t53.5 -44.5q57 -41 77.5 -85t20.5 -126v-84l-64 -62q-72 -70 -153.5 -106.5t-159.5 -34.5q-47 2 -103.5 43t-72.5 86q-20 49 -22.5 135z M60 1357.5q15 49.5 44 72.5q27 20 62 24t51 -12q16 -18 13 -64.5t-25 -72.5q-14 -18 -29.5 -25.5t-48.5 -7.5q-51 0 -66 18q-16 18 -1 67.5zM113.5 836.5q-35.5 -125.5 1.5 -195.5q41 -80 135 -90t203 55q53 31 75.5 83t6.5 108q-16 51 -75.5 108t-125.5 82q-63 27 -74.5 28 t-42.5 -16q-68 -37 -103.5 -162.5zM485 1311.5q-6 62.5 29 95.5q27 25 39 25q16 0 42 -31t26 -53q0 -23 -35 -61t-56 -38q-39 0 -45 62.5z" />
<glyph unicode="&#xf9;" horiz-adv-x="974" d="M20 772q4 230 86 336q51 70 56 22q0 -31 -25 -106q-31 -84 -57 -299q-6 -59 23.5 -126t70.5 -89q90 -45 242.5 55.5t230.5 255.5q57 113 84 269q6 33 13.5 44t19.5 11q18 0 21 -20.5t-1 -123.5q-6 -246 43 -339q16 -35 72 -68q39 -23 51.5 -43.5t-6 -26.5t-61.5 4 q-100 27 -125 109q-20 66 -31.5 88.5t-24.5 22.5q-18 0 -122 -101q-133 -125 -215 -167t-177 -34q-47 4 -64.5 12.5t-43.5 39.5q-39 45 -50.5 96t-9.5 178zM197 1511q0 33 47 13q29 -14 51 -41q16 -18 43 -49t45 -54.5t37 -54.5q33 -51 45 -59q8 -4 11 -17.5t1 -25t-8 -11.5 q-10 0 -86 74t-98 105q-25 37 -58 71q-30 33 -30 49z" />
<glyph unicode="&#xfa;" horiz-adv-x="874" d="M24 607.5q7 62.5 46 238.5q33 145 36 170q9 45 23 59q12 16 43 -14q23 -23 25 -32t-15 -34q-12 -27 -27.5 -76t-32 -111.5t-22.5 -84.5q-25 -74 -16 -150q8 -72 26.5 -108.5t57.5 -52.5q29 -14 46 -15.5t54 9.5q129 33 192.5 138t49.5 261q-8 96 -7 128t17 48q20 18 41 3 t29 -54q37 -182 59.5 -257t49 -112t81.5 -69q104 -68 21 -72q-39 0 -55.5 8t-51.5 43q-43 47 -78 92q-55 70 -69 12q-6 -27 -78 -100q-133 -129 -297 -129q-80 0 -104.5 22.5t-38.5 106.5q-12 70 -5 132.5zM307 1219q0 25 16.5 50.5t73.5 88.5q86 98 115 98q16 0 21.5 -7 t5.5 -24q0 -31 -101 -139q-100 -106 -114 -110q-16 -2 -17 43z" />
<glyph unicode="&#xfb;" horiz-adv-x="931" d="M20 754q0 80 6.5 120.5t32.5 118.5q40 115 58 150q18 39 41 31q10 -4 10 -23q0 -18 -35 -129q-37 -115 -55 -205q-16 -68 -16.5 -90t14.5 -68q25 -74 52.5 -96t98.5 -22q57 0 82 8t80 47q82 55 105 86q18 29 31.5 110.5t9.5 153.5q-2 43 2 58.5t16 21.5q25 8 45 -30 t43 -128q29 -113 47 -149q18 -37 86 -94.5t103 -65.5t34 -27q0 -12 -12 -14t-55 2q-117 10 -195 142q-35 59 -49 63q-12 0 -39 -29q-133 -145 -213 -184q-117 -57 -203 -36.5t-110 110.5q-12 43 -15 168zM279 1339q-16 20 2 52.5t84 95.5q31 29 49 44t38.5 20t34 -2 t34 -32.5t37.5 -58.5t48 -94q66 -129 51 -143q-20 -20 -55 12.5t-74 101.5q-49 88 -69 95q-18 4 -66 -52q-72 -92 -114 -39z" />
<glyph unicode="&#xfc;" horiz-adv-x="974" d="M27 680q2 12 15 103t25.5 147.5t28.5 97.5q29 84 29 96q0 20 14.5 48t32.5 26q23 -4 16.5 -67.5t-38.5 -165.5q-72 -225 -69 -319.5t85 -137.5q86 -43 213 37q68 41 86 78q16 31 27 182q6 115 13 145.5t27 30.5q47 0 68 -139q23 -166 141 -264q43 -37 68 -48.5t72 -17.5 q76 -8 73 -31q0 -10 -18 -24q-20 -16 -90 -2q-68 16 -128.5 54t-94.5 89q-31 45 -48.5 50t-44.5 -23q-70 -74 -103.5 -105t-66.5 -45q-39 -20 -103 -27.5t-112 1.5q-70 12 -103.5 77.5t-14.5 153.5zM113.5 1496q2.5 46 25.5 75q18 25 46 30t46.5 -13.5t15.5 -69t-24 -72.5 q-23 -23 -50.5 -26t-44.5 13.5t-14.5 62.5zM504 1412q-1 15 22 42q37 37 74 23.5t37 -64.5t-34 -64.5t-73 23.5q-25 25 -26 40z" />
<glyph unicode="&#x2000;" horiz-adv-x="819" />
<glyph unicode="&#x2001;" horiz-adv-x="1639" />
<glyph unicode="&#x2002;" horiz-adv-x="819" />
<glyph unicode="&#x2003;" horiz-adv-x="1639" />
<glyph unicode="&#x2004;" horiz-adv-x="546" />
<glyph unicode="&#x2005;" horiz-adv-x="409" />
<glyph unicode="&#x2006;" horiz-adv-x="273" />
<glyph unicode="&#x2007;" horiz-adv-x="273" />
<glyph unicode="&#x2008;" horiz-adv-x="204" />
<glyph unicode="&#x2009;" horiz-adv-x="327" />
<glyph unicode="&#x200a;" horiz-adv-x="91" />
<glyph unicode="&#x2010;" d="M20 754q1 10 11 24q16 18 66 18.5t118 -18.5q68 -18 135 -18q82 0 114 -9.5t32 -31.5q0 -106 -310 -35q-164 39 -166 70z" />
<glyph unicode="&#x2011;" d="M20 754q1 10 11 24q16 18 66 18.5t118 -18.5q68 -18 135 -18q82 0 114 -9.5t32 -31.5q0 -106 -310 -35q-164 39 -166 70z" />
<glyph unicode="&#x2012;" d="M20 754q1 10 11 24q16 18 66 18.5t118 -18.5q68 -18 135 -18q82 0 114 -9.5t32 -31.5q0 -106 -310 -35q-164 39 -166 70z" />
<glyph unicode="&#x2013;" horiz-adv-x="1064" d="M20 754q2 10 24 24q34 18 141.5 18.5t253.5 -18.5q147 -18 291 -18q176 0 245 -9.5t69 -31.5q0 -106 -667 -35q-353 39 -357 70z" />
<glyph unicode="&#x2014;" horiz-adv-x="2088" d="M20 754q4 10 47 24q69 18 284 18.5t508 -18.5q293 -18 581 -18q353 0 490.5 -9.5t137.5 -31.5q0 -106 -1334 -35q-705 39 -714 70z" />
<glyph unicode="&#x2019;" horiz-adv-x="215" d="M23.5 1082.5q9.5 50.5 70.5 232.5q19 57 39 84q18 18 35.5 19t24.5 -19q8 -23 -35 -150q-45 -133 -52 -194q-6 -68 -24 -84q-12 -12 -19.5 -8t-23.5 30q-25 39 -15.5 89.5z" />
<glyph unicode="&#x201c;" horiz-adv-x="595" d="M31 94q6 16 20 33q47 70 57.5 100.5t4.5 96.5q-8 84 10 84q14 0 29 -15q14 -20 27.5 -95t6.5 -103q-8 -29 -68.5 -91.5t-80.5 -62.5q-31 0 -6 53zM397 18q0 14 45 107q29 63 35 90t0 82q-6 61 2 86t47 25q18 0 25.5 -14.5t17.5 -69.5q14 -84 -5 -146.5t-79 -118.5 q-82 -78 -88 -41z" />
<glyph unicode="&#x201d;" horiz-adv-x="673" d="M29.5 1150q-19.5 48 1.5 134q26 128 100 191q20 16 49 24t50.5 5t21.5 -17q0 -16 -68 -92l-69 -74l8 -109q6 -82 3 -96t-24 -14q-53 0 -72.5 48zM313 1079q0 41 21.5 104.5t46.5 92.5q4 8 30.5 43t42 54.5t40.5 45t43 35.5q35 23 72.5 23t43.5 -23q4 -18 -30 -51 q-59 -53 -90 -82t-60 -61.5t-39 -49t-17 -45t-6 -50t7 -60.5q4 -47 2 -60.5t-12 -13.5q-23 0 -59 38t-36 60z" />
<glyph unicode="&#x2022;" horiz-adv-x="430" d="M33 897q-31 86 7 167t116 97q80 18 174 -45q74 -51 80 -93t-54 -97q-43 -43 -102 -67.5t-115 -24.5q-47 0 -70.5 14t-35.5 49z" />
<glyph unicode="&#x202f;" horiz-adv-x="327" />
<glyph unicode="&#x205f;" horiz-adv-x="409" />
<glyph unicode="&#x20ac;" horiz-adv-x="1187" d="M20.5 559.5q-0.5 18.5 65.5 18.5q58 0 117 16q113 37 243 2q70 -18 103 -18q29 0 67.5 -18.5t38.5 -33.5q0 -12 -57 -2q-57 8 -168 6t-125 -14q-33 -27 -15.5 -106.5t66.5 -135.5q80 -88 277 -81q59 2 83.5 9t51.5 25q20 16 33.5 23.5t21.5 8.5t11.5 -6t3.5 -24 q0 -29 -31 -48t-105 -38q-78 -20 -135 -6q-61 14 -90 15q-53 0 -131 72.5t-92 137.5q-16 66 -42 111t-52 55q-29 12 -86 13q-53 0 -53.5 18.5zM121 790.5q-10 20.5 13.5 34t72.5 11.5l65 -2l21 53q37 94 137 212t182 161q45 23 70 24q39 0 8 -24q-12 -12 -39 -25 q-76 -37 -178 -137q-51 -49 -93 -122t-42 -110q0 -35 22.5 -47t77.5 -4q29 4 175.5 6t185.5 13q49 14 88 -7q68 -35 37 -71q-10 -10 -22.5 -9t-51.5 15q-51 18 -129 21t-127 -11q-43 -14 -158 -16q-80 0 -100.5 -6.5t-42.5 -28.5q-25 -31 -36 -32t-28 24q-12 23 -57 41 q-41 16 -51 36.5zM788 1333q0 14 82 50.5t150 52.5q66 14 90 18q12 2 34.5 -19.5t22.5 -37.5q0 -10 -15 -12.5t-60 1.5q-49 6 -80 1t-84 -25q-45 -16 -71 -24.5t-42 -11.5t-21.5 -2t-5.5 9z" />
<glyph unicode="&#x25fc;" horiz-adv-x="1013" d="M0 0v1014h1014v-1014h-1014z" />
</font>
</defs>
</svg>
